<?xml version="1.0" encoding="utf-8"?>
<svg xmlns="http://www.w3.org/2000/svg" xmlns:xlink="http://www.w3.org/1999/xlink" width="600" height="400" viewBox="0 0 2400 1600">
<defs>
  <clipPath id="clip420">
    <rect x="0" y="0" width="2400" height="1600"/>
  </clipPath>
</defs>
<path clip-path="url(#clip420)" d="M0 1600 L2400 1600 L2400 0 L0 0  Z" fill="#ffffff" fill-rule="evenodd" fill-opacity="1"/>
<defs>
  <clipPath id="clip421">
    <rect x="480" y="0" width="1681" height="1600"/>
  </clipPath>
</defs>
<path clip-path="url(#clip420)" d="M192.709 1419.08 L2352.76 1419.08 L2352.76 123.472 L192.709 123.472  Z" fill="#ffffff" fill-rule="evenodd" fill-opacity="1"/>
<defs>
  <clipPath id="clip422">
    <rect x="192" y="123" width="2161" height="1297"/>
  </clipPath>
</defs>
<polyline clip-path="url(#clip422)" style="stroke:#000000; stroke-linecap:round; stroke-linejoin:round; stroke-width:2; stroke-opacity:0.1; fill:none" points="253.843,1419.08 253.843,123.472 "/>
<polyline clip-path="url(#clip422)" style="stroke:#000000; stroke-linecap:round; stroke-linejoin:round; stroke-width:2; stroke-opacity:0.1; fill:none" points="355.732,1419.08 355.732,123.472 "/>
<polyline clip-path="url(#clip422)" style="stroke:#000000; stroke-linecap:round; stroke-linejoin:round; stroke-width:2; stroke-opacity:0.1; fill:none" points="457.621,1419.08 457.621,123.472 "/>
<polyline clip-path="url(#clip422)" style="stroke:#000000; stroke-linecap:round; stroke-linejoin:round; stroke-width:2; stroke-opacity:0.1; fill:none" points="559.51,1419.08 559.51,123.472 "/>
<polyline clip-path="url(#clip422)" style="stroke:#000000; stroke-linecap:round; stroke-linejoin:round; stroke-width:2; stroke-opacity:0.1; fill:none" points="661.399,1419.08 661.399,123.472 "/>
<polyline clip-path="url(#clip422)" style="stroke:#000000; stroke-linecap:round; stroke-linejoin:round; stroke-width:2; stroke-opacity:0.1; fill:none" points="763.288,1419.08 763.288,123.472 "/>
<polyline clip-path="url(#clip422)" style="stroke:#000000; stroke-linecap:round; stroke-linejoin:round; stroke-width:2; stroke-opacity:0.1; fill:none" points="865.177,1419.08 865.177,123.472 "/>
<polyline clip-path="url(#clip422)" style="stroke:#000000; stroke-linecap:round; stroke-linejoin:round; stroke-width:2; stroke-opacity:0.1; fill:none" points="967.066,1419.08 967.066,123.472 "/>
<polyline clip-path="url(#clip422)" style="stroke:#000000; stroke-linecap:round; stroke-linejoin:round; stroke-width:2; stroke-opacity:0.1; fill:none" points="1068.95,1419.08 1068.95,123.472 "/>
<polyline clip-path="url(#clip422)" style="stroke:#000000; stroke-linecap:round; stroke-linejoin:round; stroke-width:2; stroke-opacity:0.1; fill:none" points="1170.84,1419.08 1170.84,123.472 "/>
<polyline clip-path="url(#clip422)" style="stroke:#000000; stroke-linecap:round; stroke-linejoin:round; stroke-width:2; stroke-opacity:0.1; fill:none" points="1272.73,1419.08 1272.73,123.472 "/>
<polyline clip-path="url(#clip422)" style="stroke:#000000; stroke-linecap:round; stroke-linejoin:round; stroke-width:2; stroke-opacity:0.1; fill:none" points="1374.62,1419.08 1374.62,123.472 "/>
<polyline clip-path="url(#clip422)" style="stroke:#000000; stroke-linecap:round; stroke-linejoin:round; stroke-width:2; stroke-opacity:0.1; fill:none" points="1476.51,1419.08 1476.51,123.472 "/>
<polyline clip-path="url(#clip422)" style="stroke:#000000; stroke-linecap:round; stroke-linejoin:round; stroke-width:2; stroke-opacity:0.1; fill:none" points="1578.4,1419.08 1578.4,123.472 "/>
<polyline clip-path="url(#clip422)" style="stroke:#000000; stroke-linecap:round; stroke-linejoin:round; stroke-width:2; stroke-opacity:0.1; fill:none" points="1680.29,1419.08 1680.29,123.472 "/>
<polyline clip-path="url(#clip422)" style="stroke:#000000; stroke-linecap:round; stroke-linejoin:round; stroke-width:2; stroke-opacity:0.1; fill:none" points="1782.18,1419.08 1782.18,123.472 "/>
<polyline clip-path="url(#clip422)" style="stroke:#000000; stroke-linecap:round; stroke-linejoin:round; stroke-width:2; stroke-opacity:0.1; fill:none" points="1884.07,1419.08 1884.07,123.472 "/>
<polyline clip-path="url(#clip422)" style="stroke:#000000; stroke-linecap:round; stroke-linejoin:round; stroke-width:2; stroke-opacity:0.1; fill:none" points="1985.96,1419.08 1985.96,123.472 "/>
<polyline clip-path="url(#clip422)" style="stroke:#000000; stroke-linecap:round; stroke-linejoin:round; stroke-width:2; stroke-opacity:0.1; fill:none" points="2087.84,1419.08 2087.84,123.472 "/>
<polyline clip-path="url(#clip422)" style="stroke:#000000; stroke-linecap:round; stroke-linejoin:round; stroke-width:2; stroke-opacity:0.1; fill:none" points="2189.73,1419.08 2189.73,123.472 "/>
<polyline clip-path="url(#clip422)" style="stroke:#000000; stroke-linecap:round; stroke-linejoin:round; stroke-width:2; stroke-opacity:0.1; fill:none" points="2291.62,1419.08 2291.62,123.472 "/>
<polyline clip-path="url(#clip422)" style="stroke:#000000; stroke-linecap:round; stroke-linejoin:round; stroke-width:2; stroke-opacity:0.1; fill:none" points="192.709,1146.09 2352.76,1146.09 "/>
<polyline clip-path="url(#clip422)" style="stroke:#000000; stroke-linecap:round; stroke-linejoin:round; stroke-width:2; stroke-opacity:0.1; fill:none" points="192.709,856.226 2352.76,856.226 "/>
<polyline clip-path="url(#clip422)" style="stroke:#000000; stroke-linecap:round; stroke-linejoin:round; stroke-width:2; stroke-opacity:0.1; fill:none" points="192.709,566.364 2352.76,566.364 "/>
<polyline clip-path="url(#clip422)" style="stroke:#000000; stroke-linecap:round; stroke-linejoin:round; stroke-width:2; stroke-opacity:0.1; fill:none" points="192.709,276.502 2352.76,276.502 "/>
<polyline clip-path="url(#clip420)" style="stroke:#000000; stroke-linecap:round; stroke-linejoin:round; stroke-width:4; stroke-opacity:1; fill:none" points="192.709,1419.08 2352.76,1419.08 "/>
<polyline clip-path="url(#clip420)" style="stroke:#000000; stroke-linecap:round; stroke-linejoin:round; stroke-width:4; stroke-opacity:1; fill:none" points="253.843,1419.08 253.843,1400.18 "/>
<polyline clip-path="url(#clip420)" style="stroke:#000000; stroke-linecap:round; stroke-linejoin:round; stroke-width:4; stroke-opacity:1; fill:none" points="355.732,1419.08 355.732,1400.18 "/>
<polyline clip-path="url(#clip420)" style="stroke:#000000; stroke-linecap:round; stroke-linejoin:round; stroke-width:4; stroke-opacity:1; fill:none" points="457.621,1419.08 457.621,1400.18 "/>
<polyline clip-path="url(#clip420)" style="stroke:#000000; stroke-linecap:round; stroke-linejoin:round; stroke-width:4; stroke-opacity:1; fill:none" points="559.51,1419.08 559.51,1400.18 "/>
<polyline clip-path="url(#clip420)" style="stroke:#000000; stroke-linecap:round; stroke-linejoin:round; stroke-width:4; stroke-opacity:1; fill:none" points="661.399,1419.08 661.399,1400.18 "/>
<polyline clip-path="url(#clip420)" style="stroke:#000000; stroke-linecap:round; stroke-linejoin:round; stroke-width:4; stroke-opacity:1; fill:none" points="763.288,1419.08 763.288,1400.18 "/>
<polyline clip-path="url(#clip420)" style="stroke:#000000; stroke-linecap:round; stroke-linejoin:round; stroke-width:4; stroke-opacity:1; fill:none" points="865.177,1419.08 865.177,1400.18 "/>
<polyline clip-path="url(#clip420)" style="stroke:#000000; stroke-linecap:round; stroke-linejoin:round; stroke-width:4; stroke-opacity:1; fill:none" points="967.066,1419.08 967.066,1400.18 "/>
<polyline clip-path="url(#clip420)" style="stroke:#000000; stroke-linecap:round; stroke-linejoin:round; stroke-width:4; stroke-opacity:1; fill:none" points="1068.95,1419.08 1068.95,1400.18 "/>
<polyline clip-path="url(#clip420)" style="stroke:#000000; stroke-linecap:round; stroke-linejoin:round; stroke-width:4; stroke-opacity:1; fill:none" points="1170.84,1419.08 1170.84,1400.18 "/>
<polyline clip-path="url(#clip420)" style="stroke:#000000; stroke-linecap:round; stroke-linejoin:round; stroke-width:4; stroke-opacity:1; fill:none" points="1272.73,1419.08 1272.73,1400.18 "/>
<polyline clip-path="url(#clip420)" style="stroke:#000000; stroke-linecap:round; stroke-linejoin:round; stroke-width:4; stroke-opacity:1; fill:none" points="1374.62,1419.08 1374.62,1400.18 "/>
<polyline clip-path="url(#clip420)" style="stroke:#000000; stroke-linecap:round; stroke-linejoin:round; stroke-width:4; stroke-opacity:1; fill:none" points="1476.51,1419.08 1476.51,1400.18 "/>
<polyline clip-path="url(#clip420)" style="stroke:#000000; stroke-linecap:round; stroke-linejoin:round; stroke-width:4; stroke-opacity:1; fill:none" points="1578.4,1419.08 1578.4,1400.18 "/>
<polyline clip-path="url(#clip420)" style="stroke:#000000; stroke-linecap:round; stroke-linejoin:round; stroke-width:4; stroke-opacity:1; fill:none" points="1680.29,1419.08 1680.29,1400.18 "/>
<polyline clip-path="url(#clip420)" style="stroke:#000000; stroke-linecap:round; stroke-linejoin:round; stroke-width:4; stroke-opacity:1; fill:none" points="1782.18,1419.08 1782.18,1400.18 "/>
<polyline clip-path="url(#clip420)" style="stroke:#000000; stroke-linecap:round; stroke-linejoin:round; stroke-width:4; stroke-opacity:1; fill:none" points="1884.07,1419.08 1884.07,1400.18 "/>
<polyline clip-path="url(#clip420)" style="stroke:#000000; stroke-linecap:round; stroke-linejoin:round; stroke-width:4; stroke-opacity:1; fill:none" points="1985.96,1419.08 1985.96,1400.18 "/>
<polyline clip-path="url(#clip420)" style="stroke:#000000; stroke-linecap:round; stroke-linejoin:round; stroke-width:4; stroke-opacity:1; fill:none" points="2087.84,1419.08 2087.84,1400.18 "/>
<polyline clip-path="url(#clip420)" style="stroke:#000000; stroke-linecap:round; stroke-linejoin:round; stroke-width:4; stroke-opacity:1; fill:none" points="2189.73,1419.08 2189.73,1400.18 "/>
<polyline clip-path="url(#clip420)" style="stroke:#000000; stroke-linecap:round; stroke-linejoin:round; stroke-width:4; stroke-opacity:1; fill:none" points="2291.62,1419.08 2291.62,1400.18 "/>
<path clip-path="url(#clip420)" d="M253.843 1450 Q250.231 1450 248.403 1453.56 Q246.597 1457.1 246.597 1464.23 Q246.597 1471.34 248.403 1474.9 Q250.231 1478.44 253.843 1478.44 Q257.477 1478.44 259.282 1474.9 Q261.111 1471.34 261.111 1464.23 Q261.111 1457.1 259.282 1453.56 Q257.477 1450 253.843 1450 M253.843 1446.29 Q259.653 1446.29 262.708 1450.9 Q265.787 1455.48 265.787 1464.23 Q265.787 1472.96 262.708 1477.57 Q259.653 1482.15 253.843 1482.15 Q248.032 1482.15 244.954 1477.57 Q241.898 1472.96 241.898 1464.23 Q241.898 1455.48 244.954 1450.9 Q248.032 1446.29 253.843 1446.29 Z" fill="#000000" fill-rule="nonzero" fill-opacity="1" /><path clip-path="url(#clip420)" d="M346.114 1477.54 L353.752 1477.54 L353.752 1451.18 L345.442 1452.84 L345.442 1448.58 L353.706 1446.92 L358.382 1446.92 L358.382 1477.54 L366.021 1477.54 L366.021 1481.48 L346.114 1481.48 L346.114 1477.54 Z" fill="#000000" fill-rule="nonzero" fill-opacity="1" /><path clip-path="url(#clip420)" d="M452.273 1477.54 L468.593 1477.54 L468.593 1481.48 L446.648 1481.48 L446.648 1477.54 Q449.31 1474.79 453.894 1470.16 Q458.5 1465.5 459.681 1464.16 Q461.926 1461.64 462.806 1459.9 Q463.708 1458.14 463.708 1456.45 Q463.708 1453.7 461.764 1451.96 Q459.843 1450.23 456.741 1450.23 Q454.542 1450.23 452.088 1450.99 Q449.658 1451.76 446.88 1453.31 L446.88 1448.58 Q449.704 1447.45 452.158 1446.87 Q454.611 1446.29 456.648 1446.29 Q462.019 1446.29 465.213 1448.98 Q468.408 1451.66 468.408 1456.15 Q468.408 1458.28 467.597 1460.2 Q466.81 1462.1 464.704 1464.69 Q464.125 1465.37 461.023 1468.58 Q457.921 1471.78 452.273 1477.54 Z" fill="#000000" fill-rule="nonzero" fill-opacity="1" /><path clip-path="url(#clip420)" d="M563.757 1462.84 Q567.114 1463.56 568.989 1465.83 Q570.887 1468.1 570.887 1471.43 Q570.887 1476.55 567.368 1479.35 Q563.85 1482.15 557.368 1482.15 Q555.192 1482.15 552.878 1481.71 Q550.586 1481.29 548.132 1480.44 L548.132 1475.92 Q550.077 1477.06 552.392 1477.63 Q554.706 1478.21 557.229 1478.21 Q561.628 1478.21 563.919 1476.48 Q566.234 1474.74 566.234 1471.43 Q566.234 1468.38 564.081 1466.66 Q561.952 1464.93 558.132 1464.93 L554.104 1464.93 L554.104 1461.08 L558.317 1461.08 Q561.766 1461.08 563.595 1459.72 Q565.424 1458.33 565.424 1455.74 Q565.424 1453.07 563.526 1451.66 Q561.651 1450.23 558.132 1450.23 Q556.211 1450.23 554.012 1450.64 Q551.813 1451.06 549.174 1451.94 L549.174 1447.77 Q551.836 1447.03 554.151 1446.66 Q556.489 1446.29 558.549 1446.29 Q563.873 1446.29 566.975 1448.72 Q570.077 1451.13 570.077 1455.25 Q570.077 1458.12 568.433 1460.11 Q566.79 1462.08 563.757 1462.84 Z" fill="#000000" fill-rule="nonzero" fill-opacity="1" /><path clip-path="url(#clip420)" d="M664.408 1450.99 L652.602 1469.44 L664.408 1469.44 L664.408 1450.99 M663.181 1446.92 L669.061 1446.92 L669.061 1469.44 L673.991 1469.44 L673.991 1473.33 L669.061 1473.33 L669.061 1481.48 L664.408 1481.48 L664.408 1473.33 L648.806 1473.33 L648.806 1468.82 L663.181 1446.92 Z" fill="#000000" fill-rule="nonzero" fill-opacity="1" /><path clip-path="url(#clip420)" d="M753.565 1446.92 L771.922 1446.92 L771.922 1450.85 L757.848 1450.85 L757.848 1459.32 Q758.866 1458.98 759.885 1458.82 Q760.903 1458.63 761.922 1458.63 Q767.709 1458.63 771.088 1461.8 Q774.468 1464.97 774.468 1470.39 Q774.468 1475.97 770.996 1479.07 Q767.524 1482.15 761.204 1482.15 Q759.028 1482.15 756.76 1481.78 Q754.514 1481.41 752.107 1480.67 L752.107 1475.97 Q754.19 1477.1 756.413 1477.66 Q758.635 1478.21 761.112 1478.21 Q765.116 1478.21 767.454 1476.11 Q769.792 1474 769.792 1470.39 Q769.792 1466.78 767.454 1464.67 Q765.116 1462.57 761.112 1462.57 Q759.237 1462.57 757.362 1462.98 Q755.51 1463.4 753.565 1464.28 L753.565 1446.92 Z" fill="#000000" fill-rule="nonzero" fill-opacity="1" /><path clip-path="url(#clip420)" d="M865.582 1462.33 Q862.433 1462.33 860.582 1464.49 Q858.753 1466.64 858.753 1470.39 Q858.753 1474.12 860.582 1476.29 Q862.433 1478.44 865.582 1478.44 Q868.73 1478.44 870.558 1476.29 Q872.41 1474.12 872.41 1470.39 Q872.41 1466.64 870.558 1464.49 Q868.73 1462.33 865.582 1462.33 M874.864 1447.68 L874.864 1451.94 Q873.105 1451.11 871.299 1450.67 Q869.517 1450.23 867.758 1450.23 Q863.128 1450.23 860.674 1453.35 Q858.244 1456.48 857.896 1462.8 Q859.262 1460.78 861.322 1459.72 Q863.383 1458.63 865.859 1458.63 Q871.068 1458.63 874.077 1461.8 Q877.109 1464.95 877.109 1470.39 Q877.109 1475.71 873.961 1478.93 Q870.813 1482.15 865.582 1482.15 Q859.586 1482.15 856.415 1477.57 Q853.244 1472.96 853.244 1464.23 Q853.244 1456.04 857.133 1451.18 Q861.021 1446.29 867.572 1446.29 Q869.332 1446.29 871.114 1446.64 Q872.92 1446.99 874.864 1447.68 Z" fill="#000000" fill-rule="nonzero" fill-opacity="1" /><path clip-path="url(#clip420)" d="M955.954 1446.92 L978.177 1446.92 L978.177 1448.91 L965.63 1481.48 L960.746 1481.48 L972.552 1450.85 L955.954 1450.85 L955.954 1446.92 Z" fill="#000000" fill-rule="nonzero" fill-opacity="1" /><path clip-path="url(#clip420)" d="M1068.95 1465.07 Q1065.62 1465.07 1063.7 1466.85 Q1061.8 1468.63 1061.8 1471.75 Q1061.8 1474.88 1063.7 1476.66 Q1065.62 1478.44 1068.95 1478.44 Q1072.29 1478.44 1074.21 1476.66 Q1076.13 1474.86 1076.13 1471.75 Q1076.13 1468.63 1074.21 1466.85 Q1072.31 1465.07 1068.95 1465.07 M1064.28 1463.07 Q1061.27 1462.33 1059.58 1460.27 Q1057.91 1458.21 1057.91 1455.25 Q1057.91 1451.11 1060.85 1448.7 Q1063.82 1446.29 1068.95 1446.29 Q1074.12 1446.29 1077.06 1448.7 Q1080 1451.11 1080 1455.25 Q1080 1458.21 1078.31 1460.27 Q1076.64 1462.33 1073.65 1463.07 Q1077.03 1463.86 1078.91 1466.15 Q1080.81 1468.44 1080.81 1471.75 Q1080.81 1476.78 1077.73 1479.46 Q1074.67 1482.15 1068.95 1482.15 Q1063.24 1482.15 1060.16 1479.46 Q1057.1 1476.78 1057.1 1471.75 Q1057.1 1468.44 1059 1466.15 Q1060.9 1463.86 1064.28 1463.07 M1062.57 1455.69 Q1062.57 1458.38 1064.23 1459.88 Q1065.92 1461.38 1068.95 1461.38 Q1071.96 1461.38 1073.65 1459.88 Q1075.37 1458.38 1075.37 1455.69 Q1075.37 1453.01 1073.65 1451.5 Q1071.96 1450 1068.95 1450 Q1065.92 1450 1064.23 1451.5 Q1062.57 1453.01 1062.57 1455.69 Z" fill="#000000" fill-rule="nonzero" fill-opacity="1" /><path clip-path="url(#clip420)" d="M1161.14 1480.76 L1161.14 1476.5 Q1162.9 1477.33 1164.71 1477.77 Q1166.51 1478.21 1168.25 1478.21 Q1172.88 1478.21 1175.31 1475.11 Q1177.76 1471.99 1178.11 1465.64 Q1176.77 1467.63 1174.71 1468.7 Q1172.65 1469.76 1170.15 1469.76 Q1164.96 1469.76 1161.93 1466.64 Q1158.92 1463.49 1158.92 1458.05 Q1158.92 1452.73 1162.07 1449.51 Q1165.22 1446.29 1170.45 1446.29 Q1176.45 1446.29 1179.59 1450.9 Q1182.76 1455.48 1182.76 1464.23 Q1182.76 1472.4 1178.88 1477.29 Q1175.01 1482.15 1168.46 1482.15 Q1166.7 1482.15 1164.89 1481.8 Q1163.09 1481.45 1161.14 1480.76 M1170.45 1466.11 Q1173.6 1466.11 1175.43 1463.95 Q1177.28 1461.8 1177.28 1458.05 Q1177.28 1454.32 1175.43 1452.17 Q1173.6 1450 1170.45 1450 Q1167.3 1450 1165.45 1452.17 Q1163.62 1454.32 1163.62 1458.05 Q1163.62 1461.8 1165.45 1463.95 Q1167.3 1466.11 1170.45 1466.11 Z" fill="#000000" fill-rule="nonzero" fill-opacity="1" /><path clip-path="url(#clip420)" d="M1247.42 1477.54 L1255.06 1477.54 L1255.06 1451.18 L1246.75 1452.84 L1246.75 1448.58 L1255.01 1446.92 L1259.69 1446.92 L1259.69 1477.54 L1267.33 1477.54 L1267.33 1481.48 L1247.42 1481.48 L1247.42 1477.54 Z" fill="#000000" fill-rule="nonzero" fill-opacity="1" /><path clip-path="url(#clip420)" d="M1286.77 1450 Q1283.16 1450 1281.33 1453.56 Q1279.53 1457.1 1279.53 1464.23 Q1279.53 1471.34 1281.33 1474.9 Q1283.16 1478.44 1286.77 1478.44 Q1290.41 1478.44 1292.21 1474.9 Q1294.04 1471.34 1294.04 1464.23 Q1294.04 1457.1 1292.21 1453.56 Q1290.41 1450 1286.77 1450 M1286.77 1446.29 Q1292.58 1446.29 1295.64 1450.9 Q1298.72 1455.48 1298.72 1464.23 Q1298.72 1472.96 1295.64 1477.57 Q1292.58 1482.15 1286.77 1482.15 Q1280.96 1482.15 1277.88 1477.57 Q1274.83 1472.96 1274.83 1464.23 Q1274.83 1455.48 1277.88 1450.9 Q1280.96 1446.29 1286.77 1446.29 Z" fill="#000000" fill-rule="nonzero" fill-opacity="1" /><path clip-path="url(#clip420)" d="M1349.92 1477.54 L1357.56 1477.54 L1357.56 1451.18 L1349.25 1452.84 L1349.25 1448.58 L1357.52 1446.92 L1362.19 1446.92 L1362.19 1477.54 L1369.83 1477.54 L1369.83 1481.48 L1349.92 1481.48 L1349.92 1477.54 Z" fill="#000000" fill-rule="nonzero" fill-opacity="1" /><path clip-path="url(#clip420)" d="M1380.08 1477.54 L1387.72 1477.54 L1387.72 1451.18 L1379.41 1452.84 L1379.41 1448.58 L1387.68 1446.92 L1392.35 1446.92 L1392.35 1477.54 L1399.99 1477.54 L1399.99 1481.48 L1380.08 1481.48 L1380.08 1477.54 Z" fill="#000000" fill-rule="nonzero" fill-opacity="1" /><path clip-path="url(#clip420)" d="M1452 1477.54 L1459.64 1477.54 L1459.64 1451.18 L1451.33 1452.84 L1451.33 1448.58 L1459.59 1446.92 L1464.27 1446.92 L1464.27 1477.54 L1471.9 1477.54 L1471.9 1481.48 L1452 1481.48 L1452 1477.54 Z" fill="#000000" fill-rule="nonzero" fill-opacity="1" /><path clip-path="url(#clip420)" d="M1485.38 1477.54 L1501.7 1477.54 L1501.7 1481.48 L1479.75 1481.48 L1479.75 1477.54 Q1482.41 1474.79 1487 1470.16 Q1491.6 1465.5 1492.78 1464.16 Q1495.03 1461.64 1495.91 1459.9 Q1496.81 1458.14 1496.81 1456.45 Q1496.81 1453.7 1494.87 1451.96 Q1492.95 1450.23 1489.84 1450.23 Q1487.64 1450.23 1485.19 1450.99 Q1482.76 1451.76 1479.98 1453.31 L1479.98 1448.58 Q1482.81 1447.45 1485.26 1446.87 Q1487.71 1446.29 1489.75 1446.29 Q1495.12 1446.29 1498.32 1448.98 Q1501.51 1451.66 1501.51 1456.15 Q1501.51 1458.28 1500.7 1460.2 Q1499.91 1462.1 1497.81 1464.69 Q1497.23 1465.37 1494.13 1468.58 Q1491.02 1471.78 1485.38 1477.54 Z" fill="#000000" fill-rule="nonzero" fill-opacity="1" /><path clip-path="url(#clip420)" d="M1553.41 1477.54 L1561.05 1477.54 L1561.05 1451.18 L1552.74 1452.84 L1552.74 1448.58 L1561 1446.92 L1565.68 1446.92 L1565.68 1477.54 L1573.32 1477.54 L1573.32 1481.48 L1553.41 1481.48 L1553.41 1477.54 Z" fill="#000000" fill-rule="nonzero" fill-opacity="1" /><path clip-path="url(#clip420)" d="M1596.93 1462.84 Q1600.29 1463.56 1602.16 1465.83 Q1604.06 1468.1 1604.06 1471.43 Q1604.06 1476.55 1600.54 1479.35 Q1597.02 1482.15 1590.54 1482.15 Q1588.36 1482.15 1586.05 1481.71 Q1583.76 1481.29 1581.3 1480.44 L1581.3 1475.92 Q1583.25 1477.06 1585.56 1477.63 Q1587.88 1478.21 1590.4 1478.21 Q1594.8 1478.21 1597.09 1476.48 Q1599.41 1474.74 1599.41 1471.43 Q1599.41 1468.38 1597.25 1466.66 Q1595.12 1464.93 1591.3 1464.93 L1587.28 1464.93 L1587.28 1461.08 L1591.49 1461.08 Q1594.94 1461.08 1596.77 1459.72 Q1598.6 1458.33 1598.6 1455.74 Q1598.6 1453.07 1596.7 1451.66 Q1594.82 1450.23 1591.3 1450.23 Q1589.38 1450.23 1587.18 1450.64 Q1584.99 1451.06 1582.35 1451.94 L1582.35 1447.77 Q1585.01 1447.03 1587.32 1446.66 Q1589.66 1446.29 1591.72 1446.29 Q1597.05 1446.29 1600.15 1448.72 Q1603.25 1451.13 1603.25 1455.25 Q1603.25 1458.12 1601.61 1460.11 Q1599.96 1462.08 1596.93 1462.84 Z" fill="#000000" fill-rule="nonzero" fill-opacity="1" /><path clip-path="url(#clip420)" d="M1654.73 1477.54 L1662.37 1477.54 L1662.37 1451.18 L1654.06 1452.84 L1654.06 1448.58 L1662.33 1446.92 L1667 1446.92 L1667 1477.54 L1674.64 1477.54 L1674.64 1481.48 L1654.73 1481.48 L1654.73 1477.54 Z" fill="#000000" fill-rule="nonzero" fill-opacity="1" /><path clip-path="url(#clip420)" d="M1696.93 1450.99 L1685.13 1469.44 L1696.93 1469.44 L1696.93 1450.99 M1695.71 1446.92 L1701.58 1446.92 L1701.58 1469.44 L1706.52 1469.44 L1706.52 1473.33 L1701.58 1473.33 L1701.58 1481.48 L1696.93 1481.48 L1696.93 1473.33 L1681.33 1473.33 L1681.33 1468.82 L1695.71 1446.92 Z" fill="#000000" fill-rule="nonzero" fill-opacity="1" /><path clip-path="url(#clip420)" d="M1757.36 1477.54 L1765 1477.54 L1765 1451.18 L1756.69 1452.84 L1756.69 1448.58 L1764.96 1446.92 L1769.63 1446.92 L1769.63 1477.54 L1777.27 1477.54 L1777.27 1481.48 L1757.36 1481.48 L1757.36 1477.54 Z" fill="#000000" fill-rule="nonzero" fill-opacity="1" /><path clip-path="url(#clip420)" d="M1786.76 1446.92 L1805.12 1446.92 L1805.12 1450.85 L1791.04 1450.85 L1791.04 1459.32 Q1792.06 1458.98 1793.08 1458.82 Q1794.1 1458.63 1795.12 1458.63 Q1800.9 1458.63 1804.28 1461.8 Q1807.66 1464.97 1807.66 1470.39 Q1807.66 1475.97 1804.19 1479.07 Q1800.72 1482.15 1794.4 1482.15 Q1792.22 1482.15 1789.96 1481.78 Q1787.71 1481.41 1785.3 1480.67 L1785.3 1475.97 Q1787.39 1477.1 1789.61 1477.66 Q1791.83 1478.21 1794.31 1478.21 Q1798.31 1478.21 1800.65 1476.11 Q1802.99 1474 1802.99 1470.39 Q1802.99 1466.78 1800.65 1464.67 Q1798.31 1462.57 1794.31 1462.57 Q1792.43 1462.57 1790.56 1462.98 Q1788.71 1463.4 1786.76 1464.28 L1786.76 1446.92 Z" fill="#000000" fill-rule="nonzero" fill-opacity="1" /><path clip-path="url(#clip420)" d="M1858.67 1477.54 L1866.31 1477.54 L1866.31 1451.18 L1858 1452.84 L1858 1448.58 L1866.27 1446.92 L1870.94 1446.92 L1870.94 1477.54 L1878.58 1477.54 L1878.58 1481.48 L1858.67 1481.48 L1858.67 1477.54 Z" fill="#000000" fill-rule="nonzero" fill-opacity="1" /><path clip-path="url(#clip420)" d="M1898.6 1462.33 Q1895.46 1462.33 1893.6 1464.49 Q1891.77 1466.64 1891.77 1470.39 Q1891.77 1474.12 1893.6 1476.29 Q1895.46 1478.44 1898.6 1478.44 Q1901.75 1478.44 1903.58 1476.29 Q1905.43 1474.12 1905.43 1470.39 Q1905.43 1466.64 1903.58 1464.49 Q1901.75 1462.33 1898.6 1462.33 M1907.89 1447.68 L1907.89 1451.94 Q1906.13 1451.11 1904.32 1450.67 Q1902.54 1450.23 1900.78 1450.23 Q1896.15 1450.23 1893.7 1453.35 Q1891.27 1456.48 1890.92 1462.8 Q1892.28 1460.78 1894.34 1459.72 Q1896.4 1458.63 1898.88 1458.63 Q1904.09 1458.63 1907.1 1461.8 Q1910.13 1464.95 1910.13 1470.39 Q1910.13 1475.71 1906.98 1478.93 Q1903.83 1482.15 1898.6 1482.15 Q1892.61 1482.15 1889.44 1477.57 Q1886.27 1472.96 1886.27 1464.23 Q1886.27 1456.04 1890.15 1451.18 Q1894.04 1446.29 1900.59 1446.29 Q1902.35 1446.29 1904.14 1446.64 Q1905.94 1446.99 1907.89 1447.68 Z" fill="#000000" fill-rule="nonzero" fill-opacity="1" /><path clip-path="url(#clip420)" d="M1961.09 1477.54 L1968.73 1477.54 L1968.73 1451.18 L1960.42 1452.84 L1960.42 1448.58 L1968.69 1446.92 L1973.36 1446.92 L1973.36 1477.54 L1981 1477.54 L1981 1481.48 L1961.09 1481.48 L1961.09 1477.54 Z" fill="#000000" fill-rule="nonzero" fill-opacity="1" /><path clip-path="url(#clip420)" d="M1989.27 1446.92 L2011.49 1446.92 L2011.49 1448.91 L1998.94 1481.48 L1994.06 1481.48 L2005.86 1450.85 L1989.27 1450.85 L1989.27 1446.92 Z" fill="#000000" fill-rule="nonzero" fill-opacity="1" /><path clip-path="url(#clip420)" d="M2062.58 1477.54 L2070.22 1477.54 L2070.22 1451.18 L2061.91 1452.84 L2061.91 1448.58 L2070.17 1446.92 L2074.85 1446.92 L2074.85 1477.54 L2082.49 1477.54 L2082.49 1481.48 L2062.58 1481.48 L2062.58 1477.54 Z" fill="#000000" fill-rule="nonzero" fill-opacity="1" /><path clip-path="url(#clip420)" d="M2101.93 1465.07 Q2098.6 1465.07 2096.68 1466.85 Q2094.78 1468.63 2094.78 1471.75 Q2094.78 1474.88 2096.68 1476.66 Q2098.6 1478.44 2101.93 1478.44 Q2105.26 1478.44 2107.18 1476.66 Q2109.11 1474.86 2109.11 1471.75 Q2109.11 1468.63 2107.18 1466.85 Q2105.29 1465.07 2101.93 1465.07 M2097.25 1463.07 Q2094.24 1462.33 2092.56 1460.27 Q2090.89 1458.21 2090.89 1455.25 Q2090.89 1451.11 2093.83 1448.7 Q2096.79 1446.29 2101.93 1446.29 Q2107.09 1446.29 2110.03 1448.7 Q2112.97 1451.11 2112.97 1455.25 Q2112.97 1458.21 2111.28 1460.27 Q2109.62 1462.33 2106.63 1463.07 Q2110.01 1463.86 2111.88 1466.15 Q2113.78 1468.44 2113.78 1471.75 Q2113.78 1476.78 2110.7 1479.46 Q2107.65 1482.15 2101.93 1482.15 Q2096.21 1482.15 2093.13 1479.46 Q2090.08 1476.78 2090.08 1471.75 Q2090.08 1468.44 2091.98 1466.15 Q2093.87 1463.86 2097.25 1463.07 M2095.54 1455.69 Q2095.54 1458.38 2097.21 1459.88 Q2098.9 1461.38 2101.93 1461.38 Q2104.94 1461.38 2106.63 1459.88 Q2108.34 1458.38 2108.34 1455.69 Q2108.34 1453.01 2106.63 1451.5 Q2104.94 1450 2101.93 1450 Q2098.9 1450 2097.21 1451.5 Q2095.54 1453.01 2095.54 1455.69 Z" fill="#000000" fill-rule="nonzero" fill-opacity="1" /><path clip-path="url(#clip420)" d="M2164.51 1477.54 L2172.15 1477.54 L2172.15 1451.18 L2163.84 1452.84 L2163.84 1448.58 L2172.11 1446.92 L2176.78 1446.92 L2176.78 1477.54 L2184.42 1477.54 L2184.42 1481.48 L2164.51 1481.48 L2164.51 1477.54 Z" fill="#000000" fill-rule="nonzero" fill-opacity="1" /><path clip-path="url(#clip420)" d="M2194 1480.76 L2194 1476.5 Q2195.76 1477.33 2197.57 1477.77 Q2199.37 1478.21 2201.11 1478.21 Q2205.74 1478.21 2208.17 1475.11 Q2210.62 1471.99 2210.97 1465.64 Q2209.63 1467.63 2207.57 1468.7 Q2205.51 1469.76 2203.01 1469.76 Q2197.82 1469.76 2194.79 1466.64 Q2191.78 1463.49 2191.78 1458.05 Q2191.78 1452.73 2194.93 1449.51 Q2198.08 1446.29 2203.31 1446.29 Q2209.31 1446.29 2212.45 1450.9 Q2215.62 1455.48 2215.62 1464.23 Q2215.62 1472.4 2211.74 1477.29 Q2207.87 1482.15 2201.32 1482.15 Q2199.56 1482.15 2197.75 1481.8 Q2195.95 1481.45 2194 1480.76 M2203.31 1466.11 Q2206.46 1466.11 2208.29 1463.95 Q2210.14 1461.8 2210.14 1458.05 Q2210.14 1454.32 2208.29 1452.17 Q2206.46 1450 2203.31 1450 Q2200.16 1450 2198.31 1452.17 Q2196.48 1454.32 2196.48 1458.05 Q2196.48 1461.8 2198.31 1463.95 Q2200.16 1466.11 2203.31 1466.11 Z" fill="#000000" fill-rule="nonzero" fill-opacity="1" /><path clip-path="url(#clip420)" d="M2270.4 1477.54 L2286.72 1477.54 L2286.72 1481.48 L2264.77 1481.48 L2264.77 1477.54 Q2267.43 1474.79 2272.02 1470.16 Q2276.62 1465.5 2277.8 1464.16 Q2280.05 1461.64 2280.93 1459.9 Q2281.83 1458.14 2281.83 1456.45 Q2281.83 1453.7 2279.89 1451.96 Q2277.97 1450.23 2274.86 1450.23 Q2272.66 1450.23 2270.21 1450.99 Q2267.78 1451.76 2265 1453.31 L2265 1448.58 Q2267.83 1447.45 2270.28 1446.87 Q2272.73 1446.29 2274.77 1446.29 Q2280.14 1446.29 2283.34 1448.98 Q2286.53 1451.66 2286.53 1456.15 Q2286.53 1458.28 2285.72 1460.2 Q2284.93 1462.1 2282.83 1464.69 Q2282.25 1465.37 2279.15 1468.58 Q2276.04 1471.78 2270.4 1477.54 Z" fill="#000000" fill-rule="nonzero" fill-opacity="1" /><path clip-path="url(#clip420)" d="M2306.53 1450 Q2302.92 1450 2301.09 1453.56 Q2299.28 1457.1 2299.28 1464.23 Q2299.28 1471.34 2301.09 1474.9 Q2302.92 1478.44 2306.53 1478.44 Q2310.16 1478.44 2311.97 1474.9 Q2313.8 1471.34 2313.8 1464.23 Q2313.8 1457.1 2311.97 1453.56 Q2310.16 1450 2306.53 1450 M2306.53 1446.29 Q2312.34 1446.29 2315.4 1450.9 Q2318.47 1455.48 2318.47 1464.23 Q2318.47 1472.96 2315.4 1477.57 Q2312.34 1482.15 2306.53 1482.15 Q2300.72 1482.15 2297.64 1477.57 Q2294.59 1472.96 2294.59 1464.23 Q2294.59 1455.48 2297.64 1450.9 Q2300.72 1446.29 2306.53 1446.29 Z" fill="#000000" fill-rule="nonzero" fill-opacity="1" /><path clip-path="url(#clip420)" d="M1277.78 1507.42 Q1277.78 1508.26 1277.43 1509.87 Q1276.3 1514.41 1272.08 1517.54 Q1271.37 1518.12 1270.12 1518.86 Q1271.63 1519.86 1272.95 1521.69 Q1274.92 1524.72 1274.92 1528.81 Q1274.92 1530.71 1274.4 1533.03 Q1272.95 1538.41 1267.86 1542.27 Q1262.74 1546.04 1256.66 1546.04 Q1253.37 1546.04 1251.12 1544.3 Q1248.89 1542.53 1248.03 1539.57 L1243.55 1557.63 Q1243.45 1558.08 1242.87 1558.08 L1242.55 1558.08 Q1241.87 1558.08 1241.87 1557.31 L1252.05 1516.73 Q1252.73 1513.99 1253.82 1511.42 Q1254.92 1508.84 1256.43 1506.52 Q1257.98 1504.2 1259.75 1502.5 Q1261.52 1500.76 1263.71 1499.76 Q1265.9 1498.73 1268.22 1498.73 Q1273.08 1498.73 1275.85 1502.05 Q1277.78 1504.4 1277.78 1507.42 M1274.08 1506.27 Q1274.08 1504.27 1273.27 1502.88 Q1271.63 1500.24 1268.15 1500.24 Q1266.06 1500.24 1264.06 1501.21 Q1262.1 1502.14 1260.52 1503.75 Q1258.94 1505.36 1257.59 1507.55 Q1256.24 1509.74 1255.24 1512.13 Q1254.27 1514.48 1253.63 1517.05 L1249.67 1533.03 Q1249.28 1534.74 1249.28 1536.25 Q1249.28 1539.86 1251.28 1542.21 Q1253.27 1544.56 1256.72 1544.56 Q1261.29 1544.56 1265.22 1541.14 Q1268.64 1538.08 1270.05 1532.71 Q1270.86 1529.32 1270.86 1526.97 Q1270.86 1524.4 1269.93 1522.4 Q1269.25 1520.79 1267.93 1519.82 Q1265.48 1520.69 1263 1520.69 Q1261.81 1520.69 1261.17 1520.66 Q1260.55 1520.63 1259.65 1520.5 Q1258.78 1520.37 1258.36 1520.02 Q1257.98 1519.66 1257.98 1519.12 Q1257.98 1518.79 1258.04 1518.66 Q1258.17 1518.15 1258.59 1517.79 Q1259.01 1517.44 1259.49 1517.28 Q1259.97 1517.09 1260.78 1516.99 Q1261.62 1516.89 1262.16 1516.89 Q1262.71 1516.86 1263.64 1516.86 Q1265.83 1516.86 1268.06 1517.73 Q1268.89 1517.28 1269.8 1516.47 Q1272.66 1513.8 1273.63 1509.55 Q1274.08 1507.97 1274.08 1506.27 M1265.96 1518.73 Q1264.61 1518.37 1263.58 1518.37 Q1259.81 1518.37 1259.62 1518.99 Q1259.62 1519.05 1259.75 1519.12 Q1259.88 1519.15 1260.17 1519.18 Q1260.49 1519.18 1260.75 1519.21 Q1261.04 1519.24 1261.52 1519.24 Q1262 1519.24 1262.26 1519.24 Q1262.55 1519.24 1263.07 1519.24 Q1264.35 1519.24 1265.96 1518.73 Z" fill="#000000" fill-rule="nonzero" fill-opacity="1" /><path clip-path="url(#clip420)" d="M1296.27 1547.24 Q1296.27 1548.23 1295.46 1548.97 Q1294.67 1549.69 1293.81 1549.69 Q1293.02 1549.69 1292.52 1549.22 Q1292.05 1548.73 1292.05 1548.03 Q1292.05 1547.1 1292.84 1546.34 Q1293.63 1545.57 1294.55 1545.57 Q1295.32 1545.57 1295.79 1546.04 Q1296.27 1546.52 1296.27 1547.24 M1296.67 1569.49 Q1296.67 1569.67 1296.47 1570.39 Q1296.27 1571.09 1295.77 1572.17 Q1295.3 1573.23 1294.64 1574.22 Q1293.99 1575.21 1292.91 1575.91 Q1291.85 1576.61 1290.63 1576.61 Q1288.99 1576.61 1287.9 1575.53 Q1286.84 1574.45 1286.84 1572.82 Q1286.84 1571.95 1287.9 1569.13 Q1290.97 1560.92 1291.08 1560.58 Q1291.6 1559.3 1291.6 1558.17 Q1291.6 1557.65 1291.49 1557.34 Q1291.37 1557 1291.15 1556.89 Q1290.92 1556.75 1290.79 1556.73 Q1290.68 1556.71 1290.45 1556.71 Q1289.12 1556.71 1287.88 1558.06 Q1286.64 1559.41 1285.78 1562.43 Q1285.6 1563 1285.49 1563.13 Q1285.38 1563.27 1285.04 1563.27 Q1284.48 1563.24 1284.48 1562.79 Q1284.48 1562.66 1284.63 1562.14 Q1284.79 1561.6 1285.08 1560.79 Q1285.38 1559.95 1285.9 1559.1 Q1286.42 1558.22 1287.05 1557.45 Q1287.7 1556.68 1288.62 1556.19 Q1289.55 1555.69 1290.59 1555.69 Q1292.28 1555.69 1293.31 1556.8 Q1294.37 1557.88 1294.37 1559.48 Q1294.37 1560.36 1293.76 1561.91 Q1293.02 1563.94 1292.75 1564.6 L1290.95 1569.44 Q1290.29 1571.2 1290.09 1571.74 Q1289.91 1572.26 1289.75 1572.89 Q1289.62 1573.5 1289.62 1574.06 Q1289.62 1574.85 1289.86 1575.21 Q1290.13 1575.58 1290.72 1575.58 Q1292.34 1575.58 1293.54 1573.97 Q1294.73 1572.35 1295.43 1569.87 Q1295.46 1569.8 1295.48 1569.69 Q1295.66 1569.13 1295.84 1569.06 Q1295.93 1569.04 1296.11 1569.04 Q1296.67 1569.04 1296.67 1569.49 Z" fill="#000000" fill-rule="nonzero" fill-opacity="1" /><polyline clip-path="url(#clip420)" style="stroke:#000000; stroke-linecap:round; stroke-linejoin:round; stroke-width:4; stroke-opacity:1; fill:none" points="192.709,1419.08 192.709,123.472 "/>
<polyline clip-path="url(#clip420)" style="stroke:#000000; stroke-linecap:round; stroke-linejoin:round; stroke-width:4; stroke-opacity:1; fill:none" points="192.709,1146.09 211.607,1146.09 "/>
<polyline clip-path="url(#clip420)" style="stroke:#000000; stroke-linecap:round; stroke-linejoin:round; stroke-width:4; stroke-opacity:1; fill:none" points="192.709,856.226 211.607,856.226 "/>
<polyline clip-path="url(#clip420)" style="stroke:#000000; stroke-linecap:round; stroke-linejoin:round; stroke-width:4; stroke-opacity:1; fill:none" points="192.709,566.364 211.607,566.364 "/>
<polyline clip-path="url(#clip420)" style="stroke:#000000; stroke-linecap:round; stroke-linejoin:round; stroke-width:4; stroke-opacity:1; fill:none" points="192.709,276.502 211.607,276.502 "/>
<path clip-path="url(#clip420)" d="M50.9921 1146.54 L80.6679 1146.54 L80.6679 1150.48 L50.9921 1150.48 L50.9921 1146.54 Z" fill="#000000" fill-rule="nonzero" fill-opacity="1" /><path clip-path="url(#clip420)" d="M100.76 1131.89 Q97.1493 1131.89 95.3206 1135.45 Q93.515 1138.99 93.515 1146.12 Q93.515 1153.23 95.3206 1156.79 Q97.1493 1160.34 100.76 1160.34 Q104.395 1160.34 106.2 1156.79 Q108.029 1153.23 108.029 1146.12 Q108.029 1138.99 106.2 1135.45 Q104.395 1131.89 100.76 1131.89 M100.76 1128.18 Q106.571 1128.18 109.626 1132.79 Q112.705 1137.37 112.705 1146.12 Q112.705 1154.85 109.626 1159.46 Q106.571 1164.04 100.76 1164.04 Q94.9502 1164.04 91.8715 1159.46 Q88.816 1154.85 88.816 1146.12 Q88.816 1137.37 91.8715 1132.79 Q94.9502 1128.18 100.76 1128.18 Z" fill="#000000" fill-rule="nonzero" fill-opacity="1" /><path clip-path="url(#clip420)" d="M120.922 1157.49 L125.807 1157.49 L125.807 1163.37 L120.922 1163.37 L120.922 1157.49 Z" fill="#000000" fill-rule="nonzero" fill-opacity="1" /><path clip-path="url(#clip420)" d="M136.802 1159.43 L144.441 1159.43 L144.441 1133.07 L136.131 1134.73 L136.131 1130.48 L144.394 1128.81 L149.07 1128.81 L149.07 1159.43 L156.709 1159.43 L156.709 1163.37 L136.802 1163.37 L136.802 1159.43 Z" fill="#000000" fill-rule="nonzero" fill-opacity="1" /><path clip-path="url(#clip420)" d="M99.5335 842.025 Q95.9224 842.025 94.0937 845.59 Q92.2882 849.131 92.2882 856.261 Q92.2882 863.368 94.0937 866.932 Q95.9224 870.474 99.5335 870.474 Q103.168 870.474 104.973 866.932 Q106.802 863.368 106.802 856.261 Q106.802 849.131 104.973 845.59 Q103.168 842.025 99.5335 842.025 M99.5335 838.321 Q105.344 838.321 108.399 842.928 Q111.478 847.511 111.478 856.261 Q111.478 864.988 108.399 869.594 Q105.344 874.178 99.5335 874.178 Q93.7234 874.178 90.6447 869.594 Q87.5892 864.988 87.5892 856.261 Q87.5892 847.511 90.6447 842.928 Q93.7234 838.321 99.5335 838.321 Z" fill="#000000" fill-rule="nonzero" fill-opacity="1" /><path clip-path="url(#clip420)" d="M119.695 867.627 L124.58 867.627 L124.58 873.506 L119.695 873.506 L119.695 867.627 Z" fill="#000000" fill-rule="nonzero" fill-opacity="1" /><path clip-path="url(#clip420)" d="M144.765 842.025 Q141.154 842.025 139.325 845.59 Q137.519 849.131 137.519 856.261 Q137.519 863.368 139.325 866.932 Q141.154 870.474 144.765 870.474 Q148.399 870.474 150.205 866.932 Q152.033 863.368 152.033 856.261 Q152.033 849.131 150.205 845.59 Q148.399 842.025 144.765 842.025 M144.765 838.321 Q150.575 838.321 153.63 842.928 Q156.709 847.511 156.709 856.261 Q156.709 864.988 153.63 869.594 Q150.575 874.178 144.765 874.178 Q138.955 874.178 135.876 869.594 Q132.82 864.988 132.82 856.261 Q132.82 847.511 135.876 842.928 Q138.955 838.321 144.765 838.321 Z" fill="#000000" fill-rule="nonzero" fill-opacity="1" /><path clip-path="url(#clip420)" d="M100.76 552.163 Q97.1493 552.163 95.3206 555.728 Q93.515 559.269 93.515 566.399 Q93.515 573.505 95.3206 577.07 Q97.1493 580.612 100.76 580.612 Q104.395 580.612 106.2 577.07 Q108.029 573.505 108.029 566.399 Q108.029 559.269 106.2 555.728 Q104.395 552.163 100.76 552.163 M100.76 548.459 Q106.571 548.459 109.626 553.066 Q112.705 557.649 112.705 566.399 Q112.705 575.126 109.626 579.732 Q106.571 584.315 100.76 584.315 Q94.9502 584.315 91.8715 579.732 Q88.816 575.126 88.816 566.399 Q88.816 557.649 91.8715 553.066 Q94.9502 548.459 100.76 548.459 Z" fill="#000000" fill-rule="nonzero" fill-opacity="1" /><path clip-path="url(#clip420)" d="M120.922 577.764 L125.807 577.764 L125.807 583.644 L120.922 583.644 L120.922 577.764 Z" fill="#000000" fill-rule="nonzero" fill-opacity="1" /><path clip-path="url(#clip420)" d="M136.802 579.709 L144.441 579.709 L144.441 553.343 L136.131 555.01 L136.131 550.751 L144.394 549.084 L149.07 549.084 L149.07 579.709 L156.709 579.709 L156.709 583.644 L136.802 583.644 L136.802 579.709 Z" fill="#000000" fill-rule="nonzero" fill-opacity="1" /><path clip-path="url(#clip420)" d="M101.131 262.3 Q97.5197 262.3 95.691 265.865 Q93.8854 269.407 93.8854 276.537 Q93.8854 283.643 95.691 287.208 Q97.5197 290.749 101.131 290.749 Q104.765 290.749 106.571 287.208 Q108.399 283.643 108.399 276.537 Q108.399 269.407 106.571 265.865 Q104.765 262.3 101.131 262.3 M101.131 258.597 Q106.941 258.597 109.996 263.203 Q113.075 267.787 113.075 276.537 Q113.075 285.263 109.996 289.87 Q106.941 294.453 101.131 294.453 Q95.3206 294.453 92.2419 289.87 Q89.1864 285.263 89.1864 276.537 Q89.1864 267.787 92.2419 263.203 Q95.3206 258.597 101.131 258.597 Z" fill="#000000" fill-rule="nonzero" fill-opacity="1" /><path clip-path="url(#clip420)" d="M121.293 287.902 L126.177 287.902 L126.177 293.782 L121.293 293.782 L121.293 287.902 Z" fill="#000000" fill-rule="nonzero" fill-opacity="1" /><path clip-path="url(#clip420)" d="M140.39 289.847 L156.709 289.847 L156.709 293.782 L134.765 293.782 L134.765 289.847 Q137.427 287.092 142.01 282.462 Q146.617 277.81 147.797 276.467 Q150.043 273.944 150.922 272.208 Q151.825 270.449 151.825 268.759 Q151.825 266.004 149.88 264.268 Q147.959 262.532 144.857 262.532 Q142.658 262.532 140.205 263.296 Q137.774 264.06 134.996 265.611 L134.996 260.888 Q137.82 259.754 140.274 259.175 Q142.728 258.597 144.765 258.597 Q150.135 258.597 153.33 261.282 Q156.524 263.967 156.524 268.458 Q156.524 270.587 155.714 272.509 Q154.927 274.407 152.82 276.999 Q152.242 277.671 149.14 280.888 Q146.038 284.083 140.39 289.847 Z" fill="#000000" fill-rule="nonzero" fill-opacity="1" /><path clip-path="url(#clip420)" d="M434.337 12.096 L442.52 12.096 L442.52 65.6895 L471.97 65.6895 L471.97 72.576 L434.337 72.576 L434.337 12.096 Z" fill="#000000" fill-rule="nonzero" fill-opacity="1" /><path clip-path="url(#clip420)" d="M502.676 20.1573 L491.576 50.2555 L513.816 50.2555 L502.676 20.1573 M498.058 12.096 L507.334 12.096 L530.384 72.576 L521.877 72.576 L516.368 57.061 L489.105 57.061 L483.596 72.576 L474.968 72.576 L498.058 12.096 Z" fill="#000000" fill-rule="nonzero" fill-opacity="1" /><path clip-path="url(#clip420)" d="M575.471 14.0809 L575.471 22.0612 Q570.812 19.8332 566.68 18.7395 Q562.548 17.6457 558.7 17.6457 Q552.016 17.6457 548.37 20.2383 Q544.765 22.8309 544.765 27.611 Q544.765 31.6214 547.155 33.6873 Q549.585 35.7128 556.31 36.9686 L561.252 37.9813 Q570.407 39.7232 574.741 44.1387 Q579.116 48.5136 579.116 55.8863 Q579.116 64.6767 573.202 69.2137 Q567.328 73.7508 555.945 73.7508 Q551.651 73.7508 546.79 72.7785 Q541.97 71.8063 536.785 69.9024 L536.785 61.4765 Q541.767 64.2716 546.547 65.6895 Q551.327 67.1073 555.945 67.1073 Q562.953 67.1073 566.761 64.3527 Q570.569 61.598 570.569 56.4939 Q570.569 52.0379 567.814 49.5264 Q565.1 47.0148 558.862 45.759 L553.879 44.7868 Q544.724 42.9639 540.633 39.075 Q536.541 35.1862 536.541 28.2591 Q536.541 20.2383 542.172 15.6203 Q547.843 11.0023 557.768 11.0023 Q562.022 11.0023 566.437 11.7719 Q570.853 12.5416 575.471 14.0809 Z" fill="#000000" fill-rule="nonzero" fill-opacity="1" /><path clip-path="url(#clip420)" d="M628.132 14.0809 L628.132 22.0612 Q623.474 19.8332 619.342 18.7395 Q615.21 17.6457 611.362 17.6457 Q604.678 17.6457 601.032 20.2383 Q597.427 22.8309 597.427 27.611 Q597.427 31.6214 599.817 33.6873 Q602.247 35.7128 608.972 36.9686 L613.914 37.9813 Q623.069 39.7232 627.403 44.1387 Q631.778 48.5136 631.778 55.8863 Q631.778 64.6767 625.864 69.2137 Q619.99 73.7508 608.607 73.7508 Q604.313 73.7508 599.452 72.7785 Q594.631 71.8063 589.446 69.9024 L589.446 61.4765 Q594.429 64.2716 599.209 65.6895 Q603.989 67.1073 608.607 67.1073 Q615.615 67.1073 619.423 64.3527 Q623.231 61.598 623.231 56.4939 Q623.231 52.0379 620.476 49.5264 Q617.762 47.0148 611.524 45.759 L606.541 44.7868 Q597.386 42.9639 593.295 39.075 Q589.203 35.1862 589.203 28.2591 Q589.203 20.2383 594.834 15.6203 Q600.505 11.0023 610.43 11.0023 Q614.683 11.0023 619.099 11.7719 Q623.514 12.5416 628.132 14.0809 Z" fill="#000000" fill-rule="nonzero" fill-opacity="1" /><path clip-path="url(#clip420)" d="M669.087 17.6457 Q660.175 17.6457 654.909 24.2892 Q649.683 30.9327 649.683 42.3968 Q649.683 53.8203 654.909 60.4638 Q660.175 67.1073 669.087 67.1073 Q677.999 67.1073 683.184 60.4638 Q688.41 53.8203 688.41 42.3968 Q688.41 30.9327 683.184 24.2892 Q677.999 17.6457 669.087 17.6457 M669.087 11.0023 Q681.807 11.0023 689.423 19.5497 Q697.038 28.0566 697.038 42.3968 Q697.038 56.6965 689.423 65.2439 Q681.807 73.7508 669.087 73.7508 Q656.327 73.7508 648.67 65.2439 Q641.055 56.737 641.055 42.3968 Q641.055 28.0566 648.67 19.5497 Q656.327 11.0023 669.087 11.0023 Z" fill="#000000" fill-rule="nonzero" fill-opacity="1" /><path clip-path="url(#clip420)" d="M764.891 44.2197 Q767.524 45.1109 769.995 48.0275 Q772.507 50.9442 775.018 56.0483 L783.323 72.576 L774.532 72.576 L766.795 57.061 Q763.797 50.9847 760.962 48.9997 Q758.166 47.0148 753.305 47.0148 L744.393 47.0148 L744.393 72.576 L736.211 72.576 L736.211 12.096 L754.683 12.096 Q765.053 12.096 770.157 16.4305 Q775.261 20.7649 775.261 29.5149 Q775.261 35.2267 772.588 38.994 Q769.955 42.7613 764.891 44.2197 M744.393 18.8205 L744.393 40.2903 L754.683 40.2903 Q760.597 40.2903 763.595 37.5762 Q766.633 34.8216 766.633 29.5149 Q766.633 24.2082 763.595 21.5346 Q760.597 18.8205 754.683 18.8205 L744.393 18.8205 Z" fill="#000000" fill-rule="nonzero" fill-opacity="1" /><path clip-path="url(#clip420)" d="M828.612 48.0275 L828.612 51.6733 L794.341 51.6733 Q794.827 59.3701 798.959 63.421 Q803.131 67.4314 810.545 67.4314 Q814.839 67.4314 818.849 66.3781 Q822.9 65.3249 826.87 63.2184 L826.87 70.267 Q822.859 71.9684 818.646 72.8596 Q814.433 73.7508 810.099 73.7508 Q799.243 73.7508 792.883 67.4314 Q786.563 61.1119 786.563 50.3365 Q786.563 39.1965 792.559 32.6746 Q798.594 26.1121 808.803 26.1121 Q817.958 26.1121 823.264 32.0264 Q828.612 37.9003 828.612 48.0275 M821.158 45.84 Q821.077 39.7232 817.715 36.0774 Q814.393 32.4315 808.884 32.4315 Q802.645 32.4315 798.878 35.9558 Q795.151 39.4801 794.584 45.8805 L821.158 45.84 Z" fill="#000000" fill-rule="nonzero" fill-opacity="1" /><path clip-path="url(#clip420)" d="M870.701 49.3643 Q870.701 41.2625 867.338 36.8065 Q864.017 32.3505 857.981 32.3505 Q851.985 32.3505 848.623 36.8065 Q845.301 41.2625 845.301 49.3643 Q845.301 57.4256 848.623 61.8816 Q851.985 66.3376 857.981 66.3376 Q864.017 66.3376 867.338 61.8816 Q870.701 57.4256 870.701 49.3643 M878.154 66.9452 Q878.154 78.5308 873.01 84.1616 Q867.865 89.8329 857.252 89.8329 Q853.322 89.8329 849.838 89.2252 Q846.355 88.6581 843.073 87.4428 L843.073 80.1917 Q846.355 81.9741 849.555 82.8248 Q852.755 83.6755 856.077 83.6755 Q863.409 83.6755 867.055 79.8271 Q870.701 76.0193 870.701 68.282 L870.701 64.5957 Q868.392 68.6061 864.786 70.5911 Q861.181 72.576 856.158 72.576 Q847.813 72.576 842.709 66.2161 Q837.605 59.8562 837.605 49.3643 Q837.605 38.832 842.709 32.472 Q847.813 26.1121 856.158 26.1121 Q861.181 26.1121 864.786 28.0971 Q868.392 30.082 870.701 34.0924 L870.701 27.2059 L878.154 27.2059 L878.154 66.9452 Z" fill="#000000" fill-rule="nonzero" fill-opacity="1" /><path clip-path="url(#clip420)" d="M919.797 34.1734 Q918.542 33.4443 917.043 33.1202 Q915.585 32.7556 913.802 32.7556 Q907.483 32.7556 904.08 36.8875 Q900.718 40.9789 900.718 48.6757 L900.718 72.576 L893.224 72.576 L893.224 27.2059 L900.718 27.2059 L900.718 34.2544 Q903.067 30.1225 906.835 28.1376 Q910.602 26.1121 915.99 26.1121 Q916.759 26.1121 917.691 26.2337 Q918.623 26.3147 919.757 26.5172 L919.797 34.1734 Z" fill="#000000" fill-rule="nonzero" fill-opacity="1" /><path clip-path="url(#clip420)" d="M964.6 48.0275 L964.6 51.6733 L930.33 51.6733 Q930.816 59.3701 934.948 63.421 Q939.12 67.4314 946.533 67.4314 Q950.827 67.4314 954.838 66.3781 Q958.889 65.3249 962.859 63.2184 L962.859 70.267 Q958.848 71.9684 954.635 72.8596 Q950.422 73.7508 946.088 73.7508 Q935.231 73.7508 928.872 67.4314 Q922.552 61.1119 922.552 50.3365 Q922.552 39.1965 928.547 32.6746 Q934.583 26.1121 944.792 26.1121 Q953.947 26.1121 959.253 32.0264 Q964.6 37.9003 964.6 48.0275 M957.147 45.84 Q957.066 39.7232 953.704 36.0774 Q950.382 32.4315 944.873 32.4315 Q938.634 32.4315 934.867 35.9558 Q931.14 39.4801 930.573 45.8805 L957.147 45.84 Z" fill="#000000" fill-rule="nonzero" fill-opacity="1" /><path clip-path="url(#clip420)" d="M1005.76 28.5427 L1005.76 35.5912 Q1002.6 33.9709 999.195 33.1607 Q995.792 32.3505 992.147 32.3505 Q986.597 32.3505 983.802 34.0519 Q981.047 35.7533 981.047 39.156 Q981.047 41.7486 983.032 43.2475 Q985.017 44.7058 991.012 46.0426 L993.564 46.6097 Q1001.5 48.3111 1004.83 51.4303 Q1008.19 54.509 1008.19 60.0587 Q1008.19 66.3781 1003.17 70.0644 Q998.182 73.7508 989.433 73.7508 Q985.787 73.7508 981.817 73.0216 Q977.887 72.3329 973.512 70.9151 L973.512 63.2184 Q977.644 65.3654 981.655 66.4591 Q985.665 67.5124 989.595 67.5124 Q994.861 67.5124 997.696 65.73 Q1000.53 63.9071 1000.53 60.6258 Q1000.53 57.5877 998.466 55.9673 Q996.441 54.3469 989.514 52.8481 L986.921 52.2405 Q979.994 50.7821 976.915 47.7845 Q973.837 44.7463 973.837 39.4801 Q973.837 33.0797 978.374 29.5959 Q982.911 26.1121 991.255 26.1121 Q995.387 26.1121 999.033 26.7198 Q1002.68 27.3274 1005.76 28.5427 Z" fill="#000000" fill-rule="nonzero" fill-opacity="1" /><path clip-path="url(#clip420)" d="M1048.98 28.5427 L1048.98 35.5912 Q1045.82 33.9709 1042.42 33.1607 Q1039.02 32.3505 1035.37 32.3505 Q1029.82 32.3505 1027.02 34.0519 Q1024.27 35.7533 1024.27 39.156 Q1024.27 41.7486 1026.26 43.2475 Q1028.24 44.7058 1034.24 46.0426 L1036.79 46.6097 Q1044.73 48.3111 1048.05 51.4303 Q1051.41 54.509 1051.41 60.0587 Q1051.41 66.3781 1046.39 70.0644 Q1041.41 73.7508 1032.66 73.7508 Q1029.01 73.7508 1025.04 73.0216 Q1021.11 72.3329 1016.74 70.9151 L1016.74 63.2184 Q1020.87 65.3654 1024.88 66.4591 Q1028.89 67.5124 1032.82 67.5124 Q1038.08 67.5124 1040.92 65.73 Q1043.76 63.9071 1043.76 60.6258 Q1043.76 57.5877 1041.69 55.9673 Q1039.66 54.3469 1032.74 52.8481 L1030.14 52.2405 Q1023.22 50.7821 1020.14 47.7845 Q1017.06 44.7463 1017.06 39.4801 Q1017.06 33.0797 1021.6 29.5959 Q1026.13 26.1121 1034.48 26.1121 Q1038.61 26.1121 1042.26 26.7198 Q1045.9 27.3274 1048.98 28.5427 Z" fill="#000000" fill-rule="nonzero" fill-opacity="1" /><path clip-path="url(#clip420)" d="M1063.28 27.2059 L1070.73 27.2059 L1070.73 72.576 L1063.28 72.576 L1063.28 27.2059 M1063.28 9.54393 L1070.73 9.54393 L1070.73 18.9825 L1063.28 18.9825 L1063.28 9.54393 Z" fill="#000000" fill-rule="nonzero" fill-opacity="1" /><path clip-path="url(#clip420)" d="M1103.91 32.4315 Q1097.92 32.4315 1094.43 37.1306 Q1090.95 41.7891 1090.95 49.9314 Q1090.95 58.0738 1094.39 62.7728 Q1097.88 67.4314 1103.91 67.4314 Q1109.87 67.4314 1113.35 62.7323 Q1116.83 58.0333 1116.83 49.9314 Q1116.83 41.8701 1113.35 37.1711 Q1109.87 32.4315 1103.91 32.4315 M1103.91 26.1121 Q1113.63 26.1121 1119.18 32.4315 Q1124.73 38.7509 1124.73 49.9314 Q1124.73 61.0714 1119.18 67.4314 Q1113.63 73.7508 1103.91 73.7508 Q1094.15 73.7508 1088.6 67.4314 Q1083.09 61.0714 1083.09 49.9314 Q1083.09 38.7509 1088.6 32.4315 Q1094.15 26.1121 1103.91 26.1121 Z" fill="#000000" fill-rule="nonzero" fill-opacity="1" /><path clip-path="url(#clip420)" d="M1174.8 45.1919 L1174.8 72.576 L1167.35 72.576 L1167.35 45.4349 Q1167.35 38.994 1164.84 35.7938 Q1162.33 32.5936 1157.3 32.5936 Q1151.27 32.5936 1147.78 36.4419 Q1144.3 40.2903 1144.3 46.9338 L1144.3 72.576 L1136.8 72.576 L1136.8 27.2059 L1144.3 27.2059 L1144.3 34.2544 Q1146.97 30.163 1150.58 28.1376 Q1154.22 26.1121 1158.96 26.1121 Q1166.78 26.1121 1170.79 30.9732 Q1174.8 35.7938 1174.8 45.1919 Z" fill="#000000" fill-rule="nonzero" fill-opacity="1" /><path clip-path="url(#clip420)" d="M1261.65 16.7545 L1261.65 25.383 Q1257.52 21.5346 1252.82 19.6307 Q1248.16 17.7268 1242.9 17.7268 Q1232.53 17.7268 1227.02 24.0867 Q1221.51 30.4061 1221.51 42.3968 Q1221.51 54.3469 1227.02 60.7069 Q1232.53 67.0263 1242.9 67.0263 Q1248.16 67.0263 1252.82 65.1223 Q1257.52 63.2184 1261.65 59.3701 L1261.65 67.9175 Q1257.36 70.8341 1252.54 72.2924 Q1247.76 73.7508 1242.41 73.7508 Q1228.68 73.7508 1220.78 65.3654 Q1212.88 56.9395 1212.88 42.3968 Q1212.88 27.8135 1220.78 19.4281 Q1228.68 11.0023 1242.41 11.0023 Q1247.84 11.0023 1252.62 12.4606 Q1257.44 13.8784 1261.65 16.7545 Z" fill="#000000" fill-rule="nonzero" fill-opacity="1" /><path clip-path="url(#clip420)" d="M1291.55 32.4315 Q1285.55 32.4315 1282.07 37.1306 Q1278.59 41.7891 1278.59 49.9314 Q1278.59 58.0738 1282.03 62.7728 Q1285.51 67.4314 1291.55 67.4314 Q1297.5 67.4314 1300.99 62.7323 Q1304.47 58.0333 1304.47 49.9314 Q1304.47 41.8701 1300.99 37.1711 Q1297.5 32.4315 1291.55 32.4315 M1291.55 26.1121 Q1301.27 26.1121 1306.82 32.4315 Q1312.37 38.7509 1312.37 49.9314 Q1312.37 61.0714 1306.82 67.4314 Q1301.27 73.7508 1291.55 73.7508 Q1281.79 73.7508 1276.24 67.4314 Q1270.73 61.0714 1270.73 49.9314 Q1270.73 38.7509 1276.24 32.4315 Q1281.79 26.1121 1291.55 26.1121 Z" fill="#000000" fill-rule="nonzero" fill-opacity="1" /><path clip-path="url(#clip420)" d="M1363.53 48.0275 L1363.53 51.6733 L1329.26 51.6733 Q1329.75 59.3701 1333.88 63.421 Q1338.05 67.4314 1345.47 67.4314 Q1349.76 67.4314 1353.77 66.3781 Q1357.82 65.3249 1361.79 63.2184 L1361.79 70.267 Q1357.78 71.9684 1353.57 72.8596 Q1349.36 73.7508 1345.02 73.7508 Q1334.16 73.7508 1327.8 67.4314 Q1321.49 61.1119 1321.49 50.3365 Q1321.49 39.1965 1327.48 32.6746 Q1333.52 26.1121 1343.72 26.1121 Q1352.88 26.1121 1358.19 32.0264 Q1363.53 37.9003 1363.53 48.0275 M1356.08 45.84 Q1356 39.7232 1352.64 36.0774 Q1349.31 32.4315 1343.81 32.4315 Q1337.57 32.4315 1333.8 35.9558 Q1330.07 39.4801 1329.51 45.8805 L1356.08 45.84 Z" fill="#000000" fill-rule="nonzero" fill-opacity="1" /><path clip-path="url(#clip420)" d="M1398.74 9.54393 L1398.74 15.7418 L1391.61 15.7418 Q1387.6 15.7418 1386.02 17.3622 Q1384.48 18.9825 1384.48 23.1955 L1384.48 27.2059 L1396.75 27.2059 L1396.75 32.9987 L1384.48 32.9987 L1384.48 72.576 L1376.98 72.576 L1376.98 32.9987 L1369.85 32.9987 L1369.85 27.2059 L1376.98 27.2059 L1376.98 24.0462 Q1376.98 16.471 1380.51 13.0277 Q1384.03 9.54393 1391.69 9.54393 L1398.74 9.54393 Z" fill="#000000" fill-rule="nonzero" fill-opacity="1" /><path clip-path="url(#clip420)" d="M1427.94 9.54393 L1427.94 15.7418 L1420.81 15.7418 Q1416.8 15.7418 1415.22 17.3622 Q1413.68 18.9825 1413.68 23.1955 L1413.68 27.2059 L1425.96 27.2059 L1425.96 32.9987 L1413.68 32.9987 L1413.68 72.576 L1406.19 72.576 L1406.19 32.9987 L1399.06 32.9987 L1399.06 27.2059 L1406.19 27.2059 L1406.19 24.0462 Q1406.19 16.471 1409.71 13.0277 Q1413.24 9.54393 1420.89 9.54393 L1427.94 9.54393 Z" fill="#000000" fill-rule="nonzero" fill-opacity="1" /><path clip-path="url(#clip420)" d="M1434.18 27.2059 L1441.63 27.2059 L1441.63 72.576 L1434.18 72.576 L1434.18 27.2059 M1434.18 9.54393 L1441.63 9.54393 L1441.63 18.9825 L1434.18 18.9825 L1434.18 9.54393 Z" fill="#000000" fill-rule="nonzero" fill-opacity="1" /><path clip-path="url(#clip420)" d="M1489.88 28.9478 L1489.88 35.9153 Q1486.72 34.1734 1483.52 33.3227 Q1480.36 32.4315 1477.12 32.4315 Q1469.87 32.4315 1465.86 37.0496 Q1461.85 41.6271 1461.85 49.9314 Q1461.85 58.2358 1465.86 62.8538 Q1469.87 67.4314 1477.12 67.4314 Q1480.36 67.4314 1483.52 66.5807 Q1486.72 65.6895 1489.88 63.9476 L1489.88 70.8341 Q1486.76 72.2924 1483.4 73.0216 Q1480.08 73.7508 1476.31 73.7508 Q1466.06 73.7508 1460.03 67.3098 Q1453.99 60.8689 1453.99 49.9314 Q1453.99 38.832 1460.07 32.472 Q1466.18 26.1121 1476.8 26.1121 Q1480.24 26.1121 1483.52 26.8413 Q1486.8 27.5299 1489.88 28.9478 Z" fill="#000000" fill-rule="nonzero" fill-opacity="1" /><path clip-path="url(#clip420)" d="M1502.84 27.2059 L1510.3 27.2059 L1510.3 72.576 L1502.84 72.576 L1502.84 27.2059 M1502.84 9.54393 L1510.3 9.54393 L1510.3 18.9825 L1502.84 18.9825 L1502.84 9.54393 Z" fill="#000000" fill-rule="nonzero" fill-opacity="1" /><path clip-path="url(#clip420)" d="M1564.7 48.0275 L1564.7 51.6733 L1530.43 51.6733 Q1530.92 59.3701 1535.05 63.421 Q1539.22 67.4314 1546.63 67.4314 Q1550.93 67.4314 1554.94 66.3781 Q1558.99 65.3249 1562.96 63.2184 L1562.96 70.267 Q1558.95 71.9684 1554.74 72.8596 Q1550.52 73.7508 1546.19 73.7508 Q1535.33 73.7508 1528.97 67.4314 Q1522.65 61.1119 1522.65 50.3365 Q1522.65 39.1965 1528.65 32.6746 Q1534.68 26.1121 1544.89 26.1121 Q1554.05 26.1121 1559.35 32.0264 Q1564.7 37.9003 1564.7 48.0275 M1557.25 45.84 Q1557.17 39.7232 1553.8 36.0774 Q1550.48 32.4315 1544.97 32.4315 Q1538.74 32.4315 1534.97 35.9558 Q1531.24 39.4801 1530.67 45.8805 L1557.25 45.84 Z" fill="#000000" fill-rule="nonzero" fill-opacity="1" /><path clip-path="url(#clip420)" d="M1614.65 45.1919 L1614.65 72.576 L1607.2 72.576 L1607.2 45.4349 Q1607.2 38.994 1604.68 35.7938 Q1602.17 32.5936 1597.15 32.5936 Q1591.11 32.5936 1587.63 36.4419 Q1584.15 40.2903 1584.15 46.9338 L1584.15 72.576 L1576.65 72.576 L1576.65 27.2059 L1584.15 27.2059 L1584.15 34.2544 Q1586.82 30.163 1590.42 28.1376 Q1594.07 26.1121 1598.81 26.1121 Q1606.63 26.1121 1610.64 30.9732 Q1614.65 35.7938 1614.65 45.1919 Z" fill="#000000" fill-rule="nonzero" fill-opacity="1" /><path clip-path="url(#clip420)" d="M1636.89 14.324 L1636.89 27.2059 L1652.24 27.2059 L1652.24 32.9987 L1636.89 32.9987 L1636.89 57.6282 Q1636.89 63.1779 1638.39 64.7578 Q1639.93 66.3376 1644.59 66.3376 L1652.24 66.3376 L1652.24 72.576 L1644.59 72.576 Q1635.96 72.576 1632.68 69.3758 Q1629.39 66.1351 1629.39 57.6282 L1629.39 32.9987 L1623.93 32.9987 L1623.93 27.2059 L1629.39 27.2059 L1629.39 14.324 L1636.89 14.324 Z" fill="#000000" fill-rule="nonzero" fill-opacity="1" /><path clip-path="url(#clip420)" d="M1690.97 28.5427 L1690.97 35.5912 Q1687.81 33.9709 1684.41 33.1607 Q1681 32.3505 1677.36 32.3505 Q1671.81 32.3505 1669.01 34.0519 Q1666.26 35.7533 1666.26 39.156 Q1666.26 41.7486 1668.24 43.2475 Q1670.23 44.7058 1676.22 46.0426 L1678.77 46.6097 Q1686.71 48.3111 1690.04 51.4303 Q1693.4 54.509 1693.4 60.0587 Q1693.4 66.3781 1688.38 70.0644 Q1683.39 73.7508 1674.64 73.7508 Q1671 73.7508 1667.03 73.0216 Q1663.1 72.3329 1658.72 70.9151 L1658.72 63.2184 Q1662.85 65.3654 1666.87 66.4591 Q1670.88 67.5124 1674.81 67.5124 Q1680.07 67.5124 1682.91 65.73 Q1685.74 63.9071 1685.74 60.6258 Q1685.74 57.5877 1683.68 55.9673 Q1681.65 54.3469 1674.72 52.8481 L1672.13 52.2405 Q1665.2 50.7821 1662.13 47.7845 Q1659.05 44.7463 1659.05 39.4801 Q1659.05 33.0797 1663.58 29.5959 Q1668.12 26.1121 1676.47 26.1121 Q1680.6 26.1121 1684.24 26.7198 Q1687.89 27.3274 1690.97 28.5427 Z" fill="#000000" fill-rule="nonzero" fill-opacity="1" /><path clip-path="url(#clip420)" d="M1749.54 9.62495 Q1744.12 18.942 1741.48 28.0566 Q1738.85 37.1711 1738.85 46.5287 Q1738.85 55.8863 1741.48 65.0818 Q1744.16 74.2369 1749.54 83.5134 L1743.06 83.5134 Q1736.99 73.9938 1733.95 64.7983 Q1730.95 55.6027 1730.95 46.5287 Q1730.95 37.4952 1733.95 28.3401 Q1736.95 19.1851 1743.06 9.62495 L1749.54 9.62495 Z" fill="#000000" fill-rule="nonzero" fill-opacity="1" /><path clip-path="url(#clip420)" d="M1781.87 16.633 L1802.81 72.576 L1794.91 72.576 L1782.19 39.0345 L1766.56 72.576 L1758.66 72.576 L1778.55 29.0693 L1775.55 21.0485 Q1773.65 15.9444 1769.31 15.9444 L1765.42 15.9444 L1765.42 9.54393 L1770.16 9.62495 Q1779.32 9.74648 1781.87 16.633 Z" fill="#000000" fill-rule="nonzero" fill-opacity="1" /><path clip-path="url(#clip420)" d="M1840.45 34.9026 L1892.38 34.9026 L1892.38 41.7081 L1840.45 41.7081 L1840.45 34.9026 M1840.45 51.4303 L1892.38 51.4303 L1892.38 58.3168 L1840.45 58.3168 L1840.45 51.4303 Z" fill="#000000" fill-rule="nonzero" fill-opacity="1" /><path clip-path="url(#clip420)" d="M1934.35 12.096 L1973.24 12.096 L1973.24 15.5798 L1951.28 72.576 L1942.73 72.576 L1963.39 18.9825 L1934.35 18.9825 L1934.35 12.096 Z" fill="#000000" fill-rule="nonzero" fill-opacity="1" /><path clip-path="url(#clip420)" d="M1989.28 12.096 L2021.4 12.096 L2021.4 18.9825 L1996.77 18.9825 L1996.77 33.8088 Q1998.55 33.2012 2000.34 32.9176 Q2002.12 32.5936 2003.9 32.5936 Q2014.03 32.5936 2019.94 38.1433 Q2025.86 43.6931 2025.86 53.1722 Q2025.86 62.9348 2019.78 68.3631 Q2013.7 73.7508 2002.64 73.7508 Q1998.84 73.7508 1994.87 73.1026 Q1990.94 72.4545 1986.72 71.1582 L1986.72 62.9348 Q1990.37 64.9198 1994.26 65.892 Q1998.15 66.8642 2002.48 66.8642 Q2009.49 66.8642 2013.58 63.1779 Q2017.67 59.4916 2017.67 53.1722 Q2017.67 46.8528 2013.58 43.1664 Q2009.49 39.4801 2002.48 39.4801 Q1999.2 39.4801 1995.92 40.2093 Q1992.68 40.9384 1989.28 42.4778 L1989.28 12.096 Z" fill="#000000" fill-rule="nonzero" fill-opacity="1" /><path clip-path="url(#clip420)" d="M2059.48 17.4837 Q2053.16 17.4837 2049.96 23.7221 Q2046.8 29.92 2046.8 42.3968 Q2046.8 54.833 2049.96 61.0714 Q2053.16 67.2693 2059.48 67.2693 Q2065.84 67.2693 2069 61.0714 Q2072.2 54.833 2072.2 42.3968 Q2072.2 29.92 2069 23.7221 Q2065.84 17.4837 2059.48 17.4837 M2059.48 11.0023 Q2069.65 11.0023 2074.99 19.0636 Q2080.38 27.0843 2080.38 42.3968 Q2080.38 57.6687 2074.99 65.73 Q2069.65 73.7508 2059.48 73.7508 Q2049.31 73.7508 2043.92 65.73 Q2038.58 57.6687 2038.58 42.3968 Q2038.58 27.0843 2043.92 19.0636 Q2049.31 11.0023 2059.48 11.0023 Z" fill="#000000" fill-rule="nonzero" fill-opacity="1" /><path clip-path="url(#clip420)" d="M2092.53 9.62495 L2099.02 9.62495 Q2105.09 19.1851 2108.09 28.3401 Q2111.13 37.4952 2111.13 46.5287 Q2111.13 55.6027 2108.09 64.7983 Q2105.09 73.9938 2099.02 83.5134 L2092.53 83.5134 Q2097.92 74.2369 2100.56 65.0818 Q2103.23 55.8863 2103.23 46.5287 Q2103.23 37.1711 2100.56 28.0566 Q2097.92 18.942 2092.53 9.62495 Z" fill="#000000" fill-rule="nonzero" fill-opacity="1" /><polyline clip-path="url(#clip422)" style="stroke:#009af9; stroke-linecap:round; stroke-linejoin:round; stroke-width:4; stroke-opacity:1; fill:none" points="253.843,2714.68 253.843,-1172.13 "/>
<polyline clip-path="url(#clip422)" style="stroke:#009af9; stroke-linecap:round; stroke-linejoin:round; stroke-width:4; stroke-opacity:1; fill:none" points="457.621,2714.68 457.621,-1172.13 "/>
<polyline clip-path="url(#clip422)" style="stroke:#009af9; stroke-linecap:round; stroke-linejoin:round; stroke-width:4; stroke-opacity:1; fill:none" points="763.288,2714.68 763.288,-1172.13 "/>
<polyline clip-path="url(#clip422)" style="stroke:#009af9; stroke-linecap:round; stroke-linejoin:round; stroke-width:4; stroke-opacity:1; fill:none" points="1170.84,2714.68 1170.84,-1172.13 "/>
<polyline clip-path="url(#clip422)" style="stroke:#009af9; stroke-linecap:round; stroke-linejoin:round; stroke-width:4; stroke-opacity:1; fill:none" points="1680.29,2714.68 1680.29,-1172.13 "/>
<polyline clip-path="url(#clip422)" style="stroke:#009af9; stroke-linecap:round; stroke-linejoin:round; stroke-width:4; stroke-opacity:1; fill:none" points="2291.62,2714.68 2291.62,-1172.13 "/>
<circle clip-path="url(#clip422)" cx="253.843" cy="413.334" r="14.4" fill="#e26f46" fill-rule="evenodd" fill-opacity="1" stroke="#000000" stroke-opacity="1" stroke-width="3.2"/>
<polyline clip-path="url(#clip422)" style="stroke:#3da44d; stroke-linecap:round; stroke-linejoin:round; stroke-width:4; stroke-opacity:1; fill:none" points="253.843,418.384 355.732,856.226 457.621,1247.45 "/>
<circle clip-path="url(#clip422)" cx="253.843" cy="418.384" r="14.4" fill="#3da44d" fill-rule="evenodd" fill-opacity="1" stroke="#000000" stroke-opacity="1" stroke-width="3.2"/>
<circle clip-path="url(#clip422)" cx="355.732" cy="856.226" r="14.4" fill="#3da44d" fill-rule="evenodd" fill-opacity="1" stroke="#000000" stroke-opacity="1" stroke-width="3.2"/>
<circle clip-path="url(#clip422)" cx="457.621" cy="1247.45" r="14.4" fill="#3da44d" fill-rule="evenodd" fill-opacity="1" stroke="#000000" stroke-opacity="1" stroke-width="3.2"/>
<polyline clip-path="url(#clip422)" style="stroke:#c271d2; stroke-linecap:round; stroke-linejoin:round; stroke-width:4; stroke-opacity:1; fill:none" points="253.843,489.989 355.732,856.226 457.621,1246.94 559.51,841.638 661.399,856.226 763.288,798.702 "/>
<circle clip-path="url(#clip422)" cx="253.843" cy="489.989" r="14.4" fill="#c271d2" fill-rule="evenodd" fill-opacity="1" stroke="#000000" stroke-opacity="1" stroke-width="3.2"/>
<circle clip-path="url(#clip422)" cx="355.732" cy="856.226" r="14.4" fill="#c271d2" fill-rule="evenodd" fill-opacity="1" stroke="#000000" stroke-opacity="1" stroke-width="3.2"/>
<circle clip-path="url(#clip422)" cx="457.621" cy="1246.94" r="14.4" fill="#c271d2" fill-rule="evenodd" fill-opacity="1" stroke="#000000" stroke-opacity="1" stroke-width="3.2"/>
<circle clip-path="url(#clip422)" cx="559.51" cy="841.638" r="14.4" fill="#c271d2" fill-rule="evenodd" fill-opacity="1" stroke="#000000" stroke-opacity="1" stroke-width="3.2"/>
<circle clip-path="url(#clip422)" cx="661.399" cy="856.226" r="14.4" fill="#c271d2" fill-rule="evenodd" fill-opacity="1" stroke="#000000" stroke-opacity="1" stroke-width="3.2"/>
<circle clip-path="url(#clip422)" cx="763.288" cy="798.702" r="14.4" fill="#c271d2" fill-rule="evenodd" fill-opacity="1" stroke="#000000" stroke-opacity="1" stroke-width="3.2"/>
<polyline clip-path="url(#clip422)" style="stroke:#ac8d18; stroke-linecap:round; stroke-linejoin:round; stroke-width:4; stroke-opacity:1; fill:none" points="253.843,489.774 355.732,856.226 457.621,1127.72 559.51,841.43 661.399,856.226 763.288,799.014 865.177,856.226 967.066,856.226 1068.95,887.928 1170.84,922.962 "/>
<circle clip-path="url(#clip422)" cx="253.843" cy="489.774" r="14.4" fill="#ac8d18" fill-rule="evenodd" fill-opacity="1" stroke="#000000" stroke-opacity="1" stroke-width="3.2"/>
<circle clip-path="url(#clip422)" cx="355.732" cy="856.226" r="14.4" fill="#ac8d18" fill-rule="evenodd" fill-opacity="1" stroke="#000000" stroke-opacity="1" stroke-width="3.2"/>
<circle clip-path="url(#clip422)" cx="457.621" cy="1127.72" r="14.4" fill="#ac8d18" fill-rule="evenodd" fill-opacity="1" stroke="#000000" stroke-opacity="1" stroke-width="3.2"/>
<circle clip-path="url(#clip422)" cx="559.51" cy="841.43" r="14.4" fill="#ac8d18" fill-rule="evenodd" fill-opacity="1" stroke="#000000" stroke-opacity="1" stroke-width="3.2"/>
<circle clip-path="url(#clip422)" cx="661.399" cy="856.226" r="14.4" fill="#ac8d18" fill-rule="evenodd" fill-opacity="1" stroke="#000000" stroke-opacity="1" stroke-width="3.2"/>
<circle clip-path="url(#clip422)" cx="763.288" cy="799.014" r="14.4" fill="#ac8d18" fill-rule="evenodd" fill-opacity="1" stroke="#000000" stroke-opacity="1" stroke-width="3.2"/>
<circle clip-path="url(#clip422)" cx="865.177" cy="856.226" r="14.4" fill="#ac8d18" fill-rule="evenodd" fill-opacity="1" stroke="#000000" stroke-opacity="1" stroke-width="3.2"/>
<circle clip-path="url(#clip422)" cx="967.066" cy="856.226" r="14.4" fill="#ac8d18" fill-rule="evenodd" fill-opacity="1" stroke="#000000" stroke-opacity="1" stroke-width="3.2"/>
<circle clip-path="url(#clip422)" cx="1068.95" cy="887.928" r="14.4" fill="#ac8d18" fill-rule="evenodd" fill-opacity="1" stroke="#000000" stroke-opacity="1" stroke-width="3.2"/>
<circle clip-path="url(#clip422)" cx="1170.84" cy="922.962" r="14.4" fill="#ac8d18" fill-rule="evenodd" fill-opacity="1" stroke="#000000" stroke-opacity="1" stroke-width="3.2"/>
<polyline clip-path="url(#clip422)" style="stroke:#00a9ad; stroke-linecap:round; stroke-linejoin:round; stroke-width:4; stroke-opacity:1; fill:none" points="253.843,554.416 355.732,856.226 457.621,1129.21 559.51,856.226 661.399,856.226 763.288,856.226 865.177,856.226 967.066,856.226 1068.95,887.816 1170.84,922.279 1272.73,830.636 1374.62,856.226 1476.51,856.226 1578.4,803.211 1680.29,805.013 "/>
<circle clip-path="url(#clip422)" cx="253.843" cy="554.416" r="14.4" fill="#00a9ad" fill-rule="evenodd" fill-opacity="1" stroke="#000000" stroke-opacity="1" stroke-width="3.2"/>
<circle clip-path="url(#clip422)" cx="355.732" cy="856.226" r="14.4" fill="#00a9ad" fill-rule="evenodd" fill-opacity="1" stroke="#000000" stroke-opacity="1" stroke-width="3.2"/>
<circle clip-path="url(#clip422)" cx="457.621" cy="1129.21" r="14.4" fill="#00a9ad" fill-rule="evenodd" fill-opacity="1" stroke="#000000" stroke-opacity="1" stroke-width="3.2"/>
<circle clip-path="url(#clip422)" cx="559.51" cy="856.226" r="14.4" fill="#00a9ad" fill-rule="evenodd" fill-opacity="1" stroke="#000000" stroke-opacity="1" stroke-width="3.2"/>
<circle clip-path="url(#clip422)" cx="661.399" cy="856.226" r="14.4" fill="#00a9ad" fill-rule="evenodd" fill-opacity="1" stroke="#000000" stroke-opacity="1" stroke-width="3.2"/>
<circle clip-path="url(#clip422)" cx="763.288" cy="856.226" r="14.4" fill="#00a9ad" fill-rule="evenodd" fill-opacity="1" stroke="#000000" stroke-opacity="1" stroke-width="3.2"/>
<circle clip-path="url(#clip422)" cx="865.177" cy="856.226" r="14.4" fill="#00a9ad" fill-rule="evenodd" fill-opacity="1" stroke="#000000" stroke-opacity="1" stroke-width="3.2"/>
<circle clip-path="url(#clip422)" cx="967.066" cy="856.226" r="14.4" fill="#00a9ad" fill-rule="evenodd" fill-opacity="1" stroke="#000000" stroke-opacity="1" stroke-width="3.2"/>
<circle clip-path="url(#clip422)" cx="1068.95" cy="887.816" r="14.4" fill="#00a9ad" fill-rule="evenodd" fill-opacity="1" stroke="#000000" stroke-opacity="1" stroke-width="3.2"/>
<circle clip-path="url(#clip422)" cx="1170.84" cy="922.279" r="14.4" fill="#00a9ad" fill-rule="evenodd" fill-opacity="1" stroke="#000000" stroke-opacity="1" stroke-width="3.2"/>
<circle clip-path="url(#clip422)" cx="1272.73" cy="830.636" r="14.4" fill="#00a9ad" fill-rule="evenodd" fill-opacity="1" stroke="#000000" stroke-opacity="1" stroke-width="3.2"/>
<circle clip-path="url(#clip422)" cx="1374.62" cy="856.226" r="14.4" fill="#00a9ad" fill-rule="evenodd" fill-opacity="1" stroke="#000000" stroke-opacity="1" stroke-width="3.2"/>
<circle clip-path="url(#clip422)" cx="1476.51" cy="856.226" r="14.4" fill="#00a9ad" fill-rule="evenodd" fill-opacity="1" stroke="#000000" stroke-opacity="1" stroke-width="3.2"/>
<circle clip-path="url(#clip422)" cx="1578.4" cy="803.211" r="14.4" fill="#00a9ad" fill-rule="evenodd" fill-opacity="1" stroke="#000000" stroke-opacity="1" stroke-width="3.2"/>
<circle clip-path="url(#clip422)" cx="1680.29" cy="805.013" r="14.4" fill="#00a9ad" fill-rule="evenodd" fill-opacity="1" stroke="#000000" stroke-opacity="1" stroke-width="3.2"/>
<polyline clip-path="url(#clip422)" style="stroke:#ed5d92; stroke-linecap:round; stroke-linejoin:round; stroke-width:4; stroke-opacity:1; fill:none" points="253.843,553.777 355.732,856.226 457.621,1104.79 559.51,856.226 661.399,856.226 763.288,856.226 865.177,856.226 967.066,856.226 1068.95,856.226 1170.84,856.226 1272.73,830.8 1374.62,856.226 1476.51,856.226 1578.4,803.459 1680.29,804.812 1782.18,858.5 1884.07,873 1985.96,856.226 2087.84,856.226 2189.73,897.58 2291.62,885.89 "/>
<circle clip-path="url(#clip422)" cx="253.843" cy="553.777" r="14.4" fill="#ed5d92" fill-rule="evenodd" fill-opacity="1" stroke="#000000" stroke-opacity="1" stroke-width="3.2"/>
<circle clip-path="url(#clip422)" cx="355.732" cy="856.226" r="14.4" fill="#ed5d92" fill-rule="evenodd" fill-opacity="1" stroke="#000000" stroke-opacity="1" stroke-width="3.2"/>
<circle clip-path="url(#clip422)" cx="457.621" cy="1104.79" r="14.4" fill="#ed5d92" fill-rule="evenodd" fill-opacity="1" stroke="#000000" stroke-opacity="1" stroke-width="3.2"/>
<circle clip-path="url(#clip422)" cx="559.51" cy="856.226" r="14.4" fill="#ed5d92" fill-rule="evenodd" fill-opacity="1" stroke="#000000" stroke-opacity="1" stroke-width="3.2"/>
<circle clip-path="url(#clip422)" cx="661.399" cy="856.226" r="14.4" fill="#ed5d92" fill-rule="evenodd" fill-opacity="1" stroke="#000000" stroke-opacity="1" stroke-width="3.2"/>
<circle clip-path="url(#clip422)" cx="763.288" cy="856.226" r="14.4" fill="#ed5d92" fill-rule="evenodd" fill-opacity="1" stroke="#000000" stroke-opacity="1" stroke-width="3.2"/>
<circle clip-path="url(#clip422)" cx="865.177" cy="856.226" r="14.4" fill="#ed5d92" fill-rule="evenodd" fill-opacity="1" stroke="#000000" stroke-opacity="1" stroke-width="3.2"/>
<circle clip-path="url(#clip422)" cx="967.066" cy="856.226" r="14.4" fill="#ed5d92" fill-rule="evenodd" fill-opacity="1" stroke="#000000" stroke-opacity="1" stroke-width="3.2"/>
<circle clip-path="url(#clip422)" cx="1068.95" cy="856.226" r="14.4" fill="#ed5d92" fill-rule="evenodd" fill-opacity="1" stroke="#000000" stroke-opacity="1" stroke-width="3.2"/>
<circle clip-path="url(#clip422)" cx="1170.84" cy="856.226" r="14.4" fill="#ed5d92" fill-rule="evenodd" fill-opacity="1" stroke="#000000" stroke-opacity="1" stroke-width="3.2"/>
<circle clip-path="url(#clip422)" cx="1272.73" cy="830.8" r="14.4" fill="#ed5d92" fill-rule="evenodd" fill-opacity="1" stroke="#000000" stroke-opacity="1" stroke-width="3.2"/>
<circle clip-path="url(#clip422)" cx="1374.62" cy="856.226" r="14.4" fill="#ed5d92" fill-rule="evenodd" fill-opacity="1" stroke="#000000" stroke-opacity="1" stroke-width="3.2"/>
<circle clip-path="url(#clip422)" cx="1476.51" cy="856.226" r="14.4" fill="#ed5d92" fill-rule="evenodd" fill-opacity="1" stroke="#000000" stroke-opacity="1" stroke-width="3.2"/>
<circle clip-path="url(#clip422)" cx="1578.4" cy="803.459" r="14.4" fill="#ed5d92" fill-rule="evenodd" fill-opacity="1" stroke="#000000" stroke-opacity="1" stroke-width="3.2"/>
<circle clip-path="url(#clip422)" cx="1680.29" cy="804.812" r="14.4" fill="#ed5d92" fill-rule="evenodd" fill-opacity="1" stroke="#000000" stroke-opacity="1" stroke-width="3.2"/>
<circle clip-path="url(#clip422)" cx="1782.18" cy="858.5" r="14.4" fill="#ed5d92" fill-rule="evenodd" fill-opacity="1" stroke="#000000" stroke-opacity="1" stroke-width="3.2"/>
<circle clip-path="url(#clip422)" cx="1884.07" cy="873" r="14.4" fill="#ed5d92" fill-rule="evenodd" fill-opacity="1" stroke="#000000" stroke-opacity="1" stroke-width="3.2"/>
<circle clip-path="url(#clip422)" cx="1985.96" cy="856.226" r="14.4" fill="#ed5d92" fill-rule="evenodd" fill-opacity="1" stroke="#000000" stroke-opacity="1" stroke-width="3.2"/>
<circle clip-path="url(#clip422)" cx="2087.84" cy="856.226" r="14.4" fill="#ed5d92" fill-rule="evenodd" fill-opacity="1" stroke="#000000" stroke-opacity="1" stroke-width="3.2"/>
<circle clip-path="url(#clip422)" cx="2189.73" cy="897.58" r="14.4" fill="#ed5d92" fill-rule="evenodd" fill-opacity="1" stroke="#000000" stroke-opacity="1" stroke-width="3.2"/>
<circle clip-path="url(#clip422)" cx="2291.62" cy="885.89" r="14.4" fill="#ed5d92" fill-rule="evenodd" fill-opacity="1" stroke="#000000" stroke-opacity="1" stroke-width="3.2"/>
<path clip-path="url(#clip420)" d="M1971.74 529.539 L2280.75 529.539 L2280.75 166.659 L1971.74 166.659  Z" fill="#ffffff" fill-rule="evenodd" fill-opacity="1"/>
<polyline clip-path="url(#clip420)" style="stroke:#000000; stroke-linecap:round; stroke-linejoin:round; stroke-width:4; stroke-opacity:1; fill:none" points="1971.74,529.539 2280.75,529.539 2280.75,166.659 1971.74,166.659 1971.74,529.539 "/>
<polyline clip-path="url(#clip420)" style="stroke:#e26f46; stroke-linecap:round; stroke-linejoin:round; stroke-width:4; stroke-opacity:1; fill:none" points="1995.74,218.499 2139.74,218.499 "/>
<circle clip-path="url(#clip420)" cx="2067.74" cy="218.499" r="20.0004" fill="#e26f46" fill-rule="evenodd" fill-opacity="1" stroke="#000000" stroke-opacity="1" stroke-width="4.55111"/>
<path clip-path="url(#clip420)" d="M2168.03 231.89 L2168.03 245.64 L2163.75 245.64 L2163.75 209.853 L2168.03 209.853 L2168.03 213.788 Q2169.37 211.474 2171.41 210.362 Q2173.47 209.228 2176.31 209.228 Q2181.04 209.228 2183.98 212.978 Q2186.94 216.728 2186.94 222.839 Q2186.94 228.95 2183.98 232.7 Q2181.04 236.45 2176.31 236.45 Q2173.47 236.45 2171.41 235.339 Q2169.37 234.205 2168.03 231.89 M2182.52 222.839 Q2182.52 218.14 2180.57 215.478 Q2178.65 212.793 2175.27 212.793 Q2171.89 212.793 2169.95 215.478 Q2168.03 218.14 2168.03 222.839 Q2168.03 227.538 2169.95 230.223 Q2171.89 232.885 2175.27 232.885 Q2178.65 232.885 2180.57 230.223 Q2182.52 227.538 2182.52 222.839 Z" fill="#000000" fill-rule="nonzero" fill-opacity="1" /><path clip-path="url(#clip420)" d="M2194.56 214.251 L2224.23 214.251 L2224.23 218.14 L2194.56 218.14 L2194.56 214.251 M2194.56 223.696 L2224.23 223.696 L2224.23 227.631 L2194.56 227.631 L2194.56 223.696 Z" fill="#000000" fill-rule="nonzero" fill-opacity="1" /><path clip-path="url(#clip420)" d="M2244.32 204.298 Q2240.71 204.298 2238.88 207.862 Q2237.08 211.404 2237.08 218.534 Q2237.08 225.64 2238.88 229.205 Q2240.71 232.747 2244.32 232.747 Q2247.96 232.747 2249.76 229.205 Q2251.59 225.64 2251.59 218.534 Q2251.59 211.404 2249.76 207.862 Q2247.96 204.298 2244.32 204.298 M2244.32 200.594 Q2250.13 200.594 2253.19 205.2 Q2256.27 209.784 2256.27 218.534 Q2256.27 227.26 2253.19 231.867 Q2250.13 236.45 2244.32 236.45 Q2238.51 236.45 2235.43 231.867 Q2232.38 227.26 2232.38 218.534 Q2232.38 209.784 2235.43 205.2 Q2238.51 200.594 2244.32 200.594 Z" fill="#000000" fill-rule="nonzero" fill-opacity="1" /><polyline clip-path="url(#clip420)" style="stroke:#3da44d; stroke-linecap:round; stroke-linejoin:round; stroke-width:4; stroke-opacity:1; fill:none" points="1995.74,270.339 2139.74,270.339 "/>
<circle clip-path="url(#clip420)" cx="2067.74" cy="270.339" r="20.0004" fill="#3da44d" fill-rule="evenodd" fill-opacity="1" stroke="#000000" stroke-opacity="1" stroke-width="4.55111"/>
<path clip-path="url(#clip420)" d="M2168.03 283.73 L2168.03 297.48 L2163.75 297.48 L2163.75 261.693 L2168.03 261.693 L2168.03 265.628 Q2169.37 263.314 2171.41 262.202 Q2173.47 261.068 2176.31 261.068 Q2181.04 261.068 2183.98 264.818 Q2186.94 268.568 2186.94 274.679 Q2186.94 280.79 2183.98 284.54 Q2181.04 288.29 2176.31 288.29 Q2173.47 288.29 2171.41 287.179 Q2169.37 286.045 2168.03 283.73 M2182.52 274.679 Q2182.52 269.98 2180.57 267.318 Q2178.65 264.633 2175.27 264.633 Q2171.89 264.633 2169.95 267.318 Q2168.03 269.98 2168.03 274.679 Q2168.03 279.378 2169.95 282.063 Q2171.89 284.725 2175.27 284.725 Q2178.65 284.725 2180.57 282.063 Q2182.52 279.378 2182.52 274.679 Z" fill="#000000" fill-rule="nonzero" fill-opacity="1" /><path clip-path="url(#clip420)" d="M2194.56 266.091 L2224.23 266.091 L2224.23 269.98 L2194.56 269.98 L2194.56 266.091 M2194.56 275.536 L2224.23 275.536 L2224.23 279.471 L2194.56 279.471 L2194.56 275.536 Z" fill="#000000" fill-rule="nonzero" fill-opacity="1" /><path clip-path="url(#clip420)" d="M2235.13 283.684 L2242.77 283.684 L2242.77 257.318 L2234.46 258.985 L2234.46 254.726 L2242.73 253.059 L2247.4 253.059 L2247.4 283.684 L2255.04 283.684 L2255.04 287.619 L2235.13 287.619 L2235.13 283.684 Z" fill="#000000" fill-rule="nonzero" fill-opacity="1" /><polyline clip-path="url(#clip420)" style="stroke:#c271d2; stroke-linecap:round; stroke-linejoin:round; stroke-width:4; stroke-opacity:1; fill:none" points="1995.74,322.179 2139.74,322.179 "/>
<circle clip-path="url(#clip420)" cx="2067.74" cy="322.179" r="20.0004" fill="#c271d2" fill-rule="evenodd" fill-opacity="1" stroke="#000000" stroke-opacity="1" stroke-width="4.55111"/>
<path clip-path="url(#clip420)" d="M2168.03 335.57 L2168.03 349.32 L2163.75 349.32 L2163.75 313.533 L2168.03 313.533 L2168.03 317.468 Q2169.37 315.154 2171.41 314.042 Q2173.47 312.908 2176.31 312.908 Q2181.04 312.908 2183.98 316.658 Q2186.94 320.408 2186.94 326.519 Q2186.94 332.63 2183.98 336.38 Q2181.04 340.13 2176.31 340.13 Q2173.47 340.13 2171.41 339.019 Q2169.37 337.885 2168.03 335.57 M2182.52 326.519 Q2182.52 321.82 2180.57 319.158 Q2178.65 316.473 2175.27 316.473 Q2171.89 316.473 2169.95 319.158 Q2168.03 321.82 2168.03 326.519 Q2168.03 331.218 2169.95 333.903 Q2171.89 336.565 2175.27 336.565 Q2178.65 336.565 2180.57 333.903 Q2182.52 331.218 2182.52 326.519 Z" fill="#000000" fill-rule="nonzero" fill-opacity="1" /><path clip-path="url(#clip420)" d="M2194.56 317.931 L2224.23 317.931 L2224.23 321.82 L2194.56 321.82 L2194.56 317.931 M2194.56 327.376 L2224.23 327.376 L2224.23 331.311 L2194.56 331.311 L2194.56 327.376 Z" fill="#000000" fill-rule="nonzero" fill-opacity="1" /><path clip-path="url(#clip420)" d="M2238.35 335.524 L2254.67 335.524 L2254.67 339.459 L2232.73 339.459 L2232.73 335.524 Q2235.39 332.769 2239.97 328.14 Q2244.58 323.487 2245.76 322.144 Q2248 319.621 2248.88 317.885 Q2249.79 316.126 2249.79 314.436 Q2249.79 311.681 2247.84 309.945 Q2245.92 308.209 2242.82 308.209 Q2240.62 308.209 2238.17 308.973 Q2235.74 309.737 2232.96 311.288 L2232.96 306.566 Q2235.78 305.431 2238.24 304.853 Q2240.69 304.274 2242.73 304.274 Q2248.1 304.274 2251.29 306.959 Q2254.49 309.644 2254.49 314.135 Q2254.49 316.265 2253.68 318.186 Q2252.89 320.084 2250.78 322.677 Q2250.2 323.348 2247.1 326.566 Q2244 329.76 2238.35 335.524 Z" fill="#000000" fill-rule="nonzero" fill-opacity="1" /><polyline clip-path="url(#clip420)" style="stroke:#ac8d18; stroke-linecap:round; stroke-linejoin:round; stroke-width:4; stroke-opacity:1; fill:none" points="1995.74,374.019 2139.74,374.019 "/>
<circle clip-path="url(#clip420)" cx="2067.74" cy="374.019" r="20.0004" fill="#ac8d18" fill-rule="evenodd" fill-opacity="1" stroke="#000000" stroke-opacity="1" stroke-width="4.55111"/>
<path clip-path="url(#clip420)" d="M2168.03 387.41 L2168.03 401.16 L2163.75 401.16 L2163.75 365.373 L2168.03 365.373 L2168.03 369.308 Q2169.37 366.994 2171.41 365.882 Q2173.47 364.748 2176.31 364.748 Q2181.04 364.748 2183.98 368.498 Q2186.94 372.248 2186.94 378.359 Q2186.94 384.47 2183.98 388.22 Q2181.04 391.97 2176.31 391.97 Q2173.47 391.97 2171.41 390.859 Q2169.37 389.725 2168.03 387.41 M2182.52 378.359 Q2182.52 373.66 2180.57 370.998 Q2178.65 368.313 2175.27 368.313 Q2171.89 368.313 2169.95 370.998 Q2168.03 373.66 2168.03 378.359 Q2168.03 383.058 2169.95 385.743 Q2171.89 388.405 2175.27 388.405 Q2178.65 388.405 2180.57 385.743 Q2182.52 383.058 2182.52 378.359 Z" fill="#000000" fill-rule="nonzero" fill-opacity="1" /><path clip-path="url(#clip420)" d="M2194.56 369.771 L2224.23 369.771 L2224.23 373.66 L2194.56 373.66 L2194.56 369.771 M2194.56 379.216 L2224.23 379.216 L2224.23 383.151 L2194.56 383.151 L2194.56 379.216 Z" fill="#000000" fill-rule="nonzero" fill-opacity="1" /><path clip-path="url(#clip420)" d="M2248.49 372.665 Q2251.85 373.382 2253.72 375.651 Q2255.62 377.919 2255.62 381.253 Q2255.62 386.368 2252.1 389.169 Q2248.58 391.97 2242.1 391.97 Q2239.93 391.97 2237.61 391.53 Q2235.32 391.114 2232.87 390.257 L2232.87 385.743 Q2234.81 386.878 2237.12 387.456 Q2239.44 388.035 2241.96 388.035 Q2246.36 388.035 2248.65 386.299 Q2250.97 384.563 2250.97 381.253 Q2250.97 378.197 2248.81 376.484 Q2246.68 374.748 2242.87 374.748 L2238.84 374.748 L2238.84 370.906 L2243.05 370.906 Q2246.5 370.906 2248.33 369.54 Q2250.16 368.151 2250.16 365.558 Q2250.16 362.896 2248.26 361.484 Q2246.38 360.049 2242.87 360.049 Q2240.94 360.049 2238.74 360.466 Q2236.55 360.882 2233.91 361.762 L2233.91 357.595 Q2236.57 356.855 2238.88 356.484 Q2241.22 356.114 2243.28 356.114 Q2248.61 356.114 2251.71 358.545 Q2254.81 360.952 2254.81 365.072 Q2254.81 367.943 2253.17 369.933 Q2251.52 371.901 2248.49 372.665 Z" fill="#000000" fill-rule="nonzero" fill-opacity="1" /><polyline clip-path="url(#clip420)" style="stroke:#00a9ad; stroke-linecap:round; stroke-linejoin:round; stroke-width:4; stroke-opacity:1; fill:none" points="1995.74,425.859 2139.74,425.859 "/>
<circle clip-path="url(#clip420)" cx="2067.74" cy="425.859" r="20.0004" fill="#00a9ad" fill-rule="evenodd" fill-opacity="1" stroke="#000000" stroke-opacity="1" stroke-width="4.55111"/>
<path clip-path="url(#clip420)" d="M2168.03 439.25 L2168.03 453 L2163.75 453 L2163.75 417.213 L2168.03 417.213 L2168.03 421.148 Q2169.37 418.834 2171.41 417.722 Q2173.47 416.588 2176.31 416.588 Q2181.04 416.588 2183.98 420.338 Q2186.94 424.088 2186.94 430.199 Q2186.94 436.31 2183.98 440.06 Q2181.04 443.81 2176.31 443.81 Q2173.47 443.81 2171.41 442.699 Q2169.37 441.565 2168.03 439.25 M2182.52 430.199 Q2182.52 425.5 2180.57 422.838 Q2178.65 420.153 2175.27 420.153 Q2171.89 420.153 2169.95 422.838 Q2168.03 425.5 2168.03 430.199 Q2168.03 434.898 2169.95 437.583 Q2171.89 440.245 2175.27 440.245 Q2178.65 440.245 2180.57 437.583 Q2182.52 434.898 2182.52 430.199 Z" fill="#000000" fill-rule="nonzero" fill-opacity="1" /><path clip-path="url(#clip420)" d="M2194.56 421.611 L2224.23 421.611 L2224.23 425.5 L2194.56 425.5 L2194.56 421.611 M2194.56 431.056 L2224.23 431.056 L2224.23 434.991 L2194.56 434.991 L2194.56 431.056 Z" fill="#000000" fill-rule="nonzero" fill-opacity="1" /><path clip-path="url(#clip420)" d="M2247.17 412.653 L2235.37 431.102 L2247.17 431.102 L2247.17 412.653 M2245.94 408.579 L2251.82 408.579 L2251.82 431.102 L2256.75 431.102 L2256.75 434.991 L2251.82 434.991 L2251.82 443.139 L2247.17 443.139 L2247.17 434.991 L2231.57 434.991 L2231.57 430.477 L2245.94 408.579 Z" fill="#000000" fill-rule="nonzero" fill-opacity="1" /><polyline clip-path="url(#clip420)" style="stroke:#ed5d92; stroke-linecap:round; stroke-linejoin:round; stroke-width:4; stroke-opacity:1; fill:none" points="1995.74,477.699 2139.74,477.699 "/>
<circle clip-path="url(#clip420)" cx="2067.74" cy="477.699" r="20.0004" fill="#ed5d92" fill-rule="evenodd" fill-opacity="1" stroke="#000000" stroke-opacity="1" stroke-width="4.55111"/>
<path clip-path="url(#clip420)" d="M2168.03 491.09 L2168.03 504.84 L2163.75 504.84 L2163.75 469.053 L2168.03 469.053 L2168.03 472.988 Q2169.37 470.674 2171.41 469.562 Q2173.47 468.428 2176.31 468.428 Q2181.04 468.428 2183.98 472.178 Q2186.94 475.928 2186.94 482.039 Q2186.94 488.15 2183.98 491.9 Q2181.04 495.65 2176.31 495.65 Q2173.47 495.65 2171.41 494.539 Q2169.37 493.405 2168.03 491.09 M2182.52 482.039 Q2182.52 477.34 2180.57 474.678 Q2178.65 471.993 2175.27 471.993 Q2171.89 471.993 2169.95 474.678 Q2168.03 477.34 2168.03 482.039 Q2168.03 486.738 2169.95 489.423 Q2171.89 492.085 2175.27 492.085 Q2178.65 492.085 2180.57 489.423 Q2182.52 486.738 2182.52 482.039 Z" fill="#000000" fill-rule="nonzero" fill-opacity="1" /><path clip-path="url(#clip420)" d="M2194.56 473.451 L2224.23 473.451 L2224.23 477.34 L2194.56 477.34 L2194.56 473.451 M2194.56 482.896 L2224.23 482.896 L2224.23 486.831 L2194.56 486.831 L2194.56 482.896 Z" fill="#000000" fill-rule="nonzero" fill-opacity="1" /><path clip-path="url(#clip420)" d="M2234.37 460.419 L2252.73 460.419 L2252.73 464.354 L2238.65 464.354 L2238.65 472.826 Q2239.67 472.479 2240.69 472.317 Q2241.71 472.132 2242.73 472.132 Q2248.51 472.132 2251.89 475.303 Q2255.27 478.474 2255.27 483.891 Q2255.27 489.47 2251.8 492.572 Q2248.33 495.65 2242.01 495.65 Q2239.83 495.65 2237.56 495.28 Q2235.32 494.91 2232.91 494.169 L2232.91 489.47 Q2234.99 490.604 2237.22 491.16 Q2239.44 491.715 2241.92 491.715 Q2245.92 491.715 2248.26 489.609 Q2250.6 487.502 2250.6 483.891 Q2250.6 480.28 2248.26 478.173 Q2245.92 476.067 2241.92 476.067 Q2240.04 476.067 2238.17 476.484 Q2236.31 476.9 2234.37 477.78 L2234.37 460.419 Z" fill="#000000" fill-rule="nonzero" fill-opacity="1" /><g clip-path="url(#clip420)">
<text style="fill:#000000; fill-opacity:1; font-family:Century Gothic,CenturyGothic,AppleGothic,sans-serif; font-size:58px; text-anchor:middle;" transform="rotate(0, 253.843, 1410.48)" x="253.843" y="1410.48">p=0</text>
</g>
<g clip-path="url(#clip420)">
<text style="fill:#000000; fill-opacity:1; font-family:Century Gothic,CenturyGothic,AppleGothic,sans-serif; font-size:58px; text-anchor:middle;" transform="rotate(0, 457.621, 1410.48)" x="457.621" y="1410.48">p=1</text>
</g>
<g clip-path="url(#clip420)">
<text style="fill:#000000; fill-opacity:1; font-family:Century Gothic,CenturyGothic,AppleGothic,sans-serif; font-size:58px; text-anchor:middle;" transform="rotate(0, 763.288, 1410.48)" x="763.288" y="1410.48">p=2</text>
</g>
<g clip-path="url(#clip420)">
<text style="fill:#000000; fill-opacity:1; font-family:Century Gothic,CenturyGothic,AppleGothic,sans-serif; font-size:58px; text-anchor:middle;" transform="rotate(0, 1170.84, 1410.48)" x="1170.84" y="1410.48">p=3</text>
</g>
<g clip-path="url(#clip420)">
<text style="fill:#000000; fill-opacity:1; font-family:Century Gothic,CenturyGothic,AppleGothic,sans-serif; font-size:58px; text-anchor:middle;" transform="rotate(0, 1680.29, 1410.48)" x="1680.29" y="1410.48">p=4</text>
</g>
<g clip-path="url(#clip420)">
<text style="fill:#000000; fill-opacity:1; font-family:Century Gothic,CenturyGothic,AppleGothic,sans-serif; font-size:58px; text-anchor:middle;" transform="rotate(0, 2291.62, 1410.48)" x="2291.62" y="1410.48">p=5</text>
</g>
</svg>
