<?xml version="1.0" encoding="utf-8"?>
<svg xmlns="http://www.w3.org/2000/svg" xmlns:xlink="http://www.w3.org/1999/xlink" width="600" height="400" viewBox="0 0 2400 1600">
<defs>
  <clipPath id="clip680">
    <rect x="0" y="0" width="2400" height="1600"/>
  </clipPath>
</defs>
<path clip-path="url(#clip680)" d="M0 1600 L2400 1600 L2400 0 L0 0  Z" fill="#ffffff" fill-rule="evenodd" fill-opacity="1"/>
<defs>
  <clipPath id="clip681">
    <rect x="480" y="0" width="1681" height="1600"/>
  </clipPath>
</defs>
<path clip-path="url(#clip680)" d="M194.422 1419.08 L2352.76 1419.08 L2352.76 123.472 L194.422 123.472  Z" fill="#ffffff" fill-rule="evenodd" fill-opacity="1"/>
<defs>
  <clipPath id="clip682">
    <rect x="194" y="123" width="2159" height="1297"/>
  </clipPath>
</defs>
<polyline clip-path="url(#clip682)" style="stroke:#000000; stroke-linecap:round; stroke-linejoin:round; stroke-width:2; stroke-opacity:0.1; fill:none" points="255.507,1419.08 255.507,123.472 "/>
<polyline clip-path="url(#clip682)" style="stroke:#000000; stroke-linecap:round; stroke-linejoin:round; stroke-width:2; stroke-opacity:0.1; fill:none" points="357.315,1419.08 357.315,123.472 "/>
<polyline clip-path="url(#clip682)" style="stroke:#000000; stroke-linecap:round; stroke-linejoin:round; stroke-width:2; stroke-opacity:0.1; fill:none" points="459.123,1419.08 459.123,123.472 "/>
<polyline clip-path="url(#clip682)" style="stroke:#000000; stroke-linecap:round; stroke-linejoin:round; stroke-width:2; stroke-opacity:0.1; fill:none" points="560.932,1419.08 560.932,123.472 "/>
<polyline clip-path="url(#clip682)" style="stroke:#000000; stroke-linecap:round; stroke-linejoin:round; stroke-width:2; stroke-opacity:0.1; fill:none" points="662.74,1419.08 662.74,123.472 "/>
<polyline clip-path="url(#clip682)" style="stroke:#000000; stroke-linecap:round; stroke-linejoin:round; stroke-width:2; stroke-opacity:0.1; fill:none" points="764.548,1419.08 764.548,123.472 "/>
<polyline clip-path="url(#clip682)" style="stroke:#000000; stroke-linecap:round; stroke-linejoin:round; stroke-width:2; stroke-opacity:0.1; fill:none" points="866.356,1419.08 866.356,123.472 "/>
<polyline clip-path="url(#clip682)" style="stroke:#000000; stroke-linecap:round; stroke-linejoin:round; stroke-width:2; stroke-opacity:0.1; fill:none" points="968.164,1419.08 968.164,123.472 "/>
<polyline clip-path="url(#clip682)" style="stroke:#000000; stroke-linecap:round; stroke-linejoin:round; stroke-width:2; stroke-opacity:0.1; fill:none" points="1069.97,1419.08 1069.97,123.472 "/>
<polyline clip-path="url(#clip682)" style="stroke:#000000; stroke-linecap:round; stroke-linejoin:round; stroke-width:2; stroke-opacity:0.1; fill:none" points="1171.78,1419.08 1171.78,123.472 "/>
<polyline clip-path="url(#clip682)" style="stroke:#000000; stroke-linecap:round; stroke-linejoin:round; stroke-width:2; stroke-opacity:0.1; fill:none" points="1273.59,1419.08 1273.59,123.472 "/>
<polyline clip-path="url(#clip682)" style="stroke:#000000; stroke-linecap:round; stroke-linejoin:round; stroke-width:2; stroke-opacity:0.1; fill:none" points="1375.4,1419.08 1375.4,123.472 "/>
<polyline clip-path="url(#clip682)" style="stroke:#000000; stroke-linecap:round; stroke-linejoin:round; stroke-width:2; stroke-opacity:0.1; fill:none" points="1477.21,1419.08 1477.21,123.472 "/>
<polyline clip-path="url(#clip682)" style="stroke:#000000; stroke-linecap:round; stroke-linejoin:round; stroke-width:2; stroke-opacity:0.1; fill:none" points="1579.01,1419.08 1579.01,123.472 "/>
<polyline clip-path="url(#clip682)" style="stroke:#000000; stroke-linecap:round; stroke-linejoin:round; stroke-width:2; stroke-opacity:0.1; fill:none" points="1680.82,1419.08 1680.82,123.472 "/>
<polyline clip-path="url(#clip682)" style="stroke:#000000; stroke-linecap:round; stroke-linejoin:round; stroke-width:2; stroke-opacity:0.1; fill:none" points="1782.63,1419.08 1782.63,123.472 "/>
<polyline clip-path="url(#clip682)" style="stroke:#000000; stroke-linecap:round; stroke-linejoin:round; stroke-width:2; stroke-opacity:0.1; fill:none" points="1884.44,1419.08 1884.44,123.472 "/>
<polyline clip-path="url(#clip682)" style="stroke:#000000; stroke-linecap:round; stroke-linejoin:round; stroke-width:2; stroke-opacity:0.1; fill:none" points="1986.25,1419.08 1986.25,123.472 "/>
<polyline clip-path="url(#clip682)" style="stroke:#000000; stroke-linecap:round; stroke-linejoin:round; stroke-width:2; stroke-opacity:0.1; fill:none" points="2088.05,1419.08 2088.05,123.472 "/>
<polyline clip-path="url(#clip682)" style="stroke:#000000; stroke-linecap:round; stroke-linejoin:round; stroke-width:2; stroke-opacity:0.1; fill:none" points="2189.86,1419.08 2189.86,123.472 "/>
<polyline clip-path="url(#clip682)" style="stroke:#000000; stroke-linecap:round; stroke-linejoin:round; stroke-width:2; stroke-opacity:0.1; fill:none" points="2291.67,1419.08 2291.67,123.472 "/>
<polyline clip-path="url(#clip682)" style="stroke:#000000; stroke-linecap:round; stroke-linejoin:round; stroke-width:2; stroke-opacity:0.1; fill:none" points="194.422,1174.69 2352.76,1174.69 "/>
<polyline clip-path="url(#clip682)" style="stroke:#000000; stroke-linecap:round; stroke-linejoin:round; stroke-width:2; stroke-opacity:0.1; fill:none" points="194.422,892.677 2352.76,892.677 "/>
<polyline clip-path="url(#clip682)" style="stroke:#000000; stroke-linecap:round; stroke-linejoin:round; stroke-width:2; stroke-opacity:0.1; fill:none" points="194.422,610.66 2352.76,610.66 "/>
<polyline clip-path="url(#clip682)" style="stroke:#000000; stroke-linecap:round; stroke-linejoin:round; stroke-width:2; stroke-opacity:0.1; fill:none" points="194.422,328.643 2352.76,328.643 "/>
<polyline clip-path="url(#clip680)" style="stroke:#000000; stroke-linecap:round; stroke-linejoin:round; stroke-width:4; stroke-opacity:1; fill:none" points="194.422,1419.08 2352.76,1419.08 "/>
<polyline clip-path="url(#clip680)" style="stroke:#000000; stroke-linecap:round; stroke-linejoin:round; stroke-width:4; stroke-opacity:1; fill:none" points="255.507,1419.08 255.507,1400.18 "/>
<polyline clip-path="url(#clip680)" style="stroke:#000000; stroke-linecap:round; stroke-linejoin:round; stroke-width:4; stroke-opacity:1; fill:none" points="357.315,1419.08 357.315,1400.18 "/>
<polyline clip-path="url(#clip680)" style="stroke:#000000; stroke-linecap:round; stroke-linejoin:round; stroke-width:4; stroke-opacity:1; fill:none" points="459.123,1419.08 459.123,1400.18 "/>
<polyline clip-path="url(#clip680)" style="stroke:#000000; stroke-linecap:round; stroke-linejoin:round; stroke-width:4; stroke-opacity:1; fill:none" points="560.932,1419.08 560.932,1400.18 "/>
<polyline clip-path="url(#clip680)" style="stroke:#000000; stroke-linecap:round; stroke-linejoin:round; stroke-width:4; stroke-opacity:1; fill:none" points="662.74,1419.08 662.74,1400.18 "/>
<polyline clip-path="url(#clip680)" style="stroke:#000000; stroke-linecap:round; stroke-linejoin:round; stroke-width:4; stroke-opacity:1; fill:none" points="764.548,1419.08 764.548,1400.18 "/>
<polyline clip-path="url(#clip680)" style="stroke:#000000; stroke-linecap:round; stroke-linejoin:round; stroke-width:4; stroke-opacity:1; fill:none" points="866.356,1419.08 866.356,1400.18 "/>
<polyline clip-path="url(#clip680)" style="stroke:#000000; stroke-linecap:round; stroke-linejoin:round; stroke-width:4; stroke-opacity:1; fill:none" points="968.164,1419.08 968.164,1400.18 "/>
<polyline clip-path="url(#clip680)" style="stroke:#000000; stroke-linecap:round; stroke-linejoin:round; stroke-width:4; stroke-opacity:1; fill:none" points="1069.97,1419.08 1069.97,1400.18 "/>
<polyline clip-path="url(#clip680)" style="stroke:#000000; stroke-linecap:round; stroke-linejoin:round; stroke-width:4; stroke-opacity:1; fill:none" points="1171.78,1419.08 1171.78,1400.18 "/>
<polyline clip-path="url(#clip680)" style="stroke:#000000; stroke-linecap:round; stroke-linejoin:round; stroke-width:4; stroke-opacity:1; fill:none" points="1273.59,1419.08 1273.59,1400.18 "/>
<polyline clip-path="url(#clip680)" style="stroke:#000000; stroke-linecap:round; stroke-linejoin:round; stroke-width:4; stroke-opacity:1; fill:none" points="1375.4,1419.08 1375.4,1400.18 "/>
<polyline clip-path="url(#clip680)" style="stroke:#000000; stroke-linecap:round; stroke-linejoin:round; stroke-width:4; stroke-opacity:1; fill:none" points="1477.21,1419.08 1477.21,1400.18 "/>
<polyline clip-path="url(#clip680)" style="stroke:#000000; stroke-linecap:round; stroke-linejoin:round; stroke-width:4; stroke-opacity:1; fill:none" points="1579.01,1419.08 1579.01,1400.18 "/>
<polyline clip-path="url(#clip680)" style="stroke:#000000; stroke-linecap:round; stroke-linejoin:round; stroke-width:4; stroke-opacity:1; fill:none" points="1680.82,1419.08 1680.82,1400.18 "/>
<polyline clip-path="url(#clip680)" style="stroke:#000000; stroke-linecap:round; stroke-linejoin:round; stroke-width:4; stroke-opacity:1; fill:none" points="1782.63,1419.08 1782.63,1400.18 "/>
<polyline clip-path="url(#clip680)" style="stroke:#000000; stroke-linecap:round; stroke-linejoin:round; stroke-width:4; stroke-opacity:1; fill:none" points="1884.44,1419.08 1884.44,1400.18 "/>
<polyline clip-path="url(#clip680)" style="stroke:#000000; stroke-linecap:round; stroke-linejoin:round; stroke-width:4; stroke-opacity:1; fill:none" points="1986.25,1419.08 1986.25,1400.18 "/>
<polyline clip-path="url(#clip680)" style="stroke:#000000; stroke-linecap:round; stroke-linejoin:round; stroke-width:4; stroke-opacity:1; fill:none" points="2088.05,1419.08 2088.05,1400.18 "/>
<polyline clip-path="url(#clip680)" style="stroke:#000000; stroke-linecap:round; stroke-linejoin:round; stroke-width:4; stroke-opacity:1; fill:none" points="2189.86,1419.08 2189.86,1400.18 "/>
<polyline clip-path="url(#clip680)" style="stroke:#000000; stroke-linecap:round; stroke-linejoin:round; stroke-width:4; stroke-opacity:1; fill:none" points="2291.67,1419.08 2291.67,1400.18 "/>
<path clip-path="url(#clip680)" d="M255.507 1450 Q251.896 1450 250.067 1453.56 Q248.262 1457.1 248.262 1464.23 Q248.262 1471.34 250.067 1474.9 Q251.896 1478.44 255.507 1478.44 Q259.141 1478.44 260.947 1474.9 Q262.776 1471.34 262.776 1464.23 Q262.776 1457.1 260.947 1453.56 Q259.141 1450 255.507 1450 M255.507 1446.29 Q261.317 1446.29 264.373 1450.9 Q267.451 1455.48 267.451 1464.23 Q267.451 1472.96 264.373 1477.57 Q261.317 1482.15 255.507 1482.15 Q249.697 1482.15 246.618 1477.57 Q243.563 1472.96 243.563 1464.23 Q243.563 1455.48 246.618 1450.9 Q249.697 1446.29 255.507 1446.29 Z" fill="#000000" fill-rule="nonzero" fill-opacity="1" /><path clip-path="url(#clip680)" d="M347.697 1477.54 L355.336 1477.54 L355.336 1451.18 L347.026 1452.84 L347.026 1448.58 L355.29 1446.92 L359.966 1446.92 L359.966 1477.54 L367.605 1477.54 L367.605 1481.48 L347.697 1481.48 L347.697 1477.54 Z" fill="#000000" fill-rule="nonzero" fill-opacity="1" /><path clip-path="url(#clip680)" d="M453.776 1477.54 L470.096 1477.54 L470.096 1481.48 L448.151 1481.48 L448.151 1477.54 Q450.813 1474.79 455.397 1470.16 Q460.003 1465.5 461.184 1464.16 Q463.429 1461.64 464.309 1459.9 Q465.211 1458.14 465.211 1456.45 Q465.211 1453.7 463.267 1451.96 Q461.346 1450.23 458.244 1450.23 Q456.045 1450.23 453.591 1450.99 Q451.161 1451.76 448.383 1453.31 L448.383 1448.58 Q451.207 1447.45 453.66 1446.87 Q456.114 1446.29 458.151 1446.29 Q463.522 1446.29 466.716 1448.98 Q469.91 1451.66 469.91 1456.15 Q469.91 1458.28 469.1 1460.2 Q468.313 1462.1 466.207 1464.69 Q465.628 1465.37 462.526 1468.58 Q459.424 1471.78 453.776 1477.54 Z" fill="#000000" fill-rule="nonzero" fill-opacity="1" /><path clip-path="url(#clip680)" d="M565.179 1462.84 Q568.536 1463.56 570.411 1465.83 Q572.309 1468.1 572.309 1471.43 Q572.309 1476.55 568.79 1479.35 Q565.272 1482.15 558.79 1482.15 Q556.615 1482.15 554.3 1481.71 Q552.008 1481.29 549.554 1480.44 L549.554 1475.92 Q551.499 1477.06 553.814 1477.63 Q556.128 1478.21 558.652 1478.21 Q563.05 1478.21 565.341 1476.48 Q567.656 1474.74 567.656 1471.43 Q567.656 1468.38 565.503 1466.66 Q563.374 1464.93 559.554 1464.93 L555.527 1464.93 L555.527 1461.08 L559.739 1461.08 Q563.189 1461.08 565.017 1459.72 Q566.846 1458.33 566.846 1455.74 Q566.846 1453.07 564.948 1451.66 Q563.073 1450.23 559.554 1450.23 Q557.633 1450.23 555.434 1450.64 Q553.235 1451.06 550.596 1451.94 L550.596 1447.77 Q553.258 1447.03 555.573 1446.66 Q557.911 1446.29 559.971 1446.29 Q565.295 1446.29 568.397 1448.72 Q571.499 1451.13 571.499 1455.25 Q571.499 1458.12 569.855 1460.11 Q568.212 1462.08 565.179 1462.84 Z" fill="#000000" fill-rule="nonzero" fill-opacity="1" /><path clip-path="url(#clip680)" d="M665.749 1450.99 L653.944 1469.44 L665.749 1469.44 L665.749 1450.99 M664.522 1446.92 L670.402 1446.92 L670.402 1469.44 L675.332 1469.44 L675.332 1473.33 L670.402 1473.33 L670.402 1481.48 L665.749 1481.48 L665.749 1473.33 L650.147 1473.33 L650.147 1468.82 L664.522 1446.92 Z" fill="#000000" fill-rule="nonzero" fill-opacity="1" /><path clip-path="url(#clip680)" d="M754.826 1446.92 L773.182 1446.92 L773.182 1450.85 L759.108 1450.85 L759.108 1459.32 Q760.127 1458.98 761.145 1458.82 Q762.164 1458.63 763.182 1458.63 Q768.969 1458.63 772.349 1461.8 Q775.729 1464.97 775.729 1470.39 Q775.729 1475.97 772.256 1479.07 Q768.784 1482.15 762.465 1482.15 Q760.289 1482.15 758.02 1481.78 Q755.775 1481.41 753.368 1480.67 L753.368 1475.97 Q755.451 1477.1 757.673 1477.66 Q759.895 1478.21 762.372 1478.21 Q766.377 1478.21 768.715 1476.11 Q771.053 1474 771.053 1470.39 Q771.053 1466.78 768.715 1464.67 Q766.377 1462.57 762.372 1462.57 Q760.497 1462.57 758.622 1462.98 Q756.77 1463.4 754.826 1464.28 L754.826 1446.92 Z" fill="#000000" fill-rule="nonzero" fill-opacity="1" /><path clip-path="url(#clip680)" d="M866.761 1462.33 Q863.613 1462.33 861.761 1464.49 Q859.933 1466.64 859.933 1470.39 Q859.933 1474.12 861.761 1476.29 Q863.613 1478.44 866.761 1478.44 Q869.909 1478.44 871.738 1476.29 Q873.59 1474.12 873.59 1470.39 Q873.59 1466.64 871.738 1464.49 Q869.909 1462.33 866.761 1462.33 M876.044 1447.68 L876.044 1451.94 Q874.284 1451.11 872.479 1450.67 Q870.696 1450.23 868.937 1450.23 Q864.308 1450.23 861.854 1453.35 Q859.423 1456.48 859.076 1462.8 Q860.442 1460.78 862.502 1459.72 Q864.562 1458.63 867.039 1458.63 Q872.247 1458.63 875.257 1461.8 Q878.289 1464.95 878.289 1470.39 Q878.289 1475.71 875.141 1478.93 Q871.993 1482.15 866.761 1482.15 Q860.766 1482.15 857.595 1477.57 Q854.423 1472.96 854.423 1464.23 Q854.423 1456.04 858.312 1451.18 Q862.201 1446.29 868.752 1446.29 Q870.511 1446.29 872.294 1446.64 Q874.099 1446.99 876.044 1447.68 Z" fill="#000000" fill-rule="nonzero" fill-opacity="1" /><path clip-path="url(#clip680)" d="M957.053 1446.92 L979.275 1446.92 L979.275 1448.91 L966.729 1481.48 L961.845 1481.48 L973.65 1450.85 L957.053 1450.85 L957.053 1446.92 Z" fill="#000000" fill-rule="nonzero" fill-opacity="1" /><path clip-path="url(#clip680)" d="M1069.97 1465.07 Q1066.64 1465.07 1064.72 1466.85 Q1062.82 1468.63 1062.82 1471.75 Q1062.82 1474.88 1064.72 1476.66 Q1066.64 1478.44 1069.97 1478.44 Q1073.31 1478.44 1075.23 1476.66 Q1077.15 1474.86 1077.15 1471.75 Q1077.15 1468.63 1075.23 1466.85 Q1073.33 1465.07 1069.97 1465.07 M1065.3 1463.07 Q1062.29 1462.33 1060.6 1460.27 Q1058.93 1458.21 1058.93 1455.25 Q1058.93 1451.11 1061.87 1448.7 Q1064.83 1446.29 1069.97 1446.29 Q1075.13 1446.29 1078.07 1448.7 Q1081.01 1451.11 1081.01 1455.25 Q1081.01 1458.21 1079.32 1460.27 Q1077.66 1462.33 1074.67 1463.07 Q1078.05 1463.86 1079.93 1466.15 Q1081.82 1468.44 1081.82 1471.75 Q1081.82 1476.78 1078.75 1479.46 Q1075.69 1482.15 1069.97 1482.15 Q1064.26 1482.15 1061.18 1479.46 Q1058.12 1476.78 1058.12 1471.75 Q1058.12 1468.44 1060.02 1466.15 Q1061.92 1463.86 1065.3 1463.07 M1063.58 1455.69 Q1063.58 1458.38 1065.25 1459.88 Q1066.94 1461.38 1069.97 1461.38 Q1072.98 1461.38 1074.67 1459.88 Q1076.38 1458.38 1076.38 1455.69 Q1076.38 1453.01 1074.67 1451.5 Q1072.98 1450 1069.97 1450 Q1066.94 1450 1065.25 1451.5 Q1063.58 1453.01 1063.58 1455.69 Z" fill="#000000" fill-rule="nonzero" fill-opacity="1" /><path clip-path="url(#clip680)" d="M1162.08 1480.76 L1162.08 1476.5 Q1163.84 1477.33 1165.65 1477.77 Q1167.45 1478.21 1169.19 1478.21 Q1173.82 1478.21 1176.25 1475.11 Q1178.7 1471.99 1179.05 1465.64 Q1177.71 1467.63 1175.65 1468.7 Q1173.59 1469.76 1171.09 1469.76 Q1165.9 1469.76 1162.87 1466.64 Q1159.86 1463.49 1159.86 1458.05 Q1159.86 1452.73 1163.01 1449.51 Q1166.16 1446.29 1171.39 1446.29 Q1177.38 1446.29 1180.53 1450.9 Q1183.7 1455.48 1183.7 1464.23 Q1183.7 1472.4 1179.81 1477.29 Q1175.95 1482.15 1169.4 1482.15 Q1167.64 1482.15 1165.83 1481.8 Q1164.03 1481.45 1162.08 1480.76 M1171.39 1466.11 Q1174.54 1466.11 1176.36 1463.95 Q1178.22 1461.8 1178.22 1458.05 Q1178.22 1454.32 1176.36 1452.17 Q1174.54 1450 1171.39 1450 Q1168.24 1450 1166.39 1452.17 Q1164.56 1454.32 1164.56 1458.05 Q1164.56 1461.8 1166.39 1463.95 Q1168.24 1466.11 1171.39 1466.11 Z" fill="#000000" fill-rule="nonzero" fill-opacity="1" /><path clip-path="url(#clip680)" d="M1248.28 1477.54 L1255.92 1477.54 L1255.92 1451.18 L1247.61 1452.84 L1247.61 1448.58 L1255.87 1446.92 L1260.55 1446.92 L1260.55 1477.54 L1268.18 1477.54 L1268.18 1481.48 L1248.28 1481.48 L1248.28 1477.54 Z" fill="#000000" fill-rule="nonzero" fill-opacity="1" /><path clip-path="url(#clip680)" d="M1287.63 1450 Q1284.02 1450 1282.19 1453.56 Q1280.38 1457.1 1280.38 1464.23 Q1280.38 1471.34 1282.19 1474.9 Q1284.02 1478.44 1287.63 1478.44 Q1291.26 1478.44 1293.07 1474.9 Q1294.9 1471.34 1294.9 1464.23 Q1294.9 1457.1 1293.07 1453.56 Q1291.26 1450 1287.63 1450 M1287.63 1446.29 Q1293.44 1446.29 1296.49 1450.9 Q1299.57 1455.48 1299.57 1464.23 Q1299.57 1472.96 1296.49 1477.57 Q1293.44 1482.15 1287.63 1482.15 Q1281.82 1482.15 1278.74 1477.57 Q1275.68 1472.96 1275.68 1464.23 Q1275.68 1455.48 1278.74 1450.9 Q1281.82 1446.29 1287.63 1446.29 Z" fill="#000000" fill-rule="nonzero" fill-opacity="1" /><path clip-path="url(#clip680)" d="M1350.7 1477.54 L1358.34 1477.54 L1358.34 1451.18 L1350.03 1452.84 L1350.03 1448.58 L1358.29 1446.92 L1362.97 1446.92 L1362.97 1477.54 L1370.61 1477.54 L1370.61 1481.48 L1350.7 1481.48 L1350.7 1477.54 Z" fill="#000000" fill-rule="nonzero" fill-opacity="1" /><path clip-path="url(#clip680)" d="M1380.86 1477.54 L1388.5 1477.54 L1388.5 1451.18 L1380.19 1452.84 L1380.19 1448.58 L1388.45 1446.92 L1393.13 1446.92 L1393.13 1477.54 L1400.77 1477.54 L1400.77 1481.48 L1380.86 1481.48 L1380.86 1477.54 Z" fill="#000000" fill-rule="nonzero" fill-opacity="1" /><path clip-path="url(#clip680)" d="M1452.69 1477.54 L1460.33 1477.54 L1460.33 1451.18 L1452.02 1452.84 L1452.02 1448.58 L1460.28 1446.92 L1464.96 1446.92 L1464.96 1477.54 L1472.6 1477.54 L1472.6 1481.48 L1452.69 1481.48 L1452.69 1477.54 Z" fill="#000000" fill-rule="nonzero" fill-opacity="1" /><path clip-path="url(#clip680)" d="M1486.07 1477.54 L1502.39 1477.54 L1502.39 1481.48 L1480.45 1481.48 L1480.45 1477.54 Q1483.11 1474.79 1487.69 1470.16 Q1492.3 1465.5 1493.48 1464.16 Q1495.72 1461.64 1496.6 1459.9 Q1497.51 1458.14 1497.51 1456.45 Q1497.51 1453.7 1495.56 1451.96 Q1493.64 1450.23 1490.54 1450.23 Q1488.34 1450.23 1485.89 1450.99 Q1483.46 1451.76 1480.68 1453.31 L1480.68 1448.58 Q1483.5 1447.45 1485.96 1446.87 Q1488.41 1446.29 1490.45 1446.29 Q1495.82 1446.29 1499.01 1448.98 Q1502.21 1451.66 1502.21 1456.15 Q1502.21 1458.28 1501.4 1460.2 Q1500.61 1462.1 1498.5 1464.69 Q1497.92 1465.37 1494.82 1468.58 Q1491.72 1471.78 1486.07 1477.54 Z" fill="#000000" fill-rule="nonzero" fill-opacity="1" /><path clip-path="url(#clip680)" d="M1554.03 1477.54 L1561.66 1477.54 L1561.66 1451.18 L1553.35 1452.84 L1553.35 1448.58 L1561.62 1446.92 L1566.29 1446.92 L1566.29 1477.54 L1573.93 1477.54 L1573.93 1481.48 L1554.03 1481.48 L1554.03 1477.54 Z" fill="#000000" fill-rule="nonzero" fill-opacity="1" /><path clip-path="url(#clip680)" d="M1597.54 1462.84 Q1600.9 1463.56 1602.78 1465.83 Q1604.67 1468.1 1604.67 1471.43 Q1604.67 1476.55 1601.15 1479.35 Q1597.64 1482.15 1591.15 1482.15 Q1588.98 1482.15 1586.66 1481.71 Q1584.37 1481.29 1581.92 1480.44 L1581.92 1475.92 Q1583.86 1477.06 1586.18 1477.63 Q1588.49 1478.21 1591.02 1478.21 Q1595.41 1478.21 1597.71 1476.48 Q1600.02 1474.74 1600.02 1471.43 Q1600.02 1468.38 1597.87 1466.66 Q1595.74 1464.93 1591.92 1464.93 L1587.89 1464.93 L1587.89 1461.08 L1592.1 1461.08 Q1595.55 1461.08 1597.38 1459.72 Q1599.21 1458.33 1599.21 1455.74 Q1599.21 1453.07 1597.31 1451.66 Q1595.44 1450.23 1591.92 1450.23 Q1590 1450.23 1587.8 1450.64 Q1585.6 1451.06 1582.96 1451.94 L1582.96 1447.77 Q1585.62 1447.03 1587.94 1446.66 Q1590.28 1446.29 1592.34 1446.29 Q1597.66 1446.29 1600.76 1448.72 Q1603.86 1451.13 1603.86 1455.25 Q1603.86 1458.12 1602.22 1460.11 Q1600.58 1462.08 1597.54 1462.84 Z" fill="#000000" fill-rule="nonzero" fill-opacity="1" /><path clip-path="url(#clip680)" d="M1655.27 1477.54 L1662.91 1477.54 L1662.91 1451.18 L1654.6 1452.84 L1654.6 1448.58 L1662.86 1446.92 L1667.53 1446.92 L1667.53 1477.54 L1675.17 1477.54 L1675.17 1481.48 L1655.27 1481.48 L1655.27 1477.54 Z" fill="#000000" fill-rule="nonzero" fill-opacity="1" /><path clip-path="url(#clip680)" d="M1697.47 1450.99 L1685.66 1469.44 L1697.47 1469.44 L1697.47 1450.99 M1696.24 1446.92 L1702.12 1446.92 L1702.12 1469.44 L1707.05 1469.44 L1707.05 1473.33 L1702.12 1473.33 L1702.12 1481.48 L1697.47 1481.48 L1697.47 1473.33 L1681.86 1473.33 L1681.86 1468.82 L1696.24 1446.92 Z" fill="#000000" fill-rule="nonzero" fill-opacity="1" /><path clip-path="url(#clip680)" d="M1757.82 1477.54 L1765.45 1477.54 L1765.45 1451.18 L1757.14 1452.84 L1757.14 1448.58 L1765.41 1446.92 L1770.08 1446.92 L1770.08 1477.54 L1777.72 1477.54 L1777.72 1481.48 L1757.82 1481.48 L1757.82 1477.54 Z" fill="#000000" fill-rule="nonzero" fill-opacity="1" /><path clip-path="url(#clip680)" d="M1787.21 1446.92 L1805.57 1446.92 L1805.57 1450.85 L1791.5 1450.85 L1791.5 1459.32 Q1792.51 1458.98 1793.53 1458.82 Q1794.55 1458.63 1795.57 1458.63 Q1801.36 1458.63 1804.74 1461.8 Q1808.12 1464.97 1808.12 1470.39 Q1808.12 1475.97 1804.64 1479.07 Q1801.17 1482.15 1794.85 1482.15 Q1792.68 1482.15 1790.41 1481.78 Q1788.16 1481.41 1785.75 1480.67 L1785.75 1475.97 Q1787.84 1477.1 1790.06 1477.66 Q1792.28 1478.21 1794.76 1478.21 Q1798.76 1478.21 1801.1 1476.11 Q1803.44 1474 1803.44 1470.39 Q1803.44 1466.78 1801.1 1464.67 Q1798.76 1462.57 1794.76 1462.57 Q1792.88 1462.57 1791.01 1462.98 Q1789.16 1463.4 1787.21 1464.28 L1787.21 1446.92 Z" fill="#000000" fill-rule="nonzero" fill-opacity="1" /><path clip-path="url(#clip680)" d="M1859.04 1477.54 L1866.68 1477.54 L1866.68 1451.18 L1858.37 1452.84 L1858.37 1448.58 L1866.64 1446.92 L1871.31 1446.92 L1871.31 1477.54 L1878.95 1477.54 L1878.95 1481.48 L1859.04 1481.48 L1859.04 1477.54 Z" fill="#000000" fill-rule="nonzero" fill-opacity="1" /><path clip-path="url(#clip680)" d="M1898.98 1462.33 Q1895.83 1462.33 1893.98 1464.49 Q1892.15 1466.64 1892.15 1470.39 Q1892.15 1474.12 1893.98 1476.29 Q1895.83 1478.44 1898.98 1478.44 Q1902.12 1478.44 1903.95 1476.29 Q1905.8 1474.12 1905.8 1470.39 Q1905.8 1466.64 1903.95 1464.49 Q1902.12 1462.33 1898.98 1462.33 M1908.26 1447.68 L1908.26 1451.94 Q1906.5 1451.11 1904.69 1450.67 Q1902.91 1450.23 1901.15 1450.23 Q1896.52 1450.23 1894.07 1453.35 Q1891.64 1456.48 1891.29 1462.8 Q1892.66 1460.78 1894.72 1459.72 Q1896.78 1458.63 1899.25 1458.63 Q1904.46 1458.63 1907.47 1461.8 Q1910.5 1464.95 1910.5 1470.39 Q1910.5 1475.71 1907.35 1478.93 Q1904.21 1482.15 1898.98 1482.15 Q1892.98 1482.15 1889.81 1477.57 Q1886.64 1472.96 1886.64 1464.23 Q1886.64 1456.04 1890.53 1451.18 Q1894.41 1446.29 1900.97 1446.29 Q1902.73 1446.29 1904.51 1446.64 Q1906.31 1446.99 1908.26 1447.68 Z" fill="#000000" fill-rule="nonzero" fill-opacity="1" /><path clip-path="url(#clip680)" d="M1961.39 1477.54 L1969.02 1477.54 L1969.02 1451.18 L1960.71 1452.84 L1960.71 1448.58 L1968.98 1446.92 L1973.65 1446.92 L1973.65 1477.54 L1981.29 1477.54 L1981.29 1481.48 L1961.39 1481.48 L1961.39 1477.54 Z" fill="#000000" fill-rule="nonzero" fill-opacity="1" /><path clip-path="url(#clip680)" d="M1989.56 1446.92 L2011.78 1446.92 L2011.78 1448.91 L1999.23 1481.48 L1994.35 1481.48 L2006.15 1450.85 L1989.56 1450.85 L1989.56 1446.92 Z" fill="#000000" fill-rule="nonzero" fill-opacity="1" /><path clip-path="url(#clip680)" d="M2062.79 1477.54 L2070.43 1477.54 L2070.43 1451.18 L2062.12 1452.84 L2062.12 1448.58 L2070.38 1446.92 L2075.06 1446.92 L2075.06 1477.54 L2082.7 1477.54 L2082.7 1481.48 L2062.79 1481.48 L2062.79 1477.54 Z" fill="#000000" fill-rule="nonzero" fill-opacity="1" /><path clip-path="url(#clip680)" d="M2102.14 1465.07 Q2098.81 1465.07 2096.89 1466.85 Q2094.99 1468.63 2094.99 1471.75 Q2094.99 1474.88 2096.89 1476.66 Q2098.81 1478.44 2102.14 1478.44 Q2105.47 1478.44 2107.39 1476.66 Q2109.32 1474.86 2109.32 1471.75 Q2109.32 1468.63 2107.39 1466.85 Q2105.5 1465.07 2102.14 1465.07 M2097.46 1463.07 Q2094.46 1462.33 2092.77 1460.27 Q2091.1 1458.21 2091.1 1455.25 Q2091.1 1451.11 2094.04 1448.7 Q2097 1446.29 2102.14 1446.29 Q2107.3 1446.29 2110.24 1448.7 Q2113.18 1451.11 2113.18 1455.25 Q2113.18 1458.21 2111.49 1460.27 Q2109.83 1462.33 2106.84 1463.07 Q2110.22 1463.86 2112.09 1466.15 Q2113.99 1468.44 2113.99 1471.75 Q2113.99 1476.78 2110.91 1479.46 Q2107.86 1482.15 2102.14 1482.15 Q2096.42 1482.15 2093.34 1479.46 Q2090.29 1476.78 2090.29 1471.75 Q2090.29 1468.44 2092.19 1466.15 Q2094.08 1463.86 2097.46 1463.07 M2095.75 1455.69 Q2095.75 1458.38 2097.42 1459.88 Q2099.11 1461.38 2102.14 1461.38 Q2105.15 1461.38 2106.84 1459.88 Q2108.55 1458.38 2108.55 1455.69 Q2108.55 1453.01 2106.84 1451.5 Q2105.15 1450 2102.14 1450 Q2099.11 1450 2097.42 1451.5 Q2095.75 1453.01 2095.75 1455.69 Z" fill="#000000" fill-rule="nonzero" fill-opacity="1" /><path clip-path="url(#clip680)" d="M2164.64 1477.54 L2172.28 1477.54 L2172.28 1451.18 L2163.97 1452.84 L2163.97 1448.58 L2172.24 1446.92 L2176.91 1446.92 L2176.91 1477.54 L2184.55 1477.54 L2184.55 1481.48 L2164.64 1481.48 L2164.64 1477.54 Z" fill="#000000" fill-rule="nonzero" fill-opacity="1" /><path clip-path="url(#clip680)" d="M2194.13 1480.76 L2194.13 1476.5 Q2195.89 1477.33 2197.7 1477.77 Q2199.5 1478.21 2201.24 1478.21 Q2205.87 1478.21 2208.3 1475.11 Q2210.75 1471.99 2211.1 1465.64 Q2209.76 1467.63 2207.7 1468.7 Q2205.64 1469.76 2203.14 1469.76 Q2197.95 1469.76 2194.92 1466.64 Q2191.91 1463.49 2191.91 1458.05 Q2191.91 1452.73 2195.06 1449.51 Q2198.21 1446.29 2203.44 1446.29 Q2209.43 1446.29 2212.58 1450.9 Q2215.75 1455.48 2215.75 1464.23 Q2215.75 1472.4 2211.86 1477.29 Q2208 1482.15 2201.45 1482.15 Q2199.69 1482.15 2197.88 1481.8 Q2196.08 1481.45 2194.13 1480.76 M2203.44 1466.11 Q2206.59 1466.11 2208.42 1463.95 Q2210.27 1461.8 2210.27 1458.05 Q2210.27 1454.32 2208.42 1452.17 Q2206.59 1450 2203.44 1450 Q2200.29 1450 2198.44 1452.17 Q2196.61 1454.32 2196.61 1458.05 Q2196.61 1461.8 2198.44 1463.95 Q2200.29 1466.11 2203.44 1466.11 Z" fill="#000000" fill-rule="nonzero" fill-opacity="1" /><path clip-path="url(#clip680)" d="M2270.44 1477.54 L2286.76 1477.54 L2286.76 1481.48 L2264.82 1481.48 L2264.82 1477.54 Q2267.48 1474.79 2272.06 1470.16 Q2276.67 1465.5 2277.85 1464.16 Q2280.1 1461.64 2280.98 1459.9 Q2281.88 1458.14 2281.88 1456.45 Q2281.88 1453.7 2279.93 1451.96 Q2278.01 1450.23 2274.91 1450.23 Q2272.71 1450.23 2270.26 1450.99 Q2267.83 1451.76 2265.05 1453.31 L2265.05 1448.58 Q2267.87 1447.45 2270.33 1446.87 Q2272.78 1446.29 2274.82 1446.29 Q2280.19 1446.29 2283.38 1448.98 Q2286.58 1451.66 2286.58 1456.15 Q2286.58 1458.28 2285.77 1460.2 Q2284.98 1462.1 2282.87 1464.69 Q2282.3 1465.37 2279.19 1468.58 Q2276.09 1471.78 2270.44 1477.54 Z" fill="#000000" fill-rule="nonzero" fill-opacity="1" /><path clip-path="url(#clip680)" d="M2306.58 1450 Q2302.97 1450 2301.14 1453.56 Q2299.33 1457.1 2299.33 1464.23 Q2299.33 1471.34 2301.14 1474.9 Q2302.97 1478.44 2306.58 1478.44 Q2310.21 1478.44 2312.02 1474.9 Q2313.85 1471.34 2313.85 1464.23 Q2313.85 1457.1 2312.02 1453.56 Q2310.21 1450 2306.58 1450 M2306.58 1446.29 Q2312.39 1446.29 2315.44 1450.9 Q2318.52 1455.48 2318.52 1464.23 Q2318.52 1472.96 2315.44 1477.57 Q2312.39 1482.15 2306.58 1482.15 Q2300.77 1482.15 2297.69 1477.57 Q2294.63 1472.96 2294.63 1464.23 Q2294.63 1455.48 2297.69 1450.9 Q2300.77 1446.29 2306.58 1446.29 Z" fill="#000000" fill-rule="nonzero" fill-opacity="1" /><path clip-path="url(#clip680)" d="M1278.64 1507.42 Q1278.64 1508.26 1278.29 1509.87 Q1277.16 1514.41 1272.94 1517.54 Q1272.23 1518.12 1270.97 1518.86 Q1272.49 1519.86 1273.81 1521.69 Q1275.77 1524.72 1275.77 1528.81 Q1275.77 1530.71 1275.26 1533.03 Q1273.81 1538.41 1268.72 1542.27 Q1263.6 1546.04 1257.51 1546.04 Q1254.23 1546.04 1251.97 1544.3 Q1249.75 1542.53 1248.88 1539.57 L1244.4 1557.63 Q1244.31 1558.08 1243.73 1558.08 L1243.41 1558.08 Q1242.73 1558.08 1242.73 1557.31 L1252.91 1516.73 Q1253.58 1513.99 1254.68 1511.42 Q1255.77 1508.84 1257.29 1506.52 Q1258.83 1504.2 1260.6 1502.5 Q1262.38 1500.76 1264.57 1499.76 Q1266.76 1498.73 1269.07 1498.73 Q1273.94 1498.73 1276.71 1502.05 Q1278.64 1504.4 1278.64 1507.42 M1274.94 1506.27 Q1274.94 1504.27 1274.13 1502.88 Q1272.49 1500.24 1269.01 1500.24 Q1266.92 1500.24 1264.92 1501.21 Q1262.96 1502.14 1261.38 1503.75 Q1259.8 1505.36 1258.45 1507.55 Q1257.09 1509.74 1256.1 1512.13 Q1255.13 1514.48 1254.49 1517.05 L1250.52 1533.03 Q1250.14 1534.74 1250.14 1536.25 Q1250.14 1539.86 1252.13 1542.21 Q1254.13 1544.56 1257.58 1544.56 Q1262.15 1544.56 1266.08 1541.14 Q1269.49 1538.08 1270.91 1532.71 Q1271.72 1529.32 1271.72 1526.97 Q1271.72 1524.4 1270.78 1522.4 Q1270.11 1520.79 1268.78 1519.82 Q1266.34 1520.69 1263.86 1520.69 Q1262.67 1520.69 1262.02 1520.66 Q1261.41 1520.63 1260.51 1520.5 Q1259.64 1520.37 1259.22 1520.02 Q1258.83 1519.66 1258.83 1519.12 Q1258.83 1518.79 1258.9 1518.66 Q1259.03 1518.15 1259.45 1517.79 Q1259.86 1517.44 1260.35 1517.28 Q1260.83 1517.09 1261.64 1516.99 Q1262.47 1516.89 1263.02 1516.89 Q1263.57 1516.86 1264.5 1516.86 Q1266.69 1516.86 1268.91 1517.73 Q1269.75 1517.28 1270.65 1516.47 Q1273.52 1513.8 1274.49 1509.55 Q1274.94 1507.97 1274.94 1506.27 M1266.82 1518.73 Q1265.47 1518.37 1264.44 1518.37 Q1260.67 1518.37 1260.48 1518.99 Q1260.48 1519.05 1260.6 1519.12 Q1260.73 1519.15 1261.02 1519.18 Q1261.35 1519.18 1261.6 1519.21 Q1261.89 1519.24 1262.38 1519.24 Q1262.86 1519.24 1263.12 1519.24 Q1263.41 1519.24 1263.92 1519.24 Q1265.21 1519.24 1266.82 1518.73 Z" fill="#000000" fill-rule="nonzero" fill-opacity="1" /><path clip-path="url(#clip680)" d="M1297.12 1547.24 Q1297.12 1548.23 1296.31 1548.97 Q1295.52 1549.69 1294.67 1549.69 Q1293.88 1549.69 1293.38 1549.22 Q1292.91 1548.73 1292.91 1548.03 Q1292.91 1547.1 1293.7 1546.34 Q1294.49 1545.57 1295.41 1545.57 Q1296.18 1545.57 1296.65 1546.04 Q1297.12 1546.52 1297.12 1547.24 M1297.53 1569.49 Q1297.53 1569.67 1297.33 1570.39 Q1297.12 1571.09 1296.63 1572.17 Q1296.15 1573.23 1295.5 1574.22 Q1294.85 1575.21 1293.76 1575.91 Q1292.7 1576.61 1291.49 1576.61 Q1289.84 1576.61 1288.76 1575.53 Q1287.7 1574.45 1287.7 1572.82 Q1287.7 1571.95 1288.76 1569.13 Q1291.83 1560.92 1291.94 1560.58 Q1292.46 1559.3 1292.46 1558.17 Q1292.46 1557.65 1292.34 1557.34 Q1292.23 1557 1292.01 1556.89 Q1291.78 1556.75 1291.65 1556.73 Q1291.53 1556.71 1291.31 1556.71 Q1289.98 1556.71 1288.74 1558.06 Q1287.5 1559.41 1286.64 1562.43 Q1286.46 1563 1286.35 1563.13 Q1286.23 1563.27 1285.9 1563.27 Q1285.33 1563.24 1285.33 1562.79 Q1285.33 1562.66 1285.49 1562.14 Q1285.65 1561.6 1285.94 1560.79 Q1286.23 1559.95 1286.75 1559.1 Q1287.27 1558.22 1287.9 1557.45 Q1288.56 1556.68 1289.48 1556.19 Q1290.41 1555.69 1291.44 1555.69 Q1293.13 1555.69 1294.17 1556.8 Q1295.23 1557.88 1295.23 1559.48 Q1295.23 1560.36 1294.62 1561.91 Q1293.88 1563.94 1293.61 1564.6 L1291.8 1569.44 Q1291.15 1571.2 1290.95 1571.74 Q1290.77 1572.26 1290.61 1572.89 Q1290.47 1573.5 1290.47 1574.06 Q1290.47 1574.85 1290.72 1575.21 Q1290.99 1575.58 1291.58 1575.58 Q1293.2 1575.58 1294.4 1573.97 Q1295.59 1572.35 1296.29 1569.87 Q1296.31 1569.8 1296.33 1569.69 Q1296.51 1569.13 1296.69 1569.06 Q1296.79 1569.04 1296.97 1569.04 Q1297.53 1569.04 1297.53 1569.49 Z" fill="#000000" fill-rule="nonzero" fill-opacity="1" /><polyline clip-path="url(#clip680)" style="stroke:#000000; stroke-linecap:round; stroke-linejoin:round; stroke-width:4; stroke-opacity:1; fill:none" points="194.422,1419.08 194.422,123.472 "/>
<polyline clip-path="url(#clip680)" style="stroke:#000000; stroke-linecap:round; stroke-linejoin:round; stroke-width:4; stroke-opacity:1; fill:none" points="194.422,1174.69 213.32,1174.69 "/>
<polyline clip-path="url(#clip680)" style="stroke:#000000; stroke-linecap:round; stroke-linejoin:round; stroke-width:4; stroke-opacity:1; fill:none" points="194.422,892.677 213.32,892.677 "/>
<polyline clip-path="url(#clip680)" style="stroke:#000000; stroke-linecap:round; stroke-linejoin:round; stroke-width:4; stroke-opacity:1; fill:none" points="194.422,610.66 213.32,610.66 "/>
<polyline clip-path="url(#clip680)" style="stroke:#000000; stroke-linecap:round; stroke-linejoin:round; stroke-width:4; stroke-opacity:1; fill:none" points="194.422,328.643 213.32,328.643 "/>
<path clip-path="url(#clip680)" d="M50.9921 1175.14 L80.6679 1175.14 L80.6679 1179.08 L50.9921 1179.08 L50.9921 1175.14 Z" fill="#000000" fill-rule="nonzero" fill-opacity="1" /><path clip-path="url(#clip680)" d="M100.76 1160.49 Q97.1493 1160.49 95.3206 1164.06 Q93.515 1167.6 93.515 1174.73 Q93.515 1181.83 95.3206 1185.4 Q97.1493 1188.94 100.76 1188.94 Q104.395 1188.94 106.2 1185.4 Q108.029 1181.83 108.029 1174.73 Q108.029 1167.6 106.2 1164.06 Q104.395 1160.49 100.76 1160.49 M100.76 1156.79 Q106.571 1156.79 109.626 1161.4 Q112.705 1165.98 112.705 1174.73 Q112.705 1183.46 109.626 1188.06 Q106.571 1192.64 100.76 1192.64 Q94.9502 1192.64 91.8715 1188.06 Q88.816 1183.46 88.816 1174.73 Q88.816 1165.98 91.8715 1161.4 Q94.9502 1156.79 100.76 1156.79 Z" fill="#000000" fill-rule="nonzero" fill-opacity="1" /><path clip-path="url(#clip680)" d="M120.922 1186.09 L125.807 1186.09 L125.807 1191.97 L120.922 1191.97 L120.922 1186.09 Z" fill="#000000" fill-rule="nonzero" fill-opacity="1" /><path clip-path="url(#clip680)" d="M148.839 1161.49 L137.033 1179.94 L148.839 1179.94 L148.839 1161.49 M147.612 1157.41 L153.492 1157.41 L153.492 1179.94 L158.422 1179.94 L158.422 1183.83 L153.492 1183.83 L153.492 1191.97 L148.839 1191.97 L148.839 1183.83 L133.237 1183.83 L133.237 1179.31 L147.612 1157.41 Z" fill="#000000" fill-rule="nonzero" fill-opacity="1" /><path clip-path="url(#clip680)" d="M53.0754 893.128 L82.7512 893.128 L82.7512 897.063 L53.0754 897.063 L53.0754 893.128 Z" fill="#000000" fill-rule="nonzero" fill-opacity="1" /><path clip-path="url(#clip680)" d="M102.844 878.475 Q99.2326 878.475 97.4039 882.04 Q95.5984 885.582 95.5984 892.711 Q95.5984 899.818 97.4039 903.383 Q99.2326 906.924 102.844 906.924 Q106.478 906.924 108.283 903.383 Q110.112 899.818 110.112 892.711 Q110.112 885.582 108.283 882.04 Q106.478 878.475 102.844 878.475 M102.844 874.772 Q108.654 874.772 111.709 879.378 Q114.788 883.961 114.788 892.711 Q114.788 901.438 111.709 906.045 Q108.654 910.628 102.844 910.628 Q97.0335 910.628 93.9549 906.045 Q90.8993 901.438 90.8993 892.711 Q90.8993 883.961 93.9549 879.378 Q97.0335 874.772 102.844 874.772 Z" fill="#000000" fill-rule="nonzero" fill-opacity="1" /><path clip-path="url(#clip680)" d="M123.006 904.077 L127.89 904.077 L127.89 909.957 L123.006 909.957 L123.006 904.077 Z" fill="#000000" fill-rule="nonzero" fill-opacity="1" /><path clip-path="url(#clip680)" d="M142.103 906.022 L158.422 906.022 L158.422 909.957 L136.478 909.957 L136.478 906.022 Q139.14 903.267 143.723 898.637 Q148.33 893.985 149.51 892.642 Q151.755 890.119 152.635 888.383 Q153.538 886.624 153.538 884.934 Q153.538 882.179 151.593 880.443 Q149.672 878.707 146.57 878.707 Q144.371 878.707 141.918 879.471 Q139.487 880.235 136.709 881.786 L136.709 877.063 Q139.533 875.929 141.987 875.35 Q144.441 874.772 146.478 874.772 Q151.848 874.772 155.042 877.457 Q158.237 880.142 158.237 884.633 Q158.237 886.762 157.427 888.684 Q156.64 890.582 154.533 893.174 Q153.955 893.846 150.853 897.063 Q147.751 900.258 142.103 906.022 Z" fill="#000000" fill-rule="nonzero" fill-opacity="1" /><path clip-path="url(#clip680)" d="M101.246 596.458 Q97.6354 596.458 95.8067 600.023 Q94.0012 603.565 94.0012 610.695 Q94.0012 617.801 95.8067 621.366 Q97.6354 624.907 101.246 624.907 Q104.881 624.907 106.686 621.366 Q108.515 617.801 108.515 610.695 Q108.515 603.565 106.686 600.023 Q104.881 596.458 101.246 596.458 M101.246 592.755 Q107.057 592.755 110.112 597.361 Q113.191 601.945 113.191 610.695 Q113.191 619.421 110.112 624.028 Q107.057 628.611 101.246 628.611 Q95.4363 628.611 92.3576 624.028 Q89.3021 619.421 89.3021 610.695 Q89.3021 601.945 92.3576 597.361 Q95.4363 592.755 101.246 592.755 Z" fill="#000000" fill-rule="nonzero" fill-opacity="1" /><path clip-path="url(#clip680)" d="M121.408 622.06 L126.293 622.06 L126.293 627.94 L121.408 627.94 L121.408 622.06 Z" fill="#000000" fill-rule="nonzero" fill-opacity="1" /><path clip-path="url(#clip680)" d="M146.478 596.458 Q142.867 596.458 141.038 600.023 Q139.232 603.565 139.232 610.695 Q139.232 617.801 141.038 621.366 Q142.867 624.907 146.478 624.907 Q150.112 624.907 151.918 621.366 Q153.746 617.801 153.746 610.695 Q153.746 603.565 151.918 600.023 Q150.112 596.458 146.478 596.458 M146.478 592.755 Q152.288 592.755 155.343 597.361 Q158.422 601.945 158.422 610.695 Q158.422 619.421 155.343 624.028 Q152.288 628.611 146.478 628.611 Q140.668 628.611 137.589 624.028 Q134.533 619.421 134.533 610.695 Q134.533 601.945 137.589 597.361 Q140.668 592.755 146.478 592.755 Z" fill="#000000" fill-rule="nonzero" fill-opacity="1" /><path clip-path="url(#clip680)" d="M102.844 314.442 Q99.2326 314.442 97.4039 318.006 Q95.5984 321.548 95.5984 328.678 Q95.5984 335.784 97.4039 339.349 Q99.2326 342.891 102.844 342.891 Q106.478 342.891 108.283 339.349 Q110.112 335.784 110.112 328.678 Q110.112 321.548 108.283 318.006 Q106.478 314.442 102.844 314.442 M102.844 310.738 Q108.654 310.738 111.709 315.344 Q114.788 319.928 114.788 328.678 Q114.788 337.404 111.709 342.011 Q108.654 346.594 102.844 346.594 Q97.0335 346.594 93.9549 342.011 Q90.8993 337.404 90.8993 328.678 Q90.8993 319.928 93.9549 315.344 Q97.0335 310.738 102.844 310.738 Z" fill="#000000" fill-rule="nonzero" fill-opacity="1" /><path clip-path="url(#clip680)" d="M123.006 340.043 L127.89 340.043 L127.89 345.923 L123.006 345.923 L123.006 340.043 Z" fill="#000000" fill-rule="nonzero" fill-opacity="1" /><path clip-path="url(#clip680)" d="M142.103 341.988 L158.422 341.988 L158.422 345.923 L136.478 345.923 L136.478 341.988 Q139.14 339.233 143.723 334.604 Q148.33 329.951 149.51 328.608 Q151.755 326.085 152.635 324.349 Q153.538 322.59 153.538 320.9 Q153.538 318.145 151.593 316.409 Q149.672 314.673 146.57 314.673 Q144.371 314.673 141.918 315.437 Q139.487 316.201 136.709 317.752 L136.709 313.03 Q139.533 311.895 141.987 311.317 Q144.441 310.738 146.478 310.738 Q151.848 310.738 155.042 313.423 Q158.237 316.108 158.237 320.599 Q158.237 322.729 157.427 324.65 Q156.64 326.548 154.533 329.141 Q153.955 329.812 150.853 333.029 Q147.751 336.224 142.103 341.988 Z" fill="#000000" fill-rule="nonzero" fill-opacity="1" /><path clip-path="url(#clip680)" d="M469.181 18.8205 L469.181 41.5461 L479.47 41.5461 Q485.182 41.5461 488.301 38.5889 Q491.42 35.6318 491.42 30.163 Q491.42 24.7348 488.301 21.7777 Q485.182 18.8205 479.47 18.8205 L469.181 18.8205 M460.998 12.096 L479.47 12.096 Q489.638 12.096 494.823 16.714 Q500.049 21.2916 500.049 30.163 Q500.049 39.1155 494.823 43.6931 Q489.638 48.2706 479.47 48.2706 L469.181 48.2706 L469.181 72.576 L460.998 72.576 L460.998 12.096 Z" fill="#000000" fill-rule="nonzero" fill-opacity="1" /><path clip-path="url(#clip680)" d="M525.326 32.4315 Q519.331 32.4315 515.847 37.1306 Q512.363 41.7891 512.363 49.9314 Q512.363 58.0738 515.807 62.7728 Q519.29 67.4314 525.326 67.4314 Q531.281 67.4314 534.765 62.7323 Q538.249 58.0333 538.249 49.9314 Q538.249 41.8701 534.765 37.1711 Q531.281 32.4315 525.326 32.4315 M525.326 26.1121 Q535.048 26.1121 540.598 32.4315 Q546.148 38.7509 546.148 49.9314 Q546.148 61.0714 540.598 67.4314 Q535.048 73.7508 525.326 73.7508 Q515.564 73.7508 510.014 67.4314 Q504.505 61.0714 504.505 49.9314 Q504.505 38.7509 510.014 32.4315 Q515.564 26.1121 525.326 26.1121 Z" fill="#000000" fill-rule="nonzero" fill-opacity="1" /><path clip-path="url(#clip680)" d="M558.503 9.54393 L565.957 9.54393 L565.957 72.576 L558.503 72.576 L558.503 9.54393 Z" fill="#000000" fill-rule="nonzero" fill-opacity="1" /><path clip-path="url(#clip680)" d="M600.43 76.7889 Q597.27 84.8907 594.273 87.3618 Q591.275 89.8329 586.252 89.8329 L580.297 89.8329 L580.297 83.5945 L584.672 83.5945 Q587.751 83.5945 589.452 82.1361 Q591.153 80.6778 593.219 75.2496 L594.556 71.8468 L576.206 27.2059 L584.105 27.2059 L598.283 62.6918 L612.461 27.2059 L620.36 27.2059 L600.43 76.7889 Z" fill="#000000" fill-rule="nonzero" fill-opacity="1" /><path clip-path="url(#clip680)" d="M668.364 45.1919 L668.364 72.576 L660.91 72.576 L660.91 45.4349 Q660.91 38.994 658.398 35.7938 Q655.887 32.5936 650.864 32.5936 Q644.828 32.5936 641.344 36.4419 Q637.86 40.2903 637.86 46.9338 L637.86 72.576 L630.366 72.576 L630.366 27.2059 L637.86 27.2059 L637.86 34.2544 Q640.534 30.163 644.139 28.1376 Q647.785 26.1121 652.525 26.1121 Q660.343 26.1121 664.353 30.9732 Q668.364 35.7938 668.364 45.1919 Z" fill="#000000" fill-rule="nonzero" fill-opacity="1" /><path clip-path="url(#clip680)" d="M700.811 32.4315 Q694.816 32.4315 691.332 37.1306 Q687.849 41.7891 687.849 49.9314 Q687.849 58.0738 691.292 62.7728 Q694.776 67.4314 700.811 67.4314 Q706.766 67.4314 710.25 62.7323 Q713.734 58.0333 713.734 49.9314 Q713.734 41.8701 710.25 37.1711 Q706.766 32.4315 700.811 32.4315 M700.811 26.1121 Q710.534 26.1121 716.083 32.4315 Q721.633 38.7509 721.633 49.9314 Q721.633 61.0714 716.083 67.4314 Q710.534 73.7508 700.811 73.7508 Q691.049 73.7508 685.499 67.4314 Q679.99 61.0714 679.99 49.9314 Q679.99 38.7509 685.499 32.4315 Q691.049 26.1121 700.811 26.1121 Z" fill="#000000" fill-rule="nonzero" fill-opacity="1" /><path clip-path="url(#clip680)" d="M769.312 35.9153 Q772.107 30.8922 775.996 28.5022 Q779.885 26.1121 785.151 26.1121 Q792.24 26.1121 796.089 31.0947 Q799.937 36.0368 799.937 45.1919 L799.937 72.576 L792.443 72.576 L792.443 45.4349 Q792.443 38.913 790.134 35.7533 Q787.825 32.5936 783.085 32.5936 Q777.292 32.5936 773.93 36.4419 Q770.568 40.2903 770.568 46.9338 L770.568 72.576 L763.074 72.576 L763.074 45.4349 Q763.074 38.8725 760.765 35.7533 Q758.456 32.5936 753.635 32.5936 Q747.923 32.5936 744.561 36.4824 Q741.199 40.3308 741.199 46.9338 L741.199 72.576 L733.705 72.576 L733.705 27.2059 L741.199 27.2059 L741.199 34.2544 Q743.751 30.082 747.316 28.0971 Q750.881 26.1121 755.782 26.1121 Q760.724 26.1121 764.168 28.6237 Q767.651 31.1352 769.312 35.9153 Z" fill="#000000" fill-rule="nonzero" fill-opacity="1" /><path clip-path="url(#clip680)" d="M814.804 27.2059 L822.258 27.2059 L822.258 72.576 L814.804 72.576 L814.804 27.2059 M814.804 9.54393 L822.258 9.54393 L822.258 18.9825 L814.804 18.9825 L814.804 9.54393 Z" fill="#000000" fill-rule="nonzero" fill-opacity="1" /><path clip-path="url(#clip680)" d="M858.473 49.7694 Q849.439 49.7694 845.955 51.8354 Q842.472 53.9013 842.472 58.8839 Q842.472 62.8538 845.064 65.2034 Q847.697 67.5124 852.194 67.5124 Q858.392 67.5124 862.118 63.1374 Q865.886 58.7219 865.886 51.4303 L865.886 49.7694 L858.473 49.7694 M873.339 46.6907 L873.339 72.576 L865.886 72.576 L865.886 65.6895 Q863.334 69.8214 859.526 71.8063 Q855.718 73.7508 850.209 73.7508 Q843.241 73.7508 839.109 69.8619 Q835.018 65.9325 835.018 59.3701 Q835.018 51.7138 840.122 47.825 Q845.267 43.9361 855.434 43.9361 L865.886 43.9361 L865.886 43.2069 Q865.886 38.0623 862.483 35.2672 Q859.121 32.4315 853.004 32.4315 Q849.115 32.4315 845.429 33.3632 Q841.742 34.295 838.34 36.1584 L838.34 29.2718 Q842.431 27.692 846.279 26.9223 Q850.128 26.1121 853.774 26.1121 Q863.617 26.1121 868.478 31.2163 Q873.339 36.3204 873.339 46.6907 Z" fill="#000000" fill-rule="nonzero" fill-opacity="1" /><path clip-path="url(#clip680)" d="M888.692 9.54393 L896.146 9.54393 L896.146 72.576 L888.692 72.576 L888.692 9.54393 Z" fill="#000000" fill-rule="nonzero" fill-opacity="1" /><path clip-path="url(#clip680)" d="M962.986 17.6457 Q954.074 17.6457 948.808 24.2892 Q943.582 30.9327 943.582 42.3968 Q943.582 53.8203 948.808 60.4638 Q954.074 67.1073 962.986 67.1073 Q971.898 67.1073 977.083 60.4638 Q982.309 53.8203 982.309 42.3968 Q982.309 30.9327 977.083 24.2892 Q971.898 17.6457 962.986 17.6457 M962.986 11.0023 Q975.706 11.0023 983.321 19.5497 Q990.937 28.0566 990.937 42.3968 Q990.937 56.6965 983.321 65.2439 Q975.706 73.7508 962.986 73.7508 Q950.226 73.7508 942.569 65.2439 Q934.954 56.737 934.954 42.3968 Q934.954 28.0566 942.569 19.5497 Q950.226 11.0023 962.986 11.0023 Z" fill="#000000" fill-rule="nonzero" fill-opacity="1" /><path clip-path="url(#clip680)" d="M1003.74 12.096 L1011.92 12.096 L1011.92 65.6895 L1041.37 65.6895 L1041.37 72.576 L1003.74 72.576 L1003.74 12.096 Z" fill="#000000" fill-rule="nonzero" fill-opacity="1" /><path clip-path="url(#clip680)" d="M1086.21 14.0809 L1086.21 22.0612 Q1081.56 19.8332 1077.42 18.7395 Q1073.29 17.6457 1069.44 17.6457 Q1062.76 17.6457 1059.11 20.2383 Q1055.51 22.8309 1055.51 27.611 Q1055.51 31.6214 1057.9 33.6873 Q1060.33 35.7128 1067.05 36.9686 L1072 37.9813 Q1081.15 39.7232 1085.49 44.1387 Q1089.86 48.5136 1089.86 55.8863 Q1089.86 64.6767 1083.95 69.2137 Q1078.07 73.7508 1066.69 73.7508 Q1062.4 73.7508 1057.53 72.7785 Q1052.71 71.8063 1047.53 69.9024 L1047.53 61.4765 Q1052.51 64.2716 1057.29 65.6895 Q1062.07 67.1073 1066.69 67.1073 Q1073.7 67.1073 1077.5 64.3527 Q1081.31 61.598 1081.31 56.4939 Q1081.31 52.0379 1078.56 49.5264 Q1075.84 47.0148 1069.61 45.759 L1064.62 44.7868 Q1055.47 42.9639 1051.38 39.075 Q1047.29 35.1862 1047.29 28.2591 Q1047.29 20.2383 1052.92 15.6203 Q1058.59 11.0023 1068.51 11.0023 Q1072.77 11.0023 1077.18 11.7719 Q1081.6 12.5416 1086.21 14.0809 Z" fill="#000000" fill-rule="nonzero" fill-opacity="1" /><path clip-path="url(#clip680)" d="M1157.67 44.2197 Q1160.31 45.1109 1162.78 48.0275 Q1165.29 50.9442 1167.8 56.0483 L1176.1 72.576 L1167.31 72.576 L1159.58 57.061 Q1156.58 50.9847 1153.74 48.9997 Q1150.95 47.0148 1146.09 47.0148 L1137.17 47.0148 L1137.17 72.576 L1128.99 72.576 L1128.99 12.096 L1147.46 12.096 Q1157.83 12.096 1162.94 16.4305 Q1168.04 20.7649 1168.04 29.5149 Q1168.04 35.2267 1165.37 38.994 Q1162.74 42.7613 1157.67 44.2197 M1137.17 18.8205 L1137.17 40.2903 L1147.46 40.2903 Q1153.38 40.2903 1156.38 37.5762 Q1159.41 34.8216 1159.41 29.5149 Q1159.41 24.2082 1156.38 21.5346 Q1153.38 18.8205 1147.46 18.8205 L1137.17 18.8205 Z" fill="#000000" fill-rule="nonzero" fill-opacity="1" /><path clip-path="url(#clip680)" d="M1221.39 48.0275 L1221.39 51.6733 L1187.12 51.6733 Q1187.61 59.3701 1191.74 63.421 Q1195.91 67.4314 1203.33 67.4314 Q1207.62 67.4314 1211.63 66.3781 Q1215.68 65.3249 1219.65 63.2184 L1219.65 70.267 Q1215.64 71.9684 1211.43 72.8596 Q1207.21 73.7508 1202.88 73.7508 Q1192.02 73.7508 1185.66 67.4314 Q1179.34 61.1119 1179.34 50.3365 Q1179.34 39.1965 1185.34 32.6746 Q1191.38 26.1121 1201.58 26.1121 Q1210.74 26.1121 1216.05 32.0264 Q1221.39 37.9003 1221.39 48.0275 M1213.94 45.84 Q1213.86 39.7232 1210.5 36.0774 Q1207.17 32.4315 1201.67 32.4315 Q1195.43 32.4315 1191.66 35.9558 Q1187.93 39.4801 1187.37 45.8805 L1213.94 45.84 Z" fill="#000000" fill-rule="nonzero" fill-opacity="1" /><path clip-path="url(#clip680)" d="M1263.48 49.3643 Q1263.48 41.2625 1260.12 36.8065 Q1256.8 32.3505 1250.76 32.3505 Q1244.77 32.3505 1241.4 36.8065 Q1238.08 41.2625 1238.08 49.3643 Q1238.08 57.4256 1241.4 61.8816 Q1244.77 66.3376 1250.76 66.3376 Q1256.8 66.3376 1260.12 61.8816 Q1263.48 57.4256 1263.48 49.3643 M1270.94 66.9452 Q1270.94 78.5308 1265.79 84.1616 Q1260.65 89.8329 1250.03 89.8329 Q1246.1 89.8329 1242.62 89.2252 Q1239.14 88.6581 1235.85 87.4428 L1235.85 80.1917 Q1239.14 81.9741 1242.34 82.8248 Q1245.54 83.6755 1248.86 83.6755 Q1256.19 83.6755 1259.84 79.8271 Q1263.48 76.0193 1263.48 68.282 L1263.48 64.5957 Q1261.17 68.6061 1257.57 70.5911 Q1253.96 72.576 1248.94 72.576 Q1240.59 72.576 1235.49 66.2161 Q1230.39 59.8562 1230.39 49.3643 Q1230.39 38.832 1235.49 32.472 Q1240.59 26.1121 1248.94 26.1121 Q1253.96 26.1121 1257.57 28.0971 Q1261.17 30.082 1263.48 34.0924 L1263.48 27.2059 L1270.94 27.2059 L1270.94 66.9452 Z" fill="#000000" fill-rule="nonzero" fill-opacity="1" /><path clip-path="url(#clip680)" d="M1312.58 34.1734 Q1311.32 33.4443 1309.82 33.1202 Q1308.37 32.7556 1306.58 32.7556 Q1300.26 32.7556 1296.86 36.8875 Q1293.5 40.9789 1293.5 48.6757 L1293.5 72.576 L1286.01 72.576 L1286.01 27.2059 L1293.5 27.2059 L1293.5 34.2544 Q1295.85 30.1225 1299.62 28.1376 Q1303.38 26.1121 1308.77 26.1121 Q1309.54 26.1121 1310.47 26.2337 Q1311.4 26.3147 1312.54 26.5172 L1312.58 34.1734 Z" fill="#000000" fill-rule="nonzero" fill-opacity="1" /><path clip-path="url(#clip680)" d="M1357.38 48.0275 L1357.38 51.6733 L1323.11 51.6733 Q1323.6 59.3701 1327.73 63.421 Q1331.9 67.4314 1339.31 67.4314 Q1343.61 67.4314 1347.62 66.3781 Q1351.67 65.3249 1355.64 63.2184 L1355.64 70.267 Q1351.63 71.9684 1347.42 72.8596 Q1343.2 73.7508 1338.87 73.7508 Q1328.01 73.7508 1321.65 67.4314 Q1315.33 61.1119 1315.33 50.3365 Q1315.33 39.1965 1321.33 32.6746 Q1327.36 26.1121 1337.57 26.1121 Q1346.73 26.1121 1352.03 32.0264 Q1357.38 37.9003 1357.38 48.0275 M1349.93 45.84 Q1349.85 39.7232 1346.49 36.0774 Q1343.16 32.4315 1337.65 32.4315 Q1331.42 32.4315 1327.65 35.9558 Q1323.92 39.4801 1323.35 45.8805 L1349.93 45.84 Z" fill="#000000" fill-rule="nonzero" fill-opacity="1" /><path clip-path="url(#clip680)" d="M1398.54 28.5427 L1398.54 35.5912 Q1395.38 33.9709 1391.98 33.1607 Q1388.57 32.3505 1384.93 32.3505 Q1379.38 32.3505 1376.58 34.0519 Q1373.83 35.7533 1373.83 39.156 Q1373.83 41.7486 1375.81 43.2475 Q1377.8 44.7058 1383.79 46.0426 L1386.35 46.6097 Q1394.29 48.3111 1397.61 51.4303 Q1400.97 54.509 1400.97 60.0587 Q1400.97 66.3781 1395.95 70.0644 Q1390.96 73.7508 1382.21 73.7508 Q1378.57 73.7508 1374.6 73.0216 Q1370.67 72.3329 1366.29 70.9151 L1366.29 63.2184 Q1370.43 65.3654 1374.44 66.4591 Q1378.45 67.5124 1382.38 67.5124 Q1387.64 67.5124 1390.48 65.73 Q1393.31 63.9071 1393.31 60.6258 Q1393.31 57.5877 1391.25 55.9673 Q1389.22 54.3469 1382.3 52.8481 L1379.7 52.2405 Q1372.78 50.7821 1369.7 47.7845 Q1366.62 44.7463 1366.62 39.4801 Q1366.62 33.0797 1371.16 29.5959 Q1375.69 26.1121 1384.04 26.1121 Q1388.17 26.1121 1391.81 26.7198 Q1395.46 27.3274 1398.54 28.5427 Z" fill="#000000" fill-rule="nonzero" fill-opacity="1" /><path clip-path="url(#clip680)" d="M1441.76 28.5427 L1441.76 35.5912 Q1438.6 33.9709 1435.2 33.1607 Q1431.8 32.3505 1428.15 32.3505 Q1422.6 32.3505 1419.81 34.0519 Q1417.05 35.7533 1417.05 39.156 Q1417.05 41.7486 1419.04 43.2475 Q1421.02 44.7058 1427.02 46.0426 L1429.57 46.6097 Q1437.51 48.3111 1440.83 51.4303 Q1444.19 54.509 1444.19 60.0587 Q1444.19 66.3781 1439.17 70.0644 Q1434.19 73.7508 1425.44 73.7508 Q1421.79 73.7508 1417.82 73.0216 Q1413.89 72.3329 1409.52 70.9151 L1409.52 63.2184 Q1413.65 65.3654 1417.66 66.4591 Q1421.67 67.5124 1425.6 67.5124 Q1430.87 67.5124 1433.7 65.73 Q1436.54 63.9071 1436.54 60.6258 Q1436.54 57.5877 1434.47 55.9673 Q1432.45 54.3469 1425.52 52.8481 L1422.93 52.2405 Q1416 50.7821 1412.92 47.7845 Q1409.84 44.7463 1409.84 39.4801 Q1409.84 33.0797 1414.38 29.5959 Q1418.92 26.1121 1427.26 26.1121 Q1431.39 26.1121 1435.04 26.7198 Q1438.68 27.3274 1441.76 28.5427 Z" fill="#000000" fill-rule="nonzero" fill-opacity="1" /><path clip-path="url(#clip680)" d="M1456.06 27.2059 L1463.52 27.2059 L1463.52 72.576 L1456.06 72.576 L1456.06 27.2059 M1456.06 9.54393 L1463.52 9.54393 L1463.52 18.9825 L1456.06 18.9825 L1456.06 9.54393 Z" fill="#000000" fill-rule="nonzero" fill-opacity="1" /><path clip-path="url(#clip680)" d="M1496.69 32.4315 Q1490.7 32.4315 1487.21 37.1306 Q1483.73 41.7891 1483.73 49.9314 Q1483.73 58.0738 1487.17 62.7728 Q1490.66 67.4314 1496.69 67.4314 Q1502.65 67.4314 1506.13 62.7323 Q1509.61 58.0333 1509.61 49.9314 Q1509.61 41.8701 1506.13 37.1711 Q1502.65 32.4315 1496.69 32.4315 M1496.69 26.1121 Q1506.41 26.1121 1511.96 32.4315 Q1517.51 38.7509 1517.51 49.9314 Q1517.51 61.0714 1511.96 67.4314 Q1506.41 73.7508 1496.69 73.7508 Q1486.93 73.7508 1481.38 67.4314 Q1475.87 61.0714 1475.87 49.9314 Q1475.87 38.7509 1481.38 32.4315 Q1486.93 26.1121 1496.69 26.1121 Z" fill="#000000" fill-rule="nonzero" fill-opacity="1" /><path clip-path="url(#clip680)" d="M1567.58 45.1919 L1567.58 72.576 L1560.13 72.576 L1560.13 45.4349 Q1560.13 38.994 1557.62 35.7938 Q1555.11 32.5936 1550.08 32.5936 Q1544.05 32.5936 1540.56 36.4419 Q1537.08 40.2903 1537.08 46.9338 L1537.08 72.576 L1529.59 72.576 L1529.59 27.2059 L1537.08 27.2059 L1537.08 34.2544 Q1539.75 30.163 1543.36 28.1376 Q1547 26.1121 1551.74 26.1121 Q1559.56 26.1121 1563.57 30.9732 Q1567.58 35.7938 1567.58 45.1919 Z" fill="#000000" fill-rule="nonzero" fill-opacity="1" /><path clip-path="url(#clip680)" d="M1654.43 16.7545 L1654.43 25.383 Q1650.3 21.5346 1645.6 19.6307 Q1640.95 17.7268 1635.68 17.7268 Q1625.31 17.7268 1619.8 24.0867 Q1614.29 30.4061 1614.29 42.3968 Q1614.29 54.3469 1619.8 60.7069 Q1625.31 67.0263 1635.68 67.0263 Q1640.95 67.0263 1645.6 65.1223 Q1650.3 63.2184 1654.43 59.3701 L1654.43 67.9175 Q1650.14 70.8341 1645.32 72.2924 Q1640.54 73.7508 1635.19 73.7508 Q1621.46 73.7508 1613.56 65.3654 Q1605.66 56.9395 1605.66 42.3968 Q1605.66 27.8135 1613.56 19.4281 Q1621.46 11.0023 1635.19 11.0023 Q1640.62 11.0023 1645.4 12.4606 Q1650.22 13.8784 1654.43 16.7545 Z" fill="#000000" fill-rule="nonzero" fill-opacity="1" /><path clip-path="url(#clip680)" d="M1684.33 32.4315 Q1678.34 32.4315 1674.85 37.1306 Q1671.37 41.7891 1671.37 49.9314 Q1671.37 58.0738 1674.81 62.7728 Q1678.29 67.4314 1684.33 67.4314 Q1690.29 67.4314 1693.77 62.7323 Q1697.25 58.0333 1697.25 49.9314 Q1697.25 41.8701 1693.77 37.1711 Q1690.29 32.4315 1684.33 32.4315 M1684.33 26.1121 Q1694.05 26.1121 1699.6 32.4315 Q1705.15 38.7509 1705.15 49.9314 Q1705.15 61.0714 1699.6 67.4314 Q1694.05 73.7508 1684.33 73.7508 Q1674.57 73.7508 1669.02 67.4314 Q1663.51 61.0714 1663.51 49.9314 Q1663.51 38.7509 1669.02 32.4315 Q1674.57 26.1121 1684.33 26.1121 Z" fill="#000000" fill-rule="nonzero" fill-opacity="1" /><path clip-path="url(#clip680)" d="M1756.32 48.0275 L1756.32 51.6733 L1722.04 51.6733 Q1722.53 59.3701 1726.66 63.421 Q1730.83 67.4314 1738.25 67.4314 Q1742.54 67.4314 1746.55 66.3781 Q1750.6 65.3249 1754.57 63.2184 L1754.57 70.267 Q1750.56 71.9684 1746.35 72.8596 Q1742.14 73.7508 1737.8 73.7508 Q1726.95 73.7508 1720.59 67.4314 Q1714.27 61.1119 1714.27 50.3365 Q1714.27 39.1965 1720.26 32.6746 Q1726.3 26.1121 1736.51 26.1121 Q1745.66 26.1121 1750.97 32.0264 Q1756.32 37.9003 1756.32 48.0275 M1748.86 45.84 Q1748.78 39.7232 1745.42 36.0774 Q1742.1 32.4315 1736.59 32.4315 Q1730.35 32.4315 1726.58 35.9558 Q1722.85 39.4801 1722.29 45.8805 L1748.86 45.84 Z" fill="#000000" fill-rule="nonzero" fill-opacity="1" /><path clip-path="url(#clip680)" d="M1791.52 9.54393 L1791.52 15.7418 L1784.39 15.7418 Q1780.38 15.7418 1778.8 17.3622 Q1777.26 18.9825 1777.26 23.1955 L1777.26 27.2059 L1789.53 27.2059 L1789.53 32.9987 L1777.26 32.9987 L1777.26 72.576 L1769.76 72.576 L1769.76 32.9987 L1762.63 32.9987 L1762.63 27.2059 L1769.76 27.2059 L1769.76 24.0462 Q1769.76 16.471 1773.29 13.0277 Q1776.81 9.54393 1784.47 9.54393 L1791.52 9.54393 Z" fill="#000000" fill-rule="nonzero" fill-opacity="1" /><path clip-path="url(#clip680)" d="M1820.72 9.54393 L1820.72 15.7418 L1813.59 15.7418 Q1809.58 15.7418 1808 17.3622 Q1806.47 18.9825 1806.47 23.1955 L1806.47 27.2059 L1818.74 27.2059 L1818.74 32.9987 L1806.47 32.9987 L1806.47 72.576 L1798.97 72.576 L1798.97 32.9987 L1791.84 32.9987 L1791.84 27.2059 L1798.97 27.2059 L1798.97 24.0462 Q1798.97 16.471 1802.5 13.0277 Q1806.02 9.54393 1813.68 9.54393 L1820.72 9.54393 Z" fill="#000000" fill-rule="nonzero" fill-opacity="1" /><path clip-path="url(#clip680)" d="M1826.96 27.2059 L1834.42 27.2059 L1834.42 72.576 L1826.96 72.576 L1826.96 27.2059 M1826.96 9.54393 L1834.42 9.54393 L1834.42 18.9825 L1826.96 18.9825 L1826.96 9.54393 Z" fill="#000000" fill-rule="nonzero" fill-opacity="1" /><path clip-path="url(#clip680)" d="M1882.66 28.9478 L1882.66 35.9153 Q1879.5 34.1734 1876.3 33.3227 Q1873.14 32.4315 1869.9 32.4315 Q1862.65 32.4315 1858.64 37.0496 Q1854.63 41.6271 1854.63 49.9314 Q1854.63 58.2358 1858.64 62.8538 Q1862.65 67.4314 1869.9 67.4314 Q1873.14 67.4314 1876.3 66.5807 Q1879.5 65.6895 1882.66 63.9476 L1882.66 70.8341 Q1879.54 72.2924 1876.18 73.0216 Q1872.86 73.7508 1869.09 73.7508 Q1858.84 73.7508 1852.81 67.3098 Q1846.77 60.8689 1846.77 49.9314 Q1846.77 38.832 1852.85 32.472 Q1858.96 26.1121 1869.58 26.1121 Q1873.02 26.1121 1876.3 26.8413 Q1879.58 27.5299 1882.66 28.9478 Z" fill="#000000" fill-rule="nonzero" fill-opacity="1" /><path clip-path="url(#clip680)" d="M1895.63 27.2059 L1903.08 27.2059 L1903.08 72.576 L1895.63 72.576 L1895.63 27.2059 M1895.63 9.54393 L1903.08 9.54393 L1903.08 18.9825 L1895.63 18.9825 L1895.63 9.54393 Z" fill="#000000" fill-rule="nonzero" fill-opacity="1" /><path clip-path="url(#clip680)" d="M1957.48 48.0275 L1957.48 51.6733 L1923.21 51.6733 Q1923.7 59.3701 1927.83 63.421 Q1932 67.4314 1939.42 67.4314 Q1943.71 67.4314 1947.72 66.3781 Q1951.77 65.3249 1955.74 63.2184 L1955.74 70.267 Q1951.73 71.9684 1947.52 72.8596 Q1943.3 73.7508 1938.97 73.7508 Q1928.11 73.7508 1921.75 67.4314 Q1915.43 61.1119 1915.43 50.3365 Q1915.43 39.1965 1921.43 32.6746 Q1927.47 26.1121 1937.67 26.1121 Q1946.83 26.1121 1952.14 32.0264 Q1957.48 37.9003 1957.48 48.0275 M1950.03 45.84 Q1949.95 39.7232 1946.59 36.0774 Q1943.26 32.4315 1937.76 32.4315 Q1931.52 32.4315 1927.75 35.9558 Q1924.02 39.4801 1923.46 45.8805 L1950.03 45.84 Z" fill="#000000" fill-rule="nonzero" fill-opacity="1" /><path clip-path="url(#clip680)" d="M2007.43 45.1919 L2007.43 72.576 L1999.98 72.576 L1999.98 45.4349 Q1999.98 38.994 1997.47 35.7938 Q1994.95 32.5936 1989.93 32.5936 Q1983.89 32.5936 1980.41 36.4419 Q1976.93 40.2903 1976.93 46.9338 L1976.93 72.576 L1969.43 72.576 L1969.43 27.2059 L1976.93 27.2059 L1976.93 34.2544 Q1979.6 30.163 1983.21 28.1376 Q1986.85 26.1121 1991.59 26.1121 Q1999.41 26.1121 2003.42 30.9732 Q2007.43 35.7938 2007.43 45.1919 Z" fill="#000000" fill-rule="nonzero" fill-opacity="1" /><path clip-path="url(#clip680)" d="M2029.67 14.324 L2029.67 27.2059 L2045.02 27.2059 L2045.02 32.9987 L2029.67 32.9987 L2029.67 57.6282 Q2029.67 63.1779 2031.17 64.7578 Q2032.71 66.3376 2037.37 66.3376 L2045.02 66.3376 L2045.02 72.576 L2037.37 72.576 Q2028.74 72.576 2025.46 69.3758 Q2022.18 66.1351 2022.18 57.6282 L2022.18 32.9987 L2016.71 32.9987 L2016.71 27.2059 L2022.18 27.2059 L2022.18 14.324 L2029.67 14.324 Z" fill="#000000" fill-rule="nonzero" fill-opacity="1" /><path clip-path="url(#clip680)" d="M2083.75 28.5427 L2083.75 35.5912 Q2080.59 33.9709 2077.19 33.1607 Q2073.78 32.3505 2070.14 32.3505 Q2064.59 32.3505 2061.79 34.0519 Q2059.04 35.7533 2059.04 39.156 Q2059.04 41.7486 2061.02 43.2475 Q2063.01 44.7058 2069 46.0426 L2071.56 46.6097 Q2079.5 48.3111 2082.82 51.4303 Q2086.18 54.509 2086.18 60.0587 Q2086.18 66.3781 2081.16 70.0644 Q2076.17 73.7508 2067.42 73.7508 Q2063.78 73.7508 2059.81 73.0216 Q2055.88 72.3329 2051.5 70.9151 L2051.5 63.2184 Q2055.64 65.3654 2059.65 66.4591 Q2063.66 67.5124 2067.59 67.5124 Q2072.85 67.5124 2075.69 65.73 Q2078.52 63.9071 2078.52 60.6258 Q2078.52 57.5877 2076.46 55.9673 Q2074.43 54.3469 2067.51 52.8481 L2064.91 52.2405 Q2057.99 50.7821 2054.91 47.7845 Q2051.83 44.7463 2051.83 39.4801 Q2051.83 33.0797 2056.37 29.5959 Q2060.9 26.1121 2069.25 26.1121 Q2073.38 26.1121 2077.03 26.7198 Q2080.67 27.3274 2083.75 28.5427 Z" fill="#000000" fill-rule="nonzero" fill-opacity="1" /><polyline clip-path="url(#clip682)" style="stroke:#009af9; stroke-linecap:round; stroke-linejoin:round; stroke-width:4; stroke-opacity:1; fill:none" points="255.507,2714.68 255.507,-1172.13 "/>
<polyline clip-path="url(#clip682)" style="stroke:#009af9; stroke-linecap:round; stroke-linejoin:round; stroke-width:4; stroke-opacity:1; fill:none" points="459.123,2714.68 459.123,-1172.13 "/>
<polyline clip-path="url(#clip682)" style="stroke:#009af9; stroke-linecap:round; stroke-linejoin:round; stroke-width:4; stroke-opacity:1; fill:none" points="764.548,2714.68 764.548,-1172.13 "/>
<polyline clip-path="url(#clip682)" style="stroke:#009af9; stroke-linecap:round; stroke-linejoin:round; stroke-width:4; stroke-opacity:1; fill:none" points="1171.78,2714.68 1171.78,-1172.13 "/>
<polyline clip-path="url(#clip682)" style="stroke:#009af9; stroke-linecap:round; stroke-linejoin:round; stroke-width:4; stroke-opacity:1; fill:none" points="1680.82,2714.68 1680.82,-1172.13 "/>
<polyline clip-path="url(#clip682)" style="stroke:#009af9; stroke-linecap:round; stroke-linejoin:round; stroke-width:4; stroke-opacity:1; fill:none" points="2291.67,2714.68 2291.67,-1172.13 "/>
<circle clip-path="url(#clip682)" cx="255.507" cy="265.961" r="14.4" fill="#e26f46" fill-rule="evenodd" fill-opacity="1" stroke="#000000" stroke-opacity="1" stroke-width="3.2"/>
<polyline clip-path="url(#clip682)" style="stroke:#3da44d; stroke-linecap:round; stroke-linejoin:round; stroke-width:4; stroke-opacity:1; fill:none" points="255.507,264.481 357.315,704.116 459.123,938.507 "/>
<circle clip-path="url(#clip682)" cx="255.507" cy="264.481" r="14.4" fill="#3da44d" fill-rule="evenodd" fill-opacity="1" stroke="#000000" stroke-opacity="1" stroke-width="3.2"/>
<circle clip-path="url(#clip682)" cx="357.315" cy="704.116" r="14.4" fill="#3da44d" fill-rule="evenodd" fill-opacity="1" stroke="#000000" stroke-opacity="1" stroke-width="3.2"/>
<circle clip-path="url(#clip682)" cx="459.123" cy="938.507" r="14.4" fill="#3da44d" fill-rule="evenodd" fill-opacity="1" stroke="#000000" stroke-opacity="1" stroke-width="3.2"/>
<polyline clip-path="url(#clip682)" style="stroke:#c271d2; stroke-linecap:round; stroke-linejoin:round; stroke-width:4; stroke-opacity:1; fill:none" points="255.507,299.195 357.315,704.353 459.123,937.908 560.932,602.853 662.74,481.872 764.548,583.908 "/>
<circle clip-path="url(#clip682)" cx="255.507" cy="299.195" r="14.4" fill="#c271d2" fill-rule="evenodd" fill-opacity="1" stroke="#000000" stroke-opacity="1" stroke-width="3.2"/>
<circle clip-path="url(#clip682)" cx="357.315" cy="704.353" r="14.4" fill="#c271d2" fill-rule="evenodd" fill-opacity="1" stroke="#000000" stroke-opacity="1" stroke-width="3.2"/>
<circle clip-path="url(#clip682)" cx="459.123" cy="937.908" r="14.4" fill="#c271d2" fill-rule="evenodd" fill-opacity="1" stroke="#000000" stroke-opacity="1" stroke-width="3.2"/>
<circle clip-path="url(#clip682)" cx="560.932" cy="602.853" r="14.4" fill="#c271d2" fill-rule="evenodd" fill-opacity="1" stroke="#000000" stroke-opacity="1" stroke-width="3.2"/>
<circle clip-path="url(#clip682)" cx="662.74" cy="481.872" r="14.4" fill="#c271d2" fill-rule="evenodd" fill-opacity="1" stroke="#000000" stroke-opacity="1" stroke-width="3.2"/>
<circle clip-path="url(#clip682)" cx="764.548" cy="583.908" r="14.4" fill="#c271d2" fill-rule="evenodd" fill-opacity="1" stroke="#000000" stroke-opacity="1" stroke-width="3.2"/>
<polyline clip-path="url(#clip682)" style="stroke:#ac8d18; stroke-linecap:round; stroke-linejoin:round; stroke-width:4; stroke-opacity:1; fill:none" points="255.507,299.518 357.315,663.48 459.123,1209.69 560.932,603.543 662.74,481.424 764.548,584.087 866.356,585.621 968.164,593.16 1069.97,695.48 1171.78,469.63 "/>
<circle clip-path="url(#clip682)" cx="255.507" cy="299.518" r="14.4" fill="#ac8d18" fill-rule="evenodd" fill-opacity="1" stroke="#000000" stroke-opacity="1" stroke-width="3.2"/>
<circle clip-path="url(#clip682)" cx="357.315" cy="663.48" r="14.4" fill="#ac8d18" fill-rule="evenodd" fill-opacity="1" stroke="#000000" stroke-opacity="1" stroke-width="3.2"/>
<circle clip-path="url(#clip682)" cx="459.123" cy="1209.69" r="14.4" fill="#ac8d18" fill-rule="evenodd" fill-opacity="1" stroke="#000000" stroke-opacity="1" stroke-width="3.2"/>
<circle clip-path="url(#clip682)" cx="560.932" cy="603.543" r="14.4" fill="#ac8d18" fill-rule="evenodd" fill-opacity="1" stroke="#000000" stroke-opacity="1" stroke-width="3.2"/>
<circle clip-path="url(#clip682)" cx="662.74" cy="481.424" r="14.4" fill="#ac8d18" fill-rule="evenodd" fill-opacity="1" stroke="#000000" stroke-opacity="1" stroke-width="3.2"/>
<circle clip-path="url(#clip682)" cx="764.548" cy="584.087" r="14.4" fill="#ac8d18" fill-rule="evenodd" fill-opacity="1" stroke="#000000" stroke-opacity="1" stroke-width="3.2"/>
<circle clip-path="url(#clip682)" cx="866.356" cy="585.621" r="14.4" fill="#ac8d18" fill-rule="evenodd" fill-opacity="1" stroke="#000000" stroke-opacity="1" stroke-width="3.2"/>
<circle clip-path="url(#clip682)" cx="968.164" cy="593.16" r="14.4" fill="#ac8d18" fill-rule="evenodd" fill-opacity="1" stroke="#000000" stroke-opacity="1" stroke-width="3.2"/>
<circle clip-path="url(#clip682)" cx="1069.97" cy="695.48" r="14.4" fill="#ac8d18" fill-rule="evenodd" fill-opacity="1" stroke="#000000" stroke-opacity="1" stroke-width="3.2"/>
<circle clip-path="url(#clip682)" cx="1171.78" cy="469.63" r="14.4" fill="#ac8d18" fill-rule="evenodd" fill-opacity="1" stroke="#000000" stroke-opacity="1" stroke-width="3.2"/>
<polyline clip-path="url(#clip682)" style="stroke:#00a9ad; stroke-linecap:round; stroke-linejoin:round; stroke-width:4; stroke-opacity:1; fill:none" points="255.507,412.653 357.315,662.739 459.123,1207.56 560.932,335.215 662.74,372.529 764.548,472.684 866.356,585.661 968.164,594.097 1069.97,695.917 1171.78,469.995 1273.59,716.082 1375.4,662.051 1477.21,607.684 1579.01,620.057 1680.82,655.246 "/>
<circle clip-path="url(#clip682)" cx="255.507" cy="412.653" r="14.4" fill="#00a9ad" fill-rule="evenodd" fill-opacity="1" stroke="#000000" stroke-opacity="1" stroke-width="3.2"/>
<circle clip-path="url(#clip682)" cx="357.315" cy="662.739" r="14.4" fill="#00a9ad" fill-rule="evenodd" fill-opacity="1" stroke="#000000" stroke-opacity="1" stroke-width="3.2"/>
<circle clip-path="url(#clip682)" cx="459.123" cy="1207.56" r="14.4" fill="#00a9ad" fill-rule="evenodd" fill-opacity="1" stroke="#000000" stroke-opacity="1" stroke-width="3.2"/>
<circle clip-path="url(#clip682)" cx="560.932" cy="335.215" r="14.4" fill="#00a9ad" fill-rule="evenodd" fill-opacity="1" stroke="#000000" stroke-opacity="1" stroke-width="3.2"/>
<circle clip-path="url(#clip682)" cx="662.74" cy="372.529" r="14.4" fill="#00a9ad" fill-rule="evenodd" fill-opacity="1" stroke="#000000" stroke-opacity="1" stroke-width="3.2"/>
<circle clip-path="url(#clip682)" cx="764.548" cy="472.684" r="14.4" fill="#00a9ad" fill-rule="evenodd" fill-opacity="1" stroke="#000000" stroke-opacity="1" stroke-width="3.2"/>
<circle clip-path="url(#clip682)" cx="866.356" cy="585.661" r="14.4" fill="#00a9ad" fill-rule="evenodd" fill-opacity="1" stroke="#000000" stroke-opacity="1" stroke-width="3.2"/>
<circle clip-path="url(#clip682)" cx="968.164" cy="594.097" r="14.4" fill="#00a9ad" fill-rule="evenodd" fill-opacity="1" stroke="#000000" stroke-opacity="1" stroke-width="3.2"/>
<circle clip-path="url(#clip682)" cx="1069.97" cy="695.917" r="14.4" fill="#00a9ad" fill-rule="evenodd" fill-opacity="1" stroke="#000000" stroke-opacity="1" stroke-width="3.2"/>
<circle clip-path="url(#clip682)" cx="1171.78" cy="469.995" r="14.4" fill="#00a9ad" fill-rule="evenodd" fill-opacity="1" stroke="#000000" stroke-opacity="1" stroke-width="3.2"/>
<circle clip-path="url(#clip682)" cx="1273.59" cy="716.082" r="14.4" fill="#00a9ad" fill-rule="evenodd" fill-opacity="1" stroke="#000000" stroke-opacity="1" stroke-width="3.2"/>
<circle clip-path="url(#clip682)" cx="1375.4" cy="662.051" r="14.4" fill="#00a9ad" fill-rule="evenodd" fill-opacity="1" stroke="#000000" stroke-opacity="1" stroke-width="3.2"/>
<circle clip-path="url(#clip682)" cx="1477.21" cy="607.684" r="14.4" fill="#00a9ad" fill-rule="evenodd" fill-opacity="1" stroke="#000000" stroke-opacity="1" stroke-width="3.2"/>
<circle clip-path="url(#clip682)" cx="1579.01" cy="620.057" r="14.4" fill="#00a9ad" fill-rule="evenodd" fill-opacity="1" stroke="#000000" stroke-opacity="1" stroke-width="3.2"/>
<circle clip-path="url(#clip682)" cx="1680.82" cy="655.246" r="14.4" fill="#00a9ad" fill-rule="evenodd" fill-opacity="1" stroke="#000000" stroke-opacity="1" stroke-width="3.2"/>
<polyline clip-path="url(#clip682)" style="stroke:#ed5d92; stroke-linecap:round; stroke-linejoin:round; stroke-width:4; stroke-opacity:1; fill:none" points="255.507,412.328 357.315,556.303 459.123,1278.26 560.932,336.203 662.74,374.179 764.548,473.491 866.356,630.898 968.164,718.079 1069.97,889.393 1171.78,315.751 1273.59,715.61 1375.4,662.193 1477.21,607.353 1579.01,618.71 1680.82,655.329 1782.63,606.83 1884.44,552.478 1986.25,578.001 2088.05,624.773 2189.86,558.054 2291.67,652.593 "/>
<circle clip-path="url(#clip682)" cx="255.507" cy="412.328" r="14.4" fill="#ed5d92" fill-rule="evenodd" fill-opacity="1" stroke="#000000" stroke-opacity="1" stroke-width="3.2"/>
<circle clip-path="url(#clip682)" cx="357.315" cy="556.303" r="14.4" fill="#ed5d92" fill-rule="evenodd" fill-opacity="1" stroke="#000000" stroke-opacity="1" stroke-width="3.2"/>
<circle clip-path="url(#clip682)" cx="459.123" cy="1278.26" r="14.4" fill="#ed5d92" fill-rule="evenodd" fill-opacity="1" stroke="#000000" stroke-opacity="1" stroke-width="3.2"/>
<circle clip-path="url(#clip682)" cx="560.932" cy="336.203" r="14.4" fill="#ed5d92" fill-rule="evenodd" fill-opacity="1" stroke="#000000" stroke-opacity="1" stroke-width="3.2"/>
<circle clip-path="url(#clip682)" cx="662.74" cy="374.179" r="14.4" fill="#ed5d92" fill-rule="evenodd" fill-opacity="1" stroke="#000000" stroke-opacity="1" stroke-width="3.2"/>
<circle clip-path="url(#clip682)" cx="764.548" cy="473.491" r="14.4" fill="#ed5d92" fill-rule="evenodd" fill-opacity="1" stroke="#000000" stroke-opacity="1" stroke-width="3.2"/>
<circle clip-path="url(#clip682)" cx="866.356" cy="630.898" r="14.4" fill="#ed5d92" fill-rule="evenodd" fill-opacity="1" stroke="#000000" stroke-opacity="1" stroke-width="3.2"/>
<circle clip-path="url(#clip682)" cx="968.164" cy="718.079" r="14.4" fill="#ed5d92" fill-rule="evenodd" fill-opacity="1" stroke="#000000" stroke-opacity="1" stroke-width="3.2"/>
<circle clip-path="url(#clip682)" cx="1069.97" cy="889.393" r="14.4" fill="#ed5d92" fill-rule="evenodd" fill-opacity="1" stroke="#000000" stroke-opacity="1" stroke-width="3.2"/>
<circle clip-path="url(#clip682)" cx="1171.78" cy="315.751" r="14.4" fill="#ed5d92" fill-rule="evenodd" fill-opacity="1" stroke="#000000" stroke-opacity="1" stroke-width="3.2"/>
<circle clip-path="url(#clip682)" cx="1273.59" cy="715.61" r="14.4" fill="#ed5d92" fill-rule="evenodd" fill-opacity="1" stroke="#000000" stroke-opacity="1" stroke-width="3.2"/>
<circle clip-path="url(#clip682)" cx="1375.4" cy="662.193" r="14.4" fill="#ed5d92" fill-rule="evenodd" fill-opacity="1" stroke="#000000" stroke-opacity="1" stroke-width="3.2"/>
<circle clip-path="url(#clip682)" cx="1477.21" cy="607.353" r="14.4" fill="#ed5d92" fill-rule="evenodd" fill-opacity="1" stroke="#000000" stroke-opacity="1" stroke-width="3.2"/>
<circle clip-path="url(#clip682)" cx="1579.01" cy="618.71" r="14.4" fill="#ed5d92" fill-rule="evenodd" fill-opacity="1" stroke="#000000" stroke-opacity="1" stroke-width="3.2"/>
<circle clip-path="url(#clip682)" cx="1680.82" cy="655.329" r="14.4" fill="#ed5d92" fill-rule="evenodd" fill-opacity="1" stroke="#000000" stroke-opacity="1" stroke-width="3.2"/>
<circle clip-path="url(#clip682)" cx="1782.63" cy="606.83" r="14.4" fill="#ed5d92" fill-rule="evenodd" fill-opacity="1" stroke="#000000" stroke-opacity="1" stroke-width="3.2"/>
<circle clip-path="url(#clip682)" cx="1884.44" cy="552.478" r="14.4" fill="#ed5d92" fill-rule="evenodd" fill-opacity="1" stroke="#000000" stroke-opacity="1" stroke-width="3.2"/>
<circle clip-path="url(#clip682)" cx="1986.25" cy="578.001" r="14.4" fill="#ed5d92" fill-rule="evenodd" fill-opacity="1" stroke="#000000" stroke-opacity="1" stroke-width="3.2"/>
<circle clip-path="url(#clip682)" cx="2088.05" cy="624.773" r="14.4" fill="#ed5d92" fill-rule="evenodd" fill-opacity="1" stroke="#000000" stroke-opacity="1" stroke-width="3.2"/>
<circle clip-path="url(#clip682)" cx="2189.86" cy="558.054" r="14.4" fill="#ed5d92" fill-rule="evenodd" fill-opacity="1" stroke="#000000" stroke-opacity="1" stroke-width="3.2"/>
<circle clip-path="url(#clip682)" cx="2291.67" cy="652.593" r="14.4" fill="#ed5d92" fill-rule="evenodd" fill-opacity="1" stroke="#000000" stroke-opacity="1" stroke-width="3.2"/>
<path clip-path="url(#clip680)" d="M1971.97 529.539 L2280.81 529.539 L2280.81 166.659 L1971.97 166.659  Z" fill="#ffffff" fill-rule="evenodd" fill-opacity="1"/>
<polyline clip-path="url(#clip680)" style="stroke:#000000; stroke-linecap:round; stroke-linejoin:round; stroke-width:4; stroke-opacity:1; fill:none" points="1971.97,529.539 2280.81,529.539 2280.81,166.659 1971.97,166.659 1971.97,529.539 "/>
<polyline clip-path="url(#clip680)" style="stroke:#e26f46; stroke-linecap:round; stroke-linejoin:round; stroke-width:4; stroke-opacity:1; fill:none" points="1995.95,218.499 2139.84,218.499 "/>
<circle clip-path="url(#clip680)" cx="2067.9" cy="218.499" r="19.9846" fill="#e26f46" fill-rule="evenodd" fill-opacity="1" stroke="#000000" stroke-opacity="1" stroke-width="4.55111"/>
<path clip-path="url(#clip680)" d="M2168.1 231.89 L2168.1 245.64 L2163.82 245.64 L2163.82 209.853 L2168.1 209.853 L2168.1 213.788 Q2169.45 211.474 2171.48 210.362 Q2173.54 209.228 2176.39 209.228 Q2181.11 209.228 2184.05 212.978 Q2187.02 216.728 2187.02 222.839 Q2187.02 228.95 2184.05 232.7 Q2181.11 236.45 2176.39 236.45 Q2173.54 236.45 2171.48 235.339 Q2169.45 234.205 2168.1 231.89 M2182.59 222.839 Q2182.59 218.14 2180.65 215.478 Q2178.73 212.793 2175.35 212.793 Q2171.97 212.793 2170.02 215.478 Q2168.1 218.14 2168.1 222.839 Q2168.1 227.538 2170.02 230.223 Q2171.97 232.885 2175.35 232.885 Q2178.73 232.885 2180.65 230.223 Q2182.59 227.538 2182.59 222.839 Z" fill="#000000" fill-rule="nonzero" fill-opacity="1" /><path clip-path="url(#clip680)" d="M2194.63 214.251 L2224.31 214.251 L2224.31 218.14 L2194.63 218.14 L2194.63 214.251 M2194.63 223.696 L2224.31 223.696 L2224.31 227.631 L2194.63 227.631 L2194.63 223.696 Z" fill="#000000" fill-rule="nonzero" fill-opacity="1" /><path clip-path="url(#clip680)" d="M2244.4 204.298 Q2240.79 204.298 2238.96 207.862 Q2237.15 211.404 2237.15 218.534 Q2237.15 225.64 2238.96 229.205 Q2240.79 232.747 2244.4 232.747 Q2248.03 232.747 2249.84 229.205 Q2251.67 225.64 2251.67 218.534 Q2251.67 211.404 2249.84 207.862 Q2248.03 204.298 2244.4 204.298 M2244.4 200.594 Q2250.21 200.594 2253.27 205.2 Q2256.34 209.784 2256.34 218.534 Q2256.34 227.26 2253.27 231.867 Q2250.21 236.45 2244.4 236.45 Q2238.59 236.45 2235.51 231.867 Q2232.46 227.26 2232.46 218.534 Q2232.46 209.784 2235.51 205.2 Q2238.59 200.594 2244.4 200.594 Z" fill="#000000" fill-rule="nonzero" fill-opacity="1" /><polyline clip-path="url(#clip680)" style="stroke:#3da44d; stroke-linecap:round; stroke-linejoin:round; stroke-width:4; stroke-opacity:1; fill:none" points="1995.95,270.339 2139.84,270.339 "/>
<circle clip-path="url(#clip680)" cx="2067.9" cy="270.339" r="19.9846" fill="#3da44d" fill-rule="evenodd" fill-opacity="1" stroke="#000000" stroke-opacity="1" stroke-width="4.55111"/>
<path clip-path="url(#clip680)" d="M2168.1 283.73 L2168.1 297.48 L2163.82 297.48 L2163.82 261.693 L2168.1 261.693 L2168.1 265.628 Q2169.45 263.314 2171.48 262.202 Q2173.54 261.068 2176.39 261.068 Q2181.11 261.068 2184.05 264.818 Q2187.02 268.568 2187.02 274.679 Q2187.02 280.79 2184.05 284.54 Q2181.11 288.29 2176.39 288.29 Q2173.54 288.29 2171.48 287.179 Q2169.45 286.045 2168.1 283.73 M2182.59 274.679 Q2182.59 269.98 2180.65 267.318 Q2178.73 264.633 2175.35 264.633 Q2171.97 264.633 2170.02 267.318 Q2168.1 269.98 2168.1 274.679 Q2168.1 279.378 2170.02 282.063 Q2171.97 284.725 2175.35 284.725 Q2178.73 284.725 2180.65 282.063 Q2182.59 279.378 2182.59 274.679 Z" fill="#000000" fill-rule="nonzero" fill-opacity="1" /><path clip-path="url(#clip680)" d="M2194.63 266.091 L2224.31 266.091 L2224.31 269.98 L2194.63 269.98 L2194.63 266.091 M2194.63 275.536 L2224.31 275.536 L2224.31 279.471 L2194.63 279.471 L2194.63 275.536 Z" fill="#000000" fill-rule="nonzero" fill-opacity="1" /><path clip-path="url(#clip680)" d="M2235.21 283.684 L2242.85 283.684 L2242.85 257.318 L2234.54 258.985 L2234.54 254.726 L2242.8 253.059 L2247.48 253.059 L2247.48 283.684 L2255.12 283.684 L2255.12 287.619 L2235.21 287.619 L2235.21 283.684 Z" fill="#000000" fill-rule="nonzero" fill-opacity="1" /><polyline clip-path="url(#clip680)" style="stroke:#c271d2; stroke-linecap:round; stroke-linejoin:round; stroke-width:4; stroke-opacity:1; fill:none" points="1995.95,322.179 2139.84,322.179 "/>
<circle clip-path="url(#clip680)" cx="2067.9" cy="322.179" r="19.9846" fill="#c271d2" fill-rule="evenodd" fill-opacity="1" stroke="#000000" stroke-opacity="1" stroke-width="4.55111"/>
<path clip-path="url(#clip680)" d="M2168.1 335.57 L2168.1 349.32 L2163.82 349.32 L2163.82 313.533 L2168.1 313.533 L2168.1 317.468 Q2169.45 315.154 2171.48 314.042 Q2173.54 312.908 2176.39 312.908 Q2181.11 312.908 2184.05 316.658 Q2187.02 320.408 2187.02 326.519 Q2187.02 332.63 2184.05 336.38 Q2181.11 340.13 2176.39 340.13 Q2173.54 340.13 2171.48 339.019 Q2169.45 337.885 2168.1 335.57 M2182.59 326.519 Q2182.59 321.82 2180.65 319.158 Q2178.73 316.473 2175.35 316.473 Q2171.97 316.473 2170.02 319.158 Q2168.1 321.82 2168.1 326.519 Q2168.1 331.218 2170.02 333.903 Q2171.97 336.565 2175.35 336.565 Q2178.73 336.565 2180.65 333.903 Q2182.59 331.218 2182.59 326.519 Z" fill="#000000" fill-rule="nonzero" fill-opacity="1" /><path clip-path="url(#clip680)" d="M2194.63 317.931 L2224.31 317.931 L2224.31 321.82 L2194.63 321.82 L2194.63 317.931 M2194.63 327.376 L2224.31 327.376 L2224.31 331.311 L2194.63 331.311 L2194.63 327.376 Z" fill="#000000" fill-rule="nonzero" fill-opacity="1" /><path clip-path="url(#clip680)" d="M2238.43 335.524 L2254.75 335.524 L2254.75 339.459 L2232.8 339.459 L2232.8 335.524 Q2235.46 332.769 2240.05 328.14 Q2244.65 323.487 2245.83 322.144 Q2248.08 319.621 2248.96 317.885 Q2249.86 316.126 2249.86 314.436 Q2249.86 311.681 2247.92 309.945 Q2246 308.209 2242.89 308.209 Q2240.7 308.209 2238.24 308.973 Q2235.81 309.737 2233.03 311.288 L2233.03 306.566 Q2235.86 305.431 2238.31 304.853 Q2240.77 304.274 2242.8 304.274 Q2248.17 304.274 2251.37 306.959 Q2254.56 309.644 2254.56 314.135 Q2254.56 316.265 2253.75 318.186 Q2252.96 320.084 2250.86 322.677 Q2250.28 323.348 2247.18 326.566 Q2244.08 329.76 2238.43 335.524 Z" fill="#000000" fill-rule="nonzero" fill-opacity="1" /><polyline clip-path="url(#clip680)" style="stroke:#ac8d18; stroke-linecap:round; stroke-linejoin:round; stroke-width:4; stroke-opacity:1; fill:none" points="1995.95,374.019 2139.84,374.019 "/>
<circle clip-path="url(#clip680)" cx="2067.9" cy="374.019" r="19.9846" fill="#ac8d18" fill-rule="evenodd" fill-opacity="1" stroke="#000000" stroke-opacity="1" stroke-width="4.55111"/>
<path clip-path="url(#clip680)" d="M2168.1 387.41 L2168.1 401.16 L2163.82 401.16 L2163.82 365.373 L2168.1 365.373 L2168.1 369.308 Q2169.45 366.994 2171.48 365.882 Q2173.54 364.748 2176.39 364.748 Q2181.11 364.748 2184.05 368.498 Q2187.02 372.248 2187.02 378.359 Q2187.02 384.47 2184.05 388.22 Q2181.11 391.97 2176.39 391.97 Q2173.54 391.97 2171.48 390.859 Q2169.45 389.725 2168.1 387.41 M2182.59 378.359 Q2182.59 373.66 2180.65 370.998 Q2178.73 368.313 2175.35 368.313 Q2171.97 368.313 2170.02 370.998 Q2168.1 373.66 2168.1 378.359 Q2168.1 383.058 2170.02 385.743 Q2171.97 388.405 2175.35 388.405 Q2178.73 388.405 2180.65 385.743 Q2182.59 383.058 2182.59 378.359 Z" fill="#000000" fill-rule="nonzero" fill-opacity="1" /><path clip-path="url(#clip680)" d="M2194.63 369.771 L2224.31 369.771 L2224.31 373.66 L2194.63 373.66 L2194.63 369.771 M2194.63 379.216 L2224.31 379.216 L2224.31 383.151 L2194.63 383.151 L2194.63 379.216 Z" fill="#000000" fill-rule="nonzero" fill-opacity="1" /><path clip-path="url(#clip680)" d="M2248.57 372.665 Q2251.92 373.382 2253.8 375.651 Q2255.7 377.919 2255.7 381.253 Q2255.7 386.368 2252.18 389.169 Q2248.66 391.97 2242.18 391.97 Q2240 391.97 2237.69 391.53 Q2235.39 391.114 2232.94 390.257 L2232.94 385.743 Q2234.89 386.878 2237.2 387.456 Q2239.52 388.035 2242.04 388.035 Q2246.44 388.035 2248.73 386.299 Q2251.04 384.563 2251.04 381.253 Q2251.04 378.197 2248.89 376.484 Q2246.76 374.748 2242.94 374.748 L2238.91 374.748 L2238.91 370.906 L2243.13 370.906 Q2246.58 370.906 2248.4 369.54 Q2250.23 368.151 2250.23 365.558 Q2250.23 362.896 2248.33 361.484 Q2246.46 360.049 2242.94 360.049 Q2241.02 360.049 2238.82 360.466 Q2236.62 360.882 2233.98 361.762 L2233.98 357.595 Q2236.64 356.855 2238.96 356.484 Q2241.3 356.114 2243.36 356.114 Q2248.68 356.114 2251.78 358.545 Q2254.89 360.952 2254.89 365.072 Q2254.89 367.943 2253.24 369.933 Q2251.6 371.901 2248.57 372.665 Z" fill="#000000" fill-rule="nonzero" fill-opacity="1" /><polyline clip-path="url(#clip680)" style="stroke:#00a9ad; stroke-linecap:round; stroke-linejoin:round; stroke-width:4; stroke-opacity:1; fill:none" points="1995.95,425.859 2139.84,425.859 "/>
<circle clip-path="url(#clip680)" cx="2067.9" cy="425.859" r="19.9846" fill="#00a9ad" fill-rule="evenodd" fill-opacity="1" stroke="#000000" stroke-opacity="1" stroke-width="4.55111"/>
<path clip-path="url(#clip680)" d="M2168.1 439.25 L2168.1 453 L2163.82 453 L2163.82 417.213 L2168.1 417.213 L2168.1 421.148 Q2169.45 418.834 2171.48 417.722 Q2173.54 416.588 2176.39 416.588 Q2181.11 416.588 2184.05 420.338 Q2187.02 424.088 2187.02 430.199 Q2187.02 436.31 2184.05 440.06 Q2181.11 443.81 2176.39 443.81 Q2173.54 443.81 2171.48 442.699 Q2169.45 441.565 2168.1 439.25 M2182.59 430.199 Q2182.59 425.5 2180.65 422.838 Q2178.73 420.153 2175.35 420.153 Q2171.97 420.153 2170.02 422.838 Q2168.1 425.5 2168.1 430.199 Q2168.1 434.898 2170.02 437.583 Q2171.97 440.245 2175.35 440.245 Q2178.73 440.245 2180.65 437.583 Q2182.59 434.898 2182.59 430.199 Z" fill="#000000" fill-rule="nonzero" fill-opacity="1" /><path clip-path="url(#clip680)" d="M2194.63 421.611 L2224.31 421.611 L2224.31 425.5 L2194.63 425.5 L2194.63 421.611 M2194.63 431.056 L2224.31 431.056 L2224.31 434.991 L2194.63 434.991 L2194.63 431.056 Z" fill="#000000" fill-rule="nonzero" fill-opacity="1" /><path clip-path="url(#clip680)" d="M2247.25 412.653 L2235.44 431.102 L2247.25 431.102 L2247.25 412.653 M2246.02 408.579 L2251.9 408.579 L2251.9 431.102 L2256.83 431.102 L2256.83 434.991 L2251.9 434.991 L2251.9 443.139 L2247.25 443.139 L2247.25 434.991 L2231.64 434.991 L2231.64 430.477 L2246.02 408.579 Z" fill="#000000" fill-rule="nonzero" fill-opacity="1" /><polyline clip-path="url(#clip680)" style="stroke:#ed5d92; stroke-linecap:round; stroke-linejoin:round; stroke-width:4; stroke-opacity:1; fill:none" points="1995.95,477.699 2139.84,477.699 "/>
<circle clip-path="url(#clip680)" cx="2067.9" cy="477.699" r="19.9846" fill="#ed5d92" fill-rule="evenodd" fill-opacity="1" stroke="#000000" stroke-opacity="1" stroke-width="4.55111"/>
<path clip-path="url(#clip680)" d="M2168.1 491.09 L2168.1 504.84 L2163.82 504.84 L2163.82 469.053 L2168.1 469.053 L2168.1 472.988 Q2169.45 470.674 2171.48 469.562 Q2173.54 468.428 2176.39 468.428 Q2181.11 468.428 2184.05 472.178 Q2187.02 475.928 2187.02 482.039 Q2187.02 488.15 2184.05 491.9 Q2181.11 495.65 2176.39 495.65 Q2173.54 495.65 2171.48 494.539 Q2169.45 493.405 2168.1 491.09 M2182.59 482.039 Q2182.59 477.34 2180.65 474.678 Q2178.73 471.993 2175.35 471.993 Q2171.97 471.993 2170.02 474.678 Q2168.1 477.34 2168.1 482.039 Q2168.1 486.738 2170.02 489.423 Q2171.97 492.085 2175.35 492.085 Q2178.73 492.085 2180.65 489.423 Q2182.59 486.738 2182.59 482.039 Z" fill="#000000" fill-rule="nonzero" fill-opacity="1" /><path clip-path="url(#clip680)" d="M2194.63 473.451 L2224.31 473.451 L2224.31 477.34 L2194.63 477.34 L2194.63 473.451 M2194.63 482.896 L2224.31 482.896 L2224.31 486.831 L2194.63 486.831 L2194.63 482.896 Z" fill="#000000" fill-rule="nonzero" fill-opacity="1" /><path clip-path="url(#clip680)" d="M2234.45 460.419 L2252.8 460.419 L2252.8 464.354 L2238.73 464.354 L2238.73 472.826 Q2239.75 472.479 2240.77 472.317 Q2241.78 472.132 2242.8 472.132 Q2248.59 472.132 2251.97 475.303 Q2255.35 478.474 2255.35 483.891 Q2255.35 489.47 2251.88 492.572 Q2248.4 495.65 2242.08 495.65 Q2239.91 495.65 2237.64 495.28 Q2235.39 494.91 2232.99 494.169 L2232.99 489.47 Q2235.07 490.604 2237.29 491.16 Q2239.52 491.715 2241.99 491.715 Q2246 491.715 2248.33 489.609 Q2250.67 487.502 2250.67 483.891 Q2250.67 480.28 2248.33 478.173 Q2246 476.067 2241.99 476.067 Q2240.12 476.067 2238.24 476.484 Q2236.39 476.9 2234.45 477.78 L2234.45 460.419 Z" fill="#000000" fill-rule="nonzero" fill-opacity="1" /><g clip-path="url(#clip680)">
<text style="fill:#000000; fill-opacity:1; font-family:Century Gothic,CenturyGothic,AppleGothic,sans-serif; font-size:58px; text-anchor:middle;" transform="rotate(0, 255.507, 1396.38)" x="255.507" y="1396.38">p=0</text>
</g>
<g clip-path="url(#clip680)">
<text style="fill:#000000; fill-opacity:1; font-family:Century Gothic,CenturyGothic,AppleGothic,sans-serif; font-size:58px; text-anchor:middle;" transform="rotate(0, 459.123, 1396.38)" x="459.123" y="1396.38">p=1</text>
</g>
<g clip-path="url(#clip680)">
<text style="fill:#000000; fill-opacity:1; font-family:Century Gothic,CenturyGothic,AppleGothic,sans-serif; font-size:58px; text-anchor:middle;" transform="rotate(0, 764.548, 1396.38)" x="764.548" y="1396.38">p=2</text>
</g>
<g clip-path="url(#clip680)">
<text style="fill:#000000; fill-opacity:1; font-family:Century Gothic,CenturyGothic,AppleGothic,sans-serif; font-size:58px; text-anchor:middle;" transform="rotate(0, 1171.78, 1396.38)" x="1171.78" y="1396.38">p=3</text>
</g>
<g clip-path="url(#clip680)">
<text style="fill:#000000; fill-opacity:1; font-family:Century Gothic,CenturyGothic,AppleGothic,sans-serif; font-size:58px; text-anchor:middle;" transform="rotate(0, 1680.82, 1396.38)" x="1680.82" y="1396.38">p=4</text>
</g>
<g clip-path="url(#clip680)">
<text style="fill:#000000; fill-opacity:1; font-family:Century Gothic,CenturyGothic,AppleGothic,sans-serif; font-size:58px; text-anchor:middle;" transform="rotate(0, 2291.67, 1396.38)" x="2291.67" y="1396.38">p=5</text>
</g>
</svg>
