<?xml version="1.0" encoding="utf-8"?>
<svg xmlns="http://www.w3.org/2000/svg" xmlns:xlink="http://www.w3.org/1999/xlink" width="600" height="400" viewBox="0 0 2400 1600">
<defs>
  <clipPath id="clip660">
    <rect x="0" y="0" width="2400" height="1600"/>
  </clipPath>
</defs>
<path clip-path="url(#clip660)" d="M0 1600 L2400 1600 L2400 0 L0 0  Z" fill="#ffffff" fill-rule="evenodd" fill-opacity="1"/>
<defs>
  <clipPath id="clip661">
    <rect x="480" y="0" width="1681" height="1600"/>
  </clipPath>
</defs>
<path clip-path="url(#clip660)" d="M224.098 1419.08 L2352.76 1419.08 L2352.76 123.472 L224.098 123.472  Z" fill="#ffffff" fill-rule="evenodd" fill-opacity="1"/>
<defs>
  <clipPath id="clip662">
    <rect x="224" y="123" width="2130" height="1297"/>
  </clipPath>
</defs>
<polyline clip-path="url(#clip662)" style="stroke:#000000; stroke-linecap:round; stroke-linejoin:round; stroke-width:2; stroke-opacity:0.1; fill:none" points="284.343,1419.08 284.343,123.472 "/>
<polyline clip-path="url(#clip662)" style="stroke:#000000; stroke-linecap:round; stroke-linejoin:round; stroke-width:2; stroke-opacity:0.1; fill:none" points="384.751,1419.08 384.751,123.472 "/>
<polyline clip-path="url(#clip662)" style="stroke:#000000; stroke-linecap:round; stroke-linejoin:round; stroke-width:2; stroke-opacity:0.1; fill:none" points="485.16,1419.08 485.16,123.472 "/>
<polyline clip-path="url(#clip662)" style="stroke:#000000; stroke-linecap:round; stroke-linejoin:round; stroke-width:2; stroke-opacity:0.1; fill:none" points="585.568,1419.08 585.568,123.472 "/>
<polyline clip-path="url(#clip662)" style="stroke:#000000; stroke-linecap:round; stroke-linejoin:round; stroke-width:2; stroke-opacity:0.1; fill:none" points="685.977,1419.08 685.977,123.472 "/>
<polyline clip-path="url(#clip662)" style="stroke:#000000; stroke-linecap:round; stroke-linejoin:round; stroke-width:2; stroke-opacity:0.1; fill:none" points="786.385,1419.08 786.385,123.472 "/>
<polyline clip-path="url(#clip662)" style="stroke:#000000; stroke-linecap:round; stroke-linejoin:round; stroke-width:2; stroke-opacity:0.1; fill:none" points="886.793,1419.08 886.793,123.472 "/>
<polyline clip-path="url(#clip662)" style="stroke:#000000; stroke-linecap:round; stroke-linejoin:round; stroke-width:2; stroke-opacity:0.1; fill:none" points="987.202,1419.08 987.202,123.472 "/>
<polyline clip-path="url(#clip662)" style="stroke:#000000; stroke-linecap:round; stroke-linejoin:round; stroke-width:2; stroke-opacity:0.1; fill:none" points="1087.61,1419.08 1087.61,123.472 "/>
<polyline clip-path="url(#clip662)" style="stroke:#000000; stroke-linecap:round; stroke-linejoin:round; stroke-width:2; stroke-opacity:0.1; fill:none" points="1188.02,1419.08 1188.02,123.472 "/>
<polyline clip-path="url(#clip662)" style="stroke:#000000; stroke-linecap:round; stroke-linejoin:round; stroke-width:2; stroke-opacity:0.1; fill:none" points="1288.43,1419.08 1288.43,123.472 "/>
<polyline clip-path="url(#clip662)" style="stroke:#000000; stroke-linecap:round; stroke-linejoin:round; stroke-width:2; stroke-opacity:0.1; fill:none" points="1388.84,1419.08 1388.84,123.472 "/>
<polyline clip-path="url(#clip662)" style="stroke:#000000; stroke-linecap:round; stroke-linejoin:round; stroke-width:2; stroke-opacity:0.1; fill:none" points="1489.24,1419.08 1489.24,123.472 "/>
<polyline clip-path="url(#clip662)" style="stroke:#000000; stroke-linecap:round; stroke-linejoin:round; stroke-width:2; stroke-opacity:0.1; fill:none" points="1589.65,1419.08 1589.65,123.472 "/>
<polyline clip-path="url(#clip662)" style="stroke:#000000; stroke-linecap:round; stroke-linejoin:round; stroke-width:2; stroke-opacity:0.1; fill:none" points="1690.06,1419.08 1690.06,123.472 "/>
<polyline clip-path="url(#clip662)" style="stroke:#000000; stroke-linecap:round; stroke-linejoin:round; stroke-width:2; stroke-opacity:0.1; fill:none" points="1790.47,1419.08 1790.47,123.472 "/>
<polyline clip-path="url(#clip662)" style="stroke:#000000; stroke-linecap:round; stroke-linejoin:round; stroke-width:2; stroke-opacity:0.1; fill:none" points="1890.88,1419.08 1890.88,123.472 "/>
<polyline clip-path="url(#clip662)" style="stroke:#000000; stroke-linecap:round; stroke-linejoin:round; stroke-width:2; stroke-opacity:0.1; fill:none" points="1991.29,1419.08 1991.29,123.472 "/>
<polyline clip-path="url(#clip662)" style="stroke:#000000; stroke-linecap:round; stroke-linejoin:round; stroke-width:2; stroke-opacity:0.1; fill:none" points="2091.69,1419.08 2091.69,123.472 "/>
<polyline clip-path="url(#clip662)" style="stroke:#000000; stroke-linecap:round; stroke-linejoin:round; stroke-width:2; stroke-opacity:0.1; fill:none" points="2192.1,1419.08 2192.1,123.472 "/>
<polyline clip-path="url(#clip662)" style="stroke:#000000; stroke-linecap:round; stroke-linejoin:round; stroke-width:2; stroke-opacity:0.1; fill:none" points="2292.51,1419.08 2292.51,123.472 "/>
<polyline clip-path="url(#clip662)" style="stroke:#000000; stroke-linecap:round; stroke-linejoin:round; stroke-width:2; stroke-opacity:0.1; fill:none" points="224.098,1256.07 2352.76,1256.07 "/>
<polyline clip-path="url(#clip662)" style="stroke:#000000; stroke-linecap:round; stroke-linejoin:round; stroke-width:2; stroke-opacity:0.1; fill:none" points="224.098,1061.89 2352.76,1061.89 "/>
<polyline clip-path="url(#clip662)" style="stroke:#000000; stroke-linecap:round; stroke-linejoin:round; stroke-width:2; stroke-opacity:0.1; fill:none" points="224.098,867.713 2352.76,867.713 "/>
<polyline clip-path="url(#clip662)" style="stroke:#000000; stroke-linecap:round; stroke-linejoin:round; stroke-width:2; stroke-opacity:0.1; fill:none" points="224.098,673.536 2352.76,673.536 "/>
<polyline clip-path="url(#clip662)" style="stroke:#000000; stroke-linecap:round; stroke-linejoin:round; stroke-width:2; stroke-opacity:0.1; fill:none" points="224.098,479.359 2352.76,479.359 "/>
<polyline clip-path="url(#clip662)" style="stroke:#000000; stroke-linecap:round; stroke-linejoin:round; stroke-width:2; stroke-opacity:0.1; fill:none" points="224.098,285.181 2352.76,285.181 "/>
<polyline clip-path="url(#clip660)" style="stroke:#000000; stroke-linecap:round; stroke-linejoin:round; stroke-width:4; stroke-opacity:1; fill:none" points="224.098,1419.08 2352.76,1419.08 "/>
<polyline clip-path="url(#clip660)" style="stroke:#000000; stroke-linecap:round; stroke-linejoin:round; stroke-width:4; stroke-opacity:1; fill:none" points="284.343,1419.08 284.343,1400.18 "/>
<polyline clip-path="url(#clip660)" style="stroke:#000000; stroke-linecap:round; stroke-linejoin:round; stroke-width:4; stroke-opacity:1; fill:none" points="384.751,1419.08 384.751,1400.18 "/>
<polyline clip-path="url(#clip660)" style="stroke:#000000; stroke-linecap:round; stroke-linejoin:round; stroke-width:4; stroke-opacity:1; fill:none" points="485.16,1419.08 485.16,1400.18 "/>
<polyline clip-path="url(#clip660)" style="stroke:#000000; stroke-linecap:round; stroke-linejoin:round; stroke-width:4; stroke-opacity:1; fill:none" points="585.568,1419.08 585.568,1400.18 "/>
<polyline clip-path="url(#clip660)" style="stroke:#000000; stroke-linecap:round; stroke-linejoin:round; stroke-width:4; stroke-opacity:1; fill:none" points="685.977,1419.08 685.977,1400.18 "/>
<polyline clip-path="url(#clip660)" style="stroke:#000000; stroke-linecap:round; stroke-linejoin:round; stroke-width:4; stroke-opacity:1; fill:none" points="786.385,1419.08 786.385,1400.18 "/>
<polyline clip-path="url(#clip660)" style="stroke:#000000; stroke-linecap:round; stroke-linejoin:round; stroke-width:4; stroke-opacity:1; fill:none" points="886.793,1419.08 886.793,1400.18 "/>
<polyline clip-path="url(#clip660)" style="stroke:#000000; stroke-linecap:round; stroke-linejoin:round; stroke-width:4; stroke-opacity:1; fill:none" points="987.202,1419.08 987.202,1400.18 "/>
<polyline clip-path="url(#clip660)" style="stroke:#000000; stroke-linecap:round; stroke-linejoin:round; stroke-width:4; stroke-opacity:1; fill:none" points="1087.61,1419.08 1087.61,1400.18 "/>
<polyline clip-path="url(#clip660)" style="stroke:#000000; stroke-linecap:round; stroke-linejoin:round; stroke-width:4; stroke-opacity:1; fill:none" points="1188.02,1419.08 1188.02,1400.18 "/>
<polyline clip-path="url(#clip660)" style="stroke:#000000; stroke-linecap:round; stroke-linejoin:round; stroke-width:4; stroke-opacity:1; fill:none" points="1288.43,1419.08 1288.43,1400.18 "/>
<polyline clip-path="url(#clip660)" style="stroke:#000000; stroke-linecap:round; stroke-linejoin:round; stroke-width:4; stroke-opacity:1; fill:none" points="1388.84,1419.08 1388.84,1400.18 "/>
<polyline clip-path="url(#clip660)" style="stroke:#000000; stroke-linecap:round; stroke-linejoin:round; stroke-width:4; stroke-opacity:1; fill:none" points="1489.24,1419.08 1489.24,1400.18 "/>
<polyline clip-path="url(#clip660)" style="stroke:#000000; stroke-linecap:round; stroke-linejoin:round; stroke-width:4; stroke-opacity:1; fill:none" points="1589.65,1419.08 1589.65,1400.18 "/>
<polyline clip-path="url(#clip660)" style="stroke:#000000; stroke-linecap:round; stroke-linejoin:round; stroke-width:4; stroke-opacity:1; fill:none" points="1690.06,1419.08 1690.06,1400.18 "/>
<polyline clip-path="url(#clip660)" style="stroke:#000000; stroke-linecap:round; stroke-linejoin:round; stroke-width:4; stroke-opacity:1; fill:none" points="1790.47,1419.08 1790.47,1400.18 "/>
<polyline clip-path="url(#clip660)" style="stroke:#000000; stroke-linecap:round; stroke-linejoin:round; stroke-width:4; stroke-opacity:1; fill:none" points="1890.88,1419.08 1890.88,1400.18 "/>
<polyline clip-path="url(#clip660)" style="stroke:#000000; stroke-linecap:round; stroke-linejoin:round; stroke-width:4; stroke-opacity:1; fill:none" points="1991.29,1419.08 1991.29,1400.18 "/>
<polyline clip-path="url(#clip660)" style="stroke:#000000; stroke-linecap:round; stroke-linejoin:round; stroke-width:4; stroke-opacity:1; fill:none" points="2091.69,1419.08 2091.69,1400.18 "/>
<polyline clip-path="url(#clip660)" style="stroke:#000000; stroke-linecap:round; stroke-linejoin:round; stroke-width:4; stroke-opacity:1; fill:none" points="2192.1,1419.08 2192.1,1400.18 "/>
<polyline clip-path="url(#clip660)" style="stroke:#000000; stroke-linecap:round; stroke-linejoin:round; stroke-width:4; stroke-opacity:1; fill:none" points="2292.51,1419.08 2292.51,1400.18 "/>
<path clip-path="url(#clip660)" d="M284.343 1450 Q280.732 1450 278.903 1453.56 Q277.098 1457.1 277.098 1464.23 Q277.098 1471.34 278.903 1474.9 Q280.732 1478.44 284.343 1478.44 Q287.977 1478.44 289.783 1474.9 Q291.611 1471.34 291.611 1464.23 Q291.611 1457.1 289.783 1453.56 Q287.977 1450 284.343 1450 M284.343 1446.29 Q290.153 1446.29 293.209 1450.9 Q296.287 1455.48 296.287 1464.23 Q296.287 1472.96 293.209 1477.57 Q290.153 1482.15 284.343 1482.15 Q278.533 1482.15 275.454 1477.57 Q272.399 1472.96 272.399 1464.23 Q272.399 1455.48 275.454 1450.9 Q278.533 1446.29 284.343 1446.29 Z" fill="#000000" fill-rule="nonzero" fill-opacity="1" /><path clip-path="url(#clip660)" d="M375.133 1477.54 L382.772 1477.54 L382.772 1451.18 L374.462 1452.84 L374.462 1448.58 L382.726 1446.92 L387.402 1446.92 L387.402 1477.54 L395.041 1477.54 L395.041 1481.48 L375.133 1481.48 L375.133 1477.54 Z" fill="#000000" fill-rule="nonzero" fill-opacity="1" /><path clip-path="url(#clip660)" d="M479.813 1477.54 L496.132 1477.54 L496.132 1481.48 L474.188 1481.48 L474.188 1477.54 Q476.85 1474.79 481.433 1470.16 Q486.039 1465.5 487.22 1464.16 Q489.465 1461.64 490.345 1459.9 Q491.248 1458.14 491.248 1456.45 Q491.248 1453.7 489.303 1451.96 Q487.382 1450.23 484.28 1450.23 Q482.081 1450.23 479.627 1450.99 Q477.197 1451.76 474.419 1453.31 L474.419 1448.58 Q477.243 1447.45 479.697 1446.87 Q482.15 1446.29 484.187 1446.29 Q489.558 1446.29 492.752 1448.98 Q495.947 1451.66 495.947 1456.15 Q495.947 1458.28 495.137 1460.2 Q494.349 1462.1 492.243 1464.69 Q491.664 1465.37 488.562 1468.58 Q485.461 1471.78 479.813 1477.54 Z" fill="#000000" fill-rule="nonzero" fill-opacity="1" /><path clip-path="url(#clip660)" d="M589.816 1462.84 Q593.172 1463.56 595.047 1465.83 Q596.945 1468.1 596.945 1471.43 Q596.945 1476.55 593.427 1479.35 Q589.908 1482.15 583.427 1482.15 Q581.251 1482.15 578.936 1481.71 Q576.645 1481.29 574.191 1480.44 L574.191 1475.92 Q576.135 1477.06 578.45 1477.63 Q580.765 1478.21 583.288 1478.21 Q587.686 1478.21 589.978 1476.48 Q592.293 1474.74 592.293 1471.43 Q592.293 1468.38 590.14 1466.66 Q588.01 1464.93 584.191 1464.93 L580.163 1464.93 L580.163 1461.08 L584.376 1461.08 Q587.825 1461.08 589.654 1459.72 Q591.482 1458.33 591.482 1455.74 Q591.482 1453.07 589.584 1451.66 Q587.709 1450.23 584.191 1450.23 Q582.27 1450.23 580.07 1450.64 Q577.871 1451.06 575.233 1451.94 L575.233 1447.77 Q577.895 1447.03 580.209 1446.66 Q582.547 1446.29 584.607 1446.29 Q589.932 1446.29 593.033 1448.72 Q596.135 1451.13 596.135 1455.25 Q596.135 1458.12 594.492 1460.11 Q592.848 1462.08 589.816 1462.84 Z" fill="#000000" fill-rule="nonzero" fill-opacity="1" /><path clip-path="url(#clip660)" d="M688.986 1450.99 L677.18 1469.44 L688.986 1469.44 L688.986 1450.99 M687.759 1446.92 L693.638 1446.92 L693.638 1469.44 L698.569 1469.44 L698.569 1473.33 L693.638 1473.33 L693.638 1481.48 L688.986 1481.48 L688.986 1473.33 L673.384 1473.33 L673.384 1468.82 L687.759 1446.92 Z" fill="#000000" fill-rule="nonzero" fill-opacity="1" /><path clip-path="url(#clip660)" d="M776.663 1446.92 L795.019 1446.92 L795.019 1450.85 L780.945 1450.85 L780.945 1459.32 Q781.964 1458.98 782.982 1458.82 Q784.001 1458.63 785.019 1458.63 Q790.806 1458.63 794.186 1461.8 Q797.565 1464.97 797.565 1470.39 Q797.565 1475.97 794.093 1479.07 Q790.621 1482.15 784.302 1482.15 Q782.126 1482.15 779.857 1481.78 Q777.612 1481.41 775.204 1480.67 L775.204 1475.97 Q777.288 1477.1 779.51 1477.66 Q781.732 1478.21 784.209 1478.21 Q788.214 1478.21 790.552 1476.11 Q792.889 1474 792.889 1470.39 Q792.889 1466.78 790.552 1464.67 Q788.214 1462.57 784.209 1462.57 Q782.334 1462.57 780.459 1462.98 Q778.607 1463.4 776.663 1464.28 L776.663 1446.92 Z" fill="#000000" fill-rule="nonzero" fill-opacity="1" /><path clip-path="url(#clip660)" d="M887.198 1462.33 Q884.05 1462.33 882.198 1464.49 Q880.37 1466.64 880.37 1470.39 Q880.37 1474.12 882.198 1476.29 Q884.05 1478.44 887.198 1478.44 Q890.347 1478.44 892.175 1476.29 Q894.027 1474.12 894.027 1470.39 Q894.027 1466.64 892.175 1464.49 Q890.347 1462.33 887.198 1462.33 M896.481 1447.68 L896.481 1451.94 Q894.721 1451.11 892.916 1450.67 Q891.134 1450.23 889.374 1450.23 Q884.745 1450.23 882.291 1453.35 Q879.86 1456.48 879.513 1462.8 Q880.879 1460.78 882.939 1459.72 Q884.999 1458.63 887.476 1458.63 Q892.684 1458.63 895.694 1461.8 Q898.726 1464.95 898.726 1470.39 Q898.726 1475.71 895.578 1478.93 Q892.43 1482.15 887.198 1482.15 Q881.203 1482.15 878.032 1477.57 Q874.86 1472.96 874.86 1464.23 Q874.86 1456.04 878.749 1451.18 Q882.638 1446.29 889.189 1446.29 Q890.948 1446.29 892.731 1446.64 Q894.536 1446.99 896.481 1447.68 Z" fill="#000000" fill-rule="nonzero" fill-opacity="1" /><path clip-path="url(#clip660)" d="M976.091 1446.92 L998.313 1446.92 L998.313 1448.91 L985.767 1481.48 L980.882 1481.48 L992.688 1450.85 L976.091 1450.85 L976.091 1446.92 Z" fill="#000000" fill-rule="nonzero" fill-opacity="1" /><path clip-path="url(#clip660)" d="M1087.61 1465.07 Q1084.28 1465.07 1082.36 1466.85 Q1080.46 1468.63 1080.46 1471.75 Q1080.46 1474.88 1082.36 1476.66 Q1084.28 1478.44 1087.61 1478.44 Q1090.94 1478.44 1092.86 1476.66 Q1094.79 1474.86 1094.79 1471.75 Q1094.79 1468.63 1092.86 1466.85 Q1090.97 1465.07 1087.61 1465.07 M1082.93 1463.07 Q1079.92 1462.33 1078.24 1460.27 Q1076.57 1458.21 1076.57 1455.25 Q1076.57 1451.11 1079.51 1448.7 Q1082.47 1446.29 1087.61 1446.29 Q1092.77 1446.29 1095.71 1448.7 Q1098.65 1451.11 1098.65 1455.25 Q1098.65 1458.21 1096.96 1460.27 Q1095.3 1462.33 1092.31 1463.07 Q1095.69 1463.86 1097.56 1466.15 Q1099.46 1468.44 1099.46 1471.75 Q1099.46 1476.78 1096.38 1479.46 Q1093.33 1482.15 1087.61 1482.15 Q1081.89 1482.15 1078.81 1479.46 Q1075.76 1476.78 1075.76 1471.75 Q1075.76 1468.44 1077.66 1466.15 Q1079.55 1463.86 1082.93 1463.07 M1081.22 1455.69 Q1081.22 1458.38 1082.89 1459.88 Q1084.58 1461.38 1087.61 1461.38 Q1090.62 1461.38 1092.31 1459.88 Q1094.02 1458.38 1094.02 1455.69 Q1094.02 1453.01 1092.31 1451.5 Q1090.62 1450 1087.61 1450 Q1084.58 1450 1082.89 1451.5 Q1081.22 1453.01 1081.22 1455.69 Z" fill="#000000" fill-rule="nonzero" fill-opacity="1" /><path clip-path="url(#clip660)" d="M1178.32 1480.76 L1178.32 1476.5 Q1180.08 1477.33 1181.88 1477.77 Q1183.69 1478.21 1185.43 1478.21 Q1190.06 1478.21 1192.49 1475.11 Q1194.94 1471.99 1195.29 1465.64 Q1193.94 1467.63 1191.88 1468.7 Q1189.82 1469.76 1187.32 1469.76 Q1182.14 1469.76 1179.11 1466.64 Q1176.1 1463.49 1176.1 1458.05 Q1176.1 1452.73 1179.25 1449.51 Q1182.39 1446.29 1187.62 1446.29 Q1193.62 1446.29 1196.77 1450.9 Q1199.94 1455.48 1199.94 1464.23 Q1199.94 1472.4 1196.05 1477.29 Q1192.19 1482.15 1185.63 1482.15 Q1183.87 1482.15 1182.07 1481.8 Q1180.26 1481.45 1178.32 1480.76 M1187.62 1466.11 Q1190.77 1466.11 1192.6 1463.95 Q1194.45 1461.8 1194.45 1458.05 Q1194.45 1454.32 1192.6 1452.17 Q1190.77 1450 1187.62 1450 Q1184.48 1450 1182.63 1452.17 Q1180.8 1454.32 1180.8 1458.05 Q1180.8 1461.8 1182.63 1463.95 Q1184.48 1466.11 1187.62 1466.11 Z" fill="#000000" fill-rule="nonzero" fill-opacity="1" /><path clip-path="url(#clip660)" d="M1263.11 1477.54 L1270.75 1477.54 L1270.75 1451.18 L1262.44 1452.84 L1262.44 1448.58 L1270.71 1446.92 L1275.38 1446.92 L1275.38 1477.54 L1283.02 1477.54 L1283.02 1481.48 L1263.11 1481.48 L1263.11 1477.54 Z" fill="#000000" fill-rule="nonzero" fill-opacity="1" /><path clip-path="url(#clip660)" d="M1302.47 1450 Q1298.86 1450 1297.03 1453.56 Q1295.22 1457.1 1295.22 1464.23 Q1295.22 1471.34 1297.03 1474.9 Q1298.86 1478.44 1302.47 1478.44 Q1306.1 1478.44 1307.91 1474.9 Q1309.73 1471.34 1309.73 1464.23 Q1309.73 1457.1 1307.91 1453.56 Q1306.1 1450 1302.47 1450 M1302.47 1446.29 Q1308.28 1446.29 1311.33 1450.9 Q1314.41 1455.48 1314.41 1464.23 Q1314.41 1472.96 1311.33 1477.57 Q1308.28 1482.15 1302.47 1482.15 Q1296.66 1482.15 1293.58 1477.57 Q1290.52 1472.96 1290.52 1464.23 Q1290.52 1455.48 1293.58 1450.9 Q1296.66 1446.29 1302.47 1446.29 Z" fill="#000000" fill-rule="nonzero" fill-opacity="1" /><path clip-path="url(#clip660)" d="M1364.14 1477.54 L1371.78 1477.54 L1371.78 1451.18 L1363.47 1452.84 L1363.47 1448.58 L1371.73 1446.92 L1376.4 1446.92 L1376.4 1477.54 L1384.04 1477.54 L1384.04 1481.48 L1364.14 1481.48 L1364.14 1477.54 Z" fill="#000000" fill-rule="nonzero" fill-opacity="1" /><path clip-path="url(#clip660)" d="M1394.3 1477.54 L1401.94 1477.54 L1401.94 1451.18 L1393.63 1452.84 L1393.63 1448.58 L1401.89 1446.92 L1406.57 1446.92 L1406.57 1477.54 L1414.21 1477.54 L1414.21 1481.48 L1394.3 1481.48 L1394.3 1477.54 Z" fill="#000000" fill-rule="nonzero" fill-opacity="1" /><path clip-path="url(#clip660)" d="M1464.73 1477.54 L1472.37 1477.54 L1472.37 1451.18 L1464.06 1452.84 L1464.06 1448.58 L1472.32 1446.92 L1477 1446.92 L1477 1477.54 L1484.64 1477.54 L1484.64 1481.48 L1464.73 1481.48 L1464.73 1477.54 Z" fill="#000000" fill-rule="nonzero" fill-opacity="1" /><path clip-path="url(#clip660)" d="M1498.11 1477.54 L1514.43 1477.54 L1514.43 1481.48 L1492.48 1481.48 L1492.48 1477.54 Q1495.15 1474.79 1499.73 1470.16 Q1504.34 1465.5 1505.52 1464.16 Q1507.76 1461.64 1508.64 1459.9 Q1509.54 1458.14 1509.54 1456.45 Q1509.54 1453.7 1507.6 1451.96 Q1505.68 1450.23 1502.58 1450.23 Q1500.38 1450.23 1497.92 1450.99 Q1495.49 1451.76 1492.72 1453.31 L1492.72 1448.58 Q1495.54 1447.45 1497.99 1446.87 Q1500.45 1446.29 1502.48 1446.29 Q1507.85 1446.29 1511.05 1448.98 Q1514.24 1451.66 1514.24 1456.15 Q1514.24 1458.28 1513.43 1460.2 Q1512.65 1462.1 1510.54 1464.69 Q1509.96 1465.37 1506.86 1468.58 Q1503.76 1471.78 1498.11 1477.54 Z" fill="#000000" fill-rule="nonzero" fill-opacity="1" /><path clip-path="url(#clip660)" d="M1564.66 1477.54 L1572.3 1477.54 L1572.3 1451.18 L1563.99 1452.84 L1563.99 1448.58 L1572.26 1446.92 L1576.93 1446.92 L1576.93 1477.54 L1584.57 1477.54 L1584.57 1481.48 L1564.66 1481.48 L1564.66 1477.54 Z" fill="#000000" fill-rule="nonzero" fill-opacity="1" /><path clip-path="url(#clip660)" d="M1608.18 1462.84 Q1611.54 1463.56 1613.41 1465.83 Q1615.31 1468.1 1615.31 1471.43 Q1615.31 1476.55 1611.79 1479.35 Q1608.27 1482.15 1601.79 1482.15 Q1599.62 1482.15 1597.3 1481.71 Q1595.01 1481.29 1592.56 1480.44 L1592.56 1475.92 Q1594.5 1477.06 1596.82 1477.63 Q1599.13 1478.21 1601.65 1478.21 Q1606.05 1478.21 1608.34 1476.48 Q1610.66 1474.74 1610.66 1471.43 Q1610.66 1468.38 1608.51 1466.66 Q1606.38 1464.93 1602.56 1464.93 L1598.53 1464.93 L1598.53 1461.08 L1602.74 1461.08 Q1606.19 1461.08 1608.02 1459.72 Q1609.85 1458.33 1609.85 1455.74 Q1609.85 1453.07 1607.95 1451.66 Q1606.08 1450.23 1602.56 1450.23 Q1600.64 1450.23 1598.44 1450.64 Q1596.24 1451.06 1593.6 1451.94 L1593.6 1447.77 Q1596.26 1447.03 1598.58 1446.66 Q1600.91 1446.29 1602.97 1446.29 Q1608.3 1446.29 1611.4 1448.72 Q1614.5 1451.13 1614.5 1455.25 Q1614.5 1458.12 1612.86 1460.11 Q1611.21 1462.08 1608.18 1462.84 Z" fill="#000000" fill-rule="nonzero" fill-opacity="1" /><path clip-path="url(#clip660)" d="M1664.51 1477.54 L1672.14 1477.54 L1672.14 1451.18 L1663.83 1452.84 L1663.83 1448.58 L1672.1 1446.92 L1676.77 1446.92 L1676.77 1477.54 L1684.41 1477.54 L1684.41 1481.48 L1664.51 1481.48 L1664.51 1477.54 Z" fill="#000000" fill-rule="nonzero" fill-opacity="1" /><path clip-path="url(#clip660)" d="M1706.7 1450.99 L1694.9 1469.44 L1706.7 1469.44 L1706.7 1450.99 M1705.48 1446.92 L1711.36 1446.92 L1711.36 1469.44 L1716.29 1469.44 L1716.29 1473.33 L1711.36 1473.33 L1711.36 1481.48 L1706.7 1481.48 L1706.7 1473.33 L1691.1 1473.33 L1691.1 1468.82 L1705.48 1446.92 Z" fill="#000000" fill-rule="nonzero" fill-opacity="1" /><path clip-path="url(#clip660)" d="M1765.65 1477.54 L1773.29 1477.54 L1773.29 1451.18 L1764.98 1452.84 L1764.98 1448.58 L1773.25 1446.92 L1777.92 1446.92 L1777.92 1477.54 L1785.56 1477.54 L1785.56 1481.48 L1765.65 1481.48 L1765.65 1477.54 Z" fill="#000000" fill-rule="nonzero" fill-opacity="1" /><path clip-path="url(#clip660)" d="M1795.05 1446.92 L1813.41 1446.92 L1813.41 1450.85 L1799.33 1450.85 L1799.33 1459.32 Q1800.35 1458.98 1801.37 1458.82 Q1802.39 1458.63 1803.41 1458.63 Q1809.2 1458.63 1812.58 1461.8 Q1815.95 1464.97 1815.95 1470.39 Q1815.95 1475.97 1812.48 1479.07 Q1809.01 1482.15 1802.69 1482.15 Q1800.52 1482.15 1798.25 1481.78 Q1796 1481.41 1793.59 1480.67 L1793.59 1475.97 Q1795.68 1477.1 1797.9 1477.66 Q1800.12 1478.21 1802.6 1478.21 Q1806.6 1478.21 1808.94 1476.11 Q1811.28 1474 1811.28 1470.39 Q1811.28 1466.78 1808.94 1464.67 Q1806.6 1462.57 1802.6 1462.57 Q1800.72 1462.57 1798.85 1462.98 Q1797 1463.4 1795.05 1464.28 L1795.05 1446.92 Z" fill="#000000" fill-rule="nonzero" fill-opacity="1" /><path clip-path="url(#clip660)" d="M1865.48 1477.54 L1873.12 1477.54 L1873.12 1451.18 L1864.81 1452.84 L1864.81 1448.58 L1873.08 1446.92 L1877.75 1446.92 L1877.75 1477.54 L1885.39 1477.54 L1885.39 1481.48 L1865.48 1481.48 L1865.48 1477.54 Z" fill="#000000" fill-rule="nonzero" fill-opacity="1" /><path clip-path="url(#clip660)" d="M1905.41 1462.33 Q1902.27 1462.33 1900.41 1464.49 Q1898.59 1466.64 1898.59 1470.39 Q1898.59 1474.12 1900.41 1476.29 Q1902.27 1478.44 1905.41 1478.44 Q1908.56 1478.44 1910.39 1476.29 Q1912.24 1474.12 1912.24 1470.39 Q1912.24 1466.64 1910.39 1464.49 Q1908.56 1462.33 1905.41 1462.33 M1914.7 1447.68 L1914.7 1451.94 Q1912.94 1451.11 1911.13 1450.67 Q1909.35 1450.23 1907.59 1450.23 Q1902.96 1450.23 1900.51 1453.35 Q1898.08 1456.48 1897.73 1462.8 Q1899.09 1460.78 1901.15 1459.72 Q1903.22 1458.63 1905.69 1458.63 Q1910.9 1458.63 1913.91 1461.8 Q1916.94 1464.95 1916.94 1470.39 Q1916.94 1475.71 1913.79 1478.93 Q1910.65 1482.15 1905.41 1482.15 Q1899.42 1482.15 1896.25 1477.57 Q1893.08 1472.96 1893.08 1464.23 Q1893.08 1456.04 1896.97 1451.18 Q1900.85 1446.29 1907.4 1446.29 Q1909.16 1446.29 1910.95 1446.64 Q1912.75 1446.99 1914.7 1447.68 Z" fill="#000000" fill-rule="nonzero" fill-opacity="1" /><path clip-path="url(#clip660)" d="M1966.42 1477.54 L1974.06 1477.54 L1974.06 1451.18 L1965.75 1452.84 L1965.75 1448.58 L1974.02 1446.92 L1978.69 1446.92 L1978.69 1477.54 L1986.33 1477.54 L1986.33 1481.48 L1966.42 1481.48 L1966.42 1477.54 Z" fill="#000000" fill-rule="nonzero" fill-opacity="1" /><path clip-path="url(#clip660)" d="M1994.6 1446.92 L2016.82 1446.92 L2016.82 1448.91 L2004.27 1481.48 L1999.39 1481.48 L2011.19 1450.85 L1994.6 1450.85 L1994.6 1446.92 Z" fill="#000000" fill-rule="nonzero" fill-opacity="1" /><path clip-path="url(#clip660)" d="M2066.43 1477.54 L2074.07 1477.54 L2074.07 1451.18 L2065.76 1452.84 L2065.76 1448.58 L2074.02 1446.92 L2078.7 1446.92 L2078.7 1477.54 L2086.34 1477.54 L2086.34 1481.48 L2066.43 1481.48 L2066.43 1477.54 Z" fill="#000000" fill-rule="nonzero" fill-opacity="1" /><path clip-path="url(#clip660)" d="M2105.78 1465.07 Q2102.45 1465.07 2100.53 1466.85 Q2098.63 1468.63 2098.63 1471.75 Q2098.63 1474.88 2100.53 1476.66 Q2102.45 1478.44 2105.78 1478.44 Q2109.11 1478.44 2111.03 1476.66 Q2112.96 1474.86 2112.96 1471.75 Q2112.96 1468.63 2111.03 1466.85 Q2109.14 1465.07 2105.78 1465.07 M2101.1 1463.07 Q2098.09 1462.33 2096.4 1460.27 Q2094.74 1458.21 2094.74 1455.25 Q2094.74 1451.11 2097.68 1448.7 Q2100.64 1446.29 2105.78 1446.29 Q2110.94 1446.29 2113.88 1448.7 Q2116.82 1451.11 2116.82 1455.25 Q2116.82 1458.21 2115.13 1460.27 Q2113.46 1462.33 2110.48 1463.07 Q2113.86 1463.86 2115.73 1466.15 Q2117.63 1468.44 2117.63 1471.75 Q2117.63 1476.78 2114.55 1479.46 Q2111.5 1482.15 2105.78 1482.15 Q2100.06 1482.15 2096.98 1479.46 Q2093.93 1476.78 2093.93 1471.75 Q2093.93 1468.44 2095.83 1466.15 Q2097.72 1463.86 2101.1 1463.07 M2099.39 1455.69 Q2099.39 1458.38 2101.06 1459.88 Q2102.75 1461.38 2105.78 1461.38 Q2108.79 1461.38 2110.48 1459.88 Q2112.19 1458.38 2112.19 1455.69 Q2112.19 1453.01 2110.48 1451.5 Q2108.79 1450 2105.78 1450 Q2102.75 1450 2101.06 1451.5 Q2099.39 1453.01 2099.39 1455.69 Z" fill="#000000" fill-rule="nonzero" fill-opacity="1" /><path clip-path="url(#clip660)" d="M2166.88 1477.54 L2174.52 1477.54 L2174.52 1451.18 L2166.21 1452.84 L2166.21 1448.58 L2174.48 1446.92 L2179.15 1446.92 L2179.15 1477.54 L2186.79 1477.54 L2186.79 1481.48 L2166.88 1481.48 L2166.88 1477.54 Z" fill="#000000" fill-rule="nonzero" fill-opacity="1" /><path clip-path="url(#clip660)" d="M2196.37 1480.76 L2196.37 1476.5 Q2198.13 1477.33 2199.94 1477.77 Q2201.74 1478.21 2203.48 1478.21 Q2208.11 1478.21 2210.54 1475.11 Q2212.99 1471.99 2213.34 1465.64 Q2212 1467.63 2209.94 1468.7 Q2207.88 1469.76 2205.38 1469.76 Q2200.19 1469.76 2197.16 1466.64 Q2194.15 1463.49 2194.15 1458.05 Q2194.15 1452.73 2197.3 1449.51 Q2200.45 1446.29 2205.68 1446.29 Q2211.67 1446.29 2214.82 1450.9 Q2217.99 1455.48 2217.99 1464.23 Q2217.99 1472.4 2214.1 1477.29 Q2210.24 1482.15 2203.69 1482.15 Q2201.93 1482.15 2200.12 1481.8 Q2198.32 1481.45 2196.37 1480.76 M2205.68 1466.11 Q2208.83 1466.11 2210.66 1463.95 Q2212.51 1461.8 2212.51 1458.05 Q2212.51 1454.32 2210.66 1452.17 Q2208.83 1450 2205.68 1450 Q2202.53 1450 2200.68 1452.17 Q2198.85 1454.32 2198.85 1458.05 Q2198.85 1461.8 2200.68 1463.95 Q2202.53 1466.11 2205.68 1466.11 Z" fill="#000000" fill-rule="nonzero" fill-opacity="1" /><path clip-path="url(#clip660)" d="M2271.28 1477.54 L2287.6 1477.54 L2287.6 1481.48 L2265.66 1481.48 L2265.66 1477.54 Q2268.32 1474.79 2272.9 1470.16 Q2277.51 1465.5 2278.69 1464.16 Q2280.94 1461.64 2281.82 1459.9 Q2282.72 1458.14 2282.72 1456.45 Q2282.72 1453.7 2280.77 1451.96 Q2278.85 1450.23 2275.75 1450.23 Q2273.55 1450.23 2271.1 1450.99 Q2268.67 1451.76 2265.89 1453.31 L2265.89 1448.58 Q2268.71 1447.45 2271.17 1446.87 Q2273.62 1446.29 2275.66 1446.29 Q2281.03 1446.29 2284.22 1448.98 Q2287.42 1451.66 2287.42 1456.15 Q2287.42 1458.28 2286.61 1460.2 Q2285.82 1462.1 2283.71 1464.69 Q2283.14 1465.37 2280.03 1468.58 Q2276.93 1471.78 2271.28 1477.54 Z" fill="#000000" fill-rule="nonzero" fill-opacity="1" /><path clip-path="url(#clip660)" d="M2307.42 1450 Q2303.81 1450 2301.98 1453.56 Q2300.17 1457.1 2300.17 1464.23 Q2300.17 1471.34 2301.98 1474.9 Q2303.81 1478.44 2307.42 1478.44 Q2311.05 1478.44 2312.86 1474.9 Q2314.69 1471.34 2314.69 1464.23 Q2314.69 1457.1 2312.86 1453.56 Q2311.05 1450 2307.42 1450 M2307.42 1446.29 Q2313.23 1446.29 2316.28 1450.9 Q2319.36 1455.48 2319.36 1464.23 Q2319.36 1472.96 2316.28 1477.57 Q2313.23 1482.15 2307.42 1482.15 Q2301.61 1482.15 2298.53 1477.57 Q2295.47 1472.96 2295.47 1464.23 Q2295.47 1455.48 2298.53 1450.9 Q2301.61 1446.29 2307.42 1446.29 Z" fill="#000000" fill-rule="nonzero" fill-opacity="1" /><path clip-path="url(#clip660)" d="M1293.48 1507.42 Q1293.48 1508.26 1293.12 1509.87 Q1292 1514.41 1287.78 1517.54 Q1287.07 1518.12 1285.81 1518.86 Q1287.33 1519.86 1288.65 1521.69 Q1290.61 1524.72 1290.61 1528.81 Q1290.61 1530.71 1290.1 1533.03 Q1288.65 1538.41 1283.56 1542.27 Q1278.44 1546.04 1272.35 1546.04 Q1269.07 1546.04 1266.81 1544.3 Q1264.59 1542.53 1263.72 1539.57 L1259.24 1557.63 Q1259.15 1558.08 1258.57 1558.08 L1258.24 1558.08 Q1257.57 1558.08 1257.57 1557.31 L1267.75 1516.73 Q1268.42 1513.99 1269.52 1511.42 Q1270.61 1508.84 1272.13 1506.52 Q1273.67 1504.2 1275.44 1502.5 Q1277.21 1500.76 1279.4 1499.76 Q1281.59 1498.73 1283.91 1498.73 Q1288.78 1498.73 1291.55 1502.05 Q1293.48 1504.4 1293.48 1507.42 M1289.77 1506.27 Q1289.77 1504.27 1288.97 1502.88 Q1287.33 1500.24 1283.85 1500.24 Q1281.75 1500.24 1279.76 1501.21 Q1277.79 1502.14 1276.22 1503.75 Q1274.64 1505.36 1273.28 1507.55 Q1271.93 1509.74 1270.93 1512.13 Q1269.97 1514.48 1269.32 1517.05 L1265.36 1533.03 Q1264.98 1534.74 1264.98 1536.25 Q1264.98 1539.86 1266.97 1542.21 Q1268.97 1544.56 1272.42 1544.56 Q1276.99 1544.56 1280.92 1541.14 Q1284.33 1538.08 1285.75 1532.71 Q1286.55 1529.32 1286.55 1526.97 Q1286.55 1524.4 1285.62 1522.4 Q1284.94 1520.79 1283.62 1519.82 Q1281.18 1520.69 1278.7 1520.69 Q1277.5 1520.69 1276.86 1520.66 Q1276.25 1520.63 1275.35 1520.5 Q1274.48 1520.37 1274.06 1520.02 Q1273.67 1519.66 1273.67 1519.12 Q1273.67 1518.79 1273.74 1518.66 Q1273.86 1518.15 1274.28 1517.79 Q1274.7 1517.44 1275.18 1517.28 Q1275.67 1517.09 1276.47 1516.99 Q1277.31 1516.89 1277.86 1516.89 Q1278.41 1516.86 1279.34 1516.86 Q1281.53 1516.86 1283.75 1517.73 Q1284.59 1517.28 1285.49 1516.47 Q1288.36 1513.8 1289.32 1509.55 Q1289.77 1507.97 1289.77 1506.27 M1281.66 1518.73 Q1280.31 1518.37 1279.27 1518.37 Q1275.51 1518.37 1275.31 1518.99 Q1275.31 1519.05 1275.44 1519.12 Q1275.57 1519.15 1275.86 1519.18 Q1276.18 1519.18 1276.44 1519.21 Q1276.73 1519.24 1277.21 1519.24 Q1277.7 1519.24 1277.95 1519.24 Q1278.24 1519.24 1278.76 1519.24 Q1280.05 1519.24 1281.66 1518.73 Z" fill="#000000" fill-rule="nonzero" fill-opacity="1" /><path clip-path="url(#clip660)" d="M1311.96 1547.24 Q1311.96 1548.23 1311.15 1548.97 Q1310.36 1549.69 1309.5 1549.69 Q1308.71 1549.69 1308.22 1549.22 Q1307.75 1548.73 1307.75 1548.03 Q1307.75 1547.1 1308.53 1546.34 Q1309.32 1545.57 1310.25 1545.57 Q1311.01 1545.57 1311.49 1546.04 Q1311.96 1546.52 1311.96 1547.24 M1312.37 1569.49 Q1312.37 1569.67 1312.16 1570.39 Q1311.96 1571.09 1311.47 1572.17 Q1310.99 1573.23 1310.34 1574.22 Q1309.68 1575.21 1308.6 1575.91 Q1307.54 1576.61 1306.33 1576.61 Q1304.68 1576.61 1303.6 1575.53 Q1302.54 1574.45 1302.54 1572.82 Q1302.54 1571.95 1303.6 1569.13 Q1306.66 1560.92 1306.78 1560.58 Q1307.29 1559.3 1307.29 1558.17 Q1307.29 1557.65 1307.18 1557.34 Q1307.07 1557 1306.84 1556.89 Q1306.62 1556.75 1306.48 1556.73 Q1306.37 1556.71 1306.14 1556.71 Q1304.81 1556.71 1303.57 1558.06 Q1302.33 1559.41 1301.48 1562.43 Q1301.3 1563 1301.19 1563.13 Q1301.07 1563.27 1300.73 1563.27 Q1300.17 1563.24 1300.17 1562.79 Q1300.17 1562.66 1300.33 1562.14 Q1300.49 1561.6 1300.78 1560.79 Q1301.07 1559.95 1301.59 1559.1 Q1302.11 1558.22 1302.74 1557.45 Q1303.39 1556.68 1304.32 1556.19 Q1305.24 1555.69 1306.28 1555.69 Q1307.97 1555.69 1309.01 1556.8 Q1310.07 1557.88 1310.07 1559.48 Q1310.07 1560.36 1309.46 1561.91 Q1308.71 1563.94 1308.44 1564.6 L1306.64 1569.44 Q1305.99 1571.2 1305.78 1571.74 Q1305.6 1572.26 1305.45 1572.89 Q1305.31 1573.5 1305.31 1574.06 Q1305.31 1574.85 1305.56 1575.21 Q1305.83 1575.58 1306.42 1575.58 Q1308.04 1575.58 1309.23 1573.97 Q1310.43 1572.35 1311.13 1569.87 Q1311.15 1569.8 1311.17 1569.69 Q1311.35 1569.13 1311.53 1569.06 Q1311.62 1569.04 1311.8 1569.04 Q1312.37 1569.04 1312.37 1569.49 Z" fill="#000000" fill-rule="nonzero" fill-opacity="1" /><polyline clip-path="url(#clip660)" style="stroke:#000000; stroke-linecap:round; stroke-linejoin:round; stroke-width:4; stroke-opacity:1; fill:none" points="224.098,1419.08 224.098,123.472 "/>
<polyline clip-path="url(#clip660)" style="stroke:#000000; stroke-linecap:round; stroke-linejoin:round; stroke-width:4; stroke-opacity:1; fill:none" points="224.098,1256.07 242.996,1256.07 "/>
<polyline clip-path="url(#clip660)" style="stroke:#000000; stroke-linecap:round; stroke-linejoin:round; stroke-width:4; stroke-opacity:1; fill:none" points="224.098,1061.89 242.996,1061.89 "/>
<polyline clip-path="url(#clip660)" style="stroke:#000000; stroke-linecap:round; stroke-linejoin:round; stroke-width:4; stroke-opacity:1; fill:none" points="224.098,867.713 242.996,867.713 "/>
<polyline clip-path="url(#clip660)" style="stroke:#000000; stroke-linecap:round; stroke-linejoin:round; stroke-width:4; stroke-opacity:1; fill:none" points="224.098,673.536 242.996,673.536 "/>
<polyline clip-path="url(#clip660)" style="stroke:#000000; stroke-linecap:round; stroke-linejoin:round; stroke-width:4; stroke-opacity:1; fill:none" points="224.098,479.359 242.996,479.359 "/>
<polyline clip-path="url(#clip660)" style="stroke:#000000; stroke-linecap:round; stroke-linejoin:round; stroke-width:4; stroke-opacity:1; fill:none" points="224.098,285.181 242.996,285.181 "/>
<path clip-path="url(#clip660)" d="M50.9921 1256.52 L80.6679 1256.52 L80.6679 1260.45 L50.9921 1260.45 L50.9921 1256.52 Z" fill="#000000" fill-rule="nonzero" fill-opacity="1" /><path clip-path="url(#clip660)" d="M100.76 1241.87 Q97.1493 1241.87 95.3206 1245.43 Q93.515 1248.97 93.515 1256.1 Q93.515 1263.21 95.3206 1266.77 Q97.1493 1270.32 100.76 1270.32 Q104.395 1270.32 106.2 1266.77 Q108.029 1263.21 108.029 1256.1 Q108.029 1248.97 106.2 1245.43 Q104.395 1241.87 100.76 1241.87 M100.76 1238.16 Q106.571 1238.16 109.626 1242.77 Q112.705 1247.35 112.705 1256.1 Q112.705 1264.83 109.626 1269.44 Q106.571 1274.02 100.76 1274.02 Q94.9502 1274.02 91.8715 1269.44 Q88.816 1264.83 88.816 1256.1 Q88.816 1247.35 91.8715 1242.77 Q94.9502 1238.16 100.76 1238.16 Z" fill="#000000" fill-rule="nonzero" fill-opacity="1" /><path clip-path="url(#clip660)" d="M120.922 1267.47 L125.807 1267.47 L125.807 1273.35 L120.922 1273.35 L120.922 1267.47 Z" fill="#000000" fill-rule="nonzero" fill-opacity="1" /><path clip-path="url(#clip660)" d="M136.802 1269.41 L144.441 1269.41 L144.441 1243.05 L136.131 1244.71 L136.131 1240.45 L144.394 1238.79 L149.07 1238.79 L149.07 1269.41 L156.709 1269.41 L156.709 1273.35 L136.802 1273.35 L136.802 1269.41 Z" fill="#000000" fill-rule="nonzero" fill-opacity="1" /><path clip-path="url(#clip660)" d="M176.153 1241.87 Q172.542 1241.87 170.714 1245.43 Q168.908 1248.97 168.908 1256.1 Q168.908 1263.21 170.714 1266.77 Q172.542 1270.32 176.153 1270.32 Q179.788 1270.32 181.593 1266.77 Q183.422 1263.21 183.422 1256.1 Q183.422 1248.97 181.593 1245.43 Q179.788 1241.87 176.153 1241.87 M176.153 1238.16 Q181.964 1238.16 185.019 1242.77 Q188.098 1247.35 188.098 1256.1 Q188.098 1264.83 185.019 1269.44 Q181.964 1274.02 176.153 1274.02 Q170.343 1274.02 167.265 1269.44 Q164.209 1264.83 164.209 1256.1 Q164.209 1247.35 167.265 1242.77 Q170.343 1238.16 176.153 1238.16 Z" fill="#000000" fill-rule="nonzero" fill-opacity="1" /><path clip-path="url(#clip660)" d="M51.9875 1062.34 L81.6633 1062.34 L81.6633 1066.28 L51.9875 1066.28 L51.9875 1062.34 Z" fill="#000000" fill-rule="nonzero" fill-opacity="1" /><path clip-path="url(#clip660)" d="M101.756 1047.69 Q98.1447 1047.69 96.316 1051.25 Q94.5104 1054.8 94.5104 1061.93 Q94.5104 1069.03 96.316 1072.6 Q98.1447 1076.14 101.756 1076.14 Q105.39 1076.14 107.196 1072.6 Q109.024 1069.03 109.024 1061.93 Q109.024 1054.8 107.196 1051.25 Q105.39 1047.69 101.756 1047.69 M101.756 1043.99 Q107.566 1043.99 110.621 1048.59 Q113.7 1053.18 113.7 1061.93 Q113.7 1070.65 110.621 1075.26 Q107.566 1079.84 101.756 1079.84 Q95.9456 1079.84 92.8669 1075.26 Q89.8114 1070.65 89.8114 1061.93 Q89.8114 1053.18 92.8669 1048.59 Q95.9456 1043.99 101.756 1043.99 Z" fill="#000000" fill-rule="nonzero" fill-opacity="1" /><path clip-path="url(#clip660)" d="M121.918 1073.29 L126.802 1073.29 L126.802 1079.17 L121.918 1079.17 L121.918 1073.29 Z" fill="#000000" fill-rule="nonzero" fill-opacity="1" /><path clip-path="url(#clip660)" d="M146.987 1047.69 Q143.376 1047.69 141.547 1051.25 Q139.742 1054.8 139.742 1061.93 Q139.742 1069.03 141.547 1072.6 Q143.376 1076.14 146.987 1076.14 Q150.621 1076.14 152.427 1072.6 Q154.255 1069.03 154.255 1061.93 Q154.255 1054.8 152.427 1051.25 Q150.621 1047.69 146.987 1047.69 M146.987 1043.99 Q152.797 1043.99 155.853 1048.59 Q158.931 1053.18 158.931 1061.93 Q158.931 1070.65 155.853 1075.26 Q152.797 1079.84 146.987 1079.84 Q141.177 1079.84 138.098 1075.26 Q135.043 1070.65 135.043 1061.93 Q135.043 1053.18 138.098 1048.59 Q141.177 1043.99 146.987 1043.99 Z" fill="#000000" fill-rule="nonzero" fill-opacity="1" /><path clip-path="url(#clip660)" d="M167.195 1044.61 L185.552 1044.61 L185.552 1048.55 L171.478 1048.55 L171.478 1057.02 Q172.496 1056.67 173.515 1056.51 Q174.533 1056.32 175.552 1056.32 Q181.339 1056.32 184.718 1059.49 Q188.098 1062.67 188.098 1068.08 Q188.098 1073.66 184.626 1076.76 Q181.153 1079.84 174.834 1079.84 Q172.658 1079.84 170.39 1079.47 Q168.144 1079.1 165.737 1078.36 L165.737 1073.66 Q167.82 1074.8 170.042 1075.35 Q172.265 1075.91 174.741 1075.91 Q178.746 1075.91 181.084 1073.8 Q183.422 1071.69 183.422 1068.08 Q183.422 1064.47 181.084 1062.37 Q178.746 1060.26 174.741 1060.26 Q172.866 1060.26 170.991 1060.68 Q169.14 1061.09 167.195 1061.97 L167.195 1044.61 Z" fill="#000000" fill-rule="nonzero" fill-opacity="1" /><path clip-path="url(#clip660)" d="M100.76 853.512 Q97.1493 853.512 95.3206 857.077 Q93.515 860.618 93.515 867.748 Q93.515 874.855 95.3206 878.419 Q97.1493 881.961 100.76 881.961 Q104.395 881.961 106.2 878.419 Q108.029 874.855 108.029 867.748 Q108.029 860.618 106.2 857.077 Q104.395 853.512 100.76 853.512 M100.76 849.808 Q106.571 849.808 109.626 854.415 Q112.705 858.998 112.705 867.748 Q112.705 876.475 109.626 881.081 Q106.571 885.665 100.76 885.665 Q94.9502 885.665 91.8715 881.081 Q88.816 876.475 88.816 867.748 Q88.816 858.998 91.8715 854.415 Q94.9502 849.808 100.76 849.808 Z" fill="#000000" fill-rule="nonzero" fill-opacity="1" /><path clip-path="url(#clip660)" d="M120.922 879.114 L125.807 879.114 L125.807 884.993 L120.922 884.993 L120.922 879.114 Z" fill="#000000" fill-rule="nonzero" fill-opacity="1" /><path clip-path="url(#clip660)" d="M145.992 853.512 Q142.381 853.512 140.552 857.077 Q138.746 860.618 138.746 867.748 Q138.746 874.855 140.552 878.419 Q142.381 881.961 145.992 881.961 Q149.626 881.961 151.431 878.419 Q153.26 874.855 153.26 867.748 Q153.26 860.618 151.431 857.077 Q149.626 853.512 145.992 853.512 M145.992 849.808 Q151.802 849.808 154.857 854.415 Q157.936 858.998 157.936 867.748 Q157.936 876.475 154.857 881.081 Q151.802 885.665 145.992 885.665 Q140.181 885.665 137.103 881.081 Q134.047 876.475 134.047 867.748 Q134.047 858.998 137.103 854.415 Q140.181 849.808 145.992 849.808 Z" fill="#000000" fill-rule="nonzero" fill-opacity="1" /><path clip-path="url(#clip660)" d="M176.153 853.512 Q172.542 853.512 170.714 857.077 Q168.908 860.618 168.908 867.748 Q168.908 874.855 170.714 878.419 Q172.542 881.961 176.153 881.961 Q179.788 881.961 181.593 878.419 Q183.422 874.855 183.422 867.748 Q183.422 860.618 181.593 857.077 Q179.788 853.512 176.153 853.512 M176.153 849.808 Q181.964 849.808 185.019 854.415 Q188.098 858.998 188.098 867.748 Q188.098 876.475 185.019 881.081 Q181.964 885.665 176.153 885.665 Q170.343 885.665 167.265 881.081 Q164.209 876.475 164.209 867.748 Q164.209 858.998 167.265 854.415 Q170.343 849.808 176.153 849.808 Z" fill="#000000" fill-rule="nonzero" fill-opacity="1" /><path clip-path="url(#clip660)" d="M101.756 659.335 Q98.1447 659.335 96.316 662.9 Q94.5104 666.441 94.5104 673.571 Q94.5104 680.677 96.316 684.242 Q98.1447 687.784 101.756 687.784 Q105.39 687.784 107.196 684.242 Q109.024 680.677 109.024 673.571 Q109.024 666.441 107.196 662.9 Q105.39 659.335 101.756 659.335 M101.756 655.631 Q107.566 655.631 110.621 660.237 Q113.7 664.821 113.7 673.571 Q113.7 682.298 110.621 686.904 Q107.566 691.487 101.756 691.487 Q95.9456 691.487 92.8669 686.904 Q89.8114 682.298 89.8114 673.571 Q89.8114 664.821 92.8669 660.237 Q95.9456 655.631 101.756 655.631 Z" fill="#000000" fill-rule="nonzero" fill-opacity="1" /><path clip-path="url(#clip660)" d="M121.918 684.936 L126.802 684.936 L126.802 690.816 L121.918 690.816 L121.918 684.936 Z" fill="#000000" fill-rule="nonzero" fill-opacity="1" /><path clip-path="url(#clip660)" d="M146.987 659.335 Q143.376 659.335 141.547 662.9 Q139.742 666.441 139.742 673.571 Q139.742 680.677 141.547 684.242 Q143.376 687.784 146.987 687.784 Q150.621 687.784 152.427 684.242 Q154.255 680.677 154.255 673.571 Q154.255 666.441 152.427 662.9 Q150.621 659.335 146.987 659.335 M146.987 655.631 Q152.797 655.631 155.853 660.237 Q158.931 664.821 158.931 673.571 Q158.931 682.298 155.853 686.904 Q152.797 691.487 146.987 691.487 Q141.177 691.487 138.098 686.904 Q135.043 682.298 135.043 673.571 Q135.043 664.821 138.098 660.237 Q141.177 655.631 146.987 655.631 Z" fill="#000000" fill-rule="nonzero" fill-opacity="1" /><path clip-path="url(#clip660)" d="M167.195 656.256 L185.552 656.256 L185.552 660.191 L171.478 660.191 L171.478 668.663 Q172.496 668.316 173.515 668.154 Q174.533 667.969 175.552 667.969 Q181.339 667.969 184.718 671.14 Q188.098 674.311 188.098 679.728 Q188.098 685.307 184.626 688.409 Q181.153 691.487 174.834 691.487 Q172.658 691.487 170.39 691.117 Q168.144 690.747 165.737 690.006 L165.737 685.307 Q167.82 686.441 170.042 686.997 Q172.265 687.552 174.741 687.552 Q178.746 687.552 181.084 685.446 Q183.422 683.339 183.422 679.728 Q183.422 676.117 181.084 674.011 Q178.746 671.904 174.741 671.904 Q172.866 671.904 170.991 672.321 Q169.14 672.737 167.195 673.617 L167.195 656.256 Z" fill="#000000" fill-rule="nonzero" fill-opacity="1" /><path clip-path="url(#clip660)" d="M100.76 465.157 Q97.1493 465.157 95.3206 468.722 Q93.515 472.264 93.515 479.393 Q93.515 486.5 95.3206 490.065 Q97.1493 493.606 100.76 493.606 Q104.395 493.606 106.2 490.065 Q108.029 486.5 108.029 479.393 Q108.029 472.264 106.2 468.722 Q104.395 465.157 100.76 465.157 M100.76 461.454 Q106.571 461.454 109.626 466.06 Q112.705 470.643 112.705 479.393 Q112.705 488.12 109.626 492.727 Q106.571 497.31 100.76 497.31 Q94.9502 497.31 91.8715 492.727 Q88.816 488.12 88.816 479.393 Q88.816 470.643 91.8715 466.06 Q94.9502 461.454 100.76 461.454 Z" fill="#000000" fill-rule="nonzero" fill-opacity="1" /><path clip-path="url(#clip660)" d="M120.922 490.759 L125.807 490.759 L125.807 496.639 L120.922 496.639 L120.922 490.759 Z" fill="#000000" fill-rule="nonzero" fill-opacity="1" /><path clip-path="url(#clip660)" d="M136.802 492.704 L144.441 492.704 L144.441 466.338 L136.131 468.005 L136.131 463.745 L144.394 462.079 L149.07 462.079 L149.07 492.704 L156.709 492.704 L156.709 496.639 L136.802 496.639 L136.802 492.704 Z" fill="#000000" fill-rule="nonzero" fill-opacity="1" /><path clip-path="url(#clip660)" d="M176.153 465.157 Q172.542 465.157 170.714 468.722 Q168.908 472.264 168.908 479.393 Q168.908 486.5 170.714 490.065 Q172.542 493.606 176.153 493.606 Q179.788 493.606 181.593 490.065 Q183.422 486.5 183.422 479.393 Q183.422 472.264 181.593 468.722 Q179.788 465.157 176.153 465.157 M176.153 461.454 Q181.964 461.454 185.019 466.06 Q188.098 470.643 188.098 479.393 Q188.098 488.12 185.019 492.727 Q181.964 497.31 176.153 497.31 Q170.343 497.31 167.265 492.727 Q164.209 488.12 164.209 479.393 Q164.209 470.643 167.265 466.06 Q170.343 461.454 176.153 461.454 Z" fill="#000000" fill-rule="nonzero" fill-opacity="1" /><path clip-path="url(#clip660)" d="M101.756 270.98 Q98.1447 270.98 96.316 274.545 Q94.5104 278.087 94.5104 285.216 Q94.5104 292.323 96.316 295.887 Q98.1447 299.429 101.756 299.429 Q105.39 299.429 107.196 295.887 Q109.024 292.323 109.024 285.216 Q109.024 278.087 107.196 274.545 Q105.39 270.98 101.756 270.98 M101.756 267.276 Q107.566 267.276 110.621 271.883 Q113.7 276.466 113.7 285.216 Q113.7 293.943 110.621 298.549 Q107.566 303.133 101.756 303.133 Q95.9456 303.133 92.8669 298.549 Q89.8114 293.943 89.8114 285.216 Q89.8114 276.466 92.8669 271.883 Q95.9456 267.276 101.756 267.276 Z" fill="#000000" fill-rule="nonzero" fill-opacity="1" /><path clip-path="url(#clip660)" d="M121.918 296.582 L126.802 296.582 L126.802 302.461 L121.918 302.461 L121.918 296.582 Z" fill="#000000" fill-rule="nonzero" fill-opacity="1" /><path clip-path="url(#clip660)" d="M137.797 298.526 L145.436 298.526 L145.436 272.161 L137.126 273.827 L137.126 269.568 L145.39 267.901 L150.066 267.901 L150.066 298.526 L157.705 298.526 L157.705 302.461 L137.797 302.461 L137.797 298.526 Z" fill="#000000" fill-rule="nonzero" fill-opacity="1" /><path clip-path="url(#clip660)" d="M167.195 267.901 L185.552 267.901 L185.552 271.837 L171.478 271.837 L171.478 280.309 Q172.496 279.962 173.515 279.799 Q174.533 279.614 175.552 279.614 Q181.339 279.614 184.718 282.786 Q188.098 285.957 188.098 291.373 Q188.098 296.952 184.626 300.054 Q181.153 303.133 174.834 303.133 Q172.658 303.133 170.39 302.762 Q168.144 302.392 165.737 301.651 L165.737 296.952 Q167.82 298.086 170.042 298.642 Q172.265 299.198 174.741 299.198 Q178.746 299.198 181.084 297.091 Q183.422 294.985 183.422 291.373 Q183.422 287.762 181.084 285.656 Q178.746 283.549 174.741 283.549 Q172.866 283.549 170.991 283.966 Q169.14 284.383 167.195 285.262 L167.195 267.901 Z" fill="#000000" fill-rule="nonzero" fill-opacity="1" /><path clip-path="url(#clip660)" d="M445.15 44.2197 Q447.783 45.1109 450.254 48.0275 Q452.766 50.9442 455.277 56.0483 L463.582 72.576 L454.791 72.576 L447.054 57.061 Q444.056 50.9847 441.221 48.9997 Q438.426 47.0148 433.565 47.0148 L424.653 47.0148 L424.653 72.576 L416.47 72.576 L416.47 12.096 L434.942 12.096 Q445.312 12.096 450.416 16.4305 Q455.52 20.7649 455.52 29.5149 Q455.52 35.2267 452.847 38.994 Q450.214 42.7613 445.15 44.2197 M424.653 18.8205 L424.653 40.2903 L434.942 40.2903 Q440.856 40.2903 443.854 37.5762 Q446.892 34.8216 446.892 29.5149 Q446.892 24.2082 443.854 21.5346 Q440.856 18.8205 434.942 18.8205 L424.653 18.8205 Z" fill="#000000" fill-rule="nonzero" fill-opacity="1" /><path clip-path="url(#clip660)" d="M473.79 27.2059 L481.244 27.2059 L481.244 72.576 L473.79 72.576 L473.79 27.2059 M473.79 9.54393 L481.244 9.54393 L481.244 18.9825 L473.79 18.9825 L473.79 9.54393 Z" fill="#000000" fill-rule="nonzero" fill-opacity="1" /><path clip-path="url(#clip660)" d="M526.695 34.0924 L526.695 9.54393 L534.149 9.54393 L534.149 72.576 L526.695 72.576 L526.695 65.7705 Q524.345 69.8214 520.74 71.8063 Q517.175 73.7508 512.152 73.7508 Q503.929 73.7508 498.744 67.1883 Q493.599 60.6258 493.599 49.9314 Q493.599 39.2371 498.744 32.6746 Q503.929 26.1121 512.152 26.1121 Q517.175 26.1121 520.74 28.0971 Q524.345 30.0415 526.695 34.0924 M501.296 49.9314 Q501.296 58.1548 504.658 62.8538 Q508.061 67.5124 513.975 67.5124 Q519.889 67.5124 523.292 62.8538 Q526.695 58.1548 526.695 49.9314 Q526.695 41.7081 523.292 37.0496 Q519.889 32.3505 513.975 32.3505 Q508.061 32.3505 504.658 37.0496 Q501.296 41.7081 501.296 49.9314 Z" fill="#000000" fill-rule="nonzero" fill-opacity="1" /><path clip-path="url(#clip660)" d="M579.357 49.3643 Q579.357 41.2625 575.994 36.8065 Q572.673 32.3505 566.637 32.3505 Q560.641 32.3505 557.279 36.8065 Q553.957 41.2625 553.957 49.3643 Q553.957 57.4256 557.279 61.8816 Q560.641 66.3376 566.637 66.3376 Q572.673 66.3376 575.994 61.8816 Q579.357 57.4256 579.357 49.3643 M586.81 66.9452 Q586.81 78.5308 581.666 84.1616 Q576.521 89.8329 565.908 89.8329 Q561.978 89.8329 558.494 89.2252 Q555.011 88.6581 551.729 87.4428 L551.729 80.1917 Q555.011 81.9741 558.211 82.8248 Q561.411 83.6755 564.733 83.6755 Q572.065 83.6755 575.711 79.8271 Q579.357 76.0193 579.357 68.282 L579.357 64.5957 Q577.048 68.6061 573.442 70.5911 Q569.837 72.576 564.814 72.576 Q556.469 72.576 551.365 66.2161 Q546.261 59.8562 546.261 49.3643 Q546.261 38.832 551.365 32.472 Q556.469 26.1121 564.814 26.1121 Q569.837 26.1121 573.442 28.0971 Q577.048 30.082 579.357 34.0924 L579.357 27.2059 L586.81 27.2059 L586.81 66.9452 Z" fill="#000000" fill-rule="nonzero" fill-opacity="1" /><path clip-path="url(#clip660)" d="M640.971 48.0275 L640.971 51.6733 L606.7 51.6733 Q607.186 59.3701 611.318 63.421 Q615.491 67.4314 622.904 67.4314 Q627.198 67.4314 631.208 66.3781 Q635.259 65.3249 639.229 63.2184 L639.229 70.267 Q635.219 71.9684 631.006 72.8596 Q626.793 73.7508 622.458 73.7508 Q611.602 73.7508 605.242 67.4314 Q598.922 61.1119 598.922 50.3365 Q598.922 39.1965 604.918 32.6746 Q610.954 26.1121 621.162 26.1121 Q630.317 26.1121 635.624 32.0264 Q640.971 37.9003 640.971 48.0275 M633.517 45.84 Q633.436 39.7232 630.074 36.0774 Q626.752 32.4315 621.243 32.4315 Q615.005 32.4315 611.237 35.9558 Q607.51 39.4801 606.943 45.8805 L633.517 45.84 Z" fill="#000000" fill-rule="nonzero" fill-opacity="1" /><path clip-path="url(#clip660)" d="M708.58 44.2197 Q711.214 45.1109 713.685 48.0275 Q716.196 50.9442 718.708 56.0483 L727.012 72.576 L718.222 72.576 L710.484 57.061 Q707.487 50.9847 704.651 48.9997 Q701.856 47.0148 696.995 47.0148 L688.083 47.0148 L688.083 72.576 L679.9 72.576 L679.9 12.096 L698.372 12.096 Q708.742 12.096 713.847 16.4305 Q718.951 20.7649 718.951 29.5149 Q718.951 35.2267 716.277 38.994 Q713.644 42.7613 708.58 44.2197 M688.083 18.8205 L688.083 40.2903 L698.372 40.2903 Q704.287 40.2903 707.284 37.5762 Q710.322 34.8216 710.322 29.5149 Q710.322 24.2082 707.284 21.5346 Q704.287 18.8205 698.372 18.8205 L688.083 18.8205 Z" fill="#000000" fill-rule="nonzero" fill-opacity="1" /><path clip-path="url(#clip660)" d="M772.301 48.0275 L772.301 51.6733 L738.031 51.6733 Q738.517 59.3701 742.649 63.421 Q746.821 67.4314 754.234 67.4314 Q758.528 67.4314 762.539 66.3781 Q766.589 65.3249 770.559 63.2184 L770.559 70.267 Q766.549 71.9684 762.336 72.8596 Q758.123 73.7508 753.789 73.7508 Q742.932 73.7508 736.572 67.4314 Q730.253 61.1119 730.253 50.3365 Q730.253 39.1965 736.248 32.6746 Q742.284 26.1121 752.492 26.1121 Q761.647 26.1121 766.954 32.0264 Q772.301 37.9003 772.301 48.0275 M764.848 45.84 Q764.767 39.7232 761.404 36.0774 Q758.083 32.4315 752.573 32.4315 Q746.335 32.4315 742.568 35.9558 Q738.841 39.4801 738.274 45.8805 L764.848 45.84 Z" fill="#000000" fill-rule="nonzero" fill-opacity="1" /><path clip-path="url(#clip660)" d="M814.39 49.3643 Q814.39 41.2625 811.028 36.8065 Q807.706 32.3505 801.67 32.3505 Q795.675 32.3505 792.313 36.8065 Q788.991 41.2625 788.991 49.3643 Q788.991 57.4256 792.313 61.8816 Q795.675 66.3376 801.67 66.3376 Q807.706 66.3376 811.028 61.8816 Q814.39 57.4256 814.39 49.3643 M821.844 66.9452 Q821.844 78.5308 816.699 84.1616 Q811.554 89.8329 800.941 89.8329 Q797.012 89.8329 793.528 89.2252 Q790.044 88.6581 786.763 87.4428 L786.763 80.1917 Q790.044 81.9741 793.244 82.8248 Q796.445 83.6755 799.766 83.6755 Q807.098 83.6755 810.744 79.8271 Q814.39 76.0193 814.39 68.282 L814.39 64.5957 Q812.081 68.6061 808.476 70.5911 Q804.87 72.576 799.847 72.576 Q791.502 72.576 786.398 66.2161 Q781.294 59.8562 781.294 49.3643 Q781.294 38.832 786.398 32.472 Q791.502 26.1121 799.847 26.1121 Q804.87 26.1121 808.476 28.0971 Q812.081 30.082 814.39 34.0924 L814.39 27.2059 L821.844 27.2059 L821.844 66.9452 Z" fill="#000000" fill-rule="nonzero" fill-opacity="1" /><path clip-path="url(#clip660)" d="M863.487 34.1734 Q862.231 33.4443 860.732 33.1202 Q859.274 32.7556 857.492 32.7556 Q851.172 32.7556 847.77 36.8875 Q844.407 40.9789 844.407 48.6757 L844.407 72.576 L836.913 72.576 L836.913 27.2059 L844.407 27.2059 L844.407 34.2544 Q846.757 30.1225 850.524 28.1376 Q854.291 26.1121 859.679 26.1121 Q860.449 26.1121 861.381 26.2337 Q862.312 26.3147 863.447 26.5172 L863.487 34.1734 Z" fill="#000000" fill-rule="nonzero" fill-opacity="1" /><path clip-path="url(#clip660)" d="M908.29 48.0275 L908.29 51.6733 L874.019 51.6733 Q874.505 59.3701 878.637 63.421 Q882.81 67.4314 890.223 67.4314 Q894.517 67.4314 898.527 66.3781 Q902.578 65.3249 906.548 63.2184 L906.548 70.267 Q902.538 71.9684 898.325 72.8596 Q894.112 73.7508 889.777 73.7508 Q878.921 73.7508 872.561 67.4314 Q866.242 61.1119 866.242 50.3365 Q866.242 39.1965 872.237 32.6746 Q878.273 26.1121 888.481 26.1121 Q897.636 26.1121 902.943 32.0264 Q908.29 37.9003 908.29 48.0275 M900.836 45.84 Q900.755 39.7232 897.393 36.0774 Q894.071 32.4315 888.562 32.4315 Q882.324 32.4315 878.556 35.9558 Q874.83 39.4801 874.262 45.8805 L900.836 45.84 Z" fill="#000000" fill-rule="nonzero" fill-opacity="1" /><path clip-path="url(#clip660)" d="M949.447 28.5427 L949.447 35.5912 Q946.288 33.9709 942.885 33.1607 Q939.482 32.3505 935.836 32.3505 Q930.286 32.3505 927.491 34.0519 Q924.737 35.7533 924.737 39.156 Q924.737 41.7486 926.722 43.2475 Q928.707 44.7058 934.702 46.0426 L937.254 46.6097 Q945.194 48.3111 948.516 51.4303 Q951.878 54.509 951.878 60.0587 Q951.878 66.3781 946.855 70.0644 Q941.872 73.7508 933.122 73.7508 Q929.476 73.7508 925.506 73.0216 Q921.577 72.3329 917.202 70.9151 L917.202 63.2184 Q921.334 65.3654 925.344 66.4591 Q929.355 67.5124 933.284 67.5124 Q938.55 67.5124 941.386 65.73 Q944.222 63.9071 944.222 60.6258 Q944.222 57.5877 942.156 55.9673 Q940.13 54.3469 933.203 52.8481 L930.611 52.2405 Q923.683 50.7821 920.605 47.7845 Q917.526 44.7463 917.526 39.4801 Q917.526 33.0797 922.063 29.5959 Q926.6 26.1121 934.945 26.1121 Q939.077 26.1121 942.723 26.7198 Q946.369 27.3274 949.447 28.5427 Z" fill="#000000" fill-rule="nonzero" fill-opacity="1" /><path clip-path="url(#clip660)" d="M992.67 28.5427 L992.67 35.5912 Q989.511 33.9709 986.108 33.1607 Q982.705 32.3505 979.059 32.3505 Q973.51 32.3505 970.714 34.0519 Q967.96 35.7533 967.96 39.156 Q967.96 41.7486 969.945 43.2475 Q971.93 44.7058 977.925 46.0426 L980.477 46.6097 Q988.417 48.3111 991.739 51.4303 Q995.101 54.509 995.101 60.0587 Q995.101 66.3781 990.078 70.0644 Q985.095 73.7508 976.345 73.7508 Q972.699 73.7508 968.73 73.0216 Q964.8 72.3329 960.425 70.9151 L960.425 63.2184 Q964.557 65.3654 968.567 66.4591 Q972.578 67.5124 976.507 67.5124 Q981.773 67.5124 984.609 65.73 Q987.445 63.9071 987.445 60.6258 Q987.445 57.5877 985.379 55.9673 Q983.353 54.3469 976.426 52.8481 L973.834 52.2405 Q966.907 50.7821 963.828 47.7845 Q960.749 44.7463 960.749 39.4801 Q960.749 33.0797 965.286 29.5959 Q969.823 26.1121 978.168 26.1121 Q982.3 26.1121 985.946 26.7198 Q989.592 27.3274 992.67 28.5427 Z" fill="#000000" fill-rule="nonzero" fill-opacity="1" /><path clip-path="url(#clip660)" d="M1006.97 27.2059 L1014.42 27.2059 L1014.42 72.576 L1006.97 72.576 L1006.97 27.2059 M1006.97 9.54393 L1014.42 9.54393 L1014.42 18.9825 L1006.97 18.9825 L1006.97 9.54393 Z" fill="#000000" fill-rule="nonzero" fill-opacity="1" /><path clip-path="url(#clip660)" d="M1047.6 32.4315 Q1041.61 32.4315 1038.12 37.1306 Q1034.64 41.7891 1034.64 49.9314 Q1034.64 58.0738 1038.08 62.7728 Q1041.56 67.4314 1047.6 67.4314 Q1053.56 67.4314 1057.04 62.7323 Q1060.52 58.0333 1060.52 49.9314 Q1060.52 41.8701 1057.04 37.1711 Q1053.56 32.4315 1047.6 32.4315 M1047.6 26.1121 Q1057.32 26.1121 1062.87 32.4315 Q1068.42 38.7509 1068.42 49.9314 Q1068.42 61.0714 1062.87 67.4314 Q1057.32 73.7508 1047.6 73.7508 Q1037.84 73.7508 1032.29 67.4314 Q1026.78 61.0714 1026.78 49.9314 Q1026.78 38.7509 1032.29 32.4315 Q1037.84 26.1121 1047.6 26.1121 Z" fill="#000000" fill-rule="nonzero" fill-opacity="1" /><path clip-path="url(#clip660)" d="M1118.49 45.1919 L1118.49 72.576 L1111.04 72.576 L1111.04 45.4349 Q1111.04 38.994 1108.53 35.7938 Q1106.01 32.5936 1100.99 32.5936 Q1094.96 32.5936 1091.47 36.4419 Q1087.99 40.2903 1087.99 46.9338 L1087.99 72.576 L1080.49 72.576 L1080.49 27.2059 L1087.99 27.2059 L1087.99 34.2544 Q1090.66 30.163 1094.27 28.1376 Q1097.91 26.1121 1102.65 26.1121 Q1110.47 26.1121 1114.48 30.9732 Q1118.49 35.7938 1118.49 45.1919 Z" fill="#000000" fill-rule="nonzero" fill-opacity="1" /><path clip-path="url(#clip660)" d="M1205.34 16.7545 L1205.34 25.383 Q1201.21 21.5346 1196.51 19.6307 Q1191.85 17.7268 1186.59 17.7268 Q1176.22 17.7268 1170.71 24.0867 Q1165.2 30.4061 1165.2 42.3968 Q1165.2 54.3469 1170.71 60.7069 Q1176.22 67.0263 1186.59 67.0263 Q1191.85 67.0263 1196.51 65.1223 Q1201.21 63.2184 1205.34 59.3701 L1205.34 67.9175 Q1201.05 70.8341 1196.23 72.2924 Q1191.45 73.7508 1186.1 73.7508 Q1172.37 73.7508 1164.47 65.3654 Q1156.57 56.9395 1156.57 42.3968 Q1156.57 27.8135 1164.47 19.4281 Q1172.37 11.0023 1186.1 11.0023 Q1191.53 11.0023 1196.31 12.4606 Q1201.13 13.8784 1205.34 16.7545 Z" fill="#000000" fill-rule="nonzero" fill-opacity="1" /><path clip-path="url(#clip660)" d="M1235.24 32.4315 Q1229.24 32.4315 1225.76 37.1306 Q1222.28 41.7891 1222.28 49.9314 Q1222.28 58.0738 1225.72 62.7728 Q1229.2 67.4314 1235.24 67.4314 Q1241.19 67.4314 1244.68 62.7323 Q1248.16 58.0333 1248.16 49.9314 Q1248.16 41.8701 1244.68 37.1711 Q1241.19 32.4315 1235.24 32.4315 M1235.24 26.1121 Q1244.96 26.1121 1250.51 32.4315 Q1256.06 38.7509 1256.06 49.9314 Q1256.06 61.0714 1250.51 67.4314 Q1244.96 73.7508 1235.24 73.7508 Q1225.48 73.7508 1219.93 67.4314 Q1214.42 61.0714 1214.42 49.9314 Q1214.42 38.7509 1219.93 32.4315 Q1225.48 26.1121 1235.24 26.1121 Z" fill="#000000" fill-rule="nonzero" fill-opacity="1" /><path clip-path="url(#clip660)" d="M1307.22 48.0275 L1307.22 51.6733 L1272.95 51.6733 Q1273.44 59.3701 1277.57 63.421 Q1281.74 67.4314 1289.16 67.4314 Q1293.45 67.4314 1297.46 66.3781 Q1301.51 65.3249 1305.48 63.2184 L1305.48 70.267 Q1301.47 71.9684 1297.26 72.8596 Q1293.04 73.7508 1288.71 73.7508 Q1277.85 73.7508 1271.49 67.4314 Q1265.17 61.1119 1265.17 50.3365 Q1265.17 39.1965 1271.17 32.6746 Q1277.21 26.1121 1287.41 26.1121 Q1296.57 26.1121 1301.88 32.0264 Q1307.22 37.9003 1307.22 48.0275 M1299.77 45.84 Q1299.69 39.7232 1296.33 36.0774 Q1293 32.4315 1287.5 32.4315 Q1281.26 32.4315 1277.49 35.9558 Q1273.76 39.4801 1273.2 45.8805 L1299.77 45.84 Z" fill="#000000" fill-rule="nonzero" fill-opacity="1" /><path clip-path="url(#clip660)" d="M1342.43 9.54393 L1342.43 15.7418 L1335.3 15.7418 Q1331.29 15.7418 1329.71 17.3622 Q1328.17 18.9825 1328.17 23.1955 L1328.17 27.2059 L1340.44 27.2059 L1340.44 32.9987 L1328.17 32.9987 L1328.17 72.576 L1320.67 72.576 L1320.67 32.9987 L1313.54 32.9987 L1313.54 27.2059 L1320.67 27.2059 L1320.67 24.0462 Q1320.67 16.471 1324.2 13.0277 Q1327.72 9.54393 1335.38 9.54393 L1342.43 9.54393 Z" fill="#000000" fill-rule="nonzero" fill-opacity="1" /><path clip-path="url(#clip660)" d="M1371.63 9.54393 L1371.63 15.7418 L1364.5 15.7418 Q1360.49 15.7418 1358.91 17.3622 Q1357.37 18.9825 1357.37 23.1955 L1357.37 27.2059 L1369.65 27.2059 L1369.65 32.9987 L1357.37 32.9987 L1357.37 72.576 L1349.88 72.576 L1349.88 32.9987 L1342.75 32.9987 L1342.75 27.2059 L1349.88 27.2059 L1349.88 24.0462 Q1349.88 16.471 1353.4 13.0277 Q1356.93 9.54393 1364.58 9.54393 L1371.63 9.54393 Z" fill="#000000" fill-rule="nonzero" fill-opacity="1" /><path clip-path="url(#clip660)" d="M1377.87 27.2059 L1385.32 27.2059 L1385.32 72.576 L1377.87 72.576 L1377.87 27.2059 M1377.87 9.54393 L1385.32 9.54393 L1385.32 18.9825 L1377.87 18.9825 L1377.87 9.54393 Z" fill="#000000" fill-rule="nonzero" fill-opacity="1" /><path clip-path="url(#clip660)" d="M1433.57 28.9478 L1433.57 35.9153 Q1430.41 34.1734 1427.21 33.3227 Q1424.05 32.4315 1420.81 32.4315 Q1413.56 32.4315 1409.55 37.0496 Q1405.54 41.6271 1405.54 49.9314 Q1405.54 58.2358 1409.55 62.8538 Q1413.56 67.4314 1420.81 67.4314 Q1424.05 67.4314 1427.21 66.5807 Q1430.41 65.6895 1433.57 63.9476 L1433.57 70.8341 Q1430.45 72.2924 1427.09 73.0216 Q1423.77 73.7508 1420 73.7508 Q1409.75 73.7508 1403.72 67.3098 Q1397.68 60.8689 1397.68 49.9314 Q1397.68 38.832 1403.76 32.472 Q1409.87 26.1121 1420.49 26.1121 Q1423.93 26.1121 1427.21 26.8413 Q1430.49 27.5299 1433.57 28.9478 Z" fill="#000000" fill-rule="nonzero" fill-opacity="1" /><path clip-path="url(#clip660)" d="M1446.53 27.2059 L1453.99 27.2059 L1453.99 72.576 L1446.53 72.576 L1446.53 27.2059 M1446.53 9.54393 L1453.99 9.54393 L1453.99 18.9825 L1446.53 18.9825 L1446.53 9.54393 Z" fill="#000000" fill-rule="nonzero" fill-opacity="1" /><path clip-path="url(#clip660)" d="M1508.39 48.0275 L1508.39 51.6733 L1474.12 51.6733 Q1474.61 59.3701 1478.74 63.421 Q1482.91 67.4314 1490.32 67.4314 Q1494.62 67.4314 1498.63 66.3781 Q1502.68 65.3249 1506.65 63.2184 L1506.65 70.267 Q1502.64 71.9684 1498.43 72.8596 Q1494.21 73.7508 1489.88 73.7508 Q1479.02 73.7508 1472.66 67.4314 Q1466.34 61.1119 1466.34 50.3365 Q1466.34 39.1965 1472.34 32.6746 Q1478.37 26.1121 1488.58 26.1121 Q1497.74 26.1121 1503.04 32.0264 Q1508.39 37.9003 1508.39 48.0275 M1500.94 45.84 Q1500.86 39.7232 1497.49 36.0774 Q1494.17 32.4315 1488.66 32.4315 Q1482.42 32.4315 1478.66 35.9558 Q1474.93 39.4801 1474.36 45.8805 L1500.94 45.84 Z" fill="#000000" fill-rule="nonzero" fill-opacity="1" /><path clip-path="url(#clip660)" d="M1558.34 45.1919 L1558.34 72.576 L1550.88 72.576 L1550.88 45.4349 Q1550.88 38.994 1548.37 35.7938 Q1545.86 32.5936 1540.84 32.5936 Q1534.8 32.5936 1531.32 36.4419 Q1527.84 40.2903 1527.84 46.9338 L1527.84 72.576 L1520.34 72.576 L1520.34 27.2059 L1527.84 27.2059 L1527.84 34.2544 Q1530.51 30.163 1534.11 28.1376 Q1537.76 26.1121 1542.5 26.1121 Q1550.32 26.1121 1554.33 30.9732 Q1558.34 35.7938 1558.34 45.1919 Z" fill="#000000" fill-rule="nonzero" fill-opacity="1" /><path clip-path="url(#clip660)" d="M1580.58 14.324 L1580.58 27.2059 L1595.93 27.2059 L1595.93 32.9987 L1580.58 32.9987 L1580.58 57.6282 Q1580.58 63.1779 1582.08 64.7578 Q1583.62 66.3376 1588.27 66.3376 L1595.93 66.3376 L1595.93 72.576 L1588.27 72.576 Q1579.65 72.576 1576.37 69.3758 Q1573.08 66.1351 1573.08 57.6282 L1573.08 32.9987 L1567.62 32.9987 L1567.62 27.2059 L1573.08 27.2059 L1573.08 14.324 L1580.58 14.324 Z" fill="#000000" fill-rule="nonzero" fill-opacity="1" /><path clip-path="url(#clip660)" d="M1634.66 28.5427 L1634.66 35.5912 Q1631.5 33.9709 1628.1 33.1607 Q1624.69 32.3505 1621.05 32.3505 Q1615.5 32.3505 1612.7 34.0519 Q1609.95 35.7533 1609.95 39.156 Q1609.95 41.7486 1611.93 43.2475 Q1613.92 44.7058 1619.91 46.0426 L1622.46 46.6097 Q1630.4 48.3111 1633.73 51.4303 Q1637.09 54.509 1637.09 60.0587 Q1637.09 66.3781 1632.07 70.0644 Q1627.08 73.7508 1618.33 73.7508 Q1614.69 73.7508 1610.72 73.0216 Q1606.79 72.3329 1602.41 70.9151 L1602.41 63.2184 Q1606.54 65.3654 1610.55 66.4591 Q1614.57 67.5124 1618.49 67.5124 Q1623.76 67.5124 1626.6 65.73 Q1629.43 63.9071 1629.43 60.6258 Q1629.43 57.5877 1627.37 55.9673 Q1625.34 54.3469 1618.41 52.8481 L1615.82 52.2405 Q1608.89 50.7821 1605.82 47.7845 Q1602.74 44.7463 1602.74 39.4801 Q1602.74 33.0797 1607.27 29.5959 Q1611.81 26.1121 1620.16 26.1121 Q1624.29 26.1121 1627.93 26.7198 Q1631.58 27.3274 1634.66 28.5427 Z" fill="#000000" fill-rule="nonzero" fill-opacity="1" /><path clip-path="url(#clip660)" d="M1693.23 9.62495 Q1687.81 18.942 1685.17 28.0566 Q1682.54 37.1711 1682.54 46.5287 Q1682.54 55.8863 1685.17 65.0818 Q1687.85 74.2369 1693.23 83.5134 L1686.75 83.5134 Q1680.68 73.9938 1677.64 64.7983 Q1674.64 55.6027 1674.64 46.5287 Q1674.64 37.4952 1677.64 28.3401 Q1680.64 19.1851 1686.75 9.62495 L1693.23 9.62495 Z" fill="#000000" fill-rule="nonzero" fill-opacity="1" /><path clip-path="url(#clip660)" d="M1725.56 16.633 L1746.5 72.576 L1738.6 72.576 L1725.88 39.0345 L1710.25 72.576 L1702.35 72.576 L1722.24 29.0693 L1719.24 21.0485 Q1717.34 15.9444 1713 15.9444 L1709.11 15.9444 L1709.11 9.54393 L1713.85 9.62495 Q1723.01 9.74648 1725.56 16.633 Z" fill="#000000" fill-rule="nonzero" fill-opacity="1" /><path clip-path="url(#clip660)" d="M1784.14 34.9026 L1836.07 34.9026 L1836.07 41.7081 L1784.14 41.7081 L1784.14 34.9026 M1784.14 51.4303 L1836.07 51.4303 L1836.07 58.3168 L1784.14 58.3168 L1784.14 51.4303 Z" fill="#000000" fill-rule="nonzero" fill-opacity="1" /><path clip-path="url(#clip660)" d="M1881.52 65.6895 L1894.89 65.6895 L1894.89 19.5497 L1880.35 22.4663 L1880.35 15.0127 L1894.81 12.096 L1902.99 12.096 L1902.99 65.6895 L1916.36 65.6895 L1916.36 72.576 L1881.52 72.576 L1881.52 65.6895 Z" fill="#000000" fill-rule="nonzero" fill-opacity="1" /><path clip-path="url(#clip660)" d="M1950.39 17.4837 Q1944.07 17.4837 1940.87 23.7221 Q1937.71 29.92 1937.71 42.3968 Q1937.71 54.833 1940.87 61.0714 Q1944.07 67.2693 1950.39 67.2693 Q1956.75 67.2693 1959.9 61.0714 Q1963.1 54.833 1963.1 42.3968 Q1963.1 29.92 1959.9 23.7221 Q1956.75 17.4837 1950.39 17.4837 M1950.39 11.0023 Q1960.55 11.0023 1965.9 19.0636 Q1971.29 27.0843 1971.29 42.3968 Q1971.29 57.6687 1965.9 65.73 Q1960.55 73.7508 1950.39 73.7508 Q1940.22 73.7508 1934.83 65.73 Q1929.48 57.6687 1929.48 42.3968 Q1929.48 27.0843 1934.83 19.0636 Q1940.22 11.0023 1950.39 11.0023 Z" fill="#000000" fill-rule="nonzero" fill-opacity="1" /><path clip-path="url(#clip660)" d="M2003.17 17.4837 Q1996.85 17.4837 1993.65 23.7221 Q1990.49 29.92 1990.49 42.3968 Q1990.49 54.833 1993.65 61.0714 Q1996.85 67.2693 2003.17 67.2693 Q2009.53 67.2693 2012.69 61.0714 Q2015.89 54.833 2015.89 42.3968 Q2015.89 29.92 2012.69 23.7221 Q2009.53 17.4837 2003.17 17.4837 M2003.17 11.0023 Q2013.34 11.0023 2018.68 19.0636 Q2024.07 27.0843 2024.07 42.3968 Q2024.07 57.6687 2018.68 65.73 Q2013.34 73.7508 2003.17 73.7508 Q1993 73.7508 1987.61 65.73 Q1982.27 57.6687 1982.27 42.3968 Q1982.27 27.0843 1987.61 19.0636 Q1993 11.0023 2003.17 11.0023 Z" fill="#000000" fill-rule="nonzero" fill-opacity="1" /><path clip-path="url(#clip660)" d="M2055.95 17.4837 Q2049.63 17.4837 2046.43 23.7221 Q2043.27 29.92 2043.27 42.3968 Q2043.27 54.833 2046.43 61.0714 Q2049.63 67.2693 2055.95 67.2693 Q2062.31 67.2693 2065.47 61.0714 Q2068.67 54.833 2068.67 42.3968 Q2068.67 29.92 2065.47 23.7221 Q2062.31 17.4837 2055.95 17.4837 M2055.95 11.0023 Q2066.12 11.0023 2071.47 19.0636 Q2076.85 27.0843 2076.85 42.3968 Q2076.85 57.6687 2071.47 65.73 Q2066.12 73.7508 2055.95 73.7508 Q2045.78 73.7508 2040.4 65.73 Q2035.05 57.6687 2035.05 42.3968 Q2035.05 27.0843 2040.4 19.0636 Q2045.78 11.0023 2055.95 11.0023 Z" fill="#000000" fill-rule="nonzero" fill-opacity="1" /><path clip-path="url(#clip660)" d="M2108.73 17.4837 Q2102.42 17.4837 2099.22 23.7221 Q2096.06 29.92 2096.06 42.3968 Q2096.06 54.833 2099.22 61.0714 Q2102.42 67.2693 2108.73 67.2693 Q2115.09 67.2693 2118.25 61.0714 Q2121.45 54.833 2121.45 42.3968 Q2121.45 29.92 2118.25 23.7221 Q2115.09 17.4837 2108.73 17.4837 M2108.73 11.0023 Q2118.9 11.0023 2124.25 19.0636 Q2129.64 27.0843 2129.64 42.3968 Q2129.64 57.6687 2124.25 65.73 Q2118.9 73.7508 2108.73 73.7508 Q2098.57 73.7508 2093.18 65.73 Q2087.83 57.6687 2087.83 42.3968 Q2087.83 27.0843 2093.18 19.0636 Q2098.57 11.0023 2108.73 11.0023 Z" fill="#000000" fill-rule="nonzero" fill-opacity="1" /><path clip-path="url(#clip660)" d="M2141.79 9.62495 L2148.27 9.62495 Q2154.35 19.1851 2157.35 28.3401 Q2160.38 37.4952 2160.38 46.5287 Q2160.38 55.6027 2157.35 64.7983 Q2154.35 73.9938 2148.27 83.5134 L2141.79 83.5134 Q2147.18 74.2369 2149.81 65.0818 Q2152.48 55.8863 2152.48 46.5287 Q2152.48 37.1711 2149.81 28.0566 Q2147.18 18.942 2141.79 9.62495 Z" fill="#000000" fill-rule="nonzero" fill-opacity="1" /><polyline clip-path="url(#clip662)" style="stroke:#009af9; stroke-linecap:round; stroke-linejoin:round; stroke-width:4; stroke-opacity:1; fill:none" points="284.343,2714.68 284.343,-1172.13 "/>
<polyline clip-path="url(#clip662)" style="stroke:#009af9; stroke-linecap:round; stroke-linejoin:round; stroke-width:4; stroke-opacity:1; fill:none" points="485.16,2714.68 485.16,-1172.13 "/>
<polyline clip-path="url(#clip662)" style="stroke:#009af9; stroke-linecap:round; stroke-linejoin:round; stroke-width:4; stroke-opacity:1; fill:none" points="786.385,2714.68 786.385,-1172.13 "/>
<polyline clip-path="url(#clip662)" style="stroke:#009af9; stroke-linecap:round; stroke-linejoin:round; stroke-width:4; stroke-opacity:1; fill:none" points="1188.02,2714.68 1188.02,-1172.13 "/>
<polyline clip-path="url(#clip662)" style="stroke:#009af9; stroke-linecap:round; stroke-linejoin:round; stroke-width:4; stroke-opacity:1; fill:none" points="1690.06,2714.68 1690.06,-1172.13 "/>
<polyline clip-path="url(#clip662)" style="stroke:#009af9; stroke-linecap:round; stroke-linejoin:round; stroke-width:4; stroke-opacity:1; fill:none" points="2292.51,2714.68 2292.51,-1172.13 "/>
<circle clip-path="url(#clip662)" cx="284.343" cy="447.373" r="14.4" fill="#e26f46" fill-rule="evenodd" fill-opacity="1" stroke="#000000" stroke-opacity="1" stroke-width="3.2"/>
<polyline clip-path="url(#clip662)" style="stroke:#3da44d; stroke-linecap:round; stroke-linejoin:round; stroke-width:4; stroke-opacity:1; fill:none" points="284.343,447.386 384.751,982.077 485.16,1266.02 "/>
<circle clip-path="url(#clip662)" cx="284.343" cy="447.386" r="14.4" fill="#3da44d" fill-rule="evenodd" fill-opacity="1" stroke="#000000" stroke-opacity="1" stroke-width="3.2"/>
<circle clip-path="url(#clip662)" cx="384.751" cy="982.077" r="14.4" fill="#3da44d" fill-rule="evenodd" fill-opacity="1" stroke="#000000" stroke-opacity="1" stroke-width="3.2"/>
<circle clip-path="url(#clip662)" cx="485.16" cy="1266.02" r="14.4" fill="#3da44d" fill-rule="evenodd" fill-opacity="1" stroke="#000000" stroke-opacity="1" stroke-width="3.2"/>
<polyline clip-path="url(#clip662)" style="stroke:#c271d2; stroke-linecap:round; stroke-linejoin:round; stroke-width:4; stroke-opacity:1; fill:none" points="284.343,605.109 384.751,981.842 485.16,1265.73 585.568,702.531 685.977,710.379 786.385,677.856 "/>
<circle clip-path="url(#clip662)" cx="284.343" cy="605.109" r="14.4" fill="#c271d2" fill-rule="evenodd" fill-opacity="1" stroke="#000000" stroke-opacity="1" stroke-width="3.2"/>
<circle clip-path="url(#clip662)" cx="384.751" cy="981.842" r="14.4" fill="#c271d2" fill-rule="evenodd" fill-opacity="1" stroke="#000000" stroke-opacity="1" stroke-width="3.2"/>
<circle clip-path="url(#clip662)" cx="485.16" cy="1265.73" r="14.4" fill="#c271d2" fill-rule="evenodd" fill-opacity="1" stroke="#000000" stroke-opacity="1" stroke-width="3.2"/>
<circle clip-path="url(#clip662)" cx="585.568" cy="702.531" r="14.4" fill="#c271d2" fill-rule="evenodd" fill-opacity="1" stroke="#000000" stroke-opacity="1" stroke-width="3.2"/>
<circle clip-path="url(#clip662)" cx="685.977" cy="710.379" r="14.4" fill="#c271d2" fill-rule="evenodd" fill-opacity="1" stroke="#000000" stroke-opacity="1" stroke-width="3.2"/>
<circle clip-path="url(#clip662)" cx="786.385" cy="677.856" r="14.4" fill="#c271d2" fill-rule="evenodd" fill-opacity="1" stroke="#000000" stroke-opacity="1" stroke-width="3.2"/>
<polyline clip-path="url(#clip662)" style="stroke:#ac8d18; stroke-linecap:round; stroke-linejoin:round; stroke-width:4; stroke-opacity:1; fill:none" points="284.343,604.776 384.751,907.92 485.16,1095.44 585.568,702.483 685.977,710.693 786.385,677.617 886.793,895.757 987.202,992.26 1087.61,984.245 1188.02,1012.02 "/>
<circle clip-path="url(#clip662)" cx="284.343" cy="604.776" r="14.4" fill="#ac8d18" fill-rule="evenodd" fill-opacity="1" stroke="#000000" stroke-opacity="1" stroke-width="3.2"/>
<circle clip-path="url(#clip662)" cx="384.751" cy="907.92" r="14.4" fill="#ac8d18" fill-rule="evenodd" fill-opacity="1" stroke="#000000" stroke-opacity="1" stroke-width="3.2"/>
<circle clip-path="url(#clip662)" cx="485.16" cy="1095.44" r="14.4" fill="#ac8d18" fill-rule="evenodd" fill-opacity="1" stroke="#000000" stroke-opacity="1" stroke-width="3.2"/>
<circle clip-path="url(#clip662)" cx="585.568" cy="702.483" r="14.4" fill="#ac8d18" fill-rule="evenodd" fill-opacity="1" stroke="#000000" stroke-opacity="1" stroke-width="3.2"/>
<circle clip-path="url(#clip662)" cx="685.977" cy="710.693" r="14.4" fill="#ac8d18" fill-rule="evenodd" fill-opacity="1" stroke="#000000" stroke-opacity="1" stroke-width="3.2"/>
<circle clip-path="url(#clip662)" cx="786.385" cy="677.617" r="14.4" fill="#ac8d18" fill-rule="evenodd" fill-opacity="1" stroke="#000000" stroke-opacity="1" stroke-width="3.2"/>
<circle clip-path="url(#clip662)" cx="886.793" cy="895.757" r="14.4" fill="#ac8d18" fill-rule="evenodd" fill-opacity="1" stroke="#000000" stroke-opacity="1" stroke-width="3.2"/>
<circle clip-path="url(#clip662)" cx="987.202" cy="992.26" r="14.4" fill="#ac8d18" fill-rule="evenodd" fill-opacity="1" stroke="#000000" stroke-opacity="1" stroke-width="3.2"/>
<circle clip-path="url(#clip662)" cx="1087.61" cy="984.245" r="14.4" fill="#ac8d18" fill-rule="evenodd" fill-opacity="1" stroke="#000000" stroke-opacity="1" stroke-width="3.2"/>
<circle clip-path="url(#clip662)" cx="1188.02" cy="1012.02" r="14.4" fill="#ac8d18" fill-rule="evenodd" fill-opacity="1" stroke="#000000" stroke-opacity="1" stroke-width="3.2"/>
<polyline clip-path="url(#clip662)" style="stroke:#00a9ad; stroke-linecap:round; stroke-linejoin:round; stroke-width:4; stroke-opacity:1; fill:none" points="284.343,623.824 384.751,907.52 485.16,1095.18 585.568,740.296 685.977,799.33 786.385,746.537 886.793,895.848 987.202,992.259 1087.61,984.314 1188.02,1012.01 1288.43,843.197 1388.84,831.369 1489.24,863.269 1589.65,792.653 1690.06,812.13 "/>
<circle clip-path="url(#clip662)" cx="284.343" cy="623.824" r="14.4" fill="#00a9ad" fill-rule="evenodd" fill-opacity="1" stroke="#000000" stroke-opacity="1" stroke-width="3.2"/>
<circle clip-path="url(#clip662)" cx="384.751" cy="907.52" r="14.4" fill="#00a9ad" fill-rule="evenodd" fill-opacity="1" stroke="#000000" stroke-opacity="1" stroke-width="3.2"/>
<circle clip-path="url(#clip662)" cx="485.16" cy="1095.18" r="14.4" fill="#00a9ad" fill-rule="evenodd" fill-opacity="1" stroke="#000000" stroke-opacity="1" stroke-width="3.2"/>
<circle clip-path="url(#clip662)" cx="585.568" cy="740.296" r="14.4" fill="#00a9ad" fill-rule="evenodd" fill-opacity="1" stroke="#000000" stroke-opacity="1" stroke-width="3.2"/>
<circle clip-path="url(#clip662)" cx="685.977" cy="799.33" r="14.4" fill="#00a9ad" fill-rule="evenodd" fill-opacity="1" stroke="#000000" stroke-opacity="1" stroke-width="3.2"/>
<circle clip-path="url(#clip662)" cx="786.385" cy="746.537" r="14.4" fill="#00a9ad" fill-rule="evenodd" fill-opacity="1" stroke="#000000" stroke-opacity="1" stroke-width="3.2"/>
<circle clip-path="url(#clip662)" cx="886.793" cy="895.848" r="14.4" fill="#00a9ad" fill-rule="evenodd" fill-opacity="1" stroke="#000000" stroke-opacity="1" stroke-width="3.2"/>
<circle clip-path="url(#clip662)" cx="987.202" cy="992.259" r="14.4" fill="#00a9ad" fill-rule="evenodd" fill-opacity="1" stroke="#000000" stroke-opacity="1" stroke-width="3.2"/>
<circle clip-path="url(#clip662)" cx="1087.61" cy="984.314" r="14.4" fill="#00a9ad" fill-rule="evenodd" fill-opacity="1" stroke="#000000" stroke-opacity="1" stroke-width="3.2"/>
<circle clip-path="url(#clip662)" cx="1188.02" cy="1012.01" r="14.4" fill="#00a9ad" fill-rule="evenodd" fill-opacity="1" stroke="#000000" stroke-opacity="1" stroke-width="3.2"/>
<circle clip-path="url(#clip662)" cx="1288.43" cy="843.197" r="14.4" fill="#00a9ad" fill-rule="evenodd" fill-opacity="1" stroke="#000000" stroke-opacity="1" stroke-width="3.2"/>
<circle clip-path="url(#clip662)" cx="1388.84" cy="831.369" r="14.4" fill="#00a9ad" fill-rule="evenodd" fill-opacity="1" stroke="#000000" stroke-opacity="1" stroke-width="3.2"/>
<circle clip-path="url(#clip662)" cx="1489.24" cy="863.269" r="14.4" fill="#00a9ad" fill-rule="evenodd" fill-opacity="1" stroke="#000000" stroke-opacity="1" stroke-width="3.2"/>
<circle clip-path="url(#clip662)" cx="1589.65" cy="792.653" r="14.4" fill="#00a9ad" fill-rule="evenodd" fill-opacity="1" stroke="#000000" stroke-opacity="1" stroke-width="3.2"/>
<circle clip-path="url(#clip662)" cx="1690.06" cy="812.13" r="14.4" fill="#00a9ad" fill-rule="evenodd" fill-opacity="1" stroke="#000000" stroke-opacity="1" stroke-width="3.2"/>
<polyline clip-path="url(#clip662)" style="stroke:#ed5d92; stroke-linecap:round; stroke-linejoin:round; stroke-width:4; stroke-opacity:1; fill:none" points="284.343,623.723 384.751,901.127 485.16,1089.11 585.568,739.953 685.977,799.074 786.385,746.386 886.793,887.982 987.202,977.36 1087.61,922.876 1188.02,1004.67 1288.43,843.212 1388.84,831.728 1489.24,863.327 1589.65,792.763 1690.06,812.221 1790.47,861.913 1890.88,904.453 1991.29,886.531 2091.69,831.06 2192.1,911.644 2292.51,878.586 "/>
<circle clip-path="url(#clip662)" cx="284.343" cy="623.723" r="14.4" fill="#ed5d92" fill-rule="evenodd" fill-opacity="1" stroke="#000000" stroke-opacity="1" stroke-width="3.2"/>
<circle clip-path="url(#clip662)" cx="384.751" cy="901.127" r="14.4" fill="#ed5d92" fill-rule="evenodd" fill-opacity="1" stroke="#000000" stroke-opacity="1" stroke-width="3.2"/>
<circle clip-path="url(#clip662)" cx="485.16" cy="1089.11" r="14.4" fill="#ed5d92" fill-rule="evenodd" fill-opacity="1" stroke="#000000" stroke-opacity="1" stroke-width="3.2"/>
<circle clip-path="url(#clip662)" cx="585.568" cy="739.953" r="14.4" fill="#ed5d92" fill-rule="evenodd" fill-opacity="1" stroke="#000000" stroke-opacity="1" stroke-width="3.2"/>
<circle clip-path="url(#clip662)" cx="685.977" cy="799.074" r="14.4" fill="#ed5d92" fill-rule="evenodd" fill-opacity="1" stroke="#000000" stroke-opacity="1" stroke-width="3.2"/>
<circle clip-path="url(#clip662)" cx="786.385" cy="746.386" r="14.4" fill="#ed5d92" fill-rule="evenodd" fill-opacity="1" stroke="#000000" stroke-opacity="1" stroke-width="3.2"/>
<circle clip-path="url(#clip662)" cx="886.793" cy="887.982" r="14.4" fill="#ed5d92" fill-rule="evenodd" fill-opacity="1" stroke="#000000" stroke-opacity="1" stroke-width="3.2"/>
<circle clip-path="url(#clip662)" cx="987.202" cy="977.36" r="14.4" fill="#ed5d92" fill-rule="evenodd" fill-opacity="1" stroke="#000000" stroke-opacity="1" stroke-width="3.2"/>
<circle clip-path="url(#clip662)" cx="1087.61" cy="922.876" r="14.4" fill="#ed5d92" fill-rule="evenodd" fill-opacity="1" stroke="#000000" stroke-opacity="1" stroke-width="3.2"/>
<circle clip-path="url(#clip662)" cx="1188.02" cy="1004.67" r="14.4" fill="#ed5d92" fill-rule="evenodd" fill-opacity="1" stroke="#000000" stroke-opacity="1" stroke-width="3.2"/>
<circle clip-path="url(#clip662)" cx="1288.43" cy="843.212" r="14.4" fill="#ed5d92" fill-rule="evenodd" fill-opacity="1" stroke="#000000" stroke-opacity="1" stroke-width="3.2"/>
<circle clip-path="url(#clip662)" cx="1388.84" cy="831.728" r="14.4" fill="#ed5d92" fill-rule="evenodd" fill-opacity="1" stroke="#000000" stroke-opacity="1" stroke-width="3.2"/>
<circle clip-path="url(#clip662)" cx="1489.24" cy="863.327" r="14.4" fill="#ed5d92" fill-rule="evenodd" fill-opacity="1" stroke="#000000" stroke-opacity="1" stroke-width="3.2"/>
<circle clip-path="url(#clip662)" cx="1589.65" cy="792.763" r="14.4" fill="#ed5d92" fill-rule="evenodd" fill-opacity="1" stroke="#000000" stroke-opacity="1" stroke-width="3.2"/>
<circle clip-path="url(#clip662)" cx="1690.06" cy="812.221" r="14.4" fill="#ed5d92" fill-rule="evenodd" fill-opacity="1" stroke="#000000" stroke-opacity="1" stroke-width="3.2"/>
<circle clip-path="url(#clip662)" cx="1790.47" cy="861.913" r="14.4" fill="#ed5d92" fill-rule="evenodd" fill-opacity="1" stroke="#000000" stroke-opacity="1" stroke-width="3.2"/>
<circle clip-path="url(#clip662)" cx="1890.88" cy="904.453" r="14.4" fill="#ed5d92" fill-rule="evenodd" fill-opacity="1" stroke="#000000" stroke-opacity="1" stroke-width="3.2"/>
<circle clip-path="url(#clip662)" cx="1991.29" cy="886.531" r="14.4" fill="#ed5d92" fill-rule="evenodd" fill-opacity="1" stroke="#000000" stroke-opacity="1" stroke-width="3.2"/>
<circle clip-path="url(#clip662)" cx="2091.69" cy="831.06" r="14.4" fill="#ed5d92" fill-rule="evenodd" fill-opacity="1" stroke="#000000" stroke-opacity="1" stroke-width="3.2"/>
<circle clip-path="url(#clip662)" cx="2192.1" cy="911.644" r="14.4" fill="#ed5d92" fill-rule="evenodd" fill-opacity="1" stroke="#000000" stroke-opacity="1" stroke-width="3.2"/>
<circle clip-path="url(#clip662)" cx="2292.51" cy="878.586" r="14.4" fill="#ed5d92" fill-rule="evenodd" fill-opacity="1" stroke="#000000" stroke-opacity="1" stroke-width="3.2"/>
<path clip-path="url(#clip660)" d="M1975.93 529.539 L2281.8 529.539 L2281.8 166.659 L1975.93 166.659  Z" fill="#ffffff" fill-rule="evenodd" fill-opacity="1"/>
<polyline clip-path="url(#clip660)" style="stroke:#000000; stroke-linecap:round; stroke-linejoin:round; stroke-width:4; stroke-opacity:1; fill:none" points="1975.93,529.539 2281.8,529.539 2281.8,166.659 1975.93,166.659 1975.93,529.539 "/>
<polyline clip-path="url(#clip660)" style="stroke:#e26f46; stroke-linecap:round; stroke-linejoin:round; stroke-width:4; stroke-opacity:1; fill:none" points="1999.58,218.499 2141.49,218.499 "/>
<circle clip-path="url(#clip660)" cx="2070.53" cy="218.499" r="19.7098" fill="#e26f46" fill-rule="evenodd" fill-opacity="1" stroke="#000000" stroke-opacity="1" stroke-width="4.55111"/>
<path clip-path="url(#clip660)" d="M2169.42 231.89 L2169.42 245.64 L2165.14 245.64 L2165.14 209.853 L2169.42 209.853 L2169.42 213.788 Q2170.77 211.474 2172.8 210.362 Q2174.86 209.228 2177.71 209.228 Q2182.43 209.228 2185.37 212.978 Q2188.33 216.728 2188.33 222.839 Q2188.33 228.95 2185.37 232.7 Q2182.43 236.45 2177.71 236.45 Q2174.86 236.45 2172.8 235.339 Q2170.77 234.205 2169.42 231.89 M2183.91 222.839 Q2183.91 218.14 2181.97 215.478 Q2180.05 212.793 2176.67 212.793 Q2173.29 212.793 2171.34 215.478 Q2169.42 218.14 2169.42 222.839 Q2169.42 227.538 2171.34 230.223 Q2173.29 232.885 2176.67 232.885 Q2180.05 232.885 2181.97 230.223 Q2183.91 227.538 2183.91 222.839 Z" fill="#000000" fill-rule="nonzero" fill-opacity="1" /><path clip-path="url(#clip660)" d="M2195.95 214.251 L2225.63 214.251 L2225.63 218.14 L2195.95 218.14 L2195.95 214.251 M2195.95 223.696 L2225.63 223.696 L2225.63 227.631 L2195.95 227.631 L2195.95 223.696 Z" fill="#000000" fill-rule="nonzero" fill-opacity="1" /><path clip-path="url(#clip660)" d="M2245.72 204.298 Q2242.11 204.298 2240.28 207.862 Q2238.47 211.404 2238.47 218.534 Q2238.47 225.64 2240.28 229.205 Q2242.11 232.747 2245.72 232.747 Q2249.35 232.747 2251.16 229.205 Q2252.99 225.64 2252.99 218.534 Q2252.99 211.404 2251.16 207.862 Q2249.35 204.298 2245.72 204.298 M2245.72 200.594 Q2251.53 200.594 2254.58 205.2 Q2257.66 209.784 2257.66 218.534 Q2257.66 227.26 2254.58 231.867 Q2251.53 236.45 2245.72 236.45 Q2239.91 236.45 2236.83 231.867 Q2233.77 227.26 2233.77 218.534 Q2233.77 209.784 2236.83 205.2 Q2239.91 200.594 2245.72 200.594 Z" fill="#000000" fill-rule="nonzero" fill-opacity="1" /><polyline clip-path="url(#clip660)" style="stroke:#3da44d; stroke-linecap:round; stroke-linejoin:round; stroke-width:4; stroke-opacity:1; fill:none" points="1999.58,270.339 2141.49,270.339 "/>
<circle clip-path="url(#clip660)" cx="2070.53" cy="270.339" r="19.7098" fill="#3da44d" fill-rule="evenodd" fill-opacity="1" stroke="#000000" stroke-opacity="1" stroke-width="4.55111"/>
<path clip-path="url(#clip660)" d="M2169.42 283.73 L2169.42 297.48 L2165.14 297.48 L2165.14 261.693 L2169.42 261.693 L2169.42 265.628 Q2170.77 263.314 2172.8 262.202 Q2174.86 261.068 2177.71 261.068 Q2182.43 261.068 2185.37 264.818 Q2188.33 268.568 2188.33 274.679 Q2188.33 280.79 2185.37 284.54 Q2182.43 288.29 2177.71 288.29 Q2174.86 288.29 2172.8 287.179 Q2170.77 286.045 2169.42 283.73 M2183.91 274.679 Q2183.91 269.98 2181.97 267.318 Q2180.05 264.633 2176.67 264.633 Q2173.29 264.633 2171.34 267.318 Q2169.42 269.98 2169.42 274.679 Q2169.42 279.378 2171.34 282.063 Q2173.29 284.725 2176.67 284.725 Q2180.05 284.725 2181.97 282.063 Q2183.91 279.378 2183.91 274.679 Z" fill="#000000" fill-rule="nonzero" fill-opacity="1" /><path clip-path="url(#clip660)" d="M2195.95 266.091 L2225.63 266.091 L2225.63 269.98 L2195.95 269.98 L2195.95 266.091 M2195.95 275.536 L2225.63 275.536 L2225.63 279.471 L2195.95 279.471 L2195.95 275.536 Z" fill="#000000" fill-rule="nonzero" fill-opacity="1" /><path clip-path="url(#clip660)" d="M2236.53 283.684 L2244.17 283.684 L2244.17 257.318 L2235.86 258.985 L2235.86 254.726 L2244.12 253.059 L2248.8 253.059 L2248.8 283.684 L2256.44 283.684 L2256.44 287.619 L2236.53 287.619 L2236.53 283.684 Z" fill="#000000" fill-rule="nonzero" fill-opacity="1" /><polyline clip-path="url(#clip660)" style="stroke:#c271d2; stroke-linecap:round; stroke-linejoin:round; stroke-width:4; stroke-opacity:1; fill:none" points="1999.58,322.179 2141.49,322.179 "/>
<circle clip-path="url(#clip660)" cx="2070.53" cy="322.179" r="19.7098" fill="#c271d2" fill-rule="evenodd" fill-opacity="1" stroke="#000000" stroke-opacity="1" stroke-width="4.55111"/>
<path clip-path="url(#clip660)" d="M2169.42 335.57 L2169.42 349.32 L2165.14 349.32 L2165.14 313.533 L2169.42 313.533 L2169.42 317.468 Q2170.77 315.154 2172.8 314.042 Q2174.86 312.908 2177.71 312.908 Q2182.43 312.908 2185.37 316.658 Q2188.33 320.408 2188.33 326.519 Q2188.33 332.63 2185.37 336.38 Q2182.43 340.13 2177.71 340.13 Q2174.86 340.13 2172.8 339.019 Q2170.77 337.885 2169.42 335.57 M2183.91 326.519 Q2183.91 321.82 2181.97 319.158 Q2180.05 316.473 2176.67 316.473 Q2173.29 316.473 2171.34 319.158 Q2169.42 321.82 2169.42 326.519 Q2169.42 331.218 2171.34 333.903 Q2173.29 336.565 2176.67 336.565 Q2180.05 336.565 2181.97 333.903 Q2183.91 331.218 2183.91 326.519 Z" fill="#000000" fill-rule="nonzero" fill-opacity="1" /><path clip-path="url(#clip660)" d="M2195.95 317.931 L2225.63 317.931 L2225.63 321.82 L2195.95 321.82 L2195.95 317.931 M2195.95 327.376 L2225.63 327.376 L2225.63 331.311 L2195.95 331.311 L2195.95 327.376 Z" fill="#000000" fill-rule="nonzero" fill-opacity="1" /><path clip-path="url(#clip660)" d="M2239.75 335.524 L2256.07 335.524 L2256.07 339.459 L2234.12 339.459 L2234.12 335.524 Q2236.78 332.769 2241.37 328.14 Q2245.97 323.487 2247.15 322.144 Q2249.4 319.621 2250.28 317.885 Q2251.18 316.126 2251.18 314.436 Q2251.18 311.681 2249.24 309.945 Q2247.32 308.209 2244.21 308.209 Q2242.01 308.209 2239.56 308.973 Q2237.13 309.737 2234.35 311.288 L2234.35 306.566 Q2237.18 305.431 2239.63 304.853 Q2242.08 304.274 2244.12 304.274 Q2249.49 304.274 2252.69 306.959 Q2255.88 309.644 2255.88 314.135 Q2255.88 316.265 2255.07 318.186 Q2254.28 320.084 2252.18 322.677 Q2251.6 323.348 2248.5 326.566 Q2245.39 329.76 2239.75 335.524 Z" fill="#000000" fill-rule="nonzero" fill-opacity="1" /><polyline clip-path="url(#clip660)" style="stroke:#ac8d18; stroke-linecap:round; stroke-linejoin:round; stroke-width:4; stroke-opacity:1; fill:none" points="1999.58,374.019 2141.49,374.019 "/>
<circle clip-path="url(#clip660)" cx="2070.53" cy="374.019" r="19.7098" fill="#ac8d18" fill-rule="evenodd" fill-opacity="1" stroke="#000000" stroke-opacity="1" stroke-width="4.55111"/>
<path clip-path="url(#clip660)" d="M2169.42 387.41 L2169.42 401.16 L2165.14 401.16 L2165.14 365.373 L2169.42 365.373 L2169.42 369.308 Q2170.77 366.994 2172.8 365.882 Q2174.86 364.748 2177.71 364.748 Q2182.43 364.748 2185.37 368.498 Q2188.33 372.248 2188.33 378.359 Q2188.33 384.47 2185.37 388.22 Q2182.43 391.97 2177.71 391.97 Q2174.86 391.97 2172.8 390.859 Q2170.77 389.725 2169.42 387.41 M2183.91 378.359 Q2183.91 373.66 2181.97 370.998 Q2180.05 368.313 2176.67 368.313 Q2173.29 368.313 2171.34 370.998 Q2169.42 373.66 2169.42 378.359 Q2169.42 383.058 2171.34 385.743 Q2173.29 388.405 2176.67 388.405 Q2180.05 388.405 2181.97 385.743 Q2183.91 383.058 2183.91 378.359 Z" fill="#000000" fill-rule="nonzero" fill-opacity="1" /><path clip-path="url(#clip660)" d="M2195.95 369.771 L2225.63 369.771 L2225.63 373.66 L2195.95 373.66 L2195.95 369.771 M2195.95 379.216 L2225.63 379.216 L2225.63 383.151 L2195.95 383.151 L2195.95 379.216 Z" fill="#000000" fill-rule="nonzero" fill-opacity="1" /><path clip-path="url(#clip660)" d="M2249.89 372.665 Q2253.24 373.382 2255.12 375.651 Q2257.01 377.919 2257.01 381.253 Q2257.01 386.368 2253.5 389.169 Q2249.98 391.97 2243.5 391.97 Q2241.32 391.97 2239.01 391.53 Q2236.71 391.114 2234.26 390.257 L2234.26 385.743 Q2236.2 386.878 2238.52 387.456 Q2240.83 388.035 2243.36 388.035 Q2247.76 388.035 2250.05 386.299 Q2252.36 384.563 2252.36 381.253 Q2252.36 378.197 2250.21 376.484 Q2248.08 374.748 2244.26 374.748 L2240.23 374.748 L2240.23 370.906 L2244.45 370.906 Q2247.89 370.906 2249.72 369.54 Q2251.55 368.151 2251.55 365.558 Q2251.55 362.896 2249.65 361.484 Q2247.78 360.049 2244.26 360.049 Q2242.34 360.049 2240.14 360.466 Q2237.94 360.882 2235.3 361.762 L2235.3 357.595 Q2237.96 356.855 2240.28 356.484 Q2242.62 356.114 2244.68 356.114 Q2250 356.114 2253.1 358.545 Q2256.2 360.952 2256.2 365.072 Q2256.2 367.943 2254.56 369.933 Q2252.92 371.901 2249.89 372.665 Z" fill="#000000" fill-rule="nonzero" fill-opacity="1" /><polyline clip-path="url(#clip660)" style="stroke:#00a9ad; stroke-linecap:round; stroke-linejoin:round; stroke-width:4; stroke-opacity:1; fill:none" points="1999.58,425.859 2141.49,425.859 "/>
<circle clip-path="url(#clip660)" cx="2070.53" cy="425.859" r="19.7098" fill="#00a9ad" fill-rule="evenodd" fill-opacity="1" stroke="#000000" stroke-opacity="1" stroke-width="4.55111"/>
<path clip-path="url(#clip660)" d="M2169.42 439.25 L2169.42 453 L2165.14 453 L2165.14 417.213 L2169.42 417.213 L2169.42 421.148 Q2170.77 418.834 2172.8 417.722 Q2174.86 416.588 2177.71 416.588 Q2182.43 416.588 2185.37 420.338 Q2188.33 424.088 2188.33 430.199 Q2188.33 436.31 2185.37 440.06 Q2182.43 443.81 2177.71 443.81 Q2174.86 443.81 2172.8 442.699 Q2170.77 441.565 2169.42 439.25 M2183.91 430.199 Q2183.91 425.5 2181.97 422.838 Q2180.05 420.153 2176.67 420.153 Q2173.29 420.153 2171.34 422.838 Q2169.42 425.5 2169.42 430.199 Q2169.42 434.898 2171.34 437.583 Q2173.29 440.245 2176.67 440.245 Q2180.05 440.245 2181.97 437.583 Q2183.91 434.898 2183.91 430.199 Z" fill="#000000" fill-rule="nonzero" fill-opacity="1" /><path clip-path="url(#clip660)" d="M2195.95 421.611 L2225.63 421.611 L2225.63 425.5 L2195.95 425.5 L2195.95 421.611 M2195.95 431.056 L2225.63 431.056 L2225.63 434.991 L2195.95 434.991 L2195.95 431.056 Z" fill="#000000" fill-rule="nonzero" fill-opacity="1" /><path clip-path="url(#clip660)" d="M2248.57 412.653 L2236.76 431.102 L2248.57 431.102 L2248.57 412.653 M2247.34 408.579 L2253.22 408.579 L2253.22 431.102 L2258.15 431.102 L2258.15 434.991 L2253.22 434.991 L2253.22 443.139 L2248.57 443.139 L2248.57 434.991 L2232.96 434.991 L2232.96 430.477 L2247.34 408.579 Z" fill="#000000" fill-rule="nonzero" fill-opacity="1" /><polyline clip-path="url(#clip660)" style="stroke:#ed5d92; stroke-linecap:round; stroke-linejoin:round; stroke-width:4; stroke-opacity:1; fill:none" points="1999.58,477.699 2141.49,477.699 "/>
<circle clip-path="url(#clip660)" cx="2070.53" cy="477.699" r="19.7098" fill="#ed5d92" fill-rule="evenodd" fill-opacity="1" stroke="#000000" stroke-opacity="1" stroke-width="4.55111"/>
<path clip-path="url(#clip660)" d="M2169.42 491.09 L2169.42 504.84 L2165.14 504.84 L2165.14 469.053 L2169.42 469.053 L2169.42 472.988 Q2170.77 470.674 2172.8 469.562 Q2174.86 468.428 2177.71 468.428 Q2182.43 468.428 2185.37 472.178 Q2188.33 475.928 2188.33 482.039 Q2188.33 488.15 2185.37 491.9 Q2182.43 495.65 2177.71 495.65 Q2174.86 495.65 2172.8 494.539 Q2170.77 493.405 2169.42 491.09 M2183.91 482.039 Q2183.91 477.34 2181.97 474.678 Q2180.05 471.993 2176.67 471.993 Q2173.29 471.993 2171.34 474.678 Q2169.42 477.34 2169.42 482.039 Q2169.42 486.738 2171.34 489.423 Q2173.29 492.085 2176.67 492.085 Q2180.05 492.085 2181.97 489.423 Q2183.91 486.738 2183.91 482.039 Z" fill="#000000" fill-rule="nonzero" fill-opacity="1" /><path clip-path="url(#clip660)" d="M2195.95 473.451 L2225.63 473.451 L2225.63 477.34 L2195.95 477.34 L2195.95 473.451 M2195.95 482.896 L2225.63 482.896 L2225.63 486.831 L2195.95 486.831 L2195.95 482.896 Z" fill="#000000" fill-rule="nonzero" fill-opacity="1" /><path clip-path="url(#clip660)" d="M2235.76 460.419 L2254.12 460.419 L2254.12 464.354 L2240.05 464.354 L2240.05 472.826 Q2241.07 472.479 2242.08 472.317 Q2243.1 472.132 2244.12 472.132 Q2249.91 472.132 2253.29 475.303 Q2256.67 478.474 2256.67 483.891 Q2256.67 489.47 2253.2 492.572 Q2249.72 495.65 2243.4 495.65 Q2241.23 495.65 2238.96 495.28 Q2236.71 494.91 2234.31 494.169 L2234.31 489.47 Q2236.39 490.604 2238.61 491.16 Q2240.83 491.715 2243.31 491.715 Q2247.32 491.715 2249.65 489.609 Q2251.99 487.502 2251.99 483.891 Q2251.99 480.28 2249.65 478.173 Q2247.32 476.067 2243.31 476.067 Q2241.44 476.067 2239.56 476.484 Q2237.71 476.9 2235.76 477.78 L2235.76 460.419 Z" fill="#000000" fill-rule="nonzero" fill-opacity="1" /><g clip-path="url(#clip660)">
<text style="fill:#000000; fill-opacity:1; font-family:Century Gothic,CenturyGothic,AppleGothic,sans-serif; font-size:58px; text-anchor:middle;" transform="rotate(0, 284.343, 1378.09)" x="284.343" y="1378.09">p=0</text>
</g>
<g clip-path="url(#clip660)">
<text style="fill:#000000; fill-opacity:1; font-family:Century Gothic,CenturyGothic,AppleGothic,sans-serif; font-size:58px; text-anchor:middle;" transform="rotate(0, 485.16, 1378.09)" x="485.16" y="1378.09">p=1</text>
</g>
<g clip-path="url(#clip660)">
<text style="fill:#000000; fill-opacity:1; font-family:Century Gothic,CenturyGothic,AppleGothic,sans-serif; font-size:58px; text-anchor:middle;" transform="rotate(0, 786.385, 1378.09)" x="786.385" y="1378.09">p=2</text>
</g>
<g clip-path="url(#clip660)">
<text style="fill:#000000; fill-opacity:1; font-family:Century Gothic,CenturyGothic,AppleGothic,sans-serif; font-size:58px; text-anchor:middle;" transform="rotate(0, 1188.02, 1378.09)" x="1188.02" y="1378.09">p=3</text>
</g>
<g clip-path="url(#clip660)">
<text style="fill:#000000; fill-opacity:1; font-family:Century Gothic,CenturyGothic,AppleGothic,sans-serif; font-size:58px; text-anchor:middle;" transform="rotate(0, 1690.06, 1378.09)" x="1690.06" y="1378.09">p=4</text>
</g>
<g clip-path="url(#clip660)">
<text style="fill:#000000; fill-opacity:1; font-family:Century Gothic,CenturyGothic,AppleGothic,sans-serif; font-size:58px; text-anchor:middle;" transform="rotate(0, 2292.51, 1378.09)" x="2292.51" y="1378.09">p=5</text>
</g>
</svg>
