<?xml version="1.0" encoding="utf-8"?>
<svg xmlns="http://www.w3.org/2000/svg" xmlns:xlink="http://www.w3.org/1999/xlink" width="600" height="400" viewBox="0 0 2400 1600">
<defs>
  <clipPath id="clip690">
    <rect x="0" y="0" width="2400" height="1600"/>
  </clipPath>
</defs>
<path clip-path="url(#clip690)" d="M0 1600 L2400 1600 L2400 0 L0 0  Z" fill="#ffffff" fill-rule="evenodd" fill-opacity="1"/>
<defs>
  <clipPath id="clip691">
    <rect x="480" y="0" width="1681" height="1600"/>
  </clipPath>
</defs>
<path clip-path="url(#clip690)" d="M222.871 1419.08 L2352.76 1419.08 L2352.76 123.472 L222.871 123.472  Z" fill="#ffffff" fill-rule="evenodd" fill-opacity="1"/>
<defs>
  <clipPath id="clip692">
    <rect x="222" y="123" width="2131" height="1297"/>
  </clipPath>
</defs>
<polyline clip-path="url(#clip692)" style="stroke:#000000; stroke-linecap:round; stroke-linejoin:round; stroke-width:2; stroke-opacity:0.1; fill:none" points="283.151,1419.08 283.151,123.472 "/>
<polyline clip-path="url(#clip692)" style="stroke:#000000; stroke-linecap:round; stroke-linejoin:round; stroke-width:2; stroke-opacity:0.1; fill:none" points="383.617,1419.08 383.617,123.472 "/>
<polyline clip-path="url(#clip692)" style="stroke:#000000; stroke-linecap:round; stroke-linejoin:round; stroke-width:2; stroke-opacity:0.1; fill:none" points="484.083,1419.08 484.083,123.472 "/>
<polyline clip-path="url(#clip692)" style="stroke:#000000; stroke-linecap:round; stroke-linejoin:round; stroke-width:2; stroke-opacity:0.1; fill:none" points="584.55,1419.08 584.55,123.472 "/>
<polyline clip-path="url(#clip692)" style="stroke:#000000; stroke-linecap:round; stroke-linejoin:round; stroke-width:2; stroke-opacity:0.1; fill:none" points="685.016,1419.08 685.016,123.472 "/>
<polyline clip-path="url(#clip692)" style="stroke:#000000; stroke-linecap:round; stroke-linejoin:round; stroke-width:2; stroke-opacity:0.1; fill:none" points="785.482,1419.08 785.482,123.472 "/>
<polyline clip-path="url(#clip692)" style="stroke:#000000; stroke-linecap:round; stroke-linejoin:round; stroke-width:2; stroke-opacity:0.1; fill:none" points="885.948,1419.08 885.948,123.472 "/>
<polyline clip-path="url(#clip692)" style="stroke:#000000; stroke-linecap:round; stroke-linejoin:round; stroke-width:2; stroke-opacity:0.1; fill:none" points="986.415,1419.08 986.415,123.472 "/>
<polyline clip-path="url(#clip692)" style="stroke:#000000; stroke-linecap:round; stroke-linejoin:round; stroke-width:2; stroke-opacity:0.1; fill:none" points="1086.88,1419.08 1086.88,123.472 "/>
<polyline clip-path="url(#clip692)" style="stroke:#000000; stroke-linecap:round; stroke-linejoin:round; stroke-width:2; stroke-opacity:0.1; fill:none" points="1187.35,1419.08 1187.35,123.472 "/>
<polyline clip-path="url(#clip692)" style="stroke:#000000; stroke-linecap:round; stroke-linejoin:round; stroke-width:2; stroke-opacity:0.1; fill:none" points="1287.81,1419.08 1287.81,123.472 "/>
<polyline clip-path="url(#clip692)" style="stroke:#000000; stroke-linecap:round; stroke-linejoin:round; stroke-width:2; stroke-opacity:0.1; fill:none" points="1388.28,1419.08 1388.28,123.472 "/>
<polyline clip-path="url(#clip692)" style="stroke:#000000; stroke-linecap:round; stroke-linejoin:round; stroke-width:2; stroke-opacity:0.1; fill:none" points="1488.75,1419.08 1488.75,123.472 "/>
<polyline clip-path="url(#clip692)" style="stroke:#000000; stroke-linecap:round; stroke-linejoin:round; stroke-width:2; stroke-opacity:0.1; fill:none" points="1589.21,1419.08 1589.21,123.472 "/>
<polyline clip-path="url(#clip692)" style="stroke:#000000; stroke-linecap:round; stroke-linejoin:round; stroke-width:2; stroke-opacity:0.1; fill:none" points="1689.68,1419.08 1689.68,123.472 "/>
<polyline clip-path="url(#clip692)" style="stroke:#000000; stroke-linecap:round; stroke-linejoin:round; stroke-width:2; stroke-opacity:0.1; fill:none" points="1790.14,1419.08 1790.14,123.472 "/>
<polyline clip-path="url(#clip692)" style="stroke:#000000; stroke-linecap:round; stroke-linejoin:round; stroke-width:2; stroke-opacity:0.1; fill:none" points="1890.61,1419.08 1890.61,123.472 "/>
<polyline clip-path="url(#clip692)" style="stroke:#000000; stroke-linecap:round; stroke-linejoin:round; stroke-width:2; stroke-opacity:0.1; fill:none" points="1991.08,1419.08 1991.08,123.472 "/>
<polyline clip-path="url(#clip692)" style="stroke:#000000; stroke-linecap:round; stroke-linejoin:round; stroke-width:2; stroke-opacity:0.1; fill:none" points="2091.54,1419.08 2091.54,123.472 "/>
<polyline clip-path="url(#clip692)" style="stroke:#000000; stroke-linecap:round; stroke-linejoin:round; stroke-width:2; stroke-opacity:0.1; fill:none" points="2192.01,1419.08 2192.01,123.472 "/>
<polyline clip-path="url(#clip692)" style="stroke:#000000; stroke-linecap:round; stroke-linejoin:round; stroke-width:2; stroke-opacity:0.1; fill:none" points="2292.48,1419.08 2292.48,123.472 "/>
<polyline clip-path="url(#clip692)" style="stroke:#000000; stroke-linecap:round; stroke-linejoin:round; stroke-width:2; stroke-opacity:0.1; fill:none" points="222.871,1263.38 2352.76,1263.38 "/>
<polyline clip-path="url(#clip692)" style="stroke:#000000; stroke-linecap:round; stroke-linejoin:round; stroke-width:2; stroke-opacity:0.1; fill:none" points="222.871,1023.47 2352.76,1023.47 "/>
<polyline clip-path="url(#clip692)" style="stroke:#000000; stroke-linecap:round; stroke-linejoin:round; stroke-width:2; stroke-opacity:0.1; fill:none" points="222.871,783.561 2352.76,783.561 "/>
<polyline clip-path="url(#clip692)" style="stroke:#000000; stroke-linecap:round; stroke-linejoin:round; stroke-width:2; stroke-opacity:0.1; fill:none" points="222.871,543.654 2352.76,543.654 "/>
<polyline clip-path="url(#clip692)" style="stroke:#000000; stroke-linecap:round; stroke-linejoin:round; stroke-width:2; stroke-opacity:0.1; fill:none" points="222.871,303.747 2352.76,303.747 "/>
<polyline clip-path="url(#clip690)" style="stroke:#000000; stroke-linecap:round; stroke-linejoin:round; stroke-width:4; stroke-opacity:1; fill:none" points="222.871,1419.08 2352.76,1419.08 "/>
<polyline clip-path="url(#clip690)" style="stroke:#000000; stroke-linecap:round; stroke-linejoin:round; stroke-width:4; stroke-opacity:1; fill:none" points="283.151,1419.08 283.151,1400.18 "/>
<polyline clip-path="url(#clip690)" style="stroke:#000000; stroke-linecap:round; stroke-linejoin:round; stroke-width:4; stroke-opacity:1; fill:none" points="383.617,1419.08 383.617,1400.18 "/>
<polyline clip-path="url(#clip690)" style="stroke:#000000; stroke-linecap:round; stroke-linejoin:round; stroke-width:4; stroke-opacity:1; fill:none" points="484.083,1419.08 484.083,1400.18 "/>
<polyline clip-path="url(#clip690)" style="stroke:#000000; stroke-linecap:round; stroke-linejoin:round; stroke-width:4; stroke-opacity:1; fill:none" points="584.55,1419.08 584.55,1400.18 "/>
<polyline clip-path="url(#clip690)" style="stroke:#000000; stroke-linecap:round; stroke-linejoin:round; stroke-width:4; stroke-opacity:1; fill:none" points="685.016,1419.08 685.016,1400.18 "/>
<polyline clip-path="url(#clip690)" style="stroke:#000000; stroke-linecap:round; stroke-linejoin:round; stroke-width:4; stroke-opacity:1; fill:none" points="785.482,1419.08 785.482,1400.18 "/>
<polyline clip-path="url(#clip690)" style="stroke:#000000; stroke-linecap:round; stroke-linejoin:round; stroke-width:4; stroke-opacity:1; fill:none" points="885.948,1419.08 885.948,1400.18 "/>
<polyline clip-path="url(#clip690)" style="stroke:#000000; stroke-linecap:round; stroke-linejoin:round; stroke-width:4; stroke-opacity:1; fill:none" points="986.415,1419.08 986.415,1400.18 "/>
<polyline clip-path="url(#clip690)" style="stroke:#000000; stroke-linecap:round; stroke-linejoin:round; stroke-width:4; stroke-opacity:1; fill:none" points="1086.88,1419.08 1086.88,1400.18 "/>
<polyline clip-path="url(#clip690)" style="stroke:#000000; stroke-linecap:round; stroke-linejoin:round; stroke-width:4; stroke-opacity:1; fill:none" points="1187.35,1419.08 1187.35,1400.18 "/>
<polyline clip-path="url(#clip690)" style="stroke:#000000; stroke-linecap:round; stroke-linejoin:round; stroke-width:4; stroke-opacity:1; fill:none" points="1287.81,1419.08 1287.81,1400.18 "/>
<polyline clip-path="url(#clip690)" style="stroke:#000000; stroke-linecap:round; stroke-linejoin:round; stroke-width:4; stroke-opacity:1; fill:none" points="1388.28,1419.08 1388.28,1400.18 "/>
<polyline clip-path="url(#clip690)" style="stroke:#000000; stroke-linecap:round; stroke-linejoin:round; stroke-width:4; stroke-opacity:1; fill:none" points="1488.75,1419.08 1488.75,1400.18 "/>
<polyline clip-path="url(#clip690)" style="stroke:#000000; stroke-linecap:round; stroke-linejoin:round; stroke-width:4; stroke-opacity:1; fill:none" points="1589.21,1419.08 1589.21,1400.18 "/>
<polyline clip-path="url(#clip690)" style="stroke:#000000; stroke-linecap:round; stroke-linejoin:round; stroke-width:4; stroke-opacity:1; fill:none" points="1689.68,1419.08 1689.68,1400.18 "/>
<polyline clip-path="url(#clip690)" style="stroke:#000000; stroke-linecap:round; stroke-linejoin:round; stroke-width:4; stroke-opacity:1; fill:none" points="1790.14,1419.08 1790.14,1400.18 "/>
<polyline clip-path="url(#clip690)" style="stroke:#000000; stroke-linecap:round; stroke-linejoin:round; stroke-width:4; stroke-opacity:1; fill:none" points="1890.61,1419.08 1890.61,1400.18 "/>
<polyline clip-path="url(#clip690)" style="stroke:#000000; stroke-linecap:round; stroke-linejoin:round; stroke-width:4; stroke-opacity:1; fill:none" points="1991.08,1419.08 1991.08,1400.18 "/>
<polyline clip-path="url(#clip690)" style="stroke:#000000; stroke-linecap:round; stroke-linejoin:round; stroke-width:4; stroke-opacity:1; fill:none" points="2091.54,1419.08 2091.54,1400.18 "/>
<polyline clip-path="url(#clip690)" style="stroke:#000000; stroke-linecap:round; stroke-linejoin:round; stroke-width:4; stroke-opacity:1; fill:none" points="2192.01,1419.08 2192.01,1400.18 "/>
<polyline clip-path="url(#clip690)" style="stroke:#000000; stroke-linecap:round; stroke-linejoin:round; stroke-width:4; stroke-opacity:1; fill:none" points="2292.48,1419.08 2292.48,1400.18 "/>
<path clip-path="url(#clip690)" d="M283.151 1450 Q279.54 1450 277.711 1453.56 Q275.905 1457.1 275.905 1464.23 Q275.905 1471.34 277.711 1474.9 Q279.54 1478.44 283.151 1478.44 Q286.785 1478.44 288.591 1474.9 Q290.419 1471.34 290.419 1464.23 Q290.419 1457.1 288.591 1453.56 Q286.785 1450 283.151 1450 M283.151 1446.29 Q288.961 1446.29 292.016 1450.9 Q295.095 1455.48 295.095 1464.23 Q295.095 1472.96 292.016 1477.57 Q288.961 1482.15 283.151 1482.15 Q277.341 1482.15 274.262 1477.57 Q271.206 1472.96 271.206 1464.23 Q271.206 1455.48 274.262 1450.9 Q277.341 1446.29 283.151 1446.29 Z" fill="#000000" fill-rule="nonzero" fill-opacity="1" /><path clip-path="url(#clip690)" d="M373.999 1477.54 L381.638 1477.54 L381.638 1451.18 L373.328 1452.84 L373.328 1448.58 L381.592 1446.92 L386.268 1446.92 L386.268 1477.54 L393.906 1477.54 L393.906 1481.48 L373.999 1481.48 L373.999 1477.54 Z" fill="#000000" fill-rule="nonzero" fill-opacity="1" /><path clip-path="url(#clip690)" d="M478.736 1477.54 L495.055 1477.54 L495.055 1481.48 L473.111 1481.48 L473.111 1477.54 Q475.773 1474.79 480.356 1470.16 Q484.963 1465.5 486.143 1464.16 Q488.389 1461.64 489.268 1459.9 Q490.171 1458.14 490.171 1456.45 Q490.171 1453.7 488.227 1451.96 Q486.306 1450.23 483.204 1450.23 Q481.005 1450.23 478.551 1450.99 Q476.12 1451.76 473.343 1453.31 L473.343 1448.58 Q476.167 1447.45 478.62 1446.87 Q481.074 1446.29 483.111 1446.29 Q488.481 1446.29 491.676 1448.98 Q494.87 1451.66 494.87 1456.15 Q494.87 1458.28 494.06 1460.2 Q493.273 1462.1 491.167 1464.69 Q490.588 1465.37 487.486 1468.58 Q484.384 1471.78 478.736 1477.54 Z" fill="#000000" fill-rule="nonzero" fill-opacity="1" /><path clip-path="url(#clip690)" d="M588.797 1462.84 Q592.154 1463.56 594.029 1465.83 Q595.927 1468.1 595.927 1471.43 Q595.927 1476.55 592.408 1479.35 Q588.89 1482.15 582.408 1482.15 Q580.232 1482.15 577.918 1481.71 Q575.626 1481.29 573.172 1480.44 L573.172 1475.92 Q575.117 1477.06 577.432 1477.63 Q579.746 1478.21 582.27 1478.21 Q586.668 1478.21 588.959 1476.48 Q591.274 1474.74 591.274 1471.43 Q591.274 1468.38 589.121 1466.66 Q586.992 1464.93 583.172 1464.93 L579.145 1464.93 L579.145 1461.08 L583.357 1461.08 Q586.807 1461.08 588.635 1459.72 Q590.464 1458.33 590.464 1455.74 Q590.464 1453.07 588.566 1451.66 Q586.691 1450.23 583.172 1450.23 Q581.251 1450.23 579.052 1450.64 Q576.853 1451.06 574.214 1451.94 L574.214 1447.77 Q576.876 1447.03 579.191 1446.66 Q581.529 1446.29 583.589 1446.29 Q588.913 1446.29 592.015 1448.72 Q595.117 1451.13 595.117 1455.25 Q595.117 1458.12 593.473 1460.11 Q591.83 1462.08 588.797 1462.84 Z" fill="#000000" fill-rule="nonzero" fill-opacity="1" /><path clip-path="url(#clip690)" d="M688.025 1450.99 L676.22 1469.44 L688.025 1469.44 L688.025 1450.99 M686.798 1446.92 L692.678 1446.92 L692.678 1469.44 L697.608 1469.44 L697.608 1473.33 L692.678 1473.33 L692.678 1481.48 L688.025 1481.48 L688.025 1473.33 L672.423 1473.33 L672.423 1468.82 L686.798 1446.92 Z" fill="#000000" fill-rule="nonzero" fill-opacity="1" /><path clip-path="url(#clip690)" d="M775.76 1446.92 L794.116 1446.92 L794.116 1450.85 L780.042 1450.85 L780.042 1459.32 Q781.061 1458.98 782.079 1458.82 Q783.098 1458.63 784.116 1458.63 Q789.903 1458.63 793.283 1461.8 Q796.663 1464.97 796.663 1470.39 Q796.663 1475.97 793.19 1479.07 Q789.718 1482.15 783.399 1482.15 Q781.223 1482.15 778.954 1481.78 Q776.709 1481.41 774.302 1480.67 L774.302 1475.97 Q776.385 1477.1 778.607 1477.66 Q780.829 1478.21 783.306 1478.21 Q787.311 1478.21 789.649 1476.11 Q791.987 1474 791.987 1470.39 Q791.987 1466.78 789.649 1464.67 Q787.311 1462.57 783.306 1462.57 Q781.431 1462.57 779.556 1462.98 Q777.704 1463.4 775.76 1464.28 L775.76 1446.92 Z" fill="#000000" fill-rule="nonzero" fill-opacity="1" /><path clip-path="url(#clip690)" d="M886.353 1462.33 Q883.205 1462.33 881.354 1464.49 Q879.525 1466.64 879.525 1470.39 Q879.525 1474.12 881.354 1476.29 Q883.205 1478.44 886.353 1478.44 Q889.502 1478.44 891.33 1476.29 Q893.182 1474.12 893.182 1470.39 Q893.182 1466.64 891.33 1464.49 Q889.502 1462.33 886.353 1462.33 M895.636 1447.68 L895.636 1451.94 Q893.877 1451.11 892.071 1450.67 Q890.289 1450.23 888.529 1450.23 Q883.9 1450.23 881.446 1453.35 Q879.016 1456.48 878.668 1462.8 Q880.034 1460.78 882.094 1459.72 Q884.154 1458.63 886.631 1458.63 Q891.84 1458.63 894.849 1461.8 Q897.881 1464.95 897.881 1470.39 Q897.881 1475.71 894.733 1478.93 Q891.585 1482.15 886.353 1482.15 Q880.358 1482.15 877.187 1477.57 Q874.016 1472.96 874.016 1464.23 Q874.016 1456.04 877.904 1451.18 Q881.793 1446.29 888.344 1446.29 Q890.103 1446.29 891.886 1446.64 Q893.691 1446.99 895.636 1447.68 Z" fill="#000000" fill-rule="nonzero" fill-opacity="1" /><path clip-path="url(#clip690)" d="M975.304 1446.92 L997.526 1446.92 L997.526 1448.91 L984.979 1481.48 L980.095 1481.48 L991.901 1450.85 L975.304 1450.85 L975.304 1446.92 Z" fill="#000000" fill-rule="nonzero" fill-opacity="1" /><path clip-path="url(#clip690)" d="M1086.88 1465.07 Q1083.55 1465.07 1081.63 1466.85 Q1079.73 1468.63 1079.73 1471.75 Q1079.73 1474.88 1081.63 1476.66 Q1083.55 1478.44 1086.88 1478.44 Q1090.21 1478.44 1092.14 1476.66 Q1094.06 1474.86 1094.06 1471.75 Q1094.06 1468.63 1092.14 1466.85 Q1090.24 1465.07 1086.88 1465.07 M1082.21 1463.07 Q1079.2 1462.33 1077.51 1460.27 Q1075.84 1458.21 1075.84 1455.25 Q1075.84 1451.11 1078.78 1448.7 Q1081.74 1446.29 1086.88 1446.29 Q1092.04 1446.29 1094.98 1448.7 Q1097.92 1451.11 1097.92 1455.25 Q1097.92 1458.21 1096.23 1460.27 Q1094.57 1462.33 1091.58 1463.07 Q1094.96 1463.86 1096.83 1466.15 Q1098.73 1468.44 1098.73 1471.75 Q1098.73 1476.78 1095.65 1479.46 Q1092.6 1482.15 1086.88 1482.15 Q1081.16 1482.15 1078.08 1479.46 Q1075.03 1476.78 1075.03 1471.75 Q1075.03 1468.44 1076.93 1466.15 Q1078.83 1463.86 1082.21 1463.07 M1080.49 1455.69 Q1080.49 1458.38 1082.16 1459.88 Q1083.85 1461.38 1086.88 1461.38 Q1089.89 1461.38 1091.58 1459.88 Q1093.29 1458.38 1093.29 1455.69 Q1093.29 1453.01 1091.58 1451.5 Q1089.89 1450 1086.88 1450 Q1083.85 1450 1082.16 1451.5 Q1080.49 1453.01 1080.49 1455.69 Z" fill="#000000" fill-rule="nonzero" fill-opacity="1" /><path clip-path="url(#clip690)" d="M1177.65 1480.76 L1177.65 1476.5 Q1179.41 1477.33 1181.21 1477.77 Q1183.02 1478.21 1184.75 1478.21 Q1189.38 1478.21 1191.81 1475.11 Q1194.27 1471.99 1194.62 1465.64 Q1193.27 1467.63 1191.21 1468.7 Q1189.15 1469.76 1186.65 1469.76 Q1181.47 1469.76 1178.44 1466.64 Q1175.43 1463.49 1175.43 1458.05 Q1175.43 1452.73 1178.57 1449.51 Q1181.72 1446.29 1186.95 1446.29 Q1192.95 1446.29 1196.1 1450.9 Q1199.27 1455.48 1199.27 1464.23 Q1199.27 1472.4 1195.38 1477.29 Q1191.51 1482.15 1184.96 1482.15 Q1183.2 1482.15 1181.4 1481.8 Q1179.59 1481.45 1177.65 1480.76 M1186.95 1466.11 Q1190.1 1466.11 1191.93 1463.95 Q1193.78 1461.8 1193.78 1458.05 Q1193.78 1454.32 1191.93 1452.17 Q1190.1 1450 1186.95 1450 Q1183.81 1450 1181.95 1452.17 Q1180.13 1454.32 1180.13 1458.05 Q1180.13 1461.8 1181.95 1463.95 Q1183.81 1466.11 1186.95 1466.11 Z" fill="#000000" fill-rule="nonzero" fill-opacity="1" /><path clip-path="url(#clip690)" d="M1262.5 1477.54 L1270.14 1477.54 L1270.14 1451.18 L1261.83 1452.84 L1261.83 1448.58 L1270.09 1446.92 L1274.77 1446.92 L1274.77 1477.54 L1282.41 1477.54 L1282.41 1481.48 L1262.5 1481.48 L1262.5 1477.54 Z" fill="#000000" fill-rule="nonzero" fill-opacity="1" /><path clip-path="url(#clip690)" d="M1301.85 1450 Q1298.24 1450 1296.41 1453.56 Q1294.61 1457.1 1294.61 1464.23 Q1294.61 1471.34 1296.41 1474.9 Q1298.24 1478.44 1301.85 1478.44 Q1305.49 1478.44 1307.29 1474.9 Q1309.12 1471.34 1309.12 1464.23 Q1309.12 1457.1 1307.29 1453.56 Q1305.49 1450 1301.85 1450 M1301.85 1446.29 Q1307.66 1446.29 1310.72 1450.9 Q1313.8 1455.48 1313.8 1464.23 Q1313.8 1472.96 1310.72 1477.57 Q1307.66 1482.15 1301.85 1482.15 Q1296.04 1482.15 1292.96 1477.57 Q1289.91 1472.96 1289.91 1464.23 Q1289.91 1455.48 1292.96 1450.9 Q1296.04 1446.29 1301.85 1446.29 Z" fill="#000000" fill-rule="nonzero" fill-opacity="1" /><path clip-path="url(#clip690)" d="M1363.58 1477.54 L1371.22 1477.54 L1371.22 1451.18 L1362.91 1452.84 L1362.91 1448.58 L1371.17 1446.92 L1375.85 1446.92 L1375.85 1477.54 L1383.49 1477.54 L1383.49 1481.48 L1363.58 1481.48 L1363.58 1477.54 Z" fill="#000000" fill-rule="nonzero" fill-opacity="1" /><path clip-path="url(#clip690)" d="M1393.74 1477.54 L1401.38 1477.54 L1401.38 1451.18 L1393.07 1452.84 L1393.07 1448.58 L1401.34 1446.92 L1406.01 1446.92 L1406.01 1477.54 L1413.65 1477.54 L1413.65 1481.48 L1393.74 1481.48 L1393.74 1477.54 Z" fill="#000000" fill-rule="nonzero" fill-opacity="1" /><path clip-path="url(#clip690)" d="M1464.23 1477.54 L1471.87 1477.54 L1471.87 1451.18 L1463.56 1452.84 L1463.56 1448.58 L1471.82 1446.92 L1476.5 1446.92 L1476.5 1477.54 L1484.14 1477.54 L1484.14 1481.48 L1464.23 1481.48 L1464.23 1477.54 Z" fill="#000000" fill-rule="nonzero" fill-opacity="1" /><path clip-path="url(#clip690)" d="M1497.61 1477.54 L1513.93 1477.54 L1513.93 1481.48 L1491.99 1481.48 L1491.99 1477.54 Q1494.65 1474.79 1499.23 1470.16 Q1503.84 1465.5 1505.02 1464.16 Q1507.26 1461.64 1508.14 1459.9 Q1509.05 1458.14 1509.05 1456.45 Q1509.05 1453.7 1507.1 1451.96 Q1505.18 1450.23 1502.08 1450.23 Q1499.88 1450.23 1497.43 1450.99 Q1495 1451.76 1492.22 1453.31 L1492.22 1448.58 Q1495.04 1447.45 1497.5 1446.87 Q1499.95 1446.29 1501.99 1446.29 Q1507.36 1446.29 1510.55 1448.98 Q1513.75 1451.66 1513.75 1456.15 Q1513.75 1458.28 1512.94 1460.2 Q1512.15 1462.1 1510.04 1464.69 Q1509.46 1465.37 1506.36 1468.58 Q1503.26 1471.78 1497.61 1477.54 Z" fill="#000000" fill-rule="nonzero" fill-opacity="1" /><path clip-path="url(#clip690)" d="M1564.22 1477.54 L1571.86 1477.54 L1571.86 1451.18 L1563.55 1452.84 L1563.55 1448.58 L1571.82 1446.92 L1576.49 1446.92 L1576.49 1477.54 L1584.13 1477.54 L1584.13 1481.48 L1564.22 1481.48 L1564.22 1477.54 Z" fill="#000000" fill-rule="nonzero" fill-opacity="1" /><path clip-path="url(#clip690)" d="M1607.74 1462.84 Q1611.1 1463.56 1612.97 1465.83 Q1614.87 1468.1 1614.87 1471.43 Q1614.87 1476.55 1611.35 1479.35 Q1607.83 1482.15 1601.35 1482.15 Q1599.18 1482.15 1596.86 1481.71 Q1594.57 1481.29 1592.12 1480.44 L1592.12 1475.92 Q1594.06 1477.06 1596.38 1477.63 Q1598.69 1478.21 1601.21 1478.21 Q1605.61 1478.21 1607.9 1476.48 Q1610.22 1474.74 1610.22 1471.43 Q1610.22 1468.38 1608.07 1466.66 Q1605.94 1464.93 1602.12 1464.93 L1598.09 1464.93 L1598.09 1461.08 L1602.3 1461.08 Q1605.75 1461.08 1607.58 1459.72 Q1609.41 1458.33 1609.41 1455.74 Q1609.41 1453.07 1607.51 1451.66 Q1605.64 1450.23 1602.12 1450.23 Q1600.2 1450.23 1598 1450.64 Q1595.8 1451.06 1593.16 1451.94 L1593.16 1447.77 Q1595.82 1447.03 1598.14 1446.66 Q1600.47 1446.29 1602.53 1446.29 Q1607.86 1446.29 1610.96 1448.72 Q1614.06 1451.13 1614.06 1455.25 Q1614.06 1458.12 1612.42 1460.11 Q1610.77 1462.08 1607.74 1462.84 Z" fill="#000000" fill-rule="nonzero" fill-opacity="1" /><path clip-path="url(#clip690)" d="M1664.12 1477.54 L1671.76 1477.54 L1671.76 1451.18 L1663.45 1452.84 L1663.45 1448.58 L1671.72 1446.92 L1676.39 1446.92 L1676.39 1477.54 L1684.03 1477.54 L1684.03 1481.48 L1664.12 1481.48 L1664.12 1477.54 Z" fill="#000000" fill-rule="nonzero" fill-opacity="1" /><path clip-path="url(#clip690)" d="M1706.32 1450.99 L1694.52 1469.44 L1706.32 1469.44 L1706.32 1450.99 M1705.1 1446.92 L1710.97 1446.92 L1710.97 1469.44 L1715.91 1469.44 L1715.91 1473.33 L1710.97 1473.33 L1710.97 1481.48 L1706.32 1481.48 L1706.32 1473.33 L1690.72 1473.33 L1690.72 1468.82 L1705.1 1446.92 Z" fill="#000000" fill-rule="nonzero" fill-opacity="1" /><path clip-path="url(#clip690)" d="M1765.33 1477.54 L1772.97 1477.54 L1772.97 1451.18 L1764.66 1452.84 L1764.66 1448.58 L1772.92 1446.92 L1777.6 1446.92 L1777.6 1477.54 L1785.24 1477.54 L1785.24 1481.48 L1765.33 1481.48 L1765.33 1477.54 Z" fill="#000000" fill-rule="nonzero" fill-opacity="1" /><path clip-path="url(#clip690)" d="M1794.73 1446.92 L1813.08 1446.92 L1813.08 1450.85 L1799.01 1450.85 L1799.01 1459.32 Q1800.03 1458.98 1801.05 1458.82 Q1802.07 1458.63 1803.08 1458.63 Q1808.87 1458.63 1812.25 1461.8 Q1815.63 1464.97 1815.63 1470.39 Q1815.63 1475.97 1812.16 1479.07 Q1808.69 1482.15 1802.37 1482.15 Q1800.19 1482.15 1797.92 1481.78 Q1795.68 1481.41 1793.27 1480.67 L1793.27 1475.97 Q1795.35 1477.1 1797.58 1477.66 Q1799.8 1478.21 1802.27 1478.21 Q1806.28 1478.21 1808.62 1476.11 Q1810.95 1474 1810.95 1470.39 Q1810.95 1466.78 1808.62 1464.67 Q1806.28 1462.57 1802.27 1462.57 Q1800.4 1462.57 1798.52 1462.98 Q1796.67 1463.4 1794.73 1464.28 L1794.73 1446.92 Z" fill="#000000" fill-rule="nonzero" fill-opacity="1" /><path clip-path="url(#clip690)" d="M1865.22 1477.54 L1872.86 1477.54 L1872.86 1451.18 L1864.55 1452.84 L1864.55 1448.58 L1872.81 1446.92 L1877.49 1446.92 L1877.49 1477.54 L1885.12 1477.54 L1885.12 1481.48 L1865.22 1481.48 L1865.22 1477.54 Z" fill="#000000" fill-rule="nonzero" fill-opacity="1" /><path clip-path="url(#clip690)" d="M1905.15 1462.33 Q1902 1462.33 1900.15 1464.49 Q1898.32 1466.64 1898.32 1470.39 Q1898.32 1474.12 1900.15 1476.29 Q1902 1478.44 1905.15 1478.44 Q1908.3 1478.44 1910.12 1476.29 Q1911.98 1474.12 1911.98 1470.39 Q1911.98 1466.64 1910.12 1464.49 Q1908.3 1462.33 1905.15 1462.33 M1914.43 1447.68 L1914.43 1451.94 Q1912.67 1451.11 1910.87 1450.67 Q1909.08 1450.23 1907.32 1450.23 Q1902.69 1450.23 1900.24 1453.35 Q1897.81 1456.48 1897.46 1462.8 Q1898.83 1460.78 1900.89 1459.72 Q1902.95 1458.63 1905.43 1458.63 Q1910.63 1458.63 1913.64 1461.8 Q1916.68 1464.95 1916.68 1470.39 Q1916.68 1475.71 1913.53 1478.93 Q1910.38 1482.15 1905.15 1482.15 Q1899.15 1482.15 1895.98 1477.57 Q1892.81 1472.96 1892.81 1464.23 Q1892.81 1456.04 1896.7 1451.18 Q1900.59 1446.29 1907.14 1446.29 Q1908.9 1446.29 1910.68 1446.64 Q1912.49 1446.99 1914.43 1447.68 Z" fill="#000000" fill-rule="nonzero" fill-opacity="1" /><path clip-path="url(#clip690)" d="M1966.22 1477.54 L1973.86 1477.54 L1973.86 1451.18 L1965.55 1452.84 L1965.55 1448.58 L1973.81 1446.92 L1978.48 1446.92 L1978.48 1477.54 L1986.12 1477.54 L1986.12 1481.48 L1966.22 1481.48 L1966.22 1477.54 Z" fill="#000000" fill-rule="nonzero" fill-opacity="1" /><path clip-path="url(#clip690)" d="M1994.39 1446.92 L2016.61 1446.92 L2016.61 1448.91 L2004.06 1481.48 L1999.18 1481.48 L2010.98 1450.85 L1994.39 1450.85 L1994.39 1446.92 Z" fill="#000000" fill-rule="nonzero" fill-opacity="1" /><path clip-path="url(#clip690)" d="M2066.28 1477.54 L2073.92 1477.54 L2073.92 1451.18 L2065.61 1452.84 L2065.61 1448.58 L2073.87 1446.92 L2078.55 1446.92 L2078.55 1477.54 L2086.18 1477.54 L2086.18 1481.48 L2066.28 1481.48 L2066.28 1477.54 Z" fill="#000000" fill-rule="nonzero" fill-opacity="1" /><path clip-path="url(#clip690)" d="M2105.63 1465.07 Q2102.3 1465.07 2100.37 1466.85 Q2098.48 1468.63 2098.48 1471.75 Q2098.48 1474.88 2100.37 1476.66 Q2102.3 1478.44 2105.63 1478.44 Q2108.96 1478.44 2110.88 1476.66 Q2112.81 1474.86 2112.81 1471.75 Q2112.81 1468.63 2110.88 1466.85 Q2108.99 1465.07 2105.63 1465.07 M2100.95 1463.07 Q2097.94 1462.33 2096.25 1460.27 Q2094.59 1458.21 2094.59 1455.25 Q2094.59 1451.11 2097.53 1448.7 Q2100.49 1446.29 2105.63 1446.29 Q2110.79 1446.29 2113.73 1448.7 Q2116.67 1451.11 2116.67 1455.25 Q2116.67 1458.21 2114.98 1460.27 Q2113.31 1462.33 2110.33 1463.07 Q2113.71 1463.86 2115.58 1466.15 Q2117.48 1468.44 2117.48 1471.75 Q2117.48 1476.78 2114.4 1479.46 Q2111.35 1482.15 2105.63 1482.15 Q2099.91 1482.15 2096.83 1479.46 Q2093.78 1476.78 2093.78 1471.75 Q2093.78 1468.44 2095.68 1466.15 Q2097.57 1463.86 2100.95 1463.07 M2099.24 1455.69 Q2099.24 1458.38 2100.91 1459.88 Q2102.6 1461.38 2105.63 1461.38 Q2108.64 1461.38 2110.33 1459.88 Q2112.04 1458.38 2112.04 1455.69 Q2112.04 1453.01 2110.33 1451.5 Q2108.64 1450 2105.63 1450 Q2102.6 1450 2100.91 1451.5 Q2099.24 1453.01 2099.24 1455.69 Z" fill="#000000" fill-rule="nonzero" fill-opacity="1" /><path clip-path="url(#clip690)" d="M2166.79 1477.54 L2174.43 1477.54 L2174.43 1451.18 L2166.12 1452.84 L2166.12 1448.58 L2174.38 1446.92 L2179.06 1446.92 L2179.06 1477.54 L2186.7 1477.54 L2186.7 1481.48 L2166.79 1481.48 L2166.79 1477.54 Z" fill="#000000" fill-rule="nonzero" fill-opacity="1" /><path clip-path="url(#clip690)" d="M2196.28 1480.76 L2196.28 1476.5 Q2198.04 1477.33 2199.85 1477.77 Q2201.65 1478.21 2203.39 1478.21 Q2208.02 1478.21 2210.45 1475.11 Q2212.9 1471.99 2213.25 1465.64 Q2211.91 1467.63 2209.85 1468.7 Q2207.79 1469.76 2205.29 1469.76 Q2200.1 1469.76 2197.07 1466.64 Q2194.06 1463.49 2194.06 1458.05 Q2194.06 1452.73 2197.21 1449.51 Q2200.35 1446.29 2205.59 1446.29 Q2211.58 1446.29 2214.73 1450.9 Q2217.9 1455.48 2217.9 1464.23 Q2217.9 1472.4 2214.01 1477.29 Q2210.15 1482.15 2203.6 1482.15 Q2201.84 1482.15 2200.03 1481.8 Q2198.23 1481.45 2196.28 1480.76 M2205.59 1466.11 Q2208.73 1466.11 2210.56 1463.95 Q2212.41 1461.8 2212.41 1458.05 Q2212.41 1454.32 2210.56 1452.17 Q2208.73 1450 2205.59 1450 Q2202.44 1450 2200.59 1452.17 Q2198.76 1454.32 2198.76 1458.05 Q2198.76 1461.8 2200.59 1463.95 Q2202.44 1466.11 2205.59 1466.11 Z" fill="#000000" fill-rule="nonzero" fill-opacity="1" /><path clip-path="url(#clip690)" d="M2271.25 1477.54 L2287.57 1477.54 L2287.57 1481.48 L2265.62 1481.48 L2265.62 1477.54 Q2268.29 1474.79 2272.87 1470.16 Q2277.48 1465.5 2278.66 1464.16 Q2280.9 1461.64 2281.78 1459.9 Q2282.68 1458.14 2282.68 1456.45 Q2282.68 1453.7 2280.74 1451.96 Q2278.82 1450.23 2275.72 1450.23 Q2273.52 1450.23 2271.06 1450.99 Q2268.63 1451.76 2265.86 1453.31 L2265.86 1448.58 Q2268.68 1447.45 2271.13 1446.87 Q2273.59 1446.29 2275.62 1446.29 Q2280.99 1446.29 2284.19 1448.98 Q2287.38 1451.66 2287.38 1456.15 Q2287.38 1458.28 2286.57 1460.2 Q2285.79 1462.1 2283.68 1464.69 Q2283.1 1465.37 2280 1468.58 Q2276.9 1471.78 2271.25 1477.54 Z" fill="#000000" fill-rule="nonzero" fill-opacity="1" /><path clip-path="url(#clip690)" d="M2307.38 1450 Q2303.77 1450 2301.94 1453.56 Q2300.14 1457.1 2300.14 1464.23 Q2300.14 1471.34 2301.94 1474.9 Q2303.77 1478.44 2307.38 1478.44 Q2311.02 1478.44 2312.82 1474.9 Q2314.65 1471.34 2314.65 1464.23 Q2314.65 1457.1 2312.82 1453.56 Q2311.02 1450 2307.38 1450 M2307.38 1446.29 Q2313.19 1446.29 2316.25 1450.9 Q2319.33 1455.48 2319.33 1464.23 Q2319.33 1472.96 2316.25 1477.57 Q2313.19 1482.15 2307.38 1482.15 Q2301.57 1482.15 2298.49 1477.57 Q2295.44 1472.96 2295.44 1464.23 Q2295.44 1455.48 2298.49 1450.9 Q2301.57 1446.29 2307.38 1446.29 Z" fill="#000000" fill-rule="nonzero" fill-opacity="1" /><path clip-path="url(#clip690)" d="M1292.86 1507.42 Q1292.86 1508.26 1292.51 1509.87 Q1291.38 1514.41 1287.16 1517.54 Q1286.46 1518.12 1285.2 1518.86 Q1286.71 1519.86 1288.03 1521.69 Q1290 1524.72 1290 1528.81 Q1290 1530.71 1289.48 1533.03 Q1288.03 1538.41 1282.94 1542.27 Q1277.82 1546.04 1271.74 1546.04 Q1268.45 1546.04 1266.2 1544.3 Q1263.98 1542.53 1263.11 1539.57 L1258.63 1557.63 Q1258.53 1558.08 1257.95 1558.08 L1257.63 1558.08 Q1256.95 1558.08 1256.95 1557.31 L1267.13 1516.73 Q1267.81 1513.99 1268.9 1511.42 Q1270 1508.84 1271.51 1506.52 Q1273.06 1504.2 1274.83 1502.5 Q1276.6 1500.76 1278.79 1499.76 Q1280.98 1498.73 1283.3 1498.73 Q1288.16 1498.73 1290.93 1502.05 Q1292.86 1504.4 1292.86 1507.42 M1289.16 1506.27 Q1289.16 1504.27 1288.36 1502.88 Q1286.71 1500.24 1283.23 1500.24 Q1281.14 1500.24 1279.14 1501.21 Q1277.18 1502.14 1275.6 1503.75 Q1274.02 1505.36 1272.67 1507.55 Q1271.32 1509.74 1270.32 1512.13 Q1269.35 1514.48 1268.71 1517.05 L1264.75 1533.03 Q1264.36 1534.74 1264.36 1536.25 Q1264.36 1539.86 1266.36 1542.21 Q1268.36 1544.56 1271.8 1544.56 Q1276.37 1544.56 1280.3 1541.14 Q1283.72 1538.08 1285.13 1532.71 Q1285.94 1529.32 1285.94 1526.97 Q1285.94 1524.4 1285.01 1522.4 Q1284.33 1520.79 1283.01 1519.82 Q1280.56 1520.69 1278.08 1520.69 Q1276.89 1520.69 1276.25 1520.66 Q1275.63 1520.63 1274.73 1520.5 Q1273.86 1520.37 1273.44 1520.02 Q1273.06 1519.66 1273.06 1519.12 Q1273.06 1518.79 1273.12 1518.66 Q1273.25 1518.15 1273.67 1517.79 Q1274.09 1517.44 1274.57 1517.28 Q1275.05 1517.09 1275.86 1516.99 Q1276.7 1516.89 1277.24 1516.89 Q1277.79 1516.86 1278.73 1516.86 Q1280.92 1516.86 1283.14 1517.73 Q1283.98 1517.28 1284.88 1516.47 Q1287.74 1513.8 1288.71 1509.55 Q1289.16 1507.97 1289.16 1506.27 M1281.04 1518.73 Q1279.69 1518.37 1278.66 1518.37 Q1274.89 1518.37 1274.7 1518.99 Q1274.7 1519.05 1274.83 1519.12 Q1274.96 1519.15 1275.25 1519.18 Q1275.57 1519.18 1275.83 1519.21 Q1276.12 1519.24 1276.6 1519.24 Q1277.08 1519.24 1277.34 1519.24 Q1277.63 1519.24 1278.15 1519.24 Q1279.43 1519.24 1281.04 1518.73 Z" fill="#000000" fill-rule="nonzero" fill-opacity="1" /><path clip-path="url(#clip690)" d="M1311.35 1547.24 Q1311.35 1548.23 1310.54 1548.97 Q1309.75 1549.69 1308.89 1549.69 Q1308.1 1549.69 1307.61 1549.22 Q1307.13 1548.73 1307.13 1548.03 Q1307.13 1547.1 1307.92 1546.34 Q1308.71 1545.57 1309.63 1545.57 Q1310.4 1545.57 1310.87 1546.04 Q1311.35 1546.52 1311.35 1547.24 M1311.75 1569.49 Q1311.75 1569.67 1311.55 1570.39 Q1311.35 1571.09 1310.85 1572.17 Q1310.38 1573.23 1309.72 1574.22 Q1309.07 1575.21 1307.99 1575.91 Q1306.93 1576.61 1305.71 1576.61 Q1304.07 1576.61 1302.98 1575.53 Q1301.92 1574.45 1301.92 1572.82 Q1301.92 1571.95 1302.98 1569.13 Q1306.05 1560.92 1306.16 1560.58 Q1306.68 1559.3 1306.68 1558.17 Q1306.68 1557.65 1306.57 1557.34 Q1306.46 1557 1306.23 1556.89 Q1306 1556.75 1305.87 1556.73 Q1305.76 1556.71 1305.53 1556.71 Q1304.2 1556.71 1302.96 1558.06 Q1301.72 1559.41 1300.86 1562.43 Q1300.68 1563 1300.57 1563.13 Q1300.46 1563.27 1300.12 1563.27 Q1299.56 1563.24 1299.56 1562.79 Q1299.56 1562.66 1299.72 1562.14 Q1299.87 1561.6 1300.17 1560.79 Q1300.46 1559.95 1300.98 1559.1 Q1301.5 1558.22 1302.13 1557.45 Q1302.78 1556.68 1303.71 1556.19 Q1304.63 1555.69 1305.67 1555.69 Q1307.36 1555.69 1308.39 1556.8 Q1309.45 1557.88 1309.45 1559.48 Q1309.45 1560.36 1308.85 1561.91 Q1308.1 1563.94 1307.83 1564.6 L1306.03 1569.44 Q1305.37 1571.2 1305.17 1571.74 Q1304.99 1572.26 1304.83 1572.89 Q1304.7 1573.5 1304.7 1574.06 Q1304.7 1574.85 1304.95 1575.21 Q1305.22 1575.58 1305.8 1575.58 Q1307.43 1575.58 1308.62 1573.97 Q1309.81 1572.35 1310.51 1569.87 Q1310.54 1569.8 1310.56 1569.69 Q1310.74 1569.13 1310.92 1569.06 Q1311.01 1569.04 1311.19 1569.04 Q1311.75 1569.04 1311.75 1569.49 Z" fill="#000000" fill-rule="nonzero" fill-opacity="1" /><polyline clip-path="url(#clip690)" style="stroke:#000000; stroke-linecap:round; stroke-linejoin:round; stroke-width:4; stroke-opacity:1; fill:none" points="222.871,1419.08 222.871,123.472 "/>
<polyline clip-path="url(#clip690)" style="stroke:#000000; stroke-linecap:round; stroke-linejoin:round; stroke-width:4; stroke-opacity:1; fill:none" points="222.871,1263.38 241.769,1263.38 "/>
<polyline clip-path="url(#clip690)" style="stroke:#000000; stroke-linecap:round; stroke-linejoin:round; stroke-width:4; stroke-opacity:1; fill:none" points="222.871,1023.47 241.769,1023.47 "/>
<polyline clip-path="url(#clip690)" style="stroke:#000000; stroke-linecap:round; stroke-linejoin:round; stroke-width:4; stroke-opacity:1; fill:none" points="222.871,783.561 241.769,783.561 "/>
<polyline clip-path="url(#clip690)" style="stroke:#000000; stroke-linecap:round; stroke-linejoin:round; stroke-width:4; stroke-opacity:1; fill:none" points="222.871,543.654 241.769,543.654 "/>
<polyline clip-path="url(#clip690)" style="stroke:#000000; stroke-linecap:round; stroke-linejoin:round; stroke-width:4; stroke-opacity:1; fill:none" points="222.871,303.747 241.769,303.747 "/>
<path clip-path="url(#clip690)" d="M51.3625 1263.83 L81.0383 1263.83 L81.0383 1267.76 L51.3625 1267.76 L51.3625 1263.83 Z" fill="#000000" fill-rule="nonzero" fill-opacity="1" /><path clip-path="url(#clip690)" d="M101.131 1249.17 Q97.5197 1249.17 95.691 1252.74 Q93.8854 1256.28 93.8854 1263.41 Q93.8854 1270.52 95.691 1274.08 Q97.5197 1277.62 101.131 1277.62 Q104.765 1277.62 106.571 1274.08 Q108.399 1270.52 108.399 1263.41 Q108.399 1256.28 106.571 1252.74 Q104.765 1249.17 101.131 1249.17 M101.131 1245.47 Q106.941 1245.47 109.996 1250.08 Q113.075 1254.66 113.075 1263.41 Q113.075 1272.14 109.996 1276.74 Q106.941 1281.33 101.131 1281.33 Q95.3206 1281.33 92.2419 1276.74 Q89.1864 1272.14 89.1864 1263.41 Q89.1864 1254.66 92.2419 1250.08 Q95.3206 1245.47 101.131 1245.47 Z" fill="#000000" fill-rule="nonzero" fill-opacity="1" /><path clip-path="url(#clip690)" d="M121.293 1274.78 L126.177 1274.78 L126.177 1280.66 L121.293 1280.66 L121.293 1274.78 Z" fill="#000000" fill-rule="nonzero" fill-opacity="1" /><path clip-path="url(#clip690)" d="M146.362 1249.17 Q142.751 1249.17 140.922 1252.74 Q139.117 1256.28 139.117 1263.41 Q139.117 1270.52 140.922 1274.08 Q142.751 1277.62 146.362 1277.62 Q149.996 1277.62 151.802 1274.08 Q153.63 1270.52 153.63 1263.41 Q153.63 1256.28 151.802 1252.74 Q149.996 1249.17 146.362 1249.17 M146.362 1245.47 Q152.172 1245.47 155.228 1250.08 Q158.306 1254.66 158.306 1263.41 Q158.306 1272.14 155.228 1276.74 Q152.172 1281.33 146.362 1281.33 Q140.552 1281.33 137.473 1276.74 Q134.418 1272.14 134.418 1263.41 Q134.418 1254.66 137.473 1250.08 Q140.552 1245.47 146.362 1245.47 Z" fill="#000000" fill-rule="nonzero" fill-opacity="1" /><path clip-path="url(#clip690)" d="M170.552 1276.72 L186.871 1276.72 L186.871 1280.66 L164.927 1280.66 L164.927 1276.72 Q167.589 1273.97 172.172 1269.34 Q176.778 1264.68 177.959 1263.34 Q180.204 1260.82 181.084 1259.08 Q181.987 1257.32 181.987 1255.63 Q181.987 1252.88 180.042 1251.14 Q178.121 1249.41 175.019 1249.41 Q172.82 1249.41 170.366 1250.17 Q167.936 1250.93 165.158 1252.48 L165.158 1247.76 Q167.982 1246.63 170.436 1246.05 Q172.89 1245.47 174.927 1245.47 Q180.297 1245.47 183.491 1248.16 Q186.686 1250.84 186.686 1255.33 Q186.686 1257.46 185.876 1259.38 Q185.089 1261.28 182.982 1263.87 Q182.403 1264.54 179.302 1267.76 Q176.2 1270.96 170.552 1276.72 Z" fill="#000000" fill-rule="nonzero" fill-opacity="1" /><path clip-path="url(#clip690)" d="M50.9921 1023.92 L80.6679 1023.92 L80.6679 1027.85 L50.9921 1027.85 L50.9921 1023.92 Z" fill="#000000" fill-rule="nonzero" fill-opacity="1" /><path clip-path="url(#clip690)" d="M100.76 1009.27 Q97.1493 1009.27 95.3206 1012.83 Q93.515 1016.37 93.515 1023.5 Q93.515 1030.61 95.3206 1034.17 Q97.1493 1037.72 100.76 1037.72 Q104.395 1037.72 106.2 1034.17 Q108.029 1030.61 108.029 1023.5 Q108.029 1016.37 106.2 1012.83 Q104.395 1009.27 100.76 1009.27 M100.76 1005.56 Q106.571 1005.56 109.626 1010.17 Q112.705 1014.75 112.705 1023.5 Q112.705 1032.23 109.626 1036.84 Q106.571 1041.42 100.76 1041.42 Q94.9502 1041.42 91.8715 1036.84 Q88.816 1032.23 88.816 1023.5 Q88.816 1014.75 91.8715 1010.17 Q94.9502 1005.56 100.76 1005.56 Z" fill="#000000" fill-rule="nonzero" fill-opacity="1" /><path clip-path="url(#clip690)" d="M120.922 1034.87 L125.807 1034.87 L125.807 1040.75 L120.922 1040.75 L120.922 1034.87 Z" fill="#000000" fill-rule="nonzero" fill-opacity="1" /><path clip-path="url(#clip690)" d="M145.992 1009.27 Q142.381 1009.27 140.552 1012.83 Q138.746 1016.37 138.746 1023.5 Q138.746 1030.61 140.552 1034.17 Q142.381 1037.72 145.992 1037.72 Q149.626 1037.72 151.431 1034.17 Q153.26 1030.61 153.26 1023.5 Q153.26 1016.37 151.431 1012.83 Q149.626 1009.27 145.992 1009.27 M145.992 1005.56 Q151.802 1005.56 154.857 1010.17 Q157.936 1014.75 157.936 1023.5 Q157.936 1032.23 154.857 1036.84 Q151.802 1041.42 145.992 1041.42 Q140.181 1041.42 137.103 1036.84 Q134.047 1032.23 134.047 1023.5 Q134.047 1014.75 137.103 1010.17 Q140.181 1005.56 145.992 1005.56 Z" fill="#000000" fill-rule="nonzero" fill-opacity="1" /><path clip-path="url(#clip690)" d="M166.964 1036.81 L174.603 1036.81 L174.603 1010.45 L166.292 1012.11 L166.292 1007.85 L174.556 1006.19 L179.232 1006.19 L179.232 1036.81 L186.871 1036.81 L186.871 1040.75 L166.964 1040.75 L166.964 1036.81 Z" fill="#000000" fill-rule="nonzero" fill-opacity="1" /><path clip-path="url(#clip690)" d="M99.5335 769.36 Q95.9224 769.36 94.0937 772.925 Q92.2882 776.466 92.2882 783.596 Q92.2882 790.702 94.0937 794.267 Q95.9224 797.809 99.5335 797.809 Q103.168 797.809 104.973 794.267 Q106.802 790.702 106.802 783.596 Q106.802 776.466 104.973 772.925 Q103.168 769.36 99.5335 769.36 M99.5335 765.656 Q105.344 765.656 108.399 770.263 Q111.478 774.846 111.478 783.596 Q111.478 792.323 108.399 796.929 Q105.344 801.512 99.5335 801.512 Q93.7234 801.512 90.6447 796.929 Q87.5892 792.323 87.5892 783.596 Q87.5892 774.846 90.6447 770.263 Q93.7234 765.656 99.5335 765.656 Z" fill="#000000" fill-rule="nonzero" fill-opacity="1" /><path clip-path="url(#clip690)" d="M119.695 794.961 L124.58 794.961 L124.58 800.841 L119.695 800.841 L119.695 794.961 Z" fill="#000000" fill-rule="nonzero" fill-opacity="1" /><path clip-path="url(#clip690)" d="M144.765 769.36 Q141.154 769.36 139.325 772.925 Q137.519 776.466 137.519 783.596 Q137.519 790.702 139.325 794.267 Q141.154 797.809 144.765 797.809 Q148.399 797.809 150.205 794.267 Q152.033 790.702 152.033 783.596 Q152.033 776.466 150.205 772.925 Q148.399 769.36 144.765 769.36 M144.765 765.656 Q150.575 765.656 153.63 770.263 Q156.709 774.846 156.709 783.596 Q156.709 792.323 153.63 796.929 Q150.575 801.512 144.765 801.512 Q138.955 801.512 135.876 796.929 Q132.82 792.323 132.82 783.596 Q132.82 774.846 135.876 770.263 Q138.955 765.656 144.765 765.656 Z" fill="#000000" fill-rule="nonzero" fill-opacity="1" /><path clip-path="url(#clip690)" d="M174.927 769.36 Q171.316 769.36 169.487 772.925 Q167.681 776.466 167.681 783.596 Q167.681 790.702 169.487 794.267 Q171.316 797.809 174.927 797.809 Q178.561 797.809 180.366 794.267 Q182.195 790.702 182.195 783.596 Q182.195 776.466 180.366 772.925 Q178.561 769.36 174.927 769.36 M174.927 765.656 Q180.737 765.656 183.792 770.263 Q186.871 774.846 186.871 783.596 Q186.871 792.323 183.792 796.929 Q180.737 801.512 174.927 801.512 Q169.116 801.512 166.038 796.929 Q162.982 792.323 162.982 783.596 Q162.982 774.846 166.038 770.263 Q169.116 765.656 174.927 765.656 Z" fill="#000000" fill-rule="nonzero" fill-opacity="1" /><path clip-path="url(#clip690)" d="M100.76 529.453 Q97.1493 529.453 95.3206 533.017 Q93.515 536.559 93.515 543.689 Q93.515 550.795 95.3206 554.36 Q97.1493 557.902 100.76 557.902 Q104.395 557.902 106.2 554.36 Q108.029 550.795 108.029 543.689 Q108.029 536.559 106.2 533.017 Q104.395 529.453 100.76 529.453 M100.76 525.749 Q106.571 525.749 109.626 530.355 Q112.705 534.939 112.705 543.689 Q112.705 552.415 109.626 557.022 Q106.571 561.605 100.76 561.605 Q94.9502 561.605 91.8715 557.022 Q88.816 552.415 88.816 543.689 Q88.816 534.939 91.8715 530.355 Q94.9502 525.749 100.76 525.749 Z" fill="#000000" fill-rule="nonzero" fill-opacity="1" /><path clip-path="url(#clip690)" d="M120.922 555.054 L125.807 555.054 L125.807 560.934 L120.922 560.934 L120.922 555.054 Z" fill="#000000" fill-rule="nonzero" fill-opacity="1" /><path clip-path="url(#clip690)" d="M145.992 529.453 Q142.381 529.453 140.552 533.017 Q138.746 536.559 138.746 543.689 Q138.746 550.795 140.552 554.36 Q142.381 557.902 145.992 557.902 Q149.626 557.902 151.431 554.36 Q153.26 550.795 153.26 543.689 Q153.26 536.559 151.431 533.017 Q149.626 529.453 145.992 529.453 M145.992 525.749 Q151.802 525.749 154.857 530.355 Q157.936 534.939 157.936 543.689 Q157.936 552.415 154.857 557.022 Q151.802 561.605 145.992 561.605 Q140.181 561.605 137.103 557.022 Q134.047 552.415 134.047 543.689 Q134.047 534.939 137.103 530.355 Q140.181 525.749 145.992 525.749 Z" fill="#000000" fill-rule="nonzero" fill-opacity="1" /><path clip-path="url(#clip690)" d="M166.964 556.999 L174.603 556.999 L174.603 530.633 L166.292 532.3 L166.292 528.041 L174.556 526.374 L179.232 526.374 L179.232 556.999 L186.871 556.999 L186.871 560.934 L166.964 560.934 L166.964 556.999 Z" fill="#000000" fill-rule="nonzero" fill-opacity="1" /><path clip-path="url(#clip690)" d="M101.131 289.545 Q97.5197 289.545 95.691 293.11 Q93.8854 296.652 93.8854 303.781 Q93.8854 310.888 95.691 314.453 Q97.5197 317.994 101.131 317.994 Q104.765 317.994 106.571 314.453 Q108.399 310.888 108.399 303.781 Q108.399 296.652 106.571 293.11 Q104.765 289.545 101.131 289.545 M101.131 285.842 Q106.941 285.842 109.996 290.448 Q113.075 295.031 113.075 303.781 Q113.075 312.508 109.996 317.115 Q106.941 321.698 101.131 321.698 Q95.3206 321.698 92.2419 317.115 Q89.1864 312.508 89.1864 303.781 Q89.1864 295.031 92.2419 290.448 Q95.3206 285.842 101.131 285.842 Z" fill="#000000" fill-rule="nonzero" fill-opacity="1" /><path clip-path="url(#clip690)" d="M121.293 315.147 L126.177 315.147 L126.177 321.027 L121.293 321.027 L121.293 315.147 Z" fill="#000000" fill-rule="nonzero" fill-opacity="1" /><path clip-path="url(#clip690)" d="M146.362 289.545 Q142.751 289.545 140.922 293.11 Q139.117 296.652 139.117 303.781 Q139.117 310.888 140.922 314.453 Q142.751 317.994 146.362 317.994 Q149.996 317.994 151.802 314.453 Q153.63 310.888 153.63 303.781 Q153.63 296.652 151.802 293.11 Q149.996 289.545 146.362 289.545 M146.362 285.842 Q152.172 285.842 155.228 290.448 Q158.306 295.031 158.306 303.781 Q158.306 312.508 155.228 317.115 Q152.172 321.698 146.362 321.698 Q140.552 321.698 137.473 317.115 Q134.418 312.508 134.418 303.781 Q134.418 295.031 137.473 290.448 Q140.552 285.842 146.362 285.842 Z" fill="#000000" fill-rule="nonzero" fill-opacity="1" /><path clip-path="url(#clip690)" d="M170.552 317.092 L186.871 317.092 L186.871 321.027 L164.927 321.027 L164.927 317.092 Q167.589 314.337 172.172 309.707 Q176.778 305.055 177.959 303.712 Q180.204 301.189 181.084 299.453 Q181.987 297.694 181.987 296.004 Q181.987 293.249 180.042 291.513 Q178.121 289.777 175.019 289.777 Q172.82 289.777 170.366 290.541 Q167.936 291.305 165.158 292.856 L165.158 288.133 Q167.982 286.999 170.436 286.42 Q172.89 285.842 174.927 285.842 Q180.297 285.842 183.491 288.527 Q186.686 291.212 186.686 295.703 Q186.686 297.832 185.876 299.754 Q185.089 301.652 182.982 304.244 Q182.403 304.916 179.302 308.133 Q176.2 311.328 170.552 317.092 Z" fill="#000000" fill-rule="nonzero" fill-opacity="1" /><path clip-path="url(#clip690)" d="M470.928 44.2197 Q473.561 45.1109 476.033 48.0275 Q478.544 50.9442 481.056 56.0483 L489.36 72.576 L480.57 72.576 L472.832 57.061 Q469.835 50.9847 466.999 48.9997 Q464.204 47.0148 459.343 47.0148 L450.431 47.0148 L450.431 72.576 L442.248 72.576 L442.248 12.096 L460.72 12.096 Q471.09 12.096 476.195 16.4305 Q481.299 20.7649 481.299 29.5149 Q481.299 35.2267 478.625 38.994 Q475.992 42.7613 470.928 44.2197 M450.431 18.8205 L450.431 40.2903 L460.72 40.2903 Q466.634 40.2903 469.632 37.5762 Q472.67 34.8216 472.67 29.5149 Q472.67 24.2082 469.632 21.5346 Q466.634 18.8205 460.72 18.8205 L450.431 18.8205 Z" fill="#000000" fill-rule="nonzero" fill-opacity="1" /><path clip-path="url(#clip690)" d="M499.568 27.2059 L507.022 27.2059 L507.022 72.576 L499.568 72.576 L499.568 27.2059 M499.568 9.54393 L507.022 9.54393 L507.022 18.9825 L499.568 18.9825 L499.568 9.54393 Z" fill="#000000" fill-rule="nonzero" fill-opacity="1" /><path clip-path="url(#clip690)" d="M552.473 34.0924 L552.473 9.54393 L559.927 9.54393 L559.927 72.576 L552.473 72.576 L552.473 65.7705 Q550.124 69.8214 546.518 71.8063 Q542.953 73.7508 537.93 73.7508 Q529.707 73.7508 524.522 67.1883 Q519.377 60.6258 519.377 49.9314 Q519.377 39.2371 524.522 32.6746 Q529.707 26.1121 537.93 26.1121 Q542.953 26.1121 546.518 28.0971 Q550.124 30.0415 552.473 34.0924 M527.074 49.9314 Q527.074 58.1548 530.436 62.8538 Q533.839 67.5124 539.753 67.5124 Q545.668 67.5124 549.07 62.8538 Q552.473 58.1548 552.473 49.9314 Q552.473 41.7081 549.07 37.0496 Q545.668 32.3505 539.753 32.3505 Q533.839 32.3505 530.436 37.0496 Q527.074 41.7081 527.074 49.9314 Z" fill="#000000" fill-rule="nonzero" fill-opacity="1" /><path clip-path="url(#clip690)" d="M605.135 49.3643 Q605.135 41.2625 601.773 36.8065 Q598.451 32.3505 592.415 32.3505 Q586.42 32.3505 583.057 36.8065 Q579.736 41.2625 579.736 49.3643 Q579.736 57.4256 583.057 61.8816 Q586.42 66.3376 592.415 66.3376 Q598.451 66.3376 601.773 61.8816 Q605.135 57.4256 605.135 49.3643 M612.588 66.9452 Q612.588 78.5308 607.444 84.1616 Q602.299 89.8329 591.686 89.8329 Q587.756 89.8329 584.273 89.2252 Q580.789 88.6581 577.508 87.4428 L577.508 80.1917 Q580.789 81.9741 583.989 82.8248 Q587.189 83.6755 590.511 83.6755 Q597.843 83.6755 601.489 79.8271 Q605.135 76.0193 605.135 68.282 L605.135 64.5957 Q602.826 68.6061 599.221 70.5911 Q595.615 72.576 590.592 72.576 Q582.247 72.576 577.143 66.2161 Q572.039 59.8562 572.039 49.3643 Q572.039 38.832 577.143 32.472 Q582.247 26.1121 590.592 26.1121 Q595.615 26.1121 599.221 28.0971 Q602.826 30.082 605.135 34.0924 L605.135 27.2059 L612.588 27.2059 L612.588 66.9452 Z" fill="#000000" fill-rule="nonzero" fill-opacity="1" /><path clip-path="url(#clip690)" d="M666.749 48.0275 L666.749 51.6733 L632.478 51.6733 Q632.965 59.3701 637.096 63.421 Q641.269 67.4314 648.682 67.4314 Q652.976 67.4314 656.986 66.3781 Q661.037 65.3249 665.007 63.2184 L665.007 70.267 Q660.997 71.9684 656.784 72.8596 Q652.571 73.7508 648.236 73.7508 Q637.38 73.7508 631.02 67.4314 Q624.701 61.1119 624.701 50.3365 Q624.701 39.1965 630.696 32.6746 Q636.732 26.1121 646.94 26.1121 Q656.095 26.1121 661.402 32.0264 Q666.749 37.9003 666.749 48.0275 M659.295 45.84 Q659.214 39.7232 655.852 36.0774 Q652.53 32.4315 647.021 32.4315 Q640.783 32.4315 637.015 35.9558 Q633.289 39.4801 632.721 45.8805 L659.295 45.84 Z" fill="#000000" fill-rule="nonzero" fill-opacity="1" /><path clip-path="url(#clip690)" d="M734.359 44.2197 Q736.992 45.1109 739.463 48.0275 Q741.974 50.9442 744.486 56.0483 L752.79 72.576 L744 72.576 L736.263 57.061 Q733.265 50.9847 730.429 48.9997 Q727.634 47.0148 722.773 47.0148 L713.861 47.0148 L713.861 72.576 L705.678 72.576 L705.678 12.096 L724.15 12.096 Q734.521 12.096 739.625 16.4305 Q744.729 20.7649 744.729 29.5149 Q744.729 35.2267 742.055 38.994 Q739.422 42.7613 734.359 44.2197 M713.861 18.8205 L713.861 40.2903 L724.15 40.2903 Q730.065 40.2903 733.062 37.5762 Q736.101 34.8216 736.101 29.5149 Q736.101 24.2082 733.062 21.5346 Q730.065 18.8205 724.15 18.8205 L713.861 18.8205 Z" fill="#000000" fill-rule="nonzero" fill-opacity="1" /><path clip-path="url(#clip690)" d="M798.079 48.0275 L798.079 51.6733 L763.809 51.6733 Q764.295 59.3701 768.427 63.421 Q772.599 67.4314 780.012 67.4314 Q784.306 67.4314 788.317 66.3781 Q792.368 65.3249 796.338 63.2184 L796.338 70.267 Q792.327 71.9684 788.114 72.8596 Q783.901 73.7508 779.567 73.7508 Q768.71 73.7508 762.35 67.4314 Q756.031 61.1119 756.031 50.3365 Q756.031 39.1965 762.026 32.6746 Q768.062 26.1121 778.27 26.1121 Q787.426 26.1121 792.732 32.0264 Q798.079 37.9003 798.079 48.0275 M790.626 45.84 Q790.545 39.7232 787.182 36.0774 Q783.861 32.4315 778.351 32.4315 Q772.113 32.4315 768.346 35.9558 Q764.619 39.4801 764.052 45.8805 L790.626 45.84 Z" fill="#000000" fill-rule="nonzero" fill-opacity="1" /><path clip-path="url(#clip690)" d="M840.168 49.3643 Q840.168 41.2625 836.806 36.8065 Q833.484 32.3505 827.448 32.3505 Q821.453 32.3505 818.091 36.8065 Q814.769 41.2625 814.769 49.3643 Q814.769 57.4256 818.091 61.8816 Q821.453 66.3376 827.448 66.3376 Q833.484 66.3376 836.806 61.8816 Q840.168 57.4256 840.168 49.3643 M847.622 66.9452 Q847.622 78.5308 842.477 84.1616 Q837.333 89.8329 826.719 89.8329 Q822.79 89.8329 819.306 89.2252 Q815.822 88.6581 812.541 87.4428 L812.541 80.1917 Q815.822 81.9741 819.023 82.8248 Q822.223 83.6755 825.545 83.6755 Q832.877 83.6755 836.522 79.8271 Q840.168 76.0193 840.168 68.282 L840.168 64.5957 Q837.859 68.6061 834.254 70.5911 Q830.649 72.576 825.626 72.576 Q817.281 72.576 812.177 66.2161 Q807.072 59.8562 807.072 49.3643 Q807.072 38.832 812.177 32.472 Q817.281 26.1121 825.626 26.1121 Q830.649 26.1121 834.254 28.0971 Q837.859 30.082 840.168 34.0924 L840.168 27.2059 L847.622 27.2059 L847.622 66.9452 Z" fill="#000000" fill-rule="nonzero" fill-opacity="1" /><path clip-path="url(#clip690)" d="M889.265 34.1734 Q888.009 33.4443 886.511 33.1202 Q885.052 32.7556 883.27 32.7556 Q876.951 32.7556 873.548 36.8875 Q870.185 40.9789 870.185 48.6757 L870.185 72.576 L862.691 72.576 L862.691 27.2059 L870.185 27.2059 L870.185 34.2544 Q872.535 30.1225 876.302 28.1376 Q880.07 26.1121 885.457 26.1121 Q886.227 26.1121 887.159 26.2337 Q888.09 26.3147 889.225 26.5172 L889.265 34.1734 Z" fill="#000000" fill-rule="nonzero" fill-opacity="1" /><path clip-path="url(#clip690)" d="M934.068 48.0275 L934.068 51.6733 L899.798 51.6733 Q900.284 59.3701 904.416 63.421 Q908.588 67.4314 916.001 67.4314 Q920.295 67.4314 924.306 66.3781 Q928.356 65.3249 932.326 63.2184 L932.326 70.267 Q928.316 71.9684 924.103 72.8596 Q919.89 73.7508 915.556 73.7508 Q904.699 73.7508 898.339 67.4314 Q892.02 61.1119 892.02 50.3365 Q892.02 39.1965 898.015 32.6746 Q904.051 26.1121 914.259 26.1121 Q923.414 26.1121 928.721 32.0264 Q934.068 37.9003 934.068 48.0275 M926.615 45.84 Q926.534 39.7232 923.171 36.0774 Q919.85 32.4315 914.34 32.4315 Q908.102 32.4315 904.335 35.9558 Q900.608 39.4801 900.041 45.8805 L926.615 45.84 Z" fill="#000000" fill-rule="nonzero" fill-opacity="1" /><path clip-path="url(#clip690)" d="M975.225 28.5427 L975.225 35.5912 Q972.066 33.9709 968.663 33.1607 Q965.26 32.3505 961.614 32.3505 Q956.065 32.3505 953.27 34.0519 Q950.515 35.7533 950.515 39.156 Q950.515 41.7486 952.5 43.2475 Q954.485 44.7058 960.48 46.0426 L963.032 46.6097 Q970.972 48.3111 974.294 51.4303 Q977.656 54.509 977.656 60.0587 Q977.656 66.3781 972.633 70.0644 Q967.65 73.7508 958.9 73.7508 Q955.254 73.7508 951.285 73.0216 Q947.355 72.3329 942.98 70.9151 L942.98 63.2184 Q947.112 65.3654 951.123 66.4591 Q955.133 67.5124 959.062 67.5124 Q964.329 67.5124 967.164 65.73 Q970 63.9071 970 60.6258 Q970 57.5877 967.934 55.9673 Q965.908 54.3469 958.981 52.8481 L956.389 52.2405 Q949.462 50.7821 946.383 47.7845 Q943.304 44.7463 943.304 39.4801 Q943.304 33.0797 947.841 29.5959 Q952.378 26.1121 960.723 26.1121 Q964.855 26.1121 968.501 26.7198 Q972.147 27.3274 975.225 28.5427 Z" fill="#000000" fill-rule="nonzero" fill-opacity="1" /><path clip-path="url(#clip690)" d="M1018.45 28.5427 L1018.45 35.5912 Q1015.29 33.9709 1011.89 33.1607 Q1008.48 32.3505 1004.84 32.3505 Q999.288 32.3505 996.493 34.0519 Q993.738 35.7533 993.738 39.156 Q993.738 41.7486 995.723 43.2475 Q997.708 44.7058 1003.7 46.0426 L1006.26 46.6097 Q1014.2 48.3111 1017.52 51.4303 Q1020.88 54.509 1020.88 60.0587 Q1020.88 66.3781 1015.86 70.0644 Q1010.87 73.7508 1002.12 73.7508 Q998.478 73.7508 994.508 73.0216 Q990.578 72.3329 986.203 70.9151 L986.203 63.2184 Q990.335 65.3654 994.346 66.4591 Q998.356 67.5124 1002.29 67.5124 Q1007.55 67.5124 1010.39 65.73 Q1013.22 63.9071 1013.22 60.6258 Q1013.22 57.5877 1011.16 55.9673 Q1009.13 54.3469 1002.2 52.8481 L999.612 52.2405 Q992.685 50.7821 989.606 47.7845 Q986.527 44.7463 986.527 39.4801 Q986.527 33.0797 991.064 29.5959 Q995.601 26.1121 1003.95 26.1121 Q1008.08 26.1121 1011.72 26.7198 Q1015.37 27.3274 1018.45 28.5427 Z" fill="#000000" fill-rule="nonzero" fill-opacity="1" /><path clip-path="url(#clip690)" d="M1032.75 27.2059 L1040.2 27.2059 L1040.2 72.576 L1032.75 72.576 L1032.75 27.2059 M1032.75 9.54393 L1040.2 9.54393 L1040.2 18.9825 L1032.75 18.9825 L1032.75 9.54393 Z" fill="#000000" fill-rule="nonzero" fill-opacity="1" /><path clip-path="url(#clip690)" d="M1073.38 32.4315 Q1067.38 32.4315 1063.9 37.1306 Q1060.42 41.7891 1060.42 49.9314 Q1060.42 58.0738 1063.86 62.7728 Q1067.34 67.4314 1073.38 67.4314 Q1079.33 67.4314 1082.82 62.7323 Q1086.3 58.0333 1086.3 49.9314 Q1086.3 41.8701 1082.82 37.1711 Q1079.33 32.4315 1073.38 32.4315 M1073.38 26.1121 Q1083.1 26.1121 1088.65 32.4315 Q1094.2 38.7509 1094.2 49.9314 Q1094.2 61.0714 1088.65 67.4314 Q1083.1 73.7508 1073.38 73.7508 Q1063.62 73.7508 1058.07 67.4314 Q1052.56 61.0714 1052.56 49.9314 Q1052.56 38.7509 1058.07 32.4315 Q1063.62 26.1121 1073.38 26.1121 Z" fill="#000000" fill-rule="nonzero" fill-opacity="1" /><path clip-path="url(#clip690)" d="M1144.27 45.1919 L1144.27 72.576 L1136.82 72.576 L1136.82 45.4349 Q1136.82 38.994 1134.3 35.7938 Q1131.79 32.5936 1126.77 32.5936 Q1120.73 32.5936 1117.25 36.4419 Q1113.77 40.2903 1113.77 46.9338 L1113.77 72.576 L1106.27 72.576 L1106.27 27.2059 L1113.77 27.2059 L1113.77 34.2544 Q1116.44 30.163 1120.05 28.1376 Q1123.69 26.1121 1128.43 26.1121 Q1136.25 26.1121 1140.26 30.9732 Q1144.27 35.7938 1144.27 45.1919 Z" fill="#000000" fill-rule="nonzero" fill-opacity="1" /><path clip-path="url(#clip690)" d="M1231.12 16.7545 L1231.12 25.383 Q1226.99 21.5346 1222.29 19.6307 Q1217.63 17.7268 1212.37 17.7268 Q1202 17.7268 1196.49 24.0867 Q1190.98 30.4061 1190.98 42.3968 Q1190.98 54.3469 1196.49 60.7069 Q1202 67.0263 1212.37 67.0263 Q1217.63 67.0263 1222.29 65.1223 Q1226.99 63.2184 1231.12 59.3701 L1231.12 67.9175 Q1226.83 70.8341 1222.01 72.2924 Q1217.23 73.7508 1211.88 73.7508 Q1198.15 73.7508 1190.25 65.3654 Q1182.35 56.9395 1182.35 42.3968 Q1182.35 27.8135 1190.25 19.4281 Q1198.15 11.0023 1211.88 11.0023 Q1217.31 11.0023 1222.09 12.4606 Q1226.91 13.8784 1231.12 16.7545 Z" fill="#000000" fill-rule="nonzero" fill-opacity="1" /><path clip-path="url(#clip690)" d="M1261.02 32.4315 Q1255.02 32.4315 1251.54 37.1306 Q1248.05 41.7891 1248.05 49.9314 Q1248.05 58.0738 1251.5 62.7728 Q1254.98 67.4314 1261.02 67.4314 Q1266.97 67.4314 1270.46 62.7323 Q1273.94 58.0333 1273.94 49.9314 Q1273.94 41.8701 1270.46 37.1711 Q1266.97 32.4315 1261.02 32.4315 M1261.02 26.1121 Q1270.74 26.1121 1276.29 32.4315 Q1281.84 38.7509 1281.84 49.9314 Q1281.84 61.0714 1276.29 67.4314 Q1270.74 73.7508 1261.02 73.7508 Q1251.25 73.7508 1245.7 67.4314 Q1240.2 61.0714 1240.2 49.9314 Q1240.2 38.7509 1245.7 32.4315 Q1251.25 26.1121 1261.02 26.1121 Z" fill="#000000" fill-rule="nonzero" fill-opacity="1" /><path clip-path="url(#clip690)" d="M1333 48.0275 L1333 51.6733 L1298.73 51.6733 Q1299.22 59.3701 1303.35 63.421 Q1307.52 67.4314 1314.93 67.4314 Q1319.23 67.4314 1323.24 66.3781 Q1327.29 65.3249 1331.26 63.2184 L1331.26 70.267 Q1327.25 71.9684 1323.04 72.8596 Q1318.82 73.7508 1314.49 73.7508 Q1303.63 73.7508 1297.27 67.4314 Q1290.95 61.1119 1290.95 50.3365 Q1290.95 39.1965 1296.95 32.6746 Q1302.98 26.1121 1313.19 26.1121 Q1322.35 26.1121 1327.65 32.0264 Q1333 37.9003 1333 48.0275 M1325.55 45.84 Q1325.47 39.7232 1322.1 36.0774 Q1318.78 32.4315 1313.27 32.4315 Q1307.04 32.4315 1303.27 35.9558 Q1299.54 39.4801 1298.97 45.8805 L1325.55 45.84 Z" fill="#000000" fill-rule="nonzero" fill-opacity="1" /><path clip-path="url(#clip690)" d="M1368.2 9.54393 L1368.2 15.7418 L1361.07 15.7418 Q1357.06 15.7418 1355.48 17.3622 Q1353.94 18.9825 1353.94 23.1955 L1353.94 27.2059 L1366.22 27.2059 L1366.22 32.9987 L1353.94 32.9987 L1353.94 72.576 L1346.45 72.576 L1346.45 32.9987 L1339.32 32.9987 L1339.32 27.2059 L1346.45 27.2059 L1346.45 24.0462 Q1346.45 16.471 1349.97 13.0277 Q1353.5 9.54393 1361.16 9.54393 L1368.2 9.54393 Z" fill="#000000" fill-rule="nonzero" fill-opacity="1" /><path clip-path="url(#clip690)" d="M1397.41 9.54393 L1397.41 15.7418 L1390.28 15.7418 Q1386.27 15.7418 1384.69 17.3622 Q1383.15 18.9825 1383.15 23.1955 L1383.15 27.2059 L1395.43 27.2059 L1395.43 32.9987 L1383.15 32.9987 L1383.15 72.576 L1375.66 72.576 L1375.66 32.9987 L1368.53 32.9987 L1368.53 27.2059 L1375.66 27.2059 L1375.66 24.0462 Q1375.66 16.471 1379.18 13.0277 Q1382.71 9.54393 1390.36 9.54393 L1397.41 9.54393 Z" fill="#000000" fill-rule="nonzero" fill-opacity="1" /><path clip-path="url(#clip690)" d="M1403.65 27.2059 L1411.1 27.2059 L1411.1 72.576 L1403.65 72.576 L1403.65 27.2059 M1403.65 9.54393 L1411.1 9.54393 L1411.1 18.9825 L1403.65 18.9825 L1403.65 9.54393 Z" fill="#000000" fill-rule="nonzero" fill-opacity="1" /><path clip-path="url(#clip690)" d="M1459.35 28.9478 L1459.35 35.9153 Q1456.19 34.1734 1452.99 33.3227 Q1449.83 32.4315 1446.59 32.4315 Q1439.34 32.4315 1435.33 37.0496 Q1431.32 41.6271 1431.32 49.9314 Q1431.32 58.2358 1435.33 62.8538 Q1439.34 67.4314 1446.59 67.4314 Q1449.83 67.4314 1452.99 66.5807 Q1456.19 65.6895 1459.35 63.9476 L1459.35 70.8341 Q1456.23 72.2924 1452.87 73.0216 Q1449.55 73.7508 1445.78 73.7508 Q1435.53 73.7508 1429.49 67.3098 Q1423.46 60.8689 1423.46 49.9314 Q1423.46 38.832 1429.53 32.472 Q1435.65 26.1121 1446.26 26.1121 Q1449.71 26.1121 1452.99 26.8413 Q1456.27 27.5299 1459.35 28.9478 Z" fill="#000000" fill-rule="nonzero" fill-opacity="1" /><path clip-path="url(#clip690)" d="M1472.31 27.2059 L1479.77 27.2059 L1479.77 72.576 L1472.31 72.576 L1472.31 27.2059 M1472.31 9.54393 L1479.77 9.54393 L1479.77 18.9825 L1472.31 18.9825 L1472.31 9.54393 Z" fill="#000000" fill-rule="nonzero" fill-opacity="1" /><path clip-path="url(#clip690)" d="M1534.17 48.0275 L1534.17 51.6733 L1499.9 51.6733 Q1500.38 59.3701 1504.52 63.421 Q1508.69 67.4314 1516.1 67.4314 Q1520.4 67.4314 1524.41 66.3781 Q1528.46 65.3249 1532.43 63.2184 L1532.43 70.267 Q1528.42 71.9684 1524.2 72.8596 Q1519.99 73.7508 1515.66 73.7508 Q1504.8 73.7508 1498.44 67.4314 Q1492.12 61.1119 1492.12 50.3365 Q1492.12 39.1965 1498.12 32.6746 Q1504.15 26.1121 1514.36 26.1121 Q1523.52 26.1121 1528.82 32.0264 Q1534.17 37.9003 1534.17 48.0275 M1526.72 45.84 Q1526.63 39.7232 1523.27 36.0774 Q1519.95 32.4315 1514.44 32.4315 Q1508.2 32.4315 1504.44 35.9558 Q1500.71 39.4801 1500.14 45.8805 L1526.72 45.84 Z" fill="#000000" fill-rule="nonzero" fill-opacity="1" /><path clip-path="url(#clip690)" d="M1584.12 45.1919 L1584.12 72.576 L1576.66 72.576 L1576.66 45.4349 Q1576.66 38.994 1574.15 35.7938 Q1571.64 32.5936 1566.62 32.5936 Q1560.58 32.5936 1557.1 36.4419 Q1553.61 40.2903 1553.61 46.9338 L1553.61 72.576 L1546.12 72.576 L1546.12 27.2059 L1553.61 27.2059 L1553.61 34.2544 Q1556.29 30.163 1559.89 28.1376 Q1563.54 26.1121 1568.28 26.1121 Q1576.1 26.1121 1580.11 30.9732 Q1584.12 35.7938 1584.12 45.1919 Z" fill="#000000" fill-rule="nonzero" fill-opacity="1" /><path clip-path="url(#clip690)" d="M1606.36 14.324 L1606.36 27.2059 L1621.71 27.2059 L1621.71 32.9987 L1606.36 32.9987 L1606.36 57.6282 Q1606.36 63.1779 1607.86 64.7578 Q1609.39 66.3376 1614.05 66.3376 L1621.71 66.3376 L1621.71 72.576 L1614.05 72.576 Q1605.42 72.576 1602.14 69.3758 Q1598.86 66.1351 1598.86 57.6282 L1598.86 32.9987 L1593.39 32.9987 L1593.39 27.2059 L1598.86 27.2059 L1598.86 14.324 L1606.36 14.324 Z" fill="#000000" fill-rule="nonzero" fill-opacity="1" /><path clip-path="url(#clip690)" d="M1660.44 28.5427 L1660.44 35.5912 Q1657.28 33.9709 1653.87 33.1607 Q1650.47 32.3505 1646.82 32.3505 Q1641.28 32.3505 1638.48 34.0519 Q1635.73 35.7533 1635.73 39.156 Q1635.73 41.7486 1637.71 43.2475 Q1639.7 44.7058 1645.69 46.0426 L1648.24 46.6097 Q1656.18 48.3111 1659.5 51.4303 Q1662.87 54.509 1662.87 60.0587 Q1662.87 66.3781 1657.84 70.0644 Q1652.86 73.7508 1644.11 73.7508 Q1640.46 73.7508 1636.5 73.0216 Q1632.57 72.3329 1628.19 70.9151 L1628.19 63.2184 Q1632.32 65.3654 1636.33 66.4591 Q1640.34 67.5124 1644.27 67.5124 Q1649.54 67.5124 1652.37 65.73 Q1655.21 63.9071 1655.21 60.6258 Q1655.21 57.5877 1653.14 55.9673 Q1651.12 54.3469 1644.19 52.8481 L1641.6 52.2405 Q1634.67 50.7821 1631.59 47.7845 Q1628.51 44.7463 1628.51 39.4801 Q1628.51 33.0797 1633.05 29.5959 Q1637.59 26.1121 1645.93 26.1121 Q1650.07 26.1121 1653.71 26.7198 Q1657.36 27.3274 1660.44 28.5427 Z" fill="#000000" fill-rule="nonzero" fill-opacity="1" /><path clip-path="url(#clip690)" d="M1719.01 9.62495 Q1713.58 18.942 1710.95 28.0566 Q1708.32 37.1711 1708.32 46.5287 Q1708.32 55.8863 1710.95 65.0818 Q1713.62 74.2369 1719.01 83.5134 L1712.53 83.5134 Q1706.45 73.9938 1703.42 64.7983 Q1700.42 55.6027 1700.42 46.5287 Q1700.42 37.4952 1703.42 28.3401 Q1706.41 19.1851 1712.53 9.62495 L1719.01 9.62495 Z" fill="#000000" fill-rule="nonzero" fill-opacity="1" /><path clip-path="url(#clip690)" d="M1751.34 16.633 L1772.28 72.576 L1764.38 72.576 L1751.66 39.0345 L1736.03 72.576 L1728.13 72.576 L1748.02 29.0693 L1745.02 21.0485 Q1743.11 15.9444 1738.78 15.9444 L1734.89 15.9444 L1734.89 9.54393 L1739.63 9.62495 Q1748.79 9.74648 1751.34 16.633 Z" fill="#000000" fill-rule="nonzero" fill-opacity="1" /><path clip-path="url(#clip690)" d="M1809.91 34.9026 L1861.85 34.9026 L1861.85 41.7081 L1809.91 41.7081 L1809.91 34.9026 M1809.91 51.4303 L1861.85 51.4303 L1861.85 58.3168 L1809.91 58.3168 L1809.91 51.4303 Z" fill="#000000" fill-rule="nonzero" fill-opacity="1" /><path clip-path="url(#clip690)" d="M1907.3 65.6895 L1920.67 65.6895 L1920.67 19.5497 L1906.12 22.4663 L1906.12 15.0127 L1920.58 12.096 L1928.77 12.096 L1928.77 65.6895 L1942.14 65.6895 L1942.14 72.576 L1907.3 72.576 L1907.3 65.6895 Z" fill="#000000" fill-rule="nonzero" fill-opacity="1" /><path clip-path="url(#clip690)" d="M1976.16 17.4837 Q1969.84 17.4837 1966.64 23.7221 Q1963.48 29.92 1963.48 42.3968 Q1963.48 54.833 1966.64 61.0714 Q1969.84 67.2693 1976.16 67.2693 Q1982.52 67.2693 1985.68 61.0714 Q1988.88 54.833 1988.88 42.3968 Q1988.88 29.92 1985.68 23.7221 Q1982.52 17.4837 1976.16 17.4837 M1976.16 11.0023 Q1986.33 11.0023 1991.68 19.0636 Q1997.07 27.0843 1997.07 42.3968 Q1997.07 57.6687 1991.68 65.73 Q1986.33 73.7508 1976.16 73.7508 Q1966 73.7508 1960.61 65.73 Q1955.26 57.6687 1955.26 42.3968 Q1955.26 27.0843 1960.61 19.0636 Q1966 11.0023 1976.16 11.0023 Z" fill="#000000" fill-rule="nonzero" fill-opacity="1" /><path clip-path="url(#clip690)" d="M2028.95 17.4837 Q2022.63 17.4837 2019.43 23.7221 Q2016.27 29.92 2016.27 42.3968 Q2016.27 54.833 2019.43 61.0714 Q2022.63 67.2693 2028.95 67.2693 Q2035.31 67.2693 2038.47 61.0714 Q2041.67 54.833 2041.67 42.3968 Q2041.67 29.92 2038.47 23.7221 Q2035.31 17.4837 2028.95 17.4837 M2028.95 11.0023 Q2039.11 11.0023 2044.46 19.0636 Q2049.85 27.0843 2049.85 42.3968 Q2049.85 57.6687 2044.46 65.73 Q2039.11 73.7508 2028.95 73.7508 Q2018.78 73.7508 2013.39 65.73 Q2008.04 57.6687 2008.04 42.3968 Q2008.04 27.0843 2013.39 19.0636 Q2018.78 11.0023 2028.95 11.0023 Z" fill="#000000" fill-rule="nonzero" fill-opacity="1" /><path clip-path="url(#clip690)" d="M2081.73 17.4837 Q2075.41 17.4837 2072.21 23.7221 Q2069.05 29.92 2069.05 42.3968 Q2069.05 54.833 2072.21 61.0714 Q2075.41 67.2693 2081.73 67.2693 Q2088.09 67.2693 2091.25 61.0714 Q2094.45 54.833 2094.45 42.3968 Q2094.45 29.92 2091.25 23.7221 Q2088.09 17.4837 2081.73 17.4837 M2081.73 11.0023 Q2091.9 11.0023 2097.24 19.0636 Q2102.63 27.0843 2102.63 42.3968 Q2102.63 57.6687 2097.24 65.73 Q2091.9 73.7508 2081.73 73.7508 Q2071.56 73.7508 2066.17 65.73 Q2060.83 57.6687 2060.83 42.3968 Q2060.83 27.0843 2066.17 19.0636 Q2071.56 11.0023 2081.73 11.0023 Z" fill="#000000" fill-rule="nonzero" fill-opacity="1" /><path clip-path="url(#clip690)" d="M2114.79 9.62495 L2121.27 9.62495 Q2127.34 19.1851 2130.34 28.3401 Q2133.38 37.4952 2133.38 46.5287 Q2133.38 55.6027 2130.34 64.7983 Q2127.34 73.9938 2121.27 83.5134 L2114.79 83.5134 Q2120.17 74.2369 2122.81 65.0818 Q2125.48 55.8863 2125.48 46.5287 Q2125.48 37.1711 2122.81 28.0566 Q2120.17 18.942 2114.79 9.62495 Z" fill="#000000" fill-rule="nonzero" fill-opacity="1" /><polyline clip-path="url(#clip692)" style="stroke:#009af9; stroke-linecap:round; stroke-linejoin:round; stroke-width:4; stroke-opacity:1; fill:none" points="283.151,2714.68 283.151,-1172.13 "/>
<polyline clip-path="url(#clip692)" style="stroke:#009af9; stroke-linecap:round; stroke-linejoin:round; stroke-width:4; stroke-opacity:1; fill:none" points="484.083,2714.68 484.083,-1172.13 "/>
<polyline clip-path="url(#clip692)" style="stroke:#009af9; stroke-linecap:round; stroke-linejoin:round; stroke-width:4; stroke-opacity:1; fill:none" points="785.482,2714.68 785.482,-1172.13 "/>
<polyline clip-path="url(#clip692)" style="stroke:#009af9; stroke-linecap:round; stroke-linejoin:round; stroke-width:4; stroke-opacity:1; fill:none" points="1187.35,2714.68 1187.35,-1172.13 "/>
<polyline clip-path="url(#clip692)" style="stroke:#009af9; stroke-linecap:round; stroke-linejoin:round; stroke-width:4; stroke-opacity:1; fill:none" points="1689.68,2714.68 1689.68,-1172.13 "/>
<polyline clip-path="url(#clip692)" style="stroke:#009af9; stroke-linecap:round; stroke-linejoin:round; stroke-width:4; stroke-opacity:1; fill:none" points="2292.48,2714.68 2292.48,-1172.13 "/>
<circle clip-path="url(#clip692)" cx="283.151" cy="365.117" r="14.4" fill="#e26f46" fill-rule="evenodd" fill-opacity="1" stroke="#000000" stroke-opacity="1" stroke-width="3.2"/>
<polyline clip-path="url(#clip692)" style="stroke:#3da44d; stroke-linecap:round; stroke-linejoin:round; stroke-width:4; stroke-opacity:1; fill:none" points="283.151,363.379 383.617,898.274 484.083,1137.05 "/>
<circle clip-path="url(#clip692)" cx="283.151" cy="363.379" r="14.4" fill="#3da44d" fill-rule="evenodd" fill-opacity="1" stroke="#000000" stroke-opacity="1" stroke-width="3.2"/>
<circle clip-path="url(#clip692)" cx="383.617" cy="898.274" r="14.4" fill="#3da44d" fill-rule="evenodd" fill-opacity="1" stroke="#000000" stroke-opacity="1" stroke-width="3.2"/>
<circle clip-path="url(#clip692)" cx="484.083" cy="1137.05" r="14.4" fill="#3da44d" fill-rule="evenodd" fill-opacity="1" stroke="#000000" stroke-opacity="1" stroke-width="3.2"/>
<polyline clip-path="url(#clip692)" style="stroke:#c271d2; stroke-linecap:round; stroke-linejoin:round; stroke-width:4; stroke-opacity:1; fill:none" points="283.151,410.9 383.617,899.796 484.083,1141.96 584.55,496.844 685.016,627.712 785.482,416.426 "/>
<circle clip-path="url(#clip692)" cx="283.151" cy="410.9" r="14.4" fill="#c271d2" fill-rule="evenodd" fill-opacity="1" stroke="#000000" stroke-opacity="1" stroke-width="3.2"/>
<circle clip-path="url(#clip692)" cx="383.617" cy="899.796" r="14.4" fill="#c271d2" fill-rule="evenodd" fill-opacity="1" stroke="#000000" stroke-opacity="1" stroke-width="3.2"/>
<circle clip-path="url(#clip692)" cx="484.083" cy="1141.96" r="14.4" fill="#c271d2" fill-rule="evenodd" fill-opacity="1" stroke="#000000" stroke-opacity="1" stroke-width="3.2"/>
<circle clip-path="url(#clip692)" cx="584.55" cy="496.844" r="14.4" fill="#c271d2" fill-rule="evenodd" fill-opacity="1" stroke="#000000" stroke-opacity="1" stroke-width="3.2"/>
<circle clip-path="url(#clip692)" cx="685.016" cy="627.712" r="14.4" fill="#c271d2" fill-rule="evenodd" fill-opacity="1" stroke="#000000" stroke-opacity="1" stroke-width="3.2"/>
<circle clip-path="url(#clip692)" cx="785.482" cy="416.426" r="14.4" fill="#c271d2" fill-rule="evenodd" fill-opacity="1" stroke="#000000" stroke-opacity="1" stroke-width="3.2"/>
<polyline clip-path="url(#clip692)" style="stroke:#ac8d18; stroke-linecap:round; stroke-linejoin:round; stroke-width:4; stroke-opacity:1; fill:none" points="283.151,407.372 383.617,875.861 484.083,1077 584.55,491.388 685.016,623.107 785.482,407.259 885.948,891.403 986.415,1016.21 1086.88,923.123 1187.35,1162.64 "/>
<circle clip-path="url(#clip692)" cx="283.151" cy="407.372" r="14.4" fill="#ac8d18" fill-rule="evenodd" fill-opacity="1" stroke="#000000" stroke-opacity="1" stroke-width="3.2"/>
<circle clip-path="url(#clip692)" cx="383.617" cy="875.861" r="14.4" fill="#ac8d18" fill-rule="evenodd" fill-opacity="1" stroke="#000000" stroke-opacity="1" stroke-width="3.2"/>
<circle clip-path="url(#clip692)" cx="484.083" cy="1077" r="14.4" fill="#ac8d18" fill-rule="evenodd" fill-opacity="1" stroke="#000000" stroke-opacity="1" stroke-width="3.2"/>
<circle clip-path="url(#clip692)" cx="584.55" cy="491.388" r="14.4" fill="#ac8d18" fill-rule="evenodd" fill-opacity="1" stroke="#000000" stroke-opacity="1" stroke-width="3.2"/>
<circle clip-path="url(#clip692)" cx="685.016" cy="623.107" r="14.4" fill="#ac8d18" fill-rule="evenodd" fill-opacity="1" stroke="#000000" stroke-opacity="1" stroke-width="3.2"/>
<circle clip-path="url(#clip692)" cx="785.482" cy="407.259" r="14.4" fill="#ac8d18" fill-rule="evenodd" fill-opacity="1" stroke="#000000" stroke-opacity="1" stroke-width="3.2"/>
<circle clip-path="url(#clip692)" cx="885.948" cy="891.403" r="14.4" fill="#ac8d18" fill-rule="evenodd" fill-opacity="1" stroke="#000000" stroke-opacity="1" stroke-width="3.2"/>
<circle clip-path="url(#clip692)" cx="986.415" cy="1016.21" r="14.4" fill="#ac8d18" fill-rule="evenodd" fill-opacity="1" stroke="#000000" stroke-opacity="1" stroke-width="3.2"/>
<circle clip-path="url(#clip692)" cx="1086.88" cy="923.123" r="14.4" fill="#ac8d18" fill-rule="evenodd" fill-opacity="1" stroke="#000000" stroke-opacity="1" stroke-width="3.2"/>
<circle clip-path="url(#clip692)" cx="1187.35" cy="1162.64" r="14.4" fill="#ac8d18" fill-rule="evenodd" fill-opacity="1" stroke="#000000" stroke-opacity="1" stroke-width="3.2"/>
<polyline clip-path="url(#clip692)" style="stroke:#00a9ad; stroke-linecap:round; stroke-linejoin:round; stroke-width:4; stroke-opacity:1; fill:none" points="283.151,473.926 383.617,878.995 484.083,1083.66 584.55,591.682 685.016,664.887 785.482,528.783 885.948,897.887 986.415,1027.51 1086.88,933.802 1187.35,1179.17 1287.81,573.782 1388.28,638.205 1488.75,649.633 1589.21,601.32 1689.68,418.94 "/>
<circle clip-path="url(#clip692)" cx="283.151" cy="473.926" r="14.4" fill="#00a9ad" fill-rule="evenodd" fill-opacity="1" stroke="#000000" stroke-opacity="1" stroke-width="3.2"/>
<circle clip-path="url(#clip692)" cx="383.617" cy="878.995" r="14.4" fill="#00a9ad" fill-rule="evenodd" fill-opacity="1" stroke="#000000" stroke-opacity="1" stroke-width="3.2"/>
<circle clip-path="url(#clip692)" cx="484.083" cy="1083.66" r="14.4" fill="#00a9ad" fill-rule="evenodd" fill-opacity="1" stroke="#000000" stroke-opacity="1" stroke-width="3.2"/>
<circle clip-path="url(#clip692)" cx="584.55" cy="591.682" r="14.4" fill="#00a9ad" fill-rule="evenodd" fill-opacity="1" stroke="#000000" stroke-opacity="1" stroke-width="3.2"/>
<circle clip-path="url(#clip692)" cx="685.016" cy="664.887" r="14.4" fill="#00a9ad" fill-rule="evenodd" fill-opacity="1" stroke="#000000" stroke-opacity="1" stroke-width="3.2"/>
<circle clip-path="url(#clip692)" cx="785.482" cy="528.783" r="14.4" fill="#00a9ad" fill-rule="evenodd" fill-opacity="1" stroke="#000000" stroke-opacity="1" stroke-width="3.2"/>
<circle clip-path="url(#clip692)" cx="885.948" cy="897.887" r="14.4" fill="#00a9ad" fill-rule="evenodd" fill-opacity="1" stroke="#000000" stroke-opacity="1" stroke-width="3.2"/>
<circle clip-path="url(#clip692)" cx="986.415" cy="1027.51" r="14.4" fill="#00a9ad" fill-rule="evenodd" fill-opacity="1" stroke="#000000" stroke-opacity="1" stroke-width="3.2"/>
<circle clip-path="url(#clip692)" cx="1086.88" cy="933.802" r="14.4" fill="#00a9ad" fill-rule="evenodd" fill-opacity="1" stroke="#000000" stroke-opacity="1" stroke-width="3.2"/>
<circle clip-path="url(#clip692)" cx="1187.35" cy="1179.17" r="14.4" fill="#00a9ad" fill-rule="evenodd" fill-opacity="1" stroke="#000000" stroke-opacity="1" stroke-width="3.2"/>
<circle clip-path="url(#clip692)" cx="1287.81" cy="573.782" r="14.4" fill="#00a9ad" fill-rule="evenodd" fill-opacity="1" stroke="#000000" stroke-opacity="1" stroke-width="3.2"/>
<circle clip-path="url(#clip692)" cx="1388.28" cy="638.205" r="14.4" fill="#00a9ad" fill-rule="evenodd" fill-opacity="1" stroke="#000000" stroke-opacity="1" stroke-width="3.2"/>
<circle clip-path="url(#clip692)" cx="1488.75" cy="649.633" r="14.4" fill="#00a9ad" fill-rule="evenodd" fill-opacity="1" stroke="#000000" stroke-opacity="1" stroke-width="3.2"/>
<circle clip-path="url(#clip692)" cx="1589.21" cy="601.32" r="14.4" fill="#00a9ad" fill-rule="evenodd" fill-opacity="1" stroke="#000000" stroke-opacity="1" stroke-width="3.2"/>
<circle clip-path="url(#clip692)" cx="1689.68" cy="418.94" r="14.4" fill="#00a9ad" fill-rule="evenodd" fill-opacity="1" stroke="#000000" stroke-opacity="1" stroke-width="3.2"/>
<polyline clip-path="url(#clip692)" style="stroke:#ed5d92; stroke-linecap:round; stroke-linejoin:round; stroke-width:4; stroke-opacity:1; fill:none" points="283.151,472.276 383.617,847.707 484.083,1004.95 584.55,588.301 685.016,659.73 785.482,521.631 885.948,838.169 986.415,918.843 1086.88,876.63 1187.35,1004.31 1287.81,569.488 1388.28,627.366 1488.75,637.664 1589.21,588.701 1689.68,400.802 1790.14,846.11 1890.61,949.677 1991.08,842.152 2091.54,876.797 2192.01,935.05 2292.48,1070.84 "/>
<circle clip-path="url(#clip692)" cx="283.151" cy="472.276" r="14.4" fill="#ed5d92" fill-rule="evenodd" fill-opacity="1" stroke="#000000" stroke-opacity="1" stroke-width="3.2"/>
<circle clip-path="url(#clip692)" cx="383.617" cy="847.707" r="14.4" fill="#ed5d92" fill-rule="evenodd" fill-opacity="1" stroke="#000000" stroke-opacity="1" stroke-width="3.2"/>
<circle clip-path="url(#clip692)" cx="484.083" cy="1004.95" r="14.4" fill="#ed5d92" fill-rule="evenodd" fill-opacity="1" stroke="#000000" stroke-opacity="1" stroke-width="3.2"/>
<circle clip-path="url(#clip692)" cx="584.55" cy="588.301" r="14.4" fill="#ed5d92" fill-rule="evenodd" fill-opacity="1" stroke="#000000" stroke-opacity="1" stroke-width="3.2"/>
<circle clip-path="url(#clip692)" cx="685.016" cy="659.73" r="14.4" fill="#ed5d92" fill-rule="evenodd" fill-opacity="1" stroke="#000000" stroke-opacity="1" stroke-width="3.2"/>
<circle clip-path="url(#clip692)" cx="785.482" cy="521.631" r="14.4" fill="#ed5d92" fill-rule="evenodd" fill-opacity="1" stroke="#000000" stroke-opacity="1" stroke-width="3.2"/>
<circle clip-path="url(#clip692)" cx="885.948" cy="838.169" r="14.4" fill="#ed5d92" fill-rule="evenodd" fill-opacity="1" stroke="#000000" stroke-opacity="1" stroke-width="3.2"/>
<circle clip-path="url(#clip692)" cx="986.415" cy="918.843" r="14.4" fill="#ed5d92" fill-rule="evenodd" fill-opacity="1" stroke="#000000" stroke-opacity="1" stroke-width="3.2"/>
<circle clip-path="url(#clip692)" cx="1086.88" cy="876.63" r="14.4" fill="#ed5d92" fill-rule="evenodd" fill-opacity="1" stroke="#000000" stroke-opacity="1" stroke-width="3.2"/>
<circle clip-path="url(#clip692)" cx="1187.35" cy="1004.31" r="14.4" fill="#ed5d92" fill-rule="evenodd" fill-opacity="1" stroke="#000000" stroke-opacity="1" stroke-width="3.2"/>
<circle clip-path="url(#clip692)" cx="1287.81" cy="569.488" r="14.4" fill="#ed5d92" fill-rule="evenodd" fill-opacity="1" stroke="#000000" stroke-opacity="1" stroke-width="3.2"/>
<circle clip-path="url(#clip692)" cx="1388.28" cy="627.366" r="14.4" fill="#ed5d92" fill-rule="evenodd" fill-opacity="1" stroke="#000000" stroke-opacity="1" stroke-width="3.2"/>
<circle clip-path="url(#clip692)" cx="1488.75" cy="637.664" r="14.4" fill="#ed5d92" fill-rule="evenodd" fill-opacity="1" stroke="#000000" stroke-opacity="1" stroke-width="3.2"/>
<circle clip-path="url(#clip692)" cx="1589.21" cy="588.701" r="14.4" fill="#ed5d92" fill-rule="evenodd" fill-opacity="1" stroke="#000000" stroke-opacity="1" stroke-width="3.2"/>
<circle clip-path="url(#clip692)" cx="1689.68" cy="400.802" r="14.4" fill="#ed5d92" fill-rule="evenodd" fill-opacity="1" stroke="#000000" stroke-opacity="1" stroke-width="3.2"/>
<circle clip-path="url(#clip692)" cx="1790.14" cy="846.11" r="14.4" fill="#ed5d92" fill-rule="evenodd" fill-opacity="1" stroke="#000000" stroke-opacity="1" stroke-width="3.2"/>
<circle clip-path="url(#clip692)" cx="1890.61" cy="949.677" r="14.4" fill="#ed5d92" fill-rule="evenodd" fill-opacity="1" stroke="#000000" stroke-opacity="1" stroke-width="3.2"/>
<circle clip-path="url(#clip692)" cx="1991.08" cy="842.152" r="14.4" fill="#ed5d92" fill-rule="evenodd" fill-opacity="1" stroke="#000000" stroke-opacity="1" stroke-width="3.2"/>
<circle clip-path="url(#clip692)" cx="2091.54" cy="876.797" r="14.4" fill="#ed5d92" fill-rule="evenodd" fill-opacity="1" stroke="#000000" stroke-opacity="1" stroke-width="3.2"/>
<circle clip-path="url(#clip692)" cx="2192.01" cy="935.05" r="14.4" fill="#ed5d92" fill-rule="evenodd" fill-opacity="1" stroke="#000000" stroke-opacity="1" stroke-width="3.2"/>
<circle clip-path="url(#clip692)" cx="2292.48" cy="1070.84" r="14.4" fill="#ed5d92" fill-rule="evenodd" fill-opacity="1" stroke="#000000" stroke-opacity="1" stroke-width="3.2"/>
<path clip-path="url(#clip690)" d="M1975.76 529.539 L2281.76 529.539 L2281.76 166.659 L1975.76 166.659  Z" fill="#ffffff" fill-rule="evenodd" fill-opacity="1"/>
<polyline clip-path="url(#clip690)" style="stroke:#000000; stroke-linecap:round; stroke-linejoin:round; stroke-width:4; stroke-opacity:1; fill:none" points="1975.76,529.539 2281.76,529.539 2281.76,166.659 1975.76,166.659 1975.76,529.539 "/>
<polyline clip-path="url(#clip690)" style="stroke:#e26f46; stroke-linecap:round; stroke-linejoin:round; stroke-width:4; stroke-opacity:1; fill:none" points="1999.43,218.499 2141.42,218.499 "/>
<circle clip-path="url(#clip690)" cx="2070.42" cy="218.499" r="19.7212" fill="#e26f46" fill-rule="evenodd" fill-opacity="1" stroke="#000000" stroke-opacity="1" stroke-width="4.55111"/>
<path clip-path="url(#clip690)" d="M2169.37 231.89 L2169.37 245.64 L2165.09 245.64 L2165.09 209.853 L2169.37 209.853 L2169.37 213.788 Q2170.71 211.474 2172.75 210.362 Q2174.81 209.228 2177.65 209.228 Q2182.38 209.228 2185.32 212.978 Q2188.28 216.728 2188.28 222.839 Q2188.28 228.95 2185.32 232.7 Q2182.38 236.45 2177.65 236.45 Q2174.81 236.45 2172.75 235.339 Q2170.71 234.205 2169.37 231.89 M2183.86 222.839 Q2183.86 218.14 2181.91 215.478 Q2179.99 212.793 2176.61 212.793 Q2173.23 212.793 2171.29 215.478 Q2169.37 218.14 2169.37 222.839 Q2169.37 227.538 2171.29 230.223 Q2173.23 232.885 2176.61 232.885 Q2179.99 232.885 2181.91 230.223 Q2183.86 227.538 2183.86 222.839 Z" fill="#000000" fill-rule="nonzero" fill-opacity="1" /><path clip-path="url(#clip690)" d="M2195.9 214.251 L2225.57 214.251 L2225.57 218.14 L2195.9 218.14 L2195.9 214.251 M2195.9 223.696 L2225.57 223.696 L2225.57 227.631 L2195.9 227.631 L2195.9 223.696 Z" fill="#000000" fill-rule="nonzero" fill-opacity="1" /><path clip-path="url(#clip690)" d="M2245.66 204.298 Q2242.05 204.298 2240.22 207.862 Q2238.42 211.404 2238.42 218.534 Q2238.42 225.64 2240.22 229.205 Q2242.05 232.747 2245.66 232.747 Q2249.3 232.747 2251.1 229.205 Q2252.93 225.64 2252.93 218.534 Q2252.93 211.404 2251.1 207.862 Q2249.3 204.298 2245.66 204.298 M2245.66 200.594 Q2251.47 200.594 2254.53 205.2 Q2257.61 209.784 2257.61 218.534 Q2257.61 227.26 2254.53 231.867 Q2251.47 236.45 2245.66 236.45 Q2239.85 236.45 2236.78 231.867 Q2233.72 227.26 2233.72 218.534 Q2233.72 209.784 2236.78 205.2 Q2239.85 200.594 2245.66 200.594 Z" fill="#000000" fill-rule="nonzero" fill-opacity="1" /><polyline clip-path="url(#clip690)" style="stroke:#3da44d; stroke-linecap:round; stroke-linejoin:round; stroke-width:4; stroke-opacity:1; fill:none" points="1999.43,270.339 2141.42,270.339 "/>
<circle clip-path="url(#clip690)" cx="2070.42" cy="270.339" r="19.7212" fill="#3da44d" fill-rule="evenodd" fill-opacity="1" stroke="#000000" stroke-opacity="1" stroke-width="4.55111"/>
<path clip-path="url(#clip690)" d="M2169.37 283.73 L2169.37 297.48 L2165.09 297.48 L2165.09 261.693 L2169.37 261.693 L2169.37 265.628 Q2170.71 263.314 2172.75 262.202 Q2174.81 261.068 2177.65 261.068 Q2182.38 261.068 2185.32 264.818 Q2188.28 268.568 2188.28 274.679 Q2188.28 280.79 2185.32 284.54 Q2182.38 288.29 2177.65 288.29 Q2174.81 288.29 2172.75 287.179 Q2170.71 286.045 2169.37 283.73 M2183.86 274.679 Q2183.86 269.98 2181.91 267.318 Q2179.99 264.633 2176.61 264.633 Q2173.23 264.633 2171.29 267.318 Q2169.37 269.98 2169.37 274.679 Q2169.37 279.378 2171.29 282.063 Q2173.23 284.725 2176.61 284.725 Q2179.99 284.725 2181.91 282.063 Q2183.86 279.378 2183.86 274.679 Z" fill="#000000" fill-rule="nonzero" fill-opacity="1" /><path clip-path="url(#clip690)" d="M2195.9 266.091 L2225.57 266.091 L2225.57 269.98 L2195.9 269.98 L2195.9 266.091 M2195.9 275.536 L2225.57 275.536 L2225.57 279.471 L2195.9 279.471 L2195.9 275.536 Z" fill="#000000" fill-rule="nonzero" fill-opacity="1" /><path clip-path="url(#clip690)" d="M2236.47 283.684 L2244.11 283.684 L2244.11 257.318 L2235.8 258.985 L2235.8 254.726 L2244.07 253.059 L2248.74 253.059 L2248.74 283.684 L2256.38 283.684 L2256.38 287.619 L2236.47 287.619 L2236.47 283.684 Z" fill="#000000" fill-rule="nonzero" fill-opacity="1" /><polyline clip-path="url(#clip690)" style="stroke:#c271d2; stroke-linecap:round; stroke-linejoin:round; stroke-width:4; stroke-opacity:1; fill:none" points="1999.43,322.179 2141.42,322.179 "/>
<circle clip-path="url(#clip690)" cx="2070.42" cy="322.179" r="19.7212" fill="#c271d2" fill-rule="evenodd" fill-opacity="1" stroke="#000000" stroke-opacity="1" stroke-width="4.55111"/>
<path clip-path="url(#clip690)" d="M2169.37 335.57 L2169.37 349.32 L2165.09 349.32 L2165.09 313.533 L2169.37 313.533 L2169.37 317.468 Q2170.71 315.154 2172.75 314.042 Q2174.81 312.908 2177.65 312.908 Q2182.38 312.908 2185.32 316.658 Q2188.28 320.408 2188.28 326.519 Q2188.28 332.63 2185.32 336.38 Q2182.38 340.13 2177.65 340.13 Q2174.81 340.13 2172.75 339.019 Q2170.71 337.885 2169.37 335.57 M2183.86 326.519 Q2183.86 321.82 2181.91 319.158 Q2179.99 316.473 2176.61 316.473 Q2173.23 316.473 2171.29 319.158 Q2169.37 321.82 2169.37 326.519 Q2169.37 331.218 2171.29 333.903 Q2173.23 336.565 2176.61 336.565 Q2179.99 336.565 2181.91 333.903 Q2183.86 331.218 2183.86 326.519 Z" fill="#000000" fill-rule="nonzero" fill-opacity="1" /><path clip-path="url(#clip690)" d="M2195.9 317.931 L2225.57 317.931 L2225.57 321.82 L2195.9 321.82 L2195.9 317.931 M2195.9 327.376 L2225.57 327.376 L2225.57 331.311 L2195.9 331.311 L2195.9 327.376 Z" fill="#000000" fill-rule="nonzero" fill-opacity="1" /><path clip-path="url(#clip690)" d="M2239.69 335.524 L2256.01 335.524 L2256.01 339.459 L2234.07 339.459 L2234.07 335.524 Q2236.73 332.769 2241.31 328.14 Q2245.92 323.487 2247.1 322.144 Q2249.34 319.621 2250.22 317.885 Q2251.13 316.126 2251.13 314.436 Q2251.13 311.681 2249.18 309.945 Q2247.26 308.209 2244.16 308.209 Q2241.96 308.209 2239.51 308.973 Q2237.08 309.737 2234.3 311.288 L2234.3 306.566 Q2237.12 305.431 2239.58 304.853 Q2242.03 304.274 2244.07 304.274 Q2249.44 304.274 2252.63 306.959 Q2255.83 309.644 2255.83 314.135 Q2255.83 316.265 2255.02 318.186 Q2254.23 320.084 2252.12 322.677 Q2251.54 323.348 2248.44 326.566 Q2245.34 329.76 2239.69 335.524 Z" fill="#000000" fill-rule="nonzero" fill-opacity="1" /><polyline clip-path="url(#clip690)" style="stroke:#ac8d18; stroke-linecap:round; stroke-linejoin:round; stroke-width:4; stroke-opacity:1; fill:none" points="1999.43,374.019 2141.42,374.019 "/>
<circle clip-path="url(#clip690)" cx="2070.42" cy="374.019" r="19.7212" fill="#ac8d18" fill-rule="evenodd" fill-opacity="1" stroke="#000000" stroke-opacity="1" stroke-width="4.55111"/>
<path clip-path="url(#clip690)" d="M2169.37 387.41 L2169.37 401.16 L2165.09 401.16 L2165.09 365.373 L2169.37 365.373 L2169.37 369.308 Q2170.71 366.994 2172.75 365.882 Q2174.81 364.748 2177.65 364.748 Q2182.38 364.748 2185.32 368.498 Q2188.28 372.248 2188.28 378.359 Q2188.28 384.47 2185.32 388.22 Q2182.38 391.97 2177.65 391.97 Q2174.81 391.97 2172.75 390.859 Q2170.71 389.725 2169.37 387.41 M2183.86 378.359 Q2183.86 373.66 2181.91 370.998 Q2179.99 368.313 2176.61 368.313 Q2173.23 368.313 2171.29 370.998 Q2169.37 373.66 2169.37 378.359 Q2169.37 383.058 2171.29 385.743 Q2173.23 388.405 2176.61 388.405 Q2179.99 388.405 2181.91 385.743 Q2183.86 383.058 2183.86 378.359 Z" fill="#000000" fill-rule="nonzero" fill-opacity="1" /><path clip-path="url(#clip690)" d="M2195.9 369.771 L2225.57 369.771 L2225.57 373.66 L2195.9 373.66 L2195.9 369.771 M2195.9 379.216 L2225.57 379.216 L2225.57 383.151 L2195.9 383.151 L2195.9 379.216 Z" fill="#000000" fill-rule="nonzero" fill-opacity="1" /><path clip-path="url(#clip690)" d="M2249.83 372.665 Q2253.19 373.382 2255.06 375.651 Q2256.96 377.919 2256.96 381.253 Q2256.96 386.368 2253.44 389.169 Q2249.92 391.97 2243.44 391.97 Q2241.27 391.97 2238.95 391.53 Q2236.66 391.114 2234.21 390.257 L2234.21 385.743 Q2236.15 386.878 2238.46 387.456 Q2240.78 388.035 2243.3 388.035 Q2247.7 388.035 2249.99 386.299 Q2252.31 384.563 2252.31 381.253 Q2252.31 378.197 2250.15 376.484 Q2248.02 374.748 2244.21 374.748 L2240.18 374.748 L2240.18 370.906 L2244.39 370.906 Q2247.84 370.906 2249.67 369.54 Q2251.5 368.151 2251.5 365.558 Q2251.5 362.896 2249.6 361.484 Q2247.72 360.049 2244.21 360.049 Q2242.28 360.049 2240.09 360.466 Q2237.89 360.882 2235.25 361.762 L2235.25 357.595 Q2237.91 356.855 2240.22 356.484 Q2242.56 356.114 2244.62 356.114 Q2249.95 356.114 2253.05 358.545 Q2256.15 360.952 2256.15 365.072 Q2256.15 367.943 2254.51 369.933 Q2252.86 371.901 2249.83 372.665 Z" fill="#000000" fill-rule="nonzero" fill-opacity="1" /><polyline clip-path="url(#clip690)" style="stroke:#00a9ad; stroke-linecap:round; stroke-linejoin:round; stroke-width:4; stroke-opacity:1; fill:none" points="1999.43,425.859 2141.42,425.859 "/>
<circle clip-path="url(#clip690)" cx="2070.42" cy="425.859" r="19.7212" fill="#00a9ad" fill-rule="evenodd" fill-opacity="1" stroke="#000000" stroke-opacity="1" stroke-width="4.55111"/>
<path clip-path="url(#clip690)" d="M2169.37 439.25 L2169.37 453 L2165.09 453 L2165.09 417.213 L2169.37 417.213 L2169.37 421.148 Q2170.71 418.834 2172.75 417.722 Q2174.81 416.588 2177.65 416.588 Q2182.38 416.588 2185.32 420.338 Q2188.28 424.088 2188.28 430.199 Q2188.28 436.31 2185.32 440.06 Q2182.38 443.81 2177.65 443.81 Q2174.81 443.81 2172.75 442.699 Q2170.71 441.565 2169.37 439.25 M2183.86 430.199 Q2183.86 425.5 2181.91 422.838 Q2179.99 420.153 2176.61 420.153 Q2173.23 420.153 2171.29 422.838 Q2169.37 425.5 2169.37 430.199 Q2169.37 434.898 2171.29 437.583 Q2173.23 440.245 2176.61 440.245 Q2179.99 440.245 2181.91 437.583 Q2183.86 434.898 2183.86 430.199 Z" fill="#000000" fill-rule="nonzero" fill-opacity="1" /><path clip-path="url(#clip690)" d="M2195.9 421.611 L2225.57 421.611 L2225.57 425.5 L2195.9 425.5 L2195.9 421.611 M2195.9 431.056 L2225.57 431.056 L2225.57 434.991 L2195.9 434.991 L2195.9 431.056 Z" fill="#000000" fill-rule="nonzero" fill-opacity="1" /><path clip-path="url(#clip690)" d="M2248.51 412.653 L2236.71 431.102 L2248.51 431.102 L2248.51 412.653 M2247.28 408.579 L2253.16 408.579 L2253.16 431.102 L2258.09 431.102 L2258.09 434.991 L2253.16 434.991 L2253.16 443.139 L2248.51 443.139 L2248.51 434.991 L2232.91 434.991 L2232.91 430.477 L2247.28 408.579 Z" fill="#000000" fill-rule="nonzero" fill-opacity="1" /><polyline clip-path="url(#clip690)" style="stroke:#ed5d92; stroke-linecap:round; stroke-linejoin:round; stroke-width:4; stroke-opacity:1; fill:none" points="1999.43,477.699 2141.42,477.699 "/>
<circle clip-path="url(#clip690)" cx="2070.42" cy="477.699" r="19.7212" fill="#ed5d92" fill-rule="evenodd" fill-opacity="1" stroke="#000000" stroke-opacity="1" stroke-width="4.55111"/>
<path clip-path="url(#clip690)" d="M2169.37 491.09 L2169.37 504.84 L2165.09 504.84 L2165.09 469.053 L2169.37 469.053 L2169.37 472.988 Q2170.71 470.674 2172.75 469.562 Q2174.81 468.428 2177.65 468.428 Q2182.38 468.428 2185.32 472.178 Q2188.28 475.928 2188.28 482.039 Q2188.28 488.15 2185.32 491.9 Q2182.38 495.65 2177.65 495.65 Q2174.81 495.65 2172.75 494.539 Q2170.71 493.405 2169.37 491.09 M2183.86 482.039 Q2183.86 477.34 2181.91 474.678 Q2179.99 471.993 2176.61 471.993 Q2173.23 471.993 2171.29 474.678 Q2169.37 477.34 2169.37 482.039 Q2169.37 486.738 2171.29 489.423 Q2173.23 492.085 2176.61 492.085 Q2179.99 492.085 2181.91 489.423 Q2183.86 486.738 2183.86 482.039 Z" fill="#000000" fill-rule="nonzero" fill-opacity="1" /><path clip-path="url(#clip690)" d="M2195.9 473.451 L2225.57 473.451 L2225.57 477.34 L2195.9 477.34 L2195.9 473.451 M2195.9 482.896 L2225.57 482.896 L2225.57 486.831 L2195.9 486.831 L2195.9 482.896 Z" fill="#000000" fill-rule="nonzero" fill-opacity="1" /><path clip-path="url(#clip690)" d="M2235.71 460.419 L2254.07 460.419 L2254.07 464.354 L2239.99 464.354 L2239.99 472.826 Q2241.01 472.479 2242.03 472.317 Q2243.05 472.132 2244.07 472.132 Q2249.85 472.132 2253.23 475.303 Q2256.61 478.474 2256.61 483.891 Q2256.61 489.47 2253.14 492.572 Q2249.67 495.65 2243.35 495.65 Q2241.17 495.65 2238.9 495.28 Q2236.66 494.91 2234.25 494.169 L2234.25 489.47 Q2236.34 490.604 2238.56 491.16 Q2240.78 491.715 2243.26 491.715 Q2247.26 491.715 2249.6 489.609 Q2251.94 487.502 2251.94 483.891 Q2251.94 480.28 2249.6 478.173 Q2247.26 476.067 2243.26 476.067 Q2241.38 476.067 2239.51 476.484 Q2237.65 476.9 2235.71 477.78 L2235.71 460.419 Z" fill="#000000" fill-rule="nonzero" fill-opacity="1" /><g clip-path="url(#clip690)">
<text style="fill:#000000; fill-opacity:1; font-family:Century Gothic,CenturyGothic,AppleGothic,sans-serif; font-size:58px; text-anchor:middle;" transform="rotate(0, 283.151, 774.961)" x="283.151" y="774.961">p=0</text>
</g>
<g clip-path="url(#clip690)">
<text style="fill:#000000; fill-opacity:1; font-family:Century Gothic,CenturyGothic,AppleGothic,sans-serif; font-size:58px; text-anchor:middle;" transform="rotate(0, 484.083, 774.961)" x="484.083" y="774.961">p=1</text>
</g>
<g clip-path="url(#clip690)">
<text style="fill:#000000; fill-opacity:1; font-family:Century Gothic,CenturyGothic,AppleGothic,sans-serif; font-size:58px; text-anchor:middle;" transform="rotate(0, 785.482, 774.961)" x="785.482" y="774.961">p=2</text>
</g>
<g clip-path="url(#clip690)">
<text style="fill:#000000; fill-opacity:1; font-family:Century Gothic,CenturyGothic,AppleGothic,sans-serif; font-size:58px; text-anchor:middle;" transform="rotate(0, 1187.35, 774.961)" x="1187.35" y="774.961">p=3</text>
</g>
<g clip-path="url(#clip690)">
<text style="fill:#000000; fill-opacity:1; font-family:Century Gothic,CenturyGothic,AppleGothic,sans-serif; font-size:58px; text-anchor:middle;" transform="rotate(0, 1689.68, 774.961)" x="1689.68" y="774.961">p=4</text>
</g>
<g clip-path="url(#clip690)">
<text style="fill:#000000; fill-opacity:1; font-family:Century Gothic,CenturyGothic,AppleGothic,sans-serif; font-size:58px; text-anchor:middle;" transform="rotate(0, 2292.48, 774.961)" x="2292.48" y="774.961">p=5</text>
</g>
</svg>
